#VRML V2.0 utf8
#kicad StepUp wrl exported

Shape {
    appearance Appearance {material DEF PIN-01 Material {
        ambientIntensity 0.271
        diffuseColor 0.824 0.820 0.781
        specularColor 0.328 0.258 0.172
        emissiveColor 0.0 0.0 0.0
        shininess 0.70
        transparency 0.0
        }
    }
}
Shape {
    appearance Appearance {material DEF MET-01 Material {
        ambientIntensity 0.249999
        diffuseColor 0.298 0.298 0.298
        specularColor 0.398 0.398 0.398
        emissiveColor 0.0 0.0 0.0
        shininess 0.056122
        transparency 0.0
        }
    }
}
Shape {
    appearance Appearance {material DEF PIN-02 Material {
        ambientIntensity 0.379
        diffuseColor 0.859 0.738 0.496
        specularColor 0.137 0.145 0.184
        emissiveColor 0.0 0.0 0.0
        shininess 0.40
        transparency 0.0
        }
    }
}
Shape {
    appearance Appearance {material DEF IC-BODY-EPOXY-04 Material {
        ambientIntensity 0.293
        diffuseColor 0.148 0.145 0.145
        specularColor 0.180 0.168 0.160
        emissiveColor 0.0 0.0 0.0
        shininess 0.35
        transparency 0.0
        }
    }
}
Shape {
    appearance Appearance {material DEF RES-SMD-01 Material {
        diffuseColor 0.082 0.086 0.094
        emissiveColor 0.000 0.000 0.000
        specularColor 0.066 0.063 0.063
        ambientIntensity 0.638
        transparency 0.0
        shininess 0.3
        }
    }
}
Shape {
    appearance Appearance {material DEF IC-BODY-EPOXY-01 Material {
        ambientIntensity 0.117
        diffuseColor 0.250 0.262 0.281
        specularColor 0.316 0.281 0.176
        emissiveColor 0.0 0.0 0.0
        shininess 0.25
        transparency 0.0
        }
    }
}
Shape {
    appearance Appearance {material DEF CAP-CERAMIC-05 Material {
        ambientIntensity 0.179
        diffuseColor 0.273 0.273 0.273
        specularColor 0.203 0.188 0.176
        emissiveColor 0.0 0.0 0.0
        shininess 0.15
        transparency 0.0
        }
    }
}
Shape {
    appearance Appearance {material DEF CAP-CERAMIC-06 Material {
        ambientIntensity 0.453
        diffuseColor 0.379 0.270 0.215
        specularColor 0.223 0.223 0.223
        emissiveColor 0.0 0.0 0.0
        shininess 0.15
        transparency 0.0
        }
    }
}
Shape {
    appearance Appearance {material DEF RES-THT-01 Material {
        ambientIntensity 0.149
        diffuseColor 0.883 0.711 0.492
        specularColor 0.043 0.121 0.281
        emissiveColor 0.0 0.0 0.0
        shininess 0.40
        transparency 0.0
        }
    }
}
Shape {
    appearance Appearance {material DEF PLASTIC-BLUE-01 Material {
        ambientIntensity 0.565
        diffuseColor 0.137 0.402 0.727
        specularColor 0.359 0.379 0.270
        emissiveColor 0.0 0.0 0.0
        shininess 0.25
        transparency 0.0
        }
    }
}
Shape {
    appearance Appearance {material DEF PLASTIC-GREEN-01 Material {
        ambientIntensity 0.315
        diffuseColor 0.340 0.680 0.445
        specularColor 0.176 0.105 0.195
        emissiveColor 0.0 0.0 0.0
        shininess 0.25
        transparency 0.0
        }
    }
}
Shape {
    appearance Appearance {material DEF PLASTIC-ORANGE-01 Material {
        ambientIntensity 0.284
        diffuseColor 0.809 0.426 0.148
        specularColor 0.039 0.102 0.145
        emissiveColor 0.0 0.0 0.0
        shininess 0.25
        transparency 0.0
        }
    }
}
Shape {
    appearance Appearance {material DEF RED-BODY Material {
        ambientIntensity 0.683
        diffuseColor 0.700 0.100 0.050
        emissiveColor 0.000 0.000 0.000
        specularColor 0.300 0.400 0.150
        shininess 0.25
        transparency 0.0
        }
    }
}
Shape {
    appearance Appearance {material DEF CAP-CERAMIC-02 Material {
        ambientIntensity 0.683
        diffuseColor 0.578 0.336 0.352
        specularColor 0.105 0.273 0.270
        emissiveColor 0.0 0.0 0.0
        shininess 0.25
        transparency 0.0
        }
    }
}
Shape {
    appearance Appearance {material DEF PLASTIC-YELLOW-01 Material {
        ambientIntensity 0.522
        diffuseColor 0.832 0.680 0.066
        specularColor 0.160 0.203 0.320
        emissiveColor 0.0 0.0 0.0
        shininess 0.25
        transparency 0.0
        }
    }
}
Shape {
    appearance Appearance {material DEF PLASTIC-WHITE-01 Material {
        ambientIntensity 0.494
        diffuseColor 0.895 0.891 0.813
        specularColor 0.047 0.055 0.109
        emissiveColor 0.0 0.0 0.0
        shininess 0.25
        transparency 0.0
        }
    }
}
Shape {
    appearance Appearance {material DEF IC-LABEL-01 Material {
        ambientIntensity 0.082
        diffuseColor 0.691 0.664 0.598
        specularColor 0.000 0.000 0.000
        emissiveColor 0.0 0.0 0.0
        shininess 0.01
        transparency 0.0
        }
    }
}
Shape {
    appearance Appearance {material DEF LED-RED Material {
        ambientIntensity 0.789
        diffuseColor 0.700 0.100 0.050
        emissiveColor 0.000 0.000 0.000
        specularColor 0.300 0.400 0.150
        shininess 0.125
        transparency 0.10
        }
    }
}
Shape {
    appearance Appearance {material DEF LED-GREEN Material {
        ambientIntensity 0.789
        diffuseColor 0.400 0.700 0.150
        emissiveColor 0.000 0.000 0.000
        specularColor 0.600 0.300 0.100
        shininess 0.05
        transparency 0.10
        }
    }
}
Shape {
    appearance Appearance {material DEF LED-BLUE Material {
        ambientIntensity 0.789
        diffuseColor 0.100 0.250 0.700
        emissiveColor 0.000 0.000 0.000
        specularColor 0.500 0.600 0.300
        shininess 0.125
        transparency 0.10
        }
    }
}
Shape {
    appearance Appearance {material DEF LED-YELLOW Material {
        ambientIntensity 0.522
        diffuseColor 0.98 0.840 0.066
        specularColor 0.160 0.203 0.320
        emissiveColor 0.0 0.0 0.0
        shininess 0.125
        transparency 0.10
        }
    }
}
Shape {
    appearance Appearance {material DEF LED-WHITE Material {
        ambientIntensity 0.494
        diffuseColor 0.895 0.891 0.813
        specularColor 0.047 0.055 0.109
        emissiveColor 0.0 0.0 0.0
        shininess 0.125
        transparency 0.10
        }
    }
}
Shape {
    appearance Appearance {material DEF LED-GREY Material {
        ambientIntensity 0.494
        diffuseColor 0.27 0.25 0.27
        specularColor 0.5 0.5 0.6
        emissiveColor 0.0 0.0 0.0
        shininess 0.35
        transparency 0.10
        }
    }
}
Shape {
    appearance Appearance {material DEF LED-BLACK Material {
        ambientIntensity 0.494
        diffuseColor 0.1 0.05 0.1
        specularColor 0.6 0.5 0.6
        emissiveColor 0.0 0.0 0.0
        shininess 0.5
        transparency 0.0
        }
    }
}
Shape {
    appearance Appearance {material DEF GLASS-19 Material {
        ambientIntensity 2.018212
        diffuseColor 0.400769 0.441922 0.459091
        specularColor 0.573887 0.649271 0.810811
        emissiveColor 0.000000 0.000000 0.000000
        shininess 0.127273
        transparency 0.37
        }
    }
}
Shape {
    appearance Appearance {material DEF GLASS-29 Material {
        ambientIntensity 0.234375
        diffuseColor 0.566681 0.580872 0.580874
        specularColor 0.617761 0.429816 0.400140
        emissiveColor 0.000000 0.000000 0.000000
        shininess 0.072727
        transparency 0.38
        }
    }
}
Shape {
    appearance Appearance {material DEF GLASS-13 Material {
        ambientIntensity 0.250000
        diffuseColor 0.000000 0.631244 0.748016
        specularColor 0.915152 0.915152 0.915152
        emissiveColor 0.000000 0.000000 0.000000
        shininess 0.642424
        transparency 0.39
        }
    }
}
Shape {
    appearance Appearance {material DEF GLASS-GREEN Material {
        ambientIntensity 0.250000
        diffuseColor 0.000000 0.75 0.44
        specularColor 0.915152 0.915152 0.915152
        emissiveColor 0.000000 0.000000 0.000000
        shininess 0.642424
        transparency 0.39
        }
    }
}
Shape {
    appearance Appearance {material DEF GLASS-ORANGE Material {
        ambientIntensity 0.250000
        diffuseColor 0.75 0.44 0.000000
        specularColor 0.915152 0.915152 0.915152
        emissiveColor 0.000000 0.000000 0.000000
        shininess 0.642424
        transparency 0.39
        }
    }
}
Shape {
    appearance Appearance {material DEF BOARD-GREEN-02 Material {
        ambientIntensity 1
        diffuseColor 0.07 0.3 0.12
        specularColor 0.07 0.3 0.12
        emissiveColor 0.0 0.0 0.0
        shininess 0.40
        transparency 0.0
        }
    }
}
Shape {
    appearance Appearance {material DEF BOARD-BLUE-01 Material {
        ambientIntensity 1
        diffuseColor 0.07 0.12 0.3
        specularColor 0.07 0.12 0.3
        emissiveColor 0.0 0.0 0.0
        shininess 0.40
        transparency 0.0
        }
    }
}
Shape {
    appearance Appearance {material DEF BOARD-BLACK-03 Material {
        ambientIntensity 1
        diffuseColor 0.16 0.16 0.16
        specularColor 0.16 0.16 0.16
        emissiveColor 0.0 0.0 0.0
        shininess 0.40
        transparency 0.0
        }
    }
}
Shape {
    appearance Appearance {material DEF MET-ALUMINUM Material {
        ambientIntensity 0.256000
        diffuseColor 0.372322 0.371574 0.373173
        specularColor 0.556122 0.554201 0.556122
        emissiveColor 0.0 0.0 0.0
        shininess 0.127551
        transparency 0.0
        }
    }
}
Shape {
    appearance Appearance {material DEF MET-BRONZE Material {
        ambientIntensity 0.022727
        diffuseColor 0.714 0.4284 0.18144
        specularColor 0.393548 0.271906 0.166721
        emissiveColor 0.000000 0.000000 0.000000
        shininess 0.2
        transparency 0.0
        }
    }
}
Shape {
    appearance Appearance {material DEF MET-SILVER Material {
        ambientIntensity 0.022727
        diffuseColor 0.50754 0.50754 0.50754
        specularColor 0.508273 0.508273 0.508273
        emissiveColor 0.000000 0.000000 0.000000
        shininess 0.4
        transparency 0.0
        }
    }
}
Shape {
    appearance Appearance {material DEF MET-COPPER Material {
        ambientIntensity 0.022727
        diffuseColor 0.7038 0.27048 0.0828
        specularColor 0.780612 0.37 0.000000
        emissiveColor 0.000000 0.000000 0.000000
        shininess 0.2
        transparency 0.0
        }
    }
}
Shape { geometry IndexedFaceSet 
{ creaseAngle 0.50 coordIndex [0,1,2,-1,3,1,0,-1]
coord Coordinate { point [-1.08268 1.10236 -1.28346,-1.08268 1.02362 0.15748,-1.08268 1.10236 0.15748,-1.08268 1.02362 -1.28346]
}}
appearance Appearance{material Material{diffuseColor 0.8 0.8 0.8
transparency 0}}}
Shape { geometry IndexedFaceSet 
{ creaseAngle 0.50 coordIndex [0,1,2,-1,3,1,0,-1,4,5,3,-1,6,5,4,-1,7,5,6,-1,3,5,1,-1,8,9,5,-1,10,9,11,-1,11,9,12,-1,12,9,13,-1,13,9,14,-1,14,9,15,-1,15,9,8,-1,5,9,1,-1,1,16,17,-1,9,16,1,-1]
coord Coordinate { point [-1.07332 1.02362 -1.32446,-1.08268 1.02362 -1.28346,-1.08031 1.02362 -1.30449,-1.06206 1.02362 -1.34237,-1.0471 1.02362 -1.35734,-0.988187 1.02362 -1.37795,-1.02918 1.02362 -1.36859,-1.00921 1.02362 -1.37558,-0.980313 1.02362 -1.37795,-0.885825 1.02362 -1.28346,-0.888194 1.02362 -1.30449,-0.895182 1.02362 -1.32446,-0.906439 1.02362 -1.34237,-0.921401 1.02362 -1.35734,-0.939316 1.02362 -1.36859,-0.959287 1.02362 -1.37558,-0.885825 1.02362 0.15748,-1.08268 1.02362 0.15748]
}}
appearance Appearance{material Material{diffuseColor 0.8 0.8 0.8
transparency 0}}}
Shape { geometry IndexedFaceSet 
{ creaseAngle 0.50 coordIndex [0,1,2,-1,3,4,5,-1,0,4,1,-1,6,7,8,-1,5,4,0,-1,1,9,2,-1,10,11,6,-1,2,9,12,-1,12,9,13,-1,6,11,7,-1,13,9,14,-1,15,4,16,-1,16,4,3,-1,7,17,8,-1,17,18,8,-1,19,20,17,-1,17,20,18,-1,18,21,8,-1,22,23,21,-1,21,23,8,-1,20,24,25,-1,19,24,20,-1,25,26,21,-1,24,26,25,-1,21,26,22,-1,27,28,10,-1,10,28,11,-1,22,29,23,-1,27,30,28,-1,29,31,23,-1,30,32,28,-1,29,33,31,-1,11,34,19,-1,28,34,11,-1,33,14,31,-1,30,15,32,-1,15,35,32,-1,19,36,24,-1,34,36,19,-1,26,13,33,-1,24,13,26,-1,33,13,14,-1,34,37,36,-1,34,16,37,-1,35,16,34,-1,15,16,35,-1,37,38,36,-1,38,39,36,-1,36,39,12,-1,3,5,38,-1,38,5,39,-1,39,2,12,-1]
coord Coordinate { point [1.08268 1.10236 0.15748,1.47637 1.47637 0.15748,1.08268 1.02362 0.15748,0.098425 1.10236 0.15748,1.47637 1.67322 0.15748,0.885825 1.10236 0.15748,-1.47637 -1.47637 0.15748,-1.08268 -1.10236 0.15748,-1.47637 -1.67322 0.15748,1.67322 1.47637 0.15748,-1.67322 -1.47637 0.15748,-1.08268 -1.02362 0.15748,0.82677 0.31496 0.15748,0.82677 -0.31496 0.15748,1.67322 -1.47637 0.15748,-1.47637 1.67322 0.15748,-0.098425 1.10236 0.15748,-0.885825 -1.10236 0.15748,-0.098425 -1.10236 0.15748,-0.885825 -1.02362 0.15748,-0.098425 -1.02362 0.15748,0.098425 -1.10236 0.15748,0.885825 -1.10236 0.15748,1.47637 -1.67322 0.15748,0.15748 -0.31496 0.15748,0.098425 -1.02362 0.15748,0.885825 -1.02362 0.15748,-1.67322 1.47637 0.15748,-1.08268 1.02362 0.15748,1.08268 -1.10236 0.15748,-1.47637 1.47637 0.15748,1.47637 -1.47637 0.15748,-1.08268 1.10236 0.15748,1.08268 -1.02362 0.15748,-0.885825 1.02362 0.15748,-0.885825 1.10236 0.15748,0.15748 0.31496 0.15748,-0.098425 1.02362 0.15748,0.098425 1.02362 0.15748,0.885825 1.02362 0.15748]
}}
appearance Appearance{material Material{diffuseColor 0 0 0
transparency 0}}}
Shape { geometry IndexedFaceSet 
{ creaseAngle 0.50 coordIndex [0,1,2,-1,0,3,1,-1,4,5,3,-1,4,6,5,-1,4,7,6,-1,4,3,0,-1,8,9,4,-1,8,10,11,-1,8,11,12,-1,8,12,13,-1,8,13,14,-1,8,14,15,-1,8,15,9,-1,8,4,0,-1,16,0,17,-1,16,8,0,-1]
coord Coordinate { point [-1.08268 1.10236 -1.28346,-1.07332 1.10236 -1.32446,-1.08031 1.10236 -1.30449,-1.06206 1.10236 -1.34237,-0.988187 1.10236 -1.37795,-1.0471 1.10236 -1.35734,-1.02918 1.10236 -1.36859,-1.00921 1.10236 -1.37558,-0.885825 1.10236 -1.28346,-0.980313 1.10236 -1.37795,-0.888194 1.10236 -1.30449,-0.895182 1.10236 -1.32446,-0.906439 1.10236 -1.34237,-0.921401 1.10236 -1.35734,-0.939316 1.10236 -1.36859,-0.959287 1.10236 -1.37558,-0.885825 1.10236 0.15748,-1.08268 1.10236 0.15748]
}}
appearance Appearance{material Material{diffuseColor 0.8 0.8 0.8
transparency 0}}}
Shape { geometry IndexedFaceSet 
{ creaseAngle 0.50 coordIndex [0,1,2,-1,3,1,0,-1,2,4,5,-1,1,4,2,-1,5,6,7,-1,4,6,5,-1,7,8,9,-1,6,8,7,-1,9,10,11,-1,8,10,9,-1,11,12,13,-1,10,12,11,-1,13,14,15,-1,12,14,13,-1]
coord Coordinate { point [-1.08268 1.02362 -1.28346,-1.08031 1.10236 -1.30449,-1.08031 1.02362 -1.30449,-1.08268 1.10236 -1.28346,-1.07332 1.10236 -1.32446,-1.07332 1.02362 -1.32446,-1.06206 1.10236 -1.34237,-1.06206 1.02362 -1.34237,-1.0471 1.10236 -1.35734,-1.0471 1.02362 -1.35734,-1.02918 1.10236 -1.36859,-1.02918 1.02362 -1.36859,-1.00921 1.10236 -1.37558,-1.00921 1.02362 -1.37558,-0.988187 1.10236 -1.37795,-0.988187 1.02362 -1.37795]
}}
appearance Appearance{material Material{diffuseColor 0.8 0.8 0.8
transparency 0}}}
Shape { geometry IndexedFaceSet 
{ creaseAngle 0.50 coordIndex [0,1,2,-1,2,1,3,-1]
coord Coordinate { point [-0.988187 1.10236 -1.37795,-0.980313 1.10236 -1.37795,-0.988187 1.02362 -1.37795,-0.980313 1.02362 -1.37795]
}}
appearance Appearance{material Material{diffuseColor 0.8 0.8 0.8
transparency 0}}}
Shape { geometry IndexedFaceSet 
{ creaseAngle 0.50 coordIndex [0,1,2,-1,0,3,1,-1,4,2,5,-1,4,0,2,-1,6,5,7,-1,6,4,5,-1,8,7,9,-1,8,6,7,-1,10,9,11,-1,10,8,9,-1,12,11,13,-1,12,10,11,-1,14,13,15,-1,14,12,13,-1]
coord Coordinate { point [-0.888194 1.10236 -1.30449,-0.885825 1.02362 -1.28346,-0.888194 1.02362 -1.30449,-0.885825 1.10236 -1.28346,-0.895182 1.10236 -1.32446,-0.895182 1.02362 -1.32446,-0.906439 1.10236 -1.34237,-0.906439 1.02362 -1.34237,-0.921401 1.10236 -1.35734,-0.921401 1.02362 -1.35734,-0.939316 1.10236 -1.36859,-0.939316 1.02362 -1.36859,-0.959287 1.10236 -1.37558,-0.959287 1.02362 -1.37558,-0.980313 1.10236 -1.37795,-0.980313 1.02362 -1.37795]
}}
appearance Appearance{material Material{diffuseColor 0.8 0.8 0.8
transparency 0}}}
Shape { geometry IndexedFaceSet 
{ creaseAngle 0.50 coordIndex [0,1,2,-1,0,3,1,-1]
coord Coordinate { point [-0.885825 1.02362 0.15748,-0.885825 1.10236 -1.28346,-0.885825 1.10236 0.15748,-0.885825 1.02362 -1.28346]
}}
appearance Appearance{material Material{diffuseColor 0.8 0.8 0.8
transparency 0}}}
Shape { geometry IndexedFaceSet 
{ creaseAngle 0.50 coordIndex [0,1,2,-1,3,0,2,-1,4,0,3,-1,5,0,4,-1,6,4,3,-1,7,1,0,-1,8,9,10,-1,8,11,9,-1,12,8,13,-1,14,12,15,-1,14,11,8,-1,14,8,12,-1,4,12,13,-1,4,13,5,-1]
coord Coordinate { point [-1.67322 1.25984 0.82677,-1.67322 0.62992 1.65354,-1.67322 1.67322 1.65354,-1.67322 1.67322 0,-1.67322 1.47637 0.15748,-1.67322 1.25984 0.23622,-1.67322 1.47637 0,-1.67322 0.62992 0.82677,-1.67322 -1.25984 0.82677,-1.67322 -0.62992 1.65354,-1.67322 -0.62992 0.82677,-1.67322 -1.67322 1.65354,-1.67322 -1.47637 0.15748,-1.67322 -1.25984 0.23622,-1.67322 -1.67322 0,-1.67322 -1.47637 0]
}}
appearance Appearance{material Material{diffuseColor 0 0 0
transparency 0}}}
Shape { geometry IndexedFaceSet 
{ creaseAngle 0.50 coordIndex [0,1,2,-1,0,2,3,-1]
coord Coordinate { point [-1.47637 -1.47637 0.15748,-1.47637 -1.47637 0,-1.67322 -1.47637 0,-1.67322 -1.47637 0.15748]
}}
appearance Appearance{material Material{diffuseColor 0 0 0
transparency 0}}}
Shape { geometry IndexedFaceSet 
{ creaseAngle 0.50 coordIndex [0,1,2,-1,2,1,3,-1]
coord Coordinate { point [-1.47637 1.47637 0,-1.47637 1.47637 0.15748,-1.67322 1.47637 0,-1.67322 1.47637 0.15748]
}}
appearance Appearance{material Material{diffuseColor 0 0 0
transparency 0}}}
Shape { geometry IndexedFaceSet 
{ creaseAngle 0.50 coordIndex [0,1,2,-1,0,3,1,-1]
coord Coordinate { point [-1.47637 -1.67322 0.15748,-1.47637 -1.47637 0,-1.47637 -1.47637 0.15748,-1.47637 -1.67322 0]
}}
appearance Appearance{material Material{diffuseColor 0 0 0
transparency 0}}}
Shape { geometry IndexedFaceSet 
{ creaseAngle 0.50 coordIndex [0,1,2,-1,0,3,1,-1]
coord Coordinate { point [-1.47637 1.47637 0.15748,-1.47637 1.67322 0,-1.47637 1.67322 0.15748,-1.47637 1.47637 0]
}}
appearance Appearance{material Material{diffuseColor 0 0 0
transparency 0}}}
Shape { geometry IndexedFaceSet 
{ creaseAngle 0.50 coordIndex [0,1,2,-1,3,0,2,-1,4,5,1,-1,4,1,0,-1,6,4,7,-1,6,5,4,-1]
coord Coordinate { point [-1.47637 -1.67322 0.15748,-1.67322 -1.67322 1.65354,-1.67322 -1.67322 0,-1.47637 -1.67322 0,1.47637 -1.67322 0.15748,1.67322 -1.67322 1.65354,1.67322 -1.67322 0,1.47637 -1.67322 0]
}}
appearance Appearance{material Material{diffuseColor 0 0 0
transparency 0}}}
Shape { geometry IndexedFaceSet 
{ creaseAngle 0.50 coordIndex [0,1,2,-1,3,0,2,-1,4,5,6,-1,7,6,0,-1,7,0,3,-1,7,4,6,-1]
coord Coordinate { point [-1.47637 1.67322 0.15748,-1.47637 1.67322 0,-1.67322 1.67322 0,-1.67322 1.67322 1.65354,1.67322 1.67322 0,1.47637 1.67322 0,1.47637 1.67322 0.15748,1.67322 1.67322 1.65354]
}}
appearance Appearance{material Material{diffuseColor 0 0 0
transparency 0}}}
Shape { geometry IndexedFaceSet 
{ creaseAngle 0.50 coordIndex [0,1,2,-1,3,1,0,-1]
coord Coordinate { point [1.47637 -1.47637 0,1.47637 -1.67322 0.15748,1.47637 -1.47637 0.15748,1.47637 -1.67322 0]
}}
appearance Appearance{material Material{diffuseColor 0 0 0
transparency 0}}}
Shape { geometry IndexedFaceSet 
{ creaseAngle 0.50 coordIndex [0,1,2,-1,3,1,0,-1]
coord Coordinate { point [1.47637 1.67322 0,1.47637 1.47637 0.15748,1.47637 1.67322 0.15748,1.47637 1.47637 0]
}}
appearance Appearance{material Material{diffuseColor 0 0 0
transparency 0}}}
Shape { geometry IndexedFaceSet 
{ creaseAngle 0.50 coordIndex [0,1,2,-1,0,2,3,-1]
coord Coordinate { point [1.67322 -1.47637 0.15748,1.67322 -1.47637 0,1.47637 -1.47637 0,1.47637 -1.47637 0.15748]
}}
appearance Appearance{material Material{diffuseColor 0 0 0
transparency 0}}}
Shape { geometry IndexedFaceSet 
{ creaseAngle 0.50 coordIndex [0,1,2,-1,2,1,3,-1]
coord Coordinate { point [1.67322 1.47637 0,1.67322 1.47637 0.15748,1.47637 1.47637 0,1.47637 1.47637 0.15748]
}}
appearance Appearance{material Material{diffuseColor 0 0 0
transparency 0}}}
Shape { geometry IndexedFaceSet 
{ creaseAngle 0.50 coordIndex [0,1,2,-1,3,0,2,-1,3,4,0,-1,5,3,2,-1,6,7,3,-1,6,3,5,-1,8,9,10,-1,11,8,10,-1,11,10,12,-1,13,11,14,-1,15,8,11,-1,15,11,13,-1,10,0,4,-1,10,4,12,-1]
coord Coordinate { point [1.67322 1.47637 0.15748,1.67322 1.47637 0,1.67322 1.67322 0,1.67322 1.25984 0.82677,1.67322 1.25984 0.23622,1.67322 1.67322 1.65354,1.67322 0.62992 1.65354,1.67322 0.62992 0.82677,1.67322 -1.67322 0,1.67322 -1.47637 0,1.67322 -1.47637 0.15748,1.67322 -1.25984 0.82677,1.67322 -1.25984 0.23622,1.67322 -0.62992 1.65354,1.67322 -0.62992 0.82677,1.67322 -1.67322 1.65354]
}}
appearance Appearance{material Material{diffuseColor 0 0 0
transparency 0}}}
Shape { geometry IndexedFaceSet 
{ creaseAngle 0.50 coordIndex [0,1,2,-1,3,1,0,-1]
coord Coordinate { point [-0.098425 1.10236 -1.28346,-0.098425 1.02362 0.15748,-0.098425 1.10236 0.15748,-0.098425 1.02362 -1.28346]
}}
appearance Appearance{material Material{diffuseColor 0.8 0.8 0.8
transparency 0}}}
Shape { geometry IndexedFaceSet 
{ creaseAngle 0.50 coordIndex [0,1,2,-1,3,1,0,-1,4,1,3,-1,5,1,4,-1,6,1,5,-1,7,1,6,-1,8,9,1,-1,10,9,11,-1,11,9,12,-1,12,9,13,-1,13,9,14,-1,14,9,15,-1,15,9,8,-1,1,9,2,-1,2,16,17,-1,9,16,2,-1]
coord Coordinate { point [-0.096056 1.02362 -1.30449,-0.003937 1.02362 -1.37795,-0.098425 1.02362 -1.28346,-0.0890677 1.02362 -1.32446,-0.0778107 1.02362 -1.34237,-0.0628493 1.02362 -1.35734,-0.0449338 1.02362 -1.36859,-0.0249626 1.02362 -1.37558,0.003937 1.02362 -1.37795,0.098425 1.02362 -1.28346,0.096056 1.02362 -1.30449,0.0890677 1.02362 -1.32446,0.0778107 1.02362 -1.34237,0.0628493 1.02362 -1.35734,0.0449338 1.02362 -1.36859,0.0249626 1.02362 -1.37558,0.098425 1.02362 0.15748,-0.098425 1.02362 0.15748]
}}
appearance Appearance{material Material{diffuseColor 0.8 0.8 0.8
transparency 0}}}
Shape { geometry IndexedFaceSet 
{ creaseAngle 0.50 coordIndex [0,1,2,-1,0,3,1,-1]
coord Coordinate { point [0.098425 1.02362 0.15748,0.098425 1.10236 -1.28346,0.098425 1.10236 0.15748,0.098425 1.02362 -1.28346]
}}
appearance Appearance{material Material{diffuseColor 0.8 0.8 0.8
transparency 0}}}
Shape { geometry IndexedFaceSet 
{ creaseAngle 0.50 coordIndex [0,1,2,-1,0,3,1,-1,0,4,3,-1,0,5,4,-1,0,6,5,-1,0,7,6,-1,8,9,0,-1,8,10,11,-1,8,11,12,-1,8,12,13,-1,8,13,14,-1,8,14,15,-1,8,15,9,-1,8,0,2,-1,16,2,17,-1,16,8,2,-1]
coord Coordinate { point [-0.003937 1.10236 -1.37795,-0.096056 1.10236 -1.30449,-0.098425 1.10236 -1.28346,-0.0890677 1.10236 -1.32446,-0.0778107 1.10236 -1.34237,-0.0628493 1.10236 -1.35734,-0.0449338 1.10236 -1.36859,-0.0249626 1.10236 -1.37558,0.098425 1.10236 -1.28346,0.003937 1.10236 -1.37795,0.096056 1.10236 -1.30449,0.0890677 1.10236 -1.32446,0.0778107 1.10236 -1.34237,0.0628493 1.10236 -1.35734,0.0449338 1.10236 -1.36859,0.0249626 1.10236 -1.37558,0.098425 1.10236 0.15748,-0.098425 1.10236 0.15748]
}}
appearance Appearance{material Material{diffuseColor 0.8 0.8 0.8
transparency 0}}}
Shape { geometry IndexedFaceSet 
{ creaseAngle 0.50 coordIndex [0,1,2,-1,0,3,1,-1]
coord Coordinate { point [0.15748 -0.31496 0.94488,0.15748 0.31496 0.15748,0.15748 0.31496 0.94488,0.15748 -0.31496 0.15748]
}}
appearance Appearance{material Material{diffuseColor 0 0 0
transparency 0}}}
Shape { geometry IndexedFaceSet 
{ creaseAngle 0.50 coordIndex [0,1,2,-1,2,1,3,-1]
coord Coordinate { point [0.82677 0.31496 0.15748,0.82677 0.31496 0.94488,0.15748 0.31496 0.15748,0.15748 0.31496 0.94488]
}}
appearance Appearance{material Material{diffuseColor 0 0 0
transparency 0}}}
Shape { geometry IndexedFaceSet 
{ creaseAngle 0.50 coordIndex [0,1,2,-1,0,2,3,-1]
coord Coordinate { point [0.82677 -0.31496 0.94488,0.82677 -0.31496 0.15748,0.15748 -0.31496 0.15748,0.15748 -0.31496 0.94488]
}}
appearance Appearance{material Material{diffuseColor 0 0 0
transparency 0}}}
Shape { geometry IndexedFaceSet 
{ creaseAngle 0.50 coordIndex [0,1,2,-1,3,1,0,-1]
coord Coordinate { point [0.82677 0.31496 0.15748,0.82677 -0.31496 0.94488,0.82677 0.31496 0.94488,0.82677 -0.31496 0.15748]
}}
appearance Appearance{material Material{diffuseColor 0 0 0
transparency 0}}}
Shape { geometry IndexedFaceSet 
{ creaseAngle 0.50 coordIndex [0,1,2,-1,3,1,0,-1]
coord Coordinate { point [-1.08268 -1.02362 -1.28346,-1.08268 -1.10236 0.15748,-1.08268 -1.02362 0.15748,-1.08268 -1.10236 -1.28346]
}}
appearance Appearance{material Material{diffuseColor 0.8 0.8 0.8
transparency 0}}}
Shape { geometry IndexedFaceSet 
{ creaseAngle 0.50 coordIndex [0,1,2,-1,3,1,0,-1,4,5,3,-1,6,5,4,-1,7,5,6,-1,3,5,1,-1,8,9,5,-1,10,9,11,-1,11,9,12,-1,12,9,13,-1,13,9,14,-1,14,9,15,-1,15,9,8,-1,5,9,1,-1,1,16,17,-1,9,16,1,-1]
coord Coordinate { point [-1.07332 -1.10236 -1.32446,-1.08268 -1.10236 -1.28346,-1.08031 -1.10236 -1.30449,-1.06206 -1.10236 -1.34237,-1.0471 -1.10236 -1.35734,-0.988187 -1.10236 -1.37795,-1.02918 -1.10236 -1.36859,-1.00921 -1.10236 -1.37558,-0.980313 -1.10236 -1.37795,-0.885825 -1.10236 -1.28346,-0.888194 -1.10236 -1.30449,-0.895182 -1.10236 -1.32446,-0.906439 -1.10236 -1.34237,-0.921401 -1.10236 -1.35734,-0.939316 -1.10236 -1.36859,-0.959287 -1.10236 -1.37558,-0.885825 -1.10236 0.15748,-1.08268 -1.10236 0.15748]
}}
appearance Appearance{material Material{diffuseColor 0.8 0.8 0.8
transparency 0}}}
Shape { geometry IndexedFaceSet 
{ creaseAngle 0.50 coordIndex [0,1,2,-1,0,3,1,-1]
coord Coordinate { point [-0.885825 -1.10236 0.15748,-0.885825 -1.02362 -1.28346,-0.885825 -1.02362 0.15748,-0.885825 -1.10236 -1.28346]
}}
appearance Appearance{material Material{diffuseColor 0.8 0.8 0.8
transparency 0}}}
Shape { geometry IndexedFaceSet 
{ creaseAngle 0.50 coordIndex [0,1,2,-1,0,3,1,-1,4,5,3,-1,4,6,5,-1,4,7,6,-1,4,3,0,-1,8,9,4,-1,8,10,11,-1,8,11,12,-1,8,12,13,-1,8,13,14,-1,8,14,15,-1,8,15,9,-1,8,4,0,-1,16,0,17,-1,16,8,0,-1]
coord Coordinate { point [-1.08268 -1.02362 -1.28346,-1.07332 -1.02362 -1.32446,-1.08031 -1.02362 -1.30449,-1.06206 -1.02362 -1.34237,-0.988187 -1.02362 -1.37795,-1.0471 -1.02362 -1.35734,-1.02918 -1.02362 -1.36859,-1.00921 -1.02362 -1.37558,-0.885825 -1.02362 -1.28346,-0.980313 -1.02362 -1.37795,-0.888194 -1.02362 -1.30449,-0.895182 -1.02362 -1.32446,-0.906439 -1.02362 -1.34237,-0.921401 -1.02362 -1.35734,-0.939316 -1.02362 -1.36859,-0.959287 -1.02362 -1.37558,-0.885825 -1.02362 0.15748,-1.08268 -1.02362 0.15748]
}}
appearance Appearance{material Material{diffuseColor 0.8 0.8 0.8
transparency 0}}}
Shape { geometry IndexedFaceSet 
{ creaseAngle 0.50 coordIndex [0,1,2,-1,3,1,0,-1]
coord Coordinate { point [-0.098425 -1.02362 -1.28346,-0.098425 -1.10236 0.15748,-0.098425 -1.02362 0.15748,-0.098425 -1.10236 -1.28346]
}}
appearance Appearance{material Material{diffuseColor 0.8 0.8 0.8
transparency 0}}}
Shape { geometry IndexedFaceSet 
{ creaseAngle 0.50 coordIndex [0,1,2,-1,3,1,0,-1,4,1,3,-1,5,1,4,-1,6,1,5,-1,7,1,6,-1,8,9,1,-1,10,9,11,-1,11,9,12,-1,12,9,13,-1,13,9,14,-1,14,9,15,-1,15,9,8,-1,1,9,2,-1,2,16,17,-1,9,16,2,-1]
coord Coordinate { point [-0.096056 -1.10236 -1.30449,-0.003937 -1.10236 -1.37795,-0.098425 -1.10236 -1.28346,-0.0890677 -1.10236 -1.32446,-0.0778107 -1.10236 -1.34237,-0.0628493 -1.10236 -1.35734,-0.0449338 -1.10236 -1.36859,-0.0249626 -1.10236 -1.37558,0.003937 -1.10236 -1.37795,0.098425 -1.10236 -1.28346,0.096056 -1.10236 -1.30449,0.0890677 -1.10236 -1.32446,0.0778107 -1.10236 -1.34237,0.0628493 -1.10236 -1.35734,0.0449338 -1.10236 -1.36859,0.0249626 -1.10236 -1.37558,0.098425 -1.10236 0.15748,-0.098425 -1.10236 0.15748]
}}
appearance Appearance{material Material{diffuseColor 0.8 0.8 0.8
transparency 0}}}
Shape { geometry IndexedFaceSet 
{ creaseAngle 0.50 coordIndex [0,1,2,-1,0,3,1,-1]
coord Coordinate { point [0.098425 -1.10236 0.15748,0.098425 -1.02362 -1.28346,0.098425 -1.02362 0.15748,0.098425 -1.10236 -1.28346]
}}
appearance Appearance{material Material{diffuseColor 0.8 0.8 0.8
transparency 0}}}
Shape { geometry IndexedFaceSet 
{ creaseAngle 0.50 coordIndex [0,1,2,-1,0,3,1,-1,0,4,3,-1,0,5,4,-1,0,6,5,-1,0,7,6,-1,8,9,0,-1,8,10,11,-1,8,11,12,-1,8,12,13,-1,8,13,14,-1,8,14,15,-1,8,15,9,-1,8,0,2,-1,16,2,17,-1,16,8,2,-1]
coord Coordinate { point [-0.003937 -1.02362 -1.37795,-0.096056 -1.02362 -1.30449,-0.098425 -1.02362 -1.28346,-0.0890677 -1.02362 -1.32446,-0.0778107 -1.02362 -1.34237,-0.0628493 -1.02362 -1.35734,-0.0449338 -1.02362 -1.36859,-0.0249626 -1.02362 -1.37558,0.098425 -1.02362 -1.28346,0.003937 -1.02362 -1.37795,0.096056 -1.02362 -1.30449,0.0890677 -1.02362 -1.32446,0.0778107 -1.02362 -1.34237,0.0628493 -1.02362 -1.35734,0.0449338 -1.02362 -1.36859,0.0249626 -1.02362 -1.37558,0.098425 -1.02362 0.15748,-0.098425 -1.02362 0.15748]
}}
appearance Appearance{material Material{diffuseColor 0.8 0.8 0.8
transparency 0}}}
Shape { geometry IndexedFaceSet 
{ creaseAngle 0.50 coordIndex [0,1,2,-1,3,1,0,-1]
coord Coordinate { point [0.885825 -1.02362 -1.28346,0.885825 -1.10236 0.15748,0.885825 -1.02362 0.15748,0.885825 -1.10236 -1.28346]
}}
appearance Appearance{material Material{diffuseColor 0.8 0.8 0.8
transparency 0}}}
Shape { geometry IndexedFaceSet 
{ creaseAngle 0.50 coordIndex [0,1,2,-1,3,1,0,-1,4,5,3,-1,6,5,4,-1,7,5,6,-1,3,5,1,-1,8,9,5,-1,10,9,11,-1,11,9,12,-1,12,9,13,-1,13,9,14,-1,14,9,15,-1,15,9,8,-1,5,9,1,-1,1,16,17,-1,9,16,1,-1]
coord Coordinate { point [0.895182 -1.10236 -1.32446,0.885825 -1.10236 -1.28346,0.888194 -1.10236 -1.30449,0.906439 -1.10236 -1.34237,0.921401 -1.10236 -1.35734,0.980313 -1.10236 -1.37795,0.939316 -1.10236 -1.36859,0.959287 -1.10236 -1.37558,0.988187 -1.10236 -1.37795,1.08268 -1.10236 -1.28346,1.08031 -1.10236 -1.30449,1.07332 -1.10236 -1.32446,1.06206 -1.10236 -1.34237,1.0471 -1.10236 -1.35734,1.02918 -1.10236 -1.36859,1.00921 -1.10236 -1.37558,1.08268 -1.10236 0.15748,0.885825 -1.10236 0.15748]
}}
appearance Appearance{material Material{diffuseColor 0.8 0.8 0.8
transparency 0}}}
Shape { geometry IndexedFaceSet 
{ creaseAngle 0.50 coordIndex [0,1,2,-1,0,3,1,-1]
coord Coordinate { point [1.08268 -1.10236 0.15748,1.08268 -1.02362 -1.28346,1.08268 -1.02362 0.15748,1.08268 -1.10236 -1.28346]
}}
appearance Appearance{material Material{diffuseColor 0.8 0.8 0.8
transparency 0}}}
Shape { geometry IndexedFaceSet 
{ creaseAngle 0.50 coordIndex [0,1,2,-1,0,3,1,-1,4,5,3,-1,4,6,5,-1,4,7,6,-1,4,3,0,-1,8,9,4,-1,8,10,11,-1,8,11,12,-1,8,12,13,-1,8,13,14,-1,8,14,15,-1,8,15,9,-1,8,4,0,-1,16,0,17,-1,16,8,0,-1]
coord Coordinate { point [0.885825 -1.02362 -1.28346,0.895182 -1.02362 -1.32446,0.888194 -1.02362 -1.30449,0.906439 -1.02362 -1.34237,0.980313 -1.02362 -1.37795,0.921401 -1.02362 -1.35734,0.939316 -1.02362 -1.36859,0.959287 -1.02362 -1.37558,1.08268 -1.02362 -1.28346,0.988187 -1.02362 -1.37795,1.08031 -1.02362 -1.30449,1.07332 -1.02362 -1.32446,1.06206 -1.02362 -1.34237,1.0471 -1.02362 -1.35734,1.02918 -1.02362 -1.36859,1.00921 -1.02362 -1.37558,1.08268 -1.02362 0.15748,0.885825 -1.02362 0.15748]
}}
appearance Appearance{material Material{diffuseColor 0.8 0.8 0.8
transparency 0}}}
Shape { geometry IndexedFaceSet 
{ creaseAngle 0.50 coordIndex [0,1,2,-1,3,1,0,-1]
coord Coordinate { point [0.885825 1.10236 -1.28346,0.885825 1.02362 0.15748,0.885825 1.10236 0.15748,0.885825 1.02362 -1.28346]
}}
appearance Appearance{material Material{diffuseColor 0.8 0.8 0.8
transparency 0}}}
Shape { geometry IndexedFaceSet 
{ creaseAngle 0.50 coordIndex [0,1,2,-1,3,1,0,-1,4,5,3,-1,6,5,4,-1,7,5,6,-1,3,5,1,-1,8,9,5,-1,10,9,11,-1,11,9,12,-1,12,9,13,-1,13,9,14,-1,14,9,15,-1,15,9,8,-1,5,9,1,-1,1,16,17,-1,9,16,1,-1]
coord Coordinate { point [0.895182 1.02362 -1.32446,0.885825 1.02362 -1.28346,0.888194 1.02362 -1.30449,0.906439 1.02362 -1.34237,0.921401 1.02362 -1.35734,0.980313 1.02362 -1.37795,0.939316 1.02362 -1.36859,0.959287 1.02362 -1.37558,0.988187 1.02362 -1.37795,1.08268 1.02362 -1.28346,1.08031 1.02362 -1.30449,1.07332 1.02362 -1.32446,1.06206 1.02362 -1.34237,1.0471 1.02362 -1.35734,1.02918 1.02362 -1.36859,1.00921 1.02362 -1.37558,1.08268 1.02362 0.15748,0.885825 1.02362 0.15748]
}}
appearance Appearance{material Material{diffuseColor 0.8 0.8 0.8
transparency 0}}}
Shape { geometry IndexedFaceSet 
{ creaseAngle 0.50 coordIndex [0,1,2,-1,0,3,1,-1]
coord Coordinate { point [1.08268 1.02362 0.15748,1.08268 1.10236 -1.28346,1.08268 1.10236 0.15748,1.08268 1.02362 -1.28346]
}}
appearance Appearance{material Material{diffuseColor 0.8 0.8 0.8
transparency 0}}}
Shape { geometry IndexedFaceSet 
{ creaseAngle 0.50 coordIndex [0,1,2,-1,0,3,1,-1,4,5,3,-1,4,6,5,-1,4,7,6,-1,4,3,0,-1,8,9,4,-1,8,10,11,-1,8,11,12,-1,8,12,13,-1,8,13,14,-1,8,14,15,-1,8,15,9,-1,8,4,0,-1,16,0,17,-1,16,8,0,-1]
coord Coordinate { point [0.885825 1.10236 -1.28346,0.895182 1.10236 -1.32446,0.888194 1.10236 -1.30449,0.906439 1.10236 -1.34237,0.980313 1.10236 -1.37795,0.921401 1.10236 -1.35734,0.939316 1.10236 -1.36859,0.959287 1.10236 -1.37558,1.08268 1.10236 -1.28346,0.988187 1.10236 -1.37795,1.08031 1.10236 -1.30449,1.07332 1.10236 -1.32446,1.06206 1.10236 -1.34237,1.0471 1.10236 -1.35734,1.02918 1.10236 -1.36859,1.00921 1.10236 -1.37558,1.08268 1.10236 0.15748,0.885825 1.10236 0.15748]
}}
appearance Appearance{material Material{diffuseColor 0.8 0.8 0.8
transparency 0}}}
Shape { geometry IndexedFaceSet 
{ creaseAngle 0.50 coordIndex [0,1,2,-1,2,1,3,-1]
coord Coordinate { point [-1.67322 -1.47637 0,-1.47637 -1.47637 0,-1.67322 -1.67322 0,-1.47637 -1.67322 0]
}}
appearance Appearance{material Material{diffuseColor 0 0 0
transparency 0}}}
Shape { geometry IndexedFaceSet 
{ creaseAngle 0.50 coordIndex [0,1,2,-1,2,1,3,-1]
coord Coordinate { point [-1.67322 1.67322 0,-1.47637 1.67322 0,-1.67322 1.47637 0,-1.47637 1.47637 0]
}}
appearance Appearance{material Material{diffuseColor 0 0 0
transparency 0}}}
Shape { geometry IndexedFaceSet 
{ creaseAngle 0.50 coordIndex [0,1,2,-1,3,4,5,-1,6,7,0,-1,6,2,8,-1,6,0,2,-1,9,6,8,-1,10,5,7,-1,10,3,5,-1,10,7,6,-1,11,10,12,-1,11,3,10,-1]
coord Coordinate { point [-1.55512 -0.62992 1.65354,-1.67322 -0.62992 1.65354,-1.67322 -1.67322 1.65354,-1.67322 1.67322 1.65354,-1.67322 0.62992 1.65354,-1.55512 0.62992 1.65354,1.55512 -0.62992 1.65354,-1.55512 -1.44643e-17 1.65354,1.67322 -1.67322 1.65354,1.67322 -0.62992 1.65354,1.55512 0.62992 1.65354,1.67322 1.67322 1.65354,1.67322 0.62992 1.65354]
}}
appearance Appearance{material Material{diffuseColor 0 0 0
transparency 0}}}
Shape { geometry IndexedFaceSet 
{ creaseAngle 0.50 coordIndex [0,1,2,-1,3,1,0,-1]
coord Coordinate { point [-1.67322 0.62992 0.82677,-1.55512 0.62992 1.65354,-1.67322 0.62992 1.65354,-1.55512 0.62992 0.82677]
}}
appearance Appearance{material Material{diffuseColor 0 0 0
transparency 0}}}
Shape { geometry IndexedFaceSet 
{ creaseAngle 0.50 coordIndex [0,1,2,-1,2,1,3,-1]
coord Coordinate { point [-1.67322 1.25984 0.82677,-1.55512 1.25984 0.82677,-1.67322 0.62992 0.82677,-1.55512 0.62992 0.82677]
}}
appearance Appearance{material Material{diffuseColor 0 0 0
transparency 0}}}
Shape { geometry IndexedFaceSet 
{ creaseAngle 0.50 coordIndex [0,1,2,-1,2,1,3,-1]
coord Coordinate { point [-1.55512 1.25984 0.23622,-1.55512 1.25984 0.82677,-1.67322 1.25984 0.23622,-1.67322 1.25984 0.82677]
}}
appearance Appearance{material Material{diffuseColor 0 0 0
transparency 0}}}
Shape { geometry IndexedFaceSet 
{ creaseAngle 0.50 coordIndex [0,1,2,-1,0,2,3,-1]
coord Coordinate { point [-1.55512 1.25984 0.23622,-1.67322 1.25984 0.23622,-1.67322 -1.25984 0.23622,-1.55512 -1.25984 0.23622]
}}
appearance Appearance{material Material{diffuseColor 0 0 0
transparency 0}}}
Shape { geometry IndexedFaceSet 
{ creaseAngle 0.50 coordIndex [0,1,2,-1,0,2,3,-1]
coord Coordinate { point [-1.55512 -1.25984 0.82677,-1.55512 -1.25984 0.23622,-1.67322 -1.25984 0.23622,-1.67322 -1.25984 0.82677]
}}
appearance Appearance{material Material{diffuseColor 0 0 0
transparency 0}}}
Shape { geometry IndexedFaceSet 
{ creaseAngle 0.50 coordIndex [0,1,2,-1,2,1,3,-1]
coord Coordinate { point [-1.67322 -0.62992 0.82677,-1.55512 -0.62992 0.82677,-1.67322 -1.25984 0.82677,-1.55512 -1.25984 0.82677]
}}
appearance Appearance{material Material{diffuseColor 0 0 0
transparency 0}}}
Shape { geometry IndexedFaceSet 
{ creaseAngle 0.50 coordIndex [0,1,2,-1,0,3,1,-1]
coord Coordinate { point [-1.55512 -0.62992 1.65354,-1.67322 -0.62992 0.82677,-1.67322 -0.62992 1.65354,-1.55512 -0.62992 0.82677]
}}
appearance Appearance{material Material{diffuseColor 0 0 0
transparency 0}}}
Shape { geometry IndexedFaceSet 
{ creaseAngle 0.50 coordIndex [0,1,2,-1,2,1,3,-1]
coord Coordinate { point [1.47637 -1.47637 0,1.67322 -1.47637 0,1.47637 -1.67322 0,1.67322 -1.67322 0]
}}
appearance Appearance{material Material{diffuseColor 0 0 0
transparency 0}}}
Shape { geometry IndexedFaceSet 
{ creaseAngle 0.50 coordIndex [0,1,2,-1,2,1,3,-1]
coord Coordinate { point [1.47637 1.67322 0,1.67322 1.67322 0,1.47637 1.47637 0,1.67322 1.47637 0]
}}
appearance Appearance{material Material{diffuseColor 0 0 0
transparency 0}}}
Shape { geometry IndexedFaceSet 
{ creaseAngle 0.50 coordIndex [0,1,2,-1,0,3,1,-1]
coord Coordinate { point [1.67322 -0.62992 1.65354,1.55512 -0.62992 0.82677,1.55512 -0.62992 1.65354,1.67322 -0.62992 0.82677]
}}
appearance Appearance{material Material{diffuseColor 0 0 0
transparency 0}}}
Shape { geometry IndexedFaceSet 
{ creaseAngle 0.50 coordIndex [0,1,2,-1,2,1,3,-1]
coord Coordinate { point [1.55512 -0.62992 0.82677,1.67322 -0.62992 0.82677,1.55512 -1.25984 0.82677,1.67322 -1.25984 0.82677]
}}
appearance Appearance{material Material{diffuseColor 0 0 0
transparency 0}}}
Shape { geometry IndexedFaceSet 
{ creaseAngle 0.50 coordIndex [0,1,2,-1,0,2,3,-1]
coord Coordinate { point [1.67322 -1.25984 0.82677,1.67322 -1.25984 0.23622,1.55512 -1.25984 0.23622,1.55512 -1.25984 0.82677]
}}
appearance Appearance{material Material{diffuseColor 0 0 0
transparency 0}}}
Shape { geometry IndexedFaceSet 
{ creaseAngle 0.50 coordIndex [0,1,2,-1,0,2,3,-1]
coord Coordinate { point [1.67322 1.25984 0.23622,1.55512 1.25984 0.23622,1.55512 -1.25984 0.23622,1.67322 -1.25984 0.23622]
}}
appearance Appearance{material Material{diffuseColor 0 0 0
transparency 0}}}
Shape { geometry IndexedFaceSet 
{ creaseAngle 0.50 coordIndex [0,1,2,-1,2,1,3,-1]
coord Coordinate { point [1.67322 1.25984 0.23622,1.67322 1.25984 0.82677,1.55512 1.25984 0.23622,1.55512 1.25984 0.82677]
}}
appearance Appearance{material Material{diffuseColor 0 0 0
transparency 0}}}
Shape { geometry IndexedFaceSet 
{ creaseAngle 0.50 coordIndex [0,1,2,-1,2,1,3,-1]
coord Coordinate { point [1.55512 1.25984 0.82677,1.67322 1.25984 0.82677,1.55512 0.62992 0.82677,1.67322 0.62992 0.82677]
}}
appearance Appearance{material Material{diffuseColor 0 0 0
transparency 0}}}
Shape { geometry IndexedFaceSet 
{ creaseAngle 0.50 coordIndex [0,1,2,-1,3,1,0,-1]
coord Coordinate { point [1.55512 0.62992 0.82677,1.67322 0.62992 1.65354,1.55512 0.62992 1.65354,1.67322 0.62992 0.82677]
}}
appearance Appearance{material Material{diffuseColor 0 0 0
transparency 0}}}
Shape { geometry IndexedFaceSet 
{ creaseAngle 0.50 coordIndex [0,1,2,-1,3,1,0,-1,2,4,5,-1,1,4,2,-1,5,6,7,-1,4,6,5,-1,7,8,9,-1,6,8,7,-1,9,10,11,-1,8,10,9,-1,11,12,13,-1,10,12,11,-1,13,14,15,-1,12,14,13,-1]
coord Coordinate { point [-0.098425 1.02362 -1.28346,-0.096056 1.10236 -1.30449,-0.096056 1.02362 -1.30449,-0.098425 1.10236 -1.28346,-0.0890677 1.10236 -1.32446,-0.0890677 1.02362 -1.32446,-0.0778107 1.10236 -1.34237,-0.0778107 1.02362 -1.34237,-0.0628493 1.10236 -1.35734,-0.0628493 1.02362 -1.35734,-0.0449338 1.10236 -1.36859,-0.0449338 1.02362 -1.36859,-0.0249626 1.10236 -1.37558,-0.0249626 1.02362 -1.37558,-0.003937 1.10236 -1.37795,-0.003937 1.02362 -1.37795]
}}
appearance Appearance{material Material{diffuseColor 0.8 0.8 0.8
transparency 0}}}
Shape { geometry IndexedFaceSet 
{ creaseAngle 0.50 coordIndex [0,1,2,-1,2,1,3,-1]
coord Coordinate { point [-0.003937 1.10236 -1.37795,0.003937 1.10236 -1.37795,-0.003937 1.02362 -1.37795,0.003937 1.02362 -1.37795]
}}
appearance Appearance{material Material{diffuseColor 0.8 0.8 0.8
transparency 0}}}
Shape { geometry IndexedFaceSet 
{ creaseAngle 0.50 coordIndex [0,1,2,-1,0,3,1,-1,4,2,5,-1,4,0,2,-1,6,5,7,-1,6,4,5,-1,8,7,9,-1,8,6,7,-1,10,9,11,-1,10,8,9,-1,12,11,13,-1,12,10,11,-1,14,13,15,-1,14,12,13,-1]
coord Coordinate { point [0.096056 1.10236 -1.30449,0.098425 1.02362 -1.28346,0.096056 1.02362 -1.30449,0.098425 1.10236 -1.28346,0.0890677 1.10236 -1.32446,0.0890677 1.02362 -1.32446,0.0778107 1.10236 -1.34237,0.0778107 1.02362 -1.34237,0.0628493 1.10236 -1.35734,0.0628493 1.02362 -1.35734,0.0449338 1.10236 -1.36859,0.0449338 1.02362 -1.36859,0.0249626 1.10236 -1.37558,0.0249626 1.02362 -1.37558,0.003937 1.10236 -1.37795,0.003937 1.02362 -1.37795]
}}
appearance Appearance{material Material{diffuseColor 0.8 0.8 0.8
transparency 0}}}
Shape { geometry IndexedFaceSet 
{ creaseAngle 0.50 coordIndex [0,1,2,-1,2,1,3,-1]
coord Coordinate { point [0.15748 0.31496 0.94488,0.82677 0.31496 0.94488,0.15748 -0.31496 0.94488,0.82677 -0.31496 0.94488]
}}
appearance Appearance{material Material{diffuseColor 0 0 0
transparency 0}}}
Shape { geometry IndexedFaceSet 
{ creaseAngle 0.50 coordIndex [0,1,2,-1,3,1,0,-1,2,4,5,-1,1,4,2,-1,5,6,7,-1,4,6,5,-1,7,8,9,-1,6,8,7,-1,9,10,11,-1,8,10,9,-1,11,12,13,-1,10,12,11,-1,13,14,15,-1,12,14,13,-1]
coord Coordinate { point [-1.08268 -1.10236 -1.28346,-1.08031 -1.02362 -1.30449,-1.08031 -1.10236 -1.30449,-1.08268 -1.02362 -1.28346,-1.07332 -1.02362 -1.32446,-1.07332 -1.10236 -1.32446,-1.06206 -1.02362 -1.34237,-1.06206 -1.10236 -1.34237,-1.0471 -1.02362 -1.35734,-1.0471 -1.10236 -1.35734,-1.02918 -1.02362 -1.36859,-1.02918 -1.10236 -1.36859,-1.00921 -1.02362 -1.37558,-1.00921 -1.10236 -1.37558,-0.988187 -1.02362 -1.37795,-0.988187 -1.10236 -1.37795]
}}
appearance Appearance{material Material{diffuseColor 0.8 0.8 0.8
transparency 0}}}
Shape { geometry IndexedFaceSet 
{ creaseAngle 0.50 coordIndex [0,1,2,-1,2,1,3,-1]
coord Coordinate { point [-0.988187 -1.02362 -1.37795,-0.980313 -1.02362 -1.37795,-0.988187 -1.10236 -1.37795,-0.980313 -1.10236 -1.37795]
}}
appearance Appearance{material Material{diffuseColor 0.8 0.8 0.8
transparency 0}}}
Shape { geometry IndexedFaceSet 
{ creaseAngle 0.50 coordIndex [0,1,2,-1,0,3,1,-1,4,2,5,-1,4,0,2,-1,6,5,7,-1,6,4,5,-1,8,7,9,-1,8,6,7,-1,10,9,11,-1,10,8,9,-1,12,11,13,-1,12,10,11,-1,14,13,15,-1,14,12,13,-1]
coord Coordinate { point [-0.888194 -1.02362 -1.30449,-0.885825 -1.10236 -1.28346,-0.888194 -1.10236 -1.30449,-0.885825 -1.02362 -1.28346,-0.895182 -1.02362 -1.32446,-0.895182 -1.10236 -1.32446,-0.906439 -1.02362 -1.34237,-0.906439 -1.10236 -1.34237,-0.921401 -1.02362 -1.35734,-0.921401 -1.10236 -1.35734,-0.939316 -1.02362 -1.36859,-0.939316 -1.10236 -1.36859,-0.959287 -1.02362 -1.37558,-0.959287 -1.10236 -1.37558,-0.980313 -1.02362 -1.37795,-0.980313 -1.10236 -1.37795]
}}
appearance Appearance{material Material{diffuseColor 0.8 0.8 0.8
transparency 0}}}
Shape { geometry IndexedFaceSet 
{ creaseAngle 0.50 coordIndex [0,1,2,-1,3,1,0,-1,2,4,5,-1,1,4,2,-1,5,6,7,-1,4,6,5,-1,7,8,9,-1,6,8,7,-1,9,10,11,-1,8,10,9,-1,11,12,13,-1,10,12,11,-1,13,14,15,-1,12,14,13,-1]
coord Coordinate { point [-0.098425 -1.10236 -1.28346,-0.096056 -1.02362 -1.30449,-0.096056 -1.10236 -1.30449,-0.098425 -1.02362 -1.28346,-0.0890677 -1.02362 -1.32446,-0.0890677 -1.10236 -1.32446,-0.0778107 -1.02362 -1.34237,-0.0778107 -1.10236 -1.34237,-0.0628493 -1.02362 -1.35734,-0.0628493 -1.10236 -1.35734,-0.0449338 -1.02362 -1.36859,-0.0449338 -1.10236 -1.36859,-0.0249626 -1.02362 -1.37558,-0.0249626 -1.10236 -1.37558,-0.003937 -1.02362 -1.37795,-0.003937 -1.10236 -1.37795]
}}
appearance Appearance{material Material{diffuseColor 0.8 0.8 0.8
transparency 0}}}
Shape { geometry IndexedFaceSet 
{ creaseAngle 0.50 coordIndex [0,1,2,-1,2,1,3,-1]
coord Coordinate { point [-0.003937 -1.02362 -1.37795,0.003937 -1.02362 -1.37795,-0.003937 -1.10236 -1.37795,0.003937 -1.10236 -1.37795]
}}
appearance Appearance{material Material{diffuseColor 0.8 0.8 0.8
transparency 0}}}
Shape { geometry IndexedFaceSet 
{ creaseAngle 0.50 coordIndex [0,1,2,-1,0,3,1,-1,4,2,5,-1,4,0,2,-1,6,5,7,-1,6,4,5,-1,8,7,9,-1,8,6,7,-1,10,9,11,-1,10,8,9,-1,12,11,13,-1,12,10,11,-1,14,13,15,-1,14,12,13,-1]
coord Coordinate { point [0.096056 -1.02362 -1.30449,0.098425 -1.10236 -1.28346,0.096056 -1.10236 -1.30449,0.098425 -1.02362 -1.28346,0.0890677 -1.02362 -1.32446,0.0890677 -1.10236 -1.32446,0.0778107 -1.02362 -1.34237,0.0778107 -1.10236 -1.34237,0.0628493 -1.02362 -1.35734,0.0628493 -1.10236 -1.35734,0.0449338 -1.02362 -1.36859,0.0449338 -1.10236 -1.36859,0.0249626 -1.02362 -1.37558,0.0249626 -1.10236 -1.37558,0.003937 -1.02362 -1.37795,0.003937 -1.10236 -1.37795]
}}
appearance Appearance{material Material{diffuseColor 0.8 0.8 0.8
transparency 0}}}
Shape { geometry IndexedFaceSet 
{ creaseAngle 0.50 coordIndex [0,1,2,-1,3,1,0,-1,2,4,5,-1,1,4,2,-1,5,6,7,-1,4,6,5,-1,7,8,9,-1,6,8,7,-1,9,10,11,-1,8,10,9,-1,11,12,13,-1,10,12,11,-1,13,14,15,-1,12,14,13,-1]
coord Coordinate { point [0.885825 -1.10236 -1.28346,0.888194 -1.02362 -1.30449,0.888194 -1.10236 -1.30449,0.885825 -1.02362 -1.28346,0.895182 -1.02362 -1.32446,0.895182 -1.10236 -1.32446,0.906439 -1.02362 -1.34237,0.906439 -1.10236 -1.34237,0.921401 -1.02362 -1.35734,0.921401 -1.10236 -1.35734,0.939316 -1.02362 -1.36859,0.939316 -1.10236 -1.36859,0.959287 -1.02362 -1.37558,0.959287 -1.10236 -1.37558,0.980313 -1.02362 -1.37795,0.980313 -1.10236 -1.37795]
}}
appearance Appearance{material Material{diffuseColor 0.8 0.8 0.8
transparency 0}}}
Shape { geometry IndexedFaceSet 
{ creaseAngle 0.50 coordIndex [0,1,2,-1,2,1,3,-1]
coord Coordinate { point [0.980313 -1.02362 -1.37795,0.988187 -1.02362 -1.37795,0.980313 -1.10236 -1.37795,0.988187 -1.10236 -1.37795]
}}
appearance Appearance{material Material{diffuseColor 0.8 0.8 0.8
transparency 0}}}
Shape { geometry IndexedFaceSet 
{ creaseAngle 0.50 coordIndex [0,1,2,-1,0,3,1,-1,4,2,5,-1,4,0,2,-1,6,5,7,-1,6,4,5,-1,8,7,9,-1,8,6,7,-1,10,9,11,-1,10,8,9,-1,12,11,13,-1,12,10,11,-1,14,13,15,-1,14,12,13,-1]
coord Coordinate { point [1.08031 -1.02362 -1.30449,1.08268 -1.10236 -1.28346,1.08031 -1.10236 -1.30449,1.08268 -1.02362 -1.28346,1.07332 -1.02362 -1.32446,1.07332 -1.10236 -1.32446,1.06206 -1.02362 -1.34237,1.06206 -1.10236 -1.34237,1.0471 -1.02362 -1.35734,1.0471 -1.10236 -1.35734,1.02918 -1.02362 -1.36859,1.02918 -1.10236 -1.36859,1.00921 -1.02362 -1.37558,1.00921 -1.10236 -1.37558,0.988187 -1.02362 -1.37795,0.988187 -1.10236 -1.37795]
}}
appearance Appearance{material Material{diffuseColor 0.8 0.8 0.8
transparency 0}}}
Shape { geometry IndexedFaceSet 
{ creaseAngle 0.50 coordIndex [0,1,2,-1,3,1,0,-1,2,4,5,-1,1,4,2,-1,5,6,7,-1,4,6,5,-1,7,8,9,-1,6,8,7,-1,9,10,11,-1,8,10,9,-1,11,12,13,-1,10,12,11,-1,13,14,15,-1,12,14,13,-1]
coord Coordinate { point [0.885825 1.02362 -1.28346,0.888194 1.10236 -1.30449,0.888194 1.02362 -1.30449,0.885825 1.10236 -1.28346,0.895182 1.10236 -1.32446,0.895182 1.02362 -1.32446,0.906439 1.10236 -1.34237,0.906439 1.02362 -1.34237,0.921401 1.10236 -1.35734,0.921401 1.02362 -1.35734,0.939316 1.10236 -1.36859,0.939316 1.02362 -1.36859,0.959287 1.10236 -1.37558,0.959287 1.02362 -1.37558,0.980313 1.10236 -1.37795,0.980313 1.02362 -1.37795]
}}
appearance Appearance{material Material{diffuseColor 0.8 0.8 0.8
transparency 0}}}
Shape { geometry IndexedFaceSet 
{ creaseAngle 0.50 coordIndex [0,1,2,-1,2,1,3,-1]
coord Coordinate { point [0.980313 1.10236 -1.37795,0.988187 1.10236 -1.37795,0.980313 1.02362 -1.37795,0.988187 1.02362 -1.37795]
}}
appearance Appearance{material Material{diffuseColor 0.8 0.8 0.8
transparency 0}}}
Shape { geometry IndexedFaceSet 
{ creaseAngle 0.50 coordIndex [0,1,2,-1,0,3,1,-1,4,2,5,-1,4,0,2,-1,6,5,7,-1,6,4,5,-1,8,7,9,-1,8,6,7,-1,10,9,11,-1,10,8,9,-1,12,11,13,-1,12,10,11,-1,14,13,15,-1,14,12,13,-1]
coord Coordinate { point [1.08031 1.10236 -1.30449,1.08268 1.02362 -1.28346,1.08031 1.02362 -1.30449,1.08268 1.10236 -1.28346,1.07332 1.10236 -1.32446,1.07332 1.02362 -1.32446,1.06206 1.10236 -1.34237,1.06206 1.02362 -1.34237,1.0471 1.10236 -1.35734,1.0471 1.02362 -1.35734,1.02918 1.10236 -1.36859,1.02918 1.02362 -1.36859,1.00921 1.10236 -1.37558,1.00921 1.02362 -1.37558,0.988187 1.10236 -1.37795,0.988187 1.02362 -1.37795]
}}
appearance Appearance{material Material{diffuseColor 0.8 0.8 0.8
transparency 0}}}
Shape { geometry IndexedFaceSet 
{ creaseAngle 0.50 coordIndex [0,1,2,-1,0,3,1,-1,3,4,5,-1,1,6,7,-1,4,8,5,-1,5,9,6,-1,6,3,5,-1,3,6,1,-1,0,4,3,-1]
coord Coordinate { point [-1.55512 1.25984 0.23622,-1.55512 0.62992 0.82677,-1.55512 1.25984 0.82677,-1.55512 -2.89286e-17 0.31496,-1.55512 -1.25984 0.23622,-1.55512 -0.62992 0.82677,-1.55512 -1.44643e-17 1.65354,-1.55512 0.62992 1.65354,-1.55512 -1.25984 0.82677,-1.55512 -0.62992 1.65354]
}}
appearance Appearance{material Material{diffuseColor 0 0 0
transparency 0}}}
Shape { geometry IndexedFaceSet 
{ creaseAngle 0.50 coordIndex [0,1,2,-1,3,4,5,-1,5,4,1,-1,6,7,4,-1,4,7,1,-1,1,7,2,-1]
coord Coordinate { point [1.55512 1.25984 0.82677,1.55512 0.62992 0.82677,1.55512 1.25984 0.23622,1.55512 -0.62992 1.65354,1.55512 -0.62992 0.82677,1.55512 0.62992 1.65354,1.55512 -1.25984 0.82677,1.55512 -1.25984 0.23622]
}}
appearance Appearance{material Material{diffuseColor 0 0 0
transparency 0}}}
Shape { geometry IndexedFaceSet 
{ creaseAngle 0.50 coordIndex [0,1,2,-1,0,3,1,-1,4,2,5,-1,6,7,8,-1,4,0,2,-1,9,10,11,-1,12,8,13,-1,14,10,9,-1,12,15,6,-1,14,5,10,-1,12,6,8,-1,14,4,5,-1,14,9,16,-1,17,16,9,-1,18,13,19,-1,18,12,13,-1,20,19,21,-1,20,18,19,-1,22,14,16,-1,23,20,21,-1,24,25,26,-1,24,27,25,-1,28,29,30,-1,31,32,28,-1,33,26,34,-1,33,24,26,-1,35,34,36,-1,35,33,34,-1,6,36,7,-1,37,28,30,-1,6,35,36,-1,37,31,28,-1,37,30,38,-1,15,35,6,-1,37,39,31,-1,40,17,41,-1,42,40,43,-1,24,42,27,-1,9,41,17,-1,41,43,40,-1,43,27,42,-1,23,44,45,-1,44,46,47,-1,48,37,38,-1,46,28,32,-1,45,20,23,-1,48,38,49,-1,47,45,44,-1,32,47,46,-1,50,48,49,-1,50,49,51,-1,52,50,51,-1,52,51,53,-1,54,52,53,-1,54,53,55,-1,56,54,55,-1,57,55,58,-1,57,56,55,-1,59,58,60,-1,59,57,58,-1,3,60,1,-1,3,59,60,-1]
coord Coordinate { point [-1.75155 -0.0884066 2.99212,-1.77043 -0.0670941 0.31496,-1.75155 -0.0884066 0.31496,-1.77043 -0.0670941 2.99212,-1.72811 -0.104581 2.99212,-1.72811 -0.104581 0.31496,-1.55512 -1.44643e-17 1.65354,-1.55512 -2.89286e-17 0.31496,-1.55772 0.0246521 0.31496,-1.67322 -0.11811 1.65354,-1.70149 -0.114678 0.31496,-1.67322 -0.11811 0.31496,-1.55808 0.0262819 1.65358,-1.56541 0.0482182 0.31496,-1.70149 -0.114678 2.99212,-1.55512 -2.89286e-17 1.65358,-1.67322 -0.11811 1.65358,-1.64694 -0.115149 1.65358,-1.56681 0.051246 1.65358,-1.57784 0.0696604 0.31496,-1.58088 0.0736404 1.65358,-1.59448 0.088034 0.31496,-1.67322 -0.11811 2.99212,-1.59448 0.088034 1.65354,-1.58088 -0.0736404 1.65358,-1.59448 -0.088034 0.31496,-1.57784 -0.0696604 0.31496,-1.59448 -0.088034 1.65354,-1.67322 0.11811 1.65354,-1.67322 0.11811 0.31496,-1.70149 0.114678 0.31496,-1.67322 0.11811 1.65358,-1.64694 0.115149 1.65358,-1.56681 -0.051246 1.65358,-1.56541 -0.0482182 0.31496,-1.55808 -0.0262819 1.65358,-1.55772 -0.0246521 0.31496,-1.70149 0.114678 2.99212,-1.72811 0.104581 0.31496,-1.67322 0.11811 2.99212,-1.62198 -0.106413 1.65358,-1.64478 -0.114633 1.65354,-1.59958 -0.0923421 1.65358,-1.61801 -0.104407 1.65354,-1.61801 0.104407 1.65354,-1.59958 0.0923421 1.65358,-1.64478 0.114633 1.65354,-1.62198 0.106413 1.65358,-1.72811 0.104581 2.99212,-1.75155 0.0884066 0.31496,-1.75155 0.0884066 2.99212,-1.77043 0.0670941 0.31496,-1.77043 0.0670941 2.99212,-1.78366 0.0418824 0.31496,-1.78366 0.0418824 2.99212,-1.79047 0.0142366 0.31496,-1.79047 0.0142366 2.99212,-1.79047 -0.0142366 2.99212,-1.79047 -0.0142366 0.31496,-1.78366 -0.0418824 2.99212,-1.78366 -0.0418824 0.31496]
}}
appearance Appearance{material Material{diffuseColor 0.8 0.8 0.8
transparency 0}}}
Shape { geometry IndexedFaceSet 
{ creaseAngle 0.50 coordIndex [0,1,2,-1,0,2,3,-1,0,3,4,-1,0,4,5,-1,0,5,6,-1,0,6,7,-1,0,7,8,-1,0,8,9,-1,0,9,10,-1,0,10,11,-1,0,11,12,-1,0,12,13,-1]
coord Coordinate { point [-1.67322 0.11811 2.99212,-1.70149 0.114678 2.99212,-1.72811 0.104581 2.99212,-1.75155 0.0884066 2.99212,-1.77043 0.0670941 2.99212,-1.78366 0.0418824 2.99212,-1.79047 0.0142366 2.99212,-1.79047 -0.0142366 2.99212,-1.78366 -0.0418824 2.99212,-1.77043 -0.0670941 2.99212,-1.75155 -0.0884066 2.99212,-1.72811 -0.104581 2.99212,-1.70149 -0.114678 2.99212,-1.67322 -0.11811 2.99212]
}}
appearance Appearance{material Material{diffuseColor 0.8 0.8 0.8
transparency 0}}}
Shape { geometry IndexedFaceSet 
{ creaseAngle 0.50 coordIndex [0,1,2,-1,3,1,0,-1,4,5,6,-1,5,7,6,-1,7,2,6,-1,6,2,1,-1]
coord Coordinate { point [-1.67322 1.67322 1.65358,-1.67322 0.11811 2.99212,-1.67322 1.67322 3.34649,-1.67322 0.11811 1.65358,-1.67322 -0.11811 1.65358,-1.67322 -1.67322 1.65358,-1.67322 -0.11811 2.99212,-1.67322 -1.67322 3.34649]
}}
appearance Appearance{material Material{diffuseColor 0.8 0.8 0.8
transparency 0}}}
Shape { geometry IndexedFaceSet 
{ creaseAngle 0.50 coordIndex [0,1,2,-1,1,3,2,-1,3,4,2,-1,4,5,2,-1,5,6,2,-1,7,8,9,-1,10,8,7,-1,11,8,10,-1,12,8,11,-1,13,8,12,-1,14,15,6,-1,16,15,14,-1,6,15,2,-1,17,18,16,-1,9,18,17,-1,8,18,9,-1,16,18,15,-1]
coord Coordinate { point [-1.67322 -0.11811 1.65358,-1.64694 -0.115149 1.65358,-1.67322 -1.67322 1.65358,-1.62198 -0.106413 1.65358,-1.59958 -0.0923421 1.65358,-1.58088 -0.0736404 1.65358,-1.56681 -0.051246 1.65358,-1.58088 0.0736404 1.65358,-1.67322 1.67322 1.65358,-1.56681 0.051246 1.65358,-1.59958 0.0923421 1.65358,-1.62198 0.106413 1.65358,-1.64694 0.115149 1.65358,-1.67322 0.11811 1.65358,-1.55808 -0.0262819 1.65358,1.67322 -1.67322 1.65358,-1.55512 -2.89286e-17 1.65358,-1.55808 0.0262819 1.65358,1.67322 1.67322 1.65358]
}}
appearance Appearance{material Material{diffuseColor 0.8 0.8 0.8
transparency 0}}}
Shape { geometry IndexedFaceSet 
{ creaseAngle 0.50 coordIndex [0,1,2,-1,2,1,3,-1,3,1,4,-1,4,1,5,-1,5,1,6,-1,6,1,7,-1,7,1,8,-1]
coord Coordinate { point [-1.59448 -0.088034 0.31496,-1.59448 0.088034 0.31496,-1.57784 -0.0696604 0.31496,-1.56541 -0.0482182 0.31496,-1.55772 -0.0246521 0.31496,-1.55512 -2.89286e-17 0.31496,-1.55772 0.0246521 0.31496,-1.56541 0.0482182 0.31496,-1.57784 0.0696604 0.31496]
}}
appearance Appearance{material Material{diffuseColor 0.8 0.8 0.8
transparency 0}}}
Shape { geometry IndexedFaceSet 
{ creaseAngle 0.50 coordIndex [0,1,2,-1,3,1,0,-1,4,5,6,-1,7,0,8,-1,9,4,6,-1,10,6,11,-1,5,11,6,-1,7,3,0,-1,4,1,3,-1,4,3,5,-1]
coord Coordinate { point [-1.59448 0.59055 0.7874,-1.59448 1.22047 0.27559,-1.59448 1.22047 0.7874,-1.59448 0.088034 0.31496,-1.59448 -1.22047 0.27559,-1.59448 -0.088034 0.31496,-1.59448 -0.59055 0.7874,-1.59448 0.088034 1.65354,-1.59448 0.59055 1.65354,-1.59448 -1.22047 0.7874,-1.59448 -0.59055 1.65354,-1.59448 -0.088034 1.65354]
}}
appearance Appearance{material Material{diffuseColor 0.8 0.8 0.8
transparency 0}}}
Shape { geometry IndexedFaceSet 
{ creaseAngle 0.50 coordIndex [0,1,2,-1,3,0,2,-1,4,3,2,-1,5,4,2,-1]
coord Coordinate { point [-1.67322 -0.11811 1.65354,-1.67322 -0.59055 1.65354,-1.59448 -0.59055 1.65354,-1.64478 -0.114633 1.65354,-1.61801 -0.104407 1.65354,-1.59448 -0.088034 1.65354]
}}
appearance Appearance{material Material{diffuseColor 0.8 0.8 0.8
transparency 0}}}
Shape { geometry IndexedFaceSet 
{ creaseAngle 0.50 coordIndex [0,1,2,-1,0,3,4,-1,5,0,2,-1,6,7,8,-1,9,10,6,-1,9,6,11,-1,2,9,11,-1,2,11,5,-1,5,3,0,-1,8,11,6,-1]
coord Coordinate { point [-1.67322 0.59055 0.7874,-1.67322 1.22047 0.7874,-1.67322 1.22047 0.27559,-1.67322 0.11811 1.65354,-1.67322 0.59055 1.65354,-1.67322 0.11811 0.31496,-1.67322 -0.59055 0.7874,-1.67322 -0.59055 1.65354,-1.67322 -0.11811 1.65354,-1.67322 -1.22047 0.27559,-1.67322 -1.22047 0.7874,-1.67322 -0.11811 0.31496]
}}
appearance Appearance{material Material{diffuseColor 0.8 0.8 0.8
transparency 0}}}
Shape { geometry IndexedFaceSet 
{ creaseAngle 0.50 coordIndex [0,1,2,-1,2,1,3,-1,3,1,4,-1,4,1,5,-1,5,1,6,-1,6,1,7,-1,7,1,8,-1,8,1,9,-1,9,1,10,-1,10,1,11,-1,11,1,12,-1,12,1,13,-1]
coord Coordinate { point [-1.70149 0.114678 0.31496,-1.67322 0.11811 0.31496,-1.72811 0.104581 0.31496,-1.75155 0.0884066 0.31496,-1.77043 0.0670941 0.31496,-1.78366 0.0418824 0.31496,-1.79047 0.0142366 0.31496,-1.79047 -0.0142366 0.31496,-1.78366 -0.0418824 0.31496,-1.77043 -0.0670941 0.31496,-1.75155 -0.0884066 0.31496,-1.72811 -0.104581 0.31496,-1.70149 -0.114678 0.31496,-1.67322 -0.11811 0.31496]
}}
appearance Appearance{material Material{diffuseColor 0.8 0.8 0.8
transparency 0}}}
Shape { geometry IndexedFaceSet 
{ creaseAngle 0.50 coordIndex [0,1,2,-1,0,3,4,-1,0,5,3,-1,0,2,5,-1]
coord Coordinate { point [-1.59448 0.59055 1.65354,-1.67322 0.59055 1.65354,-1.67322 0.11811 1.65354,-1.61801 0.104407 1.65354,-1.59448 0.088034 1.65354,-1.64478 0.114633 1.65354]
}}
appearance Appearance{material Material{diffuseColor 0.8 0.8 0.8
transparency 0}}}
Shape { geometry IndexedFaceSet 
{ creaseAngle 0.50 coordIndex [0,1,2,-1,3,2,1,-1,4,1,0,-1,5,0,6,-1,5,4,0,-1,7,3,1,-1,8,4,9,-1,8,1,4,-1,10,3,7,-1,11,10,7,-1,12,13,11,-1,14,8,9,-1,15,12,11,-1,15,11,7,-1,16,17,15,-1,16,14,17,-1,16,8,14,-1,16,15,7,-1,9,18,14,-1,19,2,3,-1]
coord Coordinate { point [-0.7874 -0.43307 3.34649,-1.67322 -1.67322 3.34649,-0.7874 -0.62992 3.34649,0.3937 -0.7874 3.34649,-0.7874 0.43307 3.34649,-0.62992 0.43307 3.34649,-0.62992 -0.43307 3.34649,1.67322 -1.67322 3.34649,-1.67322 1.67322 3.34649,-0.7874 0.62992 3.34649,0.7874 -0.7874 3.34649,0.7874 -0.47244 3.34649,0.47244 0.47244 3.34649,0.47244 -0.47244 3.34649,0.3937 0.7874 3.34649,0.7874 0.47244 3.34649,1.67322 1.67322 3.34649,0.7874 0.7874 3.34649,0.3937 0.62992 3.34649,0.3937 -0.62992 3.34649]
}}
appearance Appearance{material Material{diffuseColor 0.8 0.8 0.8
transparency 0}}}
Shape { geometry IndexedFaceSet 
{ creaseAngle 0.50 coordIndex [0,1,2,-1,0,2,3,-1]
coord Coordinate { point [1.67322 1.67322 3.34649,1.67322 1.67322 1.65358,-1.67322 1.67322 1.65358,-1.67322 1.67322 3.34649]
}}
appearance Appearance{material Material{diffuseColor 0.8 0.8 0.8
transparency 0}}}
Shape { geometry IndexedFaceSet 
{ creaseAngle 0.50 coordIndex [0,1,2,-1,2,1,3,-1]
coord Coordinate { point [1.67322 -1.67322 1.65358,1.67322 -1.67322 3.34649,-1.67322 -1.67322 1.65358,-1.67322 -1.67322 3.34649]
}}
appearance Appearance{material Material{diffuseColor 0.8 0.8 0.8
transparency 0}}}
Shape { geometry IndexedFaceSet 
{ creaseAngle 0.50 coordIndex [0,1,2,-1,3,0,2,-1]
coord Coordinate { point [1.67322 -1.67322 1.65358,1.67322 1.67322 1.65358,1.67322 1.67322 3.34649,1.67322 -1.67322 3.34649]
}}
appearance Appearance{material Material{diffuseColor 0.8 0.8 0.8
transparency 0}}}
Shape { geometry IndexedFaceSet 
{ creaseAngle 0.50 coordIndex [0,1,2,-1,0,2,3,-1]
coord Coordinate { point [-1.59448 -0.59055 0.7874,-1.67322 -0.59055 0.7874,-1.67322 -1.22047 0.7874,-1.59448 -1.22047 0.7874]
}}
appearance Appearance{material Material{diffuseColor 0.8 0.8 0.8
transparency 0}}}
Shape { geometry IndexedFaceSet 
{ creaseAngle 0.50 coordIndex [0,1,2,-1,2,1,3,-1]
coord Coordinate { point [-1.59448 -0.59055 0.7874,-1.59448 -0.59055 1.65354,-1.67322 -0.59055 0.7874,-1.67322 -0.59055 1.65354]
}}
appearance Appearance{material Material{diffuseColor 0.8 0.8 0.8
transparency 0}}}
Shape { geometry IndexedFaceSet 
{ creaseAngle 0.50 coordIndex [0,1,2,-1,0,2,3,-1]
coord Coordinate { point [-1.59448 0.59055 1.65354,-1.59448 0.59055 0.7874,-1.67322 0.59055 0.7874,-1.67322 0.59055 1.65354]
}}
appearance Appearance{material Material{diffuseColor 0.8 0.8 0.8
transparency 0}}}
Shape { geometry IndexedFaceSet 
{ creaseAngle 0.50 coordIndex [0,1,2,-1,0,2,3,-1]
coord Coordinate { point [-1.59448 1.22047 0.7874,-1.67322 1.22047 0.7874,-1.67322 0.59055 0.7874,-1.59448 0.59055 0.7874]
}}
appearance Appearance{material Material{diffuseColor 0.8 0.8 0.8
transparency 0}}}
Shape { geometry IndexedFaceSet 
{ creaseAngle 0.50 coordIndex [0,1,2,-1,0,2,3,-1]
coord Coordinate { point [-1.59448 1.22047 0.7874,-1.59448 1.22047 0.27559,-1.67322 1.22047 0.27559,-1.67322 1.22047 0.7874]
}}
appearance Appearance{material Material{diffuseColor 0.8 0.8 0.8
transparency 0}}}
Shape { geometry IndexedFaceSet 
{ creaseAngle 0.50 coordIndex [0,1,2,-1,2,1,3,-1]
coord Coordinate { point [-1.67322 1.22047 0.27559,-1.59448 1.22047 0.27559,-1.67322 -1.22047 0.27559,-1.59448 -1.22047 0.27559]
}}
appearance Appearance{material Material{diffuseColor 0.8 0.8 0.8
transparency 0}}}
Shape { geometry IndexedFaceSet 
{ creaseAngle 0.50 coordIndex [0,1,2,-1,2,1,3,-1]
coord Coordinate { point [-1.59448 -1.22047 0.27559,-1.59448 -1.22047 0.7874,-1.67322 -1.22047 0.27559,-1.67322 -1.22047 0.7874]
}}
appearance Appearance{material Material{diffuseColor 0.8 0.8 0.8
transparency 0}}}
Shape { geometry IndexedFaceSet 
{ creaseAngle 0.50 coordIndex [0,1,2,-1,3,1,0,-1]
coord Coordinate { point [0.3937 -0.62992 3.34649,0.3937 -0.7874 4.3307,0.3937 -0.62992 4.3307,0.3937 -0.7874 3.34649]
}}
appearance Appearance{material Material{diffuseColor 1 1 1
transparency 0}}}
Shape { geometry IndexedFaceSet 
{ creaseAngle 0.50 coordIndex [0,1,2,-1,2,1,3,-1]
coord Coordinate { point [0.7874 -0.7874 3.34649,0.7874 -0.7874 4.3307,0.3937 -0.7874 3.34649,0.3937 -0.7874 4.3307]
}}
appearance Appearance{material Material{diffuseColor 1 1 1
transparency 0}}}
Shape { geometry IndexedFaceSet 
{ creaseAngle 0.50 coordIndex [0,1,2,-1,0,3,1,-1]
coord Coordinate { point [0.7874 -0.7874 4.3307,0.7874 -0.47244 3.34649,0.7874 -0.47244 4.3307,0.7874 -0.7874 3.34649]
}}
appearance Appearance{material Material{diffuseColor 1 1 1
transparency 0}}}
Shape { geometry IndexedFaceSet 
{ creaseAngle 0.50 coordIndex [0,1,2,-1,0,3,1,-1,1,4,5,-1,3,4,1,-1]
coord Coordinate { point [0.7874 -0.47244 4.3307,0.62992 -0.47244 4.01574,0.62992 -0.47244 4.3307,0.7874 -0.47244 3.34649,0.47244 -0.47244 3.34649,0.47244 -0.47244 4.01574]
}}
appearance Appearance{material Material{diffuseColor 1 1 1
transparency 0}}}
Shape { geometry IndexedFaceSet 
{ creaseAngle 0.50 coordIndex [0,1,2,-1,0,3,1,-1]
coord Coordinate { point [0.47244 -0.47244 4.01574,0.47244 0.47244 3.34649,0.47244 0.47244 4.01574,0.47244 -0.47244 3.34649]
}}
appearance Appearance{material Material{diffuseColor 1 1 1
transparency 0}}}
Shape { geometry IndexedFaceSet 
{ creaseAngle 0.50 coordIndex [0,1,2,-1,3,4,1,-1,1,5,2,-1,4,5,1,-1]
coord Coordinate { point [0.62992 0.47244 4.3307,0.62992 0.47244 4.01574,0.7874 0.47244 4.3307,0.47244 0.47244 4.01574,0.47244 0.47244 3.34649,0.7874 0.47244 3.34649]
}}
appearance Appearance{material Material{diffuseColor 1 1 1
transparency 0}}}
Shape { geometry IndexedFaceSet 
{ creaseAngle 0.50 coordIndex [0,1,2,-1,0,3,1,-1]
coord Coordinate { point [0.7874 0.47244 4.3307,0.7874 0.7874 3.34649,0.7874 0.7874 4.3307,0.7874 0.47244 3.34649]
}}
appearance Appearance{material Material{diffuseColor 1 1 1
transparency 0}}}
Shape { geometry IndexedFaceSet 
{ creaseAngle 0.50 coordIndex [0,1,2,-1,0,2,3,-1]
coord Coordinate { point [0.7874 0.7874 4.3307,0.7874 0.7874 3.34649,0.3937 0.7874 3.34649,0.3937 0.7874 4.3307]
}}
appearance Appearance{material Material{diffuseColor 1 1 1
transparency 0}}}
Shape { geometry IndexedFaceSet 
{ creaseAngle 0.50 coordIndex [0,1,2,-1,3,1,0,-1]
coord Coordinate { point [0.3937 0.7874 3.34649,0.3937 0.62992 4.3307,0.3937 0.7874 4.3307,0.3937 0.62992 3.34649]
}}
appearance Appearance{material Material{diffuseColor 1 1 1
transparency 0}}}
Shape { geometry IndexedFaceSet 
{ creaseAngle 0.50 coordIndex [0,1,2,-1,0,3,1,-1,4,3,0,-1,5,0,6,-1,5,4,0,-1]
coord Coordinate { point [-0.3937 0.62992 4.3307,-0.7874 0.62992 3.34649,-0.7874 0.62992 4.3307,0.3937 0.62992 3.34649,0.3937 0.62992 4.3307,0.3937 0.62992 5.5118,-0.3937 0.62992 5.5118]
}}
appearance Appearance{material Material{diffuseColor 1 1 1
transparency 0}}}
Shape { geometry IndexedFaceSet 
{ creaseAngle 0.50 coordIndex [0,1,2,-1,3,1,0,-1]
coord Coordinate { point [-0.7874 0.62992 3.34649,-0.7874 0.43307 4.3307,-0.7874 0.62992 4.3307,-0.7874 0.43307 3.34649]
}}
appearance Appearance{material Material{diffuseColor 1 1 1
transparency 0}}}
Shape { geometry IndexedFaceSet 
{ creaseAngle 0.50 coordIndex [0,1,2,-1,3,1,0,-1]
coord Coordinate { point [-0.7874 0.43307 3.34649,-0.62992 0.43307 4.3307,-0.7874 0.43307 4.3307,-0.62992 0.43307 3.34649]
}}
appearance Appearance{material Material{diffuseColor 1 1 1
transparency 0}}}
Shape { geometry IndexedFaceSet 
{ creaseAngle 0.50 coordIndex [0,1,2,-1,3,1,0,-1]
coord Coordinate { point [-0.62992 0.43307 3.34649,-0.62992 -0.43307 4.3307,-0.62992 0.43307 4.3307,-0.62992 -0.43307 3.34649]
}}
appearance Appearance{material Material{diffuseColor 1 1 1
transparency 0}}}
Shape { geometry IndexedFaceSet 
{ creaseAngle 0.50 coordIndex [0,1,2,-1,0,3,1,-1]
coord Coordinate { point [-0.62992 -0.43307 4.3307,-0.7874 -0.43307 3.34649,-0.7874 -0.43307 4.3307,-0.62992 -0.43307 3.34649]
}}
appearance Appearance{material Material{diffuseColor 1 1 1
transparency 0}}}
Shape { geometry IndexedFaceSet 
{ creaseAngle 0.50 coordIndex [0,1,2,-1,3,1,0,-1]
coord Coordinate { point [-0.7874 -0.43307 3.34649,-0.7874 -0.62992 4.3307,-0.7874 -0.43307 4.3307,-0.7874 -0.62992 3.34649]
}}
appearance Appearance{material Material{diffuseColor 1 1 1
transparency 0}}}
Shape { geometry IndexedFaceSet 
{ creaseAngle 0.50 coordIndex [0,1,2,-1,3,4,1,-1,3,5,4,-1,6,1,0,-1,6,3,1,-1]
coord Coordinate { point [-0.7874 -0.62992 3.34649,-0.3937 -0.62992 4.3307,-0.7874 -0.62992 4.3307,0.3937 -0.62992 4.3307,-0.3937 -0.62992 5.5118,0.3937 -0.62992 5.5118,0.3937 -0.62992 3.34649]
}}
appearance Appearance{material Material{diffuseColor 1 1 1
transparency 0}}}
Shape { geometry IndexedFaceSet 
{ creaseAngle 0.50 coordIndex [0,1,2,-1,3,1,0,-1,4,3,0,-1,5,6,1,-1,5,1,3,-1,7,8,6,-1,7,5,9,-1,7,6,5,-1]
coord Coordinate { point [0.7874 -0.7874 4.3307,0.3937 -0.62992 4.3307,0.3937 -0.7874 4.3307,0.62992 -0.47244 4.3307,0.7874 -0.47244 4.3307,0.62992 0.47244 4.3307,0.3937 0.62992 4.3307,0.7874 0.7874 4.3307,0.3937 0.7874 4.3307,0.7874 0.47244 4.3307]
}}
appearance Appearance{material Material{diffuseColor 1 1 1
transparency 0}}}
Shape { geometry IndexedFaceSet 
{ creaseAngle 0.50 coordIndex [0,1,2,-1,2,1,3,-1]
coord Coordinate { point [0.47244 0.47244 4.01574,0.62992 0.47244 4.01574,0.47244 -0.47244 4.01574,0.62992 -0.47244 4.01574]
}}
appearance Appearance{material Material{diffuseColor 1 1 1
transparency 0}}}
Shape { geometry IndexedFaceSet 
{ creaseAngle 0.50 coordIndex [0,1,2,-1,0,3,1,-1]
coord Coordinate { point [0.62992 -0.47244 4.3307,0.62992 0.47244 4.01574,0.62992 0.47244 4.3307,0.62992 -0.47244 4.01574]
}}
appearance Appearance{material Material{diffuseColor 1 1 1
transparency 0}}}
Shape { geometry IndexedFaceSet 
{ creaseAngle 0.50 coordIndex [0,1,2,-1,0,3,1,-1]
coord Coordinate { point [0.3937 -0.62992 5.5118,0.3937 0.62992 4.3307,0.3937 0.62992 5.5118,0.3937 -0.62992 4.3307]
}}
appearance Appearance{material Material{diffuseColor 1 1 1
transparency 0}}}
Shape { geometry IndexedFaceSet 
{ creaseAngle 0.50 coordIndex [0,1,2,-1,0,2,3,-1]
coord Coordinate { point [0.3937 0.62992 5.5118,-0.3937 0.62992 5.5118,-0.3937 -0.62992 5.5118,0.3937 -0.62992 5.5118]
}}
appearance Appearance{material Material{diffuseColor 1 1 1
transparency 0}}}
Shape { geometry IndexedFaceSet 
{ creaseAngle 0.50 coordIndex [0,1,2,-1,3,1,0,-1]
coord Coordinate { point [-0.3937 0.62992 4.3307,-0.3937 -0.62992 5.5118,-0.3937 0.62992 5.5118,-0.3937 -0.62992 4.3307]
}}
appearance Appearance{material Material{diffuseColor 1 1 1
transparency 0}}}
Shape { geometry IndexedFaceSet 
{ creaseAngle 0.50 coordIndex [0,1,2,-1,3,0,2,-1,4,5,6,-1,7,6,0,-1,7,4,6,-1,7,0,3,-1]
coord Coordinate { point [-0.62992 -0.43307 4.3307,-0.7874 -0.43307 4.3307,-0.7874 -0.62992 4.3307,-0.3937 -0.62992 4.3307,-0.7874 0.62992 4.3307,-0.7874 0.43307 4.3307,-0.62992 0.43307 4.3307,-0.3937 0.62992 4.3307]
}}
appearance Appearance{material Material{diffuseColor 1 1 1
transparency 0}}}
Shape { geometry IndexedFaceSet 
{ creaseAngle 0.50 coordIndex [0,1,2,-1,3,1,0,-1]
coord Coordinate { point [0.3937 -0.62992 2.3622,0.3937 -0.7874 3.34645,0.3937 -0.62992 3.34645,0.3937 -0.7874 2.3622]
}}
appearance Appearance{material Material{diffuseColor 1 1 1
transparency 0}}}
Shape { geometry IndexedFaceSet 
{ creaseAngle 0.50 coordIndex [0,1,2,-1,0,3,1,-1,4,3,0,-1,5,0,2,-1]
coord Coordinate { point [0.3937 -0.7874 2.3622,-0.7874 -0.7874 1.77165,-0.7874 -0.7874 3.34645,0.7874 -0.7874 1.77165,0.7874 -0.7874 2.3622,0.3937 -0.7874 3.34645]
}}
appearance Appearance{material Material{diffuseColor 0.8 0.8 0.8
transparency 0}}}
Shape { geometry IndexedFaceSet 
{ creaseAngle 0.50 coordIndex [0,1,2,-1,2,1,3,-1]
coord Coordinate { point [-0.7874 -0.62992 3.34645,0.3937 -0.62992 3.34645,-0.7874 -0.7874 3.34645,0.3937 -0.7874 3.34645]
}}
appearance Appearance{material Material{diffuseColor 0.8 0.8 0.8
transparency 0}}}
Shape { geometry IndexedFaceSet 
{ creaseAngle 0.50 coordIndex [0,1,2,-1,0,3,1,-1]
coord Coordinate { point [0.3937 -0.62992 2.3622,-0.7874 -0.62992 3.34645,-0.7874 -0.62992 2.3622,0.3937 -0.62992 3.34645]
}}
appearance Appearance{material Material{diffuseColor 1 1 1
transparency 0}}}
Shape { geometry IndexedFaceSet 
{ creaseAngle 0.50 coordIndex [0,1,2,-1,3,4,5,-1,1,6,7,-1,7,8,9,-1,6,8,7,-1,6,10,8,-1,5,11,1,-1,1,11,6,-1,5,12,11,-1,13,14,12,-1,11,14,15,-1,12,14,11,-1,4,12,5,-1,7,2,1,-1]
coord Coordinate { point [-0.7874 -0.43307 2.3622,-0.62992 -0.43307 2.3622,-0.7874 -0.62992 2.3622,-0.7874 0.43307 2.3622,-0.7874 0.62992 2.3622,-0.62992 0.43307 2.3622,0.47244 -0.47244 2.3622,0.3937 -0.62992 2.3622,0.7874 -0.7874 2.3622,0.3937 -0.7874 2.3622,0.7874 -0.47244 2.3622,0.47244 0.47244 2.3622,0.3937 0.62992 2.3622,0.3937 0.7874 2.3622,0.7874 0.7874 2.3622,0.7874 0.47244 2.3622]
}}
appearance Appearance{material Material{diffuseColor 1 1 1
transparency 0}}}
Shape { geometry IndexedFaceSet 
{ creaseAngle 0.50 coordIndex [0,1,2,-1,3,4,0,-1,0,4,1,-1,3,5,4,-1,1,6,7,-1,4,6,1,-1]
coord Coordinate { point [0.7874 0.7874 1.77165,0.7874 0.47244 2.3622,0.7874 0.7874 2.3622,0.7874 -0.7874 1.77165,0.7874 -0.47244 2.3622,0.7874 -0.7874 2.3622,0.7874 -0.47244 3.34645,0.7874 0.47244 3.34645]
}}
appearance Appearance{material Material{diffuseColor 0.8 0.8 0.8
transparency 0}}}
Shape { geometry IndexedFaceSet 
{ creaseAngle 0.50 coordIndex [0,1,2,-1,3,2,1,-1,4,2,3,-1,5,6,1,-1,5,1,0,-1,7,6,5,-1,8,0,9,-1,8,5,0,-1,10,7,11,-1,10,6,7,-1]
coord Coordinate { point [-0.7874 0.43307 2.3622,-0.7874 0.7874 1.77165,-0.7874 0.62992 2.3622,-0.7874 0.7874 3.34645,-0.7874 0.62992 3.34645,-0.7874 -0.43307 2.3622,-0.7874 -0.7874 1.77165,-0.7874 -0.62992 2.3622,-0.7874 -0.43307 3.34645,-0.7874 0.43307 3.34645,-0.7874 -0.7874 3.34645,-0.7874 -0.62992 3.34645]
}}
appearance Appearance{material Material{diffuseColor 0.8 0.8 0.8
transparency 0}}}
Shape { geometry IndexedFaceSet 
{ creaseAngle 0.50 coordIndex [0,1,2,-1,0,2,3,-1]
coord Coordinate { point [0.7874 0.7874 1.77165,-0.7874 0.7874 1.77165,-0.7874 -0.7874 1.77165,0.7874 -0.7874 1.77165]
}}
appearance Appearance{material Material{diffuseColor 0.8 0.8 0.8
transparency 0}}}
Shape { geometry IndexedFaceSet 
{ creaseAngle 0.50 coordIndex [0,1,2,-1,0,3,1,-1]
coord Coordinate { point [-0.62992 -0.43307 3.34645,-0.7874 -0.43307 2.3622,-0.7874 -0.43307 3.34645,-0.62992 -0.43307 2.3622]
}}
appearance Appearance{material Material{diffuseColor 1 1 1
transparency 0}}}
Shape { geometry IndexedFaceSet 
{ creaseAngle 0.50 coordIndex [0,1,2,-1,3,1,0,-1]
coord Coordinate { point [-0.62992 0.43307 2.3622,-0.62992 -0.43307 3.34645,-0.62992 0.43307 3.34645,-0.62992 -0.43307 2.3622]
}}
appearance Appearance{material Material{diffuseColor 1 1 1
transparency 0}}}
Shape { geometry IndexedFaceSet 
{ creaseAngle 0.50 coordIndex [0,1,2,-1,3,1,0,-1]
coord Coordinate { point [-0.7874 0.43307 2.3622,-0.62992 0.43307 3.34645,-0.7874 0.43307 3.34645,-0.62992 0.43307 2.3622]
}}
appearance Appearance{material Material{diffuseColor 1 1 1
transparency 0}}}
Shape { geometry IndexedFaceSet 
{ creaseAngle 0.50 coordIndex [0,1,2,-1,0,3,1,-1]
coord Coordinate { point [0.3937 0.62992 3.34645,-0.7874 0.62992 2.3622,-0.7874 0.62992 3.34645,0.3937 0.62992 2.3622]
}}
appearance Appearance{material Material{diffuseColor 1 1 1
transparency 0}}}
Shape { geometry IndexedFaceSet 
{ creaseAngle 0.50 coordIndex [0,1,2,-1,3,1,0,-1]
coord Coordinate { point [0.3937 0.7874 2.3622,0.3937 0.62992 3.34645,0.3937 0.7874 3.34645,0.3937 0.62992 2.3622]
}}
appearance Appearance{material Material{diffuseColor 1 1 1
transparency 0}}}
Shape { geometry IndexedFaceSet 
{ creaseAngle 0.50 coordIndex [0,1,2,-1,3,1,0,-1,3,4,1,-1,1,5,2,-1]
coord Coordinate { point [-0.7874 0.7874 1.77165,0.3937 0.7874 2.3622,-0.7874 0.7874 3.34645,0.7874 0.7874 1.77165,0.7874 0.7874 2.3622,0.3937 0.7874 3.34645]
}}
appearance Appearance{material Material{diffuseColor 0.8 0.8 0.8
transparency 0}}}
Shape { geometry IndexedFaceSet 
{ creaseAngle 0.50 coordIndex [0,1,2,-1,3,1,0,-1]
coord Coordinate { point [0.47244 0.47244 3.34645,0.7874 0.47244 2.3622,0.7874 0.47244 3.34645,0.47244 0.47244 2.3622]
}}
appearance Appearance{material Material{diffuseColor 1 1 1
transparency 0}}}
Shape { geometry IndexedFaceSet 
{ creaseAngle 0.50 coordIndex [0,1,2,-1,0,3,1,-1]
coord Coordinate { point [0.47244 -0.47244 3.34645,0.47244 0.47244 2.3622,0.47244 0.47244 3.34645,0.47244 -0.47244 2.3622]
}}
appearance Appearance{material Material{diffuseColor 1 1 1
transparency 0}}}
Shape { geometry IndexedFaceSet 
{ creaseAngle 0.50 coordIndex [0,1,2,-1,3,1,0,-1]
coord Coordinate { point [0.7874 -0.47244 3.34645,0.47244 -0.47244 2.3622,0.47244 -0.47244 3.34645,0.7874 -0.47244 2.3622]
}}
appearance Appearance{material Material{diffuseColor 1 1 1
transparency 0}}}
Shape { geometry IndexedFaceSet 
{ creaseAngle 0.50 coordIndex [0,1,2,-1,3,1,0,-1]
coord Coordinate { point [0.47244 -0.47244 3.34645,0.7874 0.47244 3.34645,0.7874 -0.47244 3.34645,0.47244 0.47244 3.34645]
}}
appearance Appearance{material Material{diffuseColor 0.8 0.8 0.8
transparency 0}}}
Shape { geometry IndexedFaceSet 
{ creaseAngle 0.50 coordIndex [0,1,2,-1,2,1,3,-1]
coord Coordinate { point [-0.7874 0.43307 3.34645,-0.62992 0.43307 3.34645,-0.7874 -0.43307 3.34645,-0.62992 -0.43307 3.34645]
}}
appearance Appearance{material Material{diffuseColor 0.8 0.8 0.8
transparency 0}}}
Shape { geometry IndexedFaceSet 
{ creaseAngle 0.50 coordIndex [0,1,2,-1,2,1,3,-1]
coord Coordinate { point [-0.7874 0.7874 3.34645,0.3937 0.7874 3.34645,-0.7874 0.62992 3.34645,0.3937 0.62992 3.34645]
}}
appearance Appearance{material Material{diffuseColor 0.8 0.8 0.8
transparency 0}}}
Shape { geometry IndexedFaceSet 
{ creaseAngle 0.50 coordIndex [0,1,2,-1,0,2,3,-1]
coord Coordinate { point [1.67322 1.22047 0.7874,1.59448 1.22047 0.7874,1.59448 0.59055 0.7874,1.67322 0.59055 0.7874]
}}
appearance Appearance{material Material{diffuseColor 0.8 0.8 0.8
transparency 0}}}
Shape { geometry IndexedFaceSet 
{ creaseAngle 0.50 coordIndex [0,1,2,-1,0,2,3,-1]
coord Coordinate { point [1.67322 1.22047 0.7874,1.67322 1.22047 0.27559,1.59448 1.22047 0.27559,1.59448 1.22047 0.7874]
}}
appearance Appearance{material Material{diffuseColor 0.8 0.8 0.8
transparency 0}}}
Shape { geometry IndexedFaceSet 
{ creaseAngle 0.50 coordIndex [0,1,2,-1,2,1,3,-1]
coord Coordinate { point [1.59448 1.22047 0.27559,1.67322 1.22047 0.27559,1.59448 -1.22047 0.27559,1.67322 -1.22047 0.27559]
}}
appearance Appearance{material Material{diffuseColor 0.8 0.8 0.8
transparency 0}}}
Shape { geometry IndexedFaceSet 
{ creaseAngle 0.50 coordIndex [0,1,2,-1,2,1,3,-1]
coord Coordinate { point [1.67322 -1.22047 0.27559,1.67322 -1.22047 0.7874,1.59448 -1.22047 0.27559,1.59448 -1.22047 0.7874]
}}
appearance Appearance{material Material{diffuseColor 0.8 0.8 0.8
transparency 0}}}
Shape { geometry IndexedFaceSet 
{ creaseAngle 0.50 coordIndex [0,1,2,-1,0,2,3,-1]
coord Coordinate { point [1.67322 -0.59055 0.7874,1.59448 -0.59055 0.7874,1.59448 -1.22047 0.7874,1.67322 -1.22047 0.7874]
}}
appearance Appearance{material Material{diffuseColor 0.8 0.8 0.8
transparency 0}}}
Shape { geometry IndexedFaceSet 
{ creaseAngle 0.50 coordIndex [0,1,2,-1,2,1,3,-1]
coord Coordinate { point [1.67322 -0.59055 0.7874,1.67322 -0.59055 1.65354,1.59448 -0.59055 0.7874,1.59448 -0.59055 1.65354]
}}
appearance Appearance{material Material{diffuseColor 0.8 0.8 0.8
transparency 0}}}
Shape { geometry IndexedFaceSet 
{ creaseAngle 0.50 coordIndex [0,1,2,-1,0,2,3,-1]
coord Coordinate { point [1.67322 0.59055 1.65354,1.59448 0.59055 1.65354,1.59448 -0.59055 1.65354,1.67322 -0.59055 1.65354]
}}
appearance Appearance{material Material{diffuseColor 0.8 0.8 0.8
transparency 0}}}
Shape { geometry IndexedFaceSet 
{ creaseAngle 0.50 coordIndex [0,1,2,-1,0,2,3,-1]
coord Coordinate { point [1.67322 0.59055 1.65354,1.67322 0.59055 0.7874,1.59448 0.59055 0.7874,1.59448 0.59055 1.65354]
}}
appearance Appearance{material Material{diffuseColor 0.8 0.8 0.8
transparency 0}}}
Shape { geometry IndexedFaceSet 
{ creaseAngle 0.50 coordIndex [0,1,2,-1,3,4,5,-1,3,5,0,-1,6,7,3,-1,6,3,0,-1,6,0,2,-1]
coord Coordinate { point [1.59448 0.59055 0.7874,1.59448 1.22047 0.7874,1.59448 1.22047 0.27559,1.59448 -0.59055 0.7874,1.59448 -0.59055 1.65354,1.59448 0.59055 1.65354,1.59448 -1.22047 0.27559,1.59448 -1.22047 0.7874]
}}
appearance Appearance{material Material{diffuseColor 0.8 0.8 0.8
transparency 0}}}
Shape { geometry IndexedFaceSet 
{ creaseAngle 0.50 coordIndex [0,1,2,-1,3,1,0,-1,3,0,4,-1,5,3,4,-1,6,0,7,-1,6,4,0,-1]
coord Coordinate { point [1.67322 0.59055 0.7874,1.67322 1.22047 0.27559,1.67322 1.22047 0.7874,1.67322 -1.22047 0.27559,1.67322 -0.59055 0.7874,1.67322 -1.22047 0.7874,1.67322 -0.59055 1.65354,1.67322 0.59055 1.65354]
}}
appearance Appearance{material Material{diffuseColor 0.8 0.8 0.8
transparency 0}}}
