M48
; DRILL file {KiCad 5.1.12-84ad8e8a86~92~ubuntu20.04.1} date Wed 06 Apr 2022 05:41:09 PM EDT
; FORMAT={2:4/ absolute / inch / suppress leading zeros}
; #@! TF.CreationDate,2022-04-06T17:41:09-04:00
; #@! TF.GenerationSoftware,Kicad,Pcbnew,5.1.12-84ad8e8a86~92~ubuntu20.04.1
; #@! TF.FileFunction,Plated,1,2,PTH
FMAT,2
INCH,TZ
T1C0.0157
T2C0.0295
T3C0.0315
T4C0.0394
T5C0.0598
T6C0.0630
%
G90
G05
T1
X3850Y-13600
X13800Y-9950
X15550Y-10982
T2
X5081Y-22000
X5581Y-22000
X6081Y-22000
X6963Y-12100
X6963Y-12600
X6963Y-13100
X15519Y-22750
X16019Y-22750
X16519Y-22750
T3
X1644Y-16950
X1644Y-19950
X2281Y-21900
X2431Y-14550
X2431Y-15550
X2644Y-16950
X2644Y-19950
X3281Y-21900
X3644Y-16950
X3644Y-19950
X4600Y-24050
X5131Y-14200
X5131Y-15200
X5600Y-24050
X6357Y-16950
X6357Y-19950
X7031Y-15150
X7357Y-16950
X7357Y-19950
X7931Y-22050
X8031Y-15150
X8357Y-16950
X8357Y-19950
X8931Y-22050
X15219Y-13200
X15219Y-14200
X17300Y-4750
X17519Y-11950
X17519Y-12950
X17519Y-14750
X17519Y-15750
X17519Y-16950
X17519Y-19950
X17869Y-21900
X18519Y-16950
X18519Y-19950
X18796Y-4750
X18869Y-21900
X19519Y-16950
X19519Y-19950
T4
X1781Y-5850
X3750Y-5850
X6494Y-550
X6494Y-1550
X6494Y-2550
X6494Y-3550
X6494Y-4550
X6494Y-5550
X6494Y-6550
X6494Y-7550
X15494Y-550
X15494Y-1550
X15494Y-2550
X15494Y-3550
X15494Y-4550
X15494Y-5550
X15494Y-6550
X15494Y-7550
X19700Y-8000
X19700Y-9000
X19700Y-10000
T5
X7972Y-27350
X9972Y-27350
X11972Y-27350
X13972Y-27350
T6
X1988Y-10350
X3169Y-12200
X4350Y-10350
T0
M30
