%TF.GenerationSoftware,KiCad,Pcbnew,5.1.12-84ad8e8a86~92~ubuntu20.04.1*%
%TF.CreationDate,2022-04-06T17:43:39-04:00*%
%TF.ProjectId,vistaECP,76697374-6145-4435-902e-6b696361645f,rev?*%
%TF.SameCoordinates,Original*%
%TF.FileFunction,Legend,Bot*%
%TF.FilePolarity,Positive*%
%FSLAX46Y46*%
G04 Gerber Fmt 4.6, Leading zero omitted, Abs format (unit mm)*
G04 Created by KiCad (PCBNEW 5.1.12-84ad8e8a86~92~ubuntu20.04.1) date 2022-04-06 17:43:39*
%MOMM*%
%LPD*%
G01*
G04 APERTURE LIST*
%ADD10C,0.200000*%
%ADD11C,0.250000*%
G04 APERTURE END LIST*
D10*
X21554023Y-17634571D02*
X22804023Y-17634571D01*
X22804023Y-17336952D01*
X22744500Y-17158380D01*
X22625452Y-17039333D01*
X22506404Y-16979809D01*
X22268309Y-16920285D01*
X22089738Y-16920285D01*
X21851642Y-16979809D01*
X21732595Y-17039333D01*
X21613547Y-17158380D01*
X21554023Y-17336952D01*
X21554023Y-17634571D01*
X21554023Y-15848857D02*
X22208785Y-15848857D01*
X22327833Y-15908380D01*
X22387357Y-16027428D01*
X22387357Y-16265523D01*
X22327833Y-16384571D01*
X21613547Y-15848857D02*
X21554023Y-15967904D01*
X21554023Y-16265523D01*
X21613547Y-16384571D01*
X21732595Y-16444095D01*
X21851642Y-16444095D01*
X21970690Y-16384571D01*
X22030214Y-16265523D01*
X22030214Y-15967904D01*
X22089738Y-15848857D01*
X22387357Y-15253619D02*
X21554023Y-15253619D01*
X22268309Y-15253619D02*
X22327833Y-15194095D01*
X22387357Y-15075047D01*
X22387357Y-14896476D01*
X22327833Y-14777428D01*
X22208785Y-14717904D01*
X21554023Y-14717904D01*
X22208785Y-12753619D02*
X22149261Y-12575047D01*
X22089738Y-12515523D01*
X21970690Y-12456000D01*
X21792119Y-12456000D01*
X21673071Y-12515523D01*
X21613547Y-12575047D01*
X21554023Y-12694095D01*
X21554023Y-13170285D01*
X22804023Y-13170285D01*
X22804023Y-12753619D01*
X22744500Y-12634571D01*
X22684976Y-12575047D01*
X22565928Y-12515523D01*
X22446880Y-12515523D01*
X22327833Y-12575047D01*
X22268309Y-12634571D01*
X22208785Y-12753619D01*
X22208785Y-13170285D01*
X21554023Y-11384571D02*
X22208785Y-11384571D01*
X22327833Y-11444095D01*
X22387357Y-11563142D01*
X22387357Y-11801238D01*
X22327833Y-11920285D01*
X21613547Y-11384571D02*
X21554023Y-11503619D01*
X21554023Y-11801238D01*
X21613547Y-11920285D01*
X21732595Y-11979809D01*
X21851642Y-11979809D01*
X21970690Y-11920285D01*
X22030214Y-11801238D01*
X22030214Y-11503619D01*
X22089738Y-11384571D01*
X21554023Y-10789333D02*
X22804023Y-10789333D01*
X22030214Y-10670285D02*
X21554023Y-10313142D01*
X22387357Y-10313142D02*
X21911166Y-10789333D01*
X21613547Y-9301238D02*
X21554023Y-9420285D01*
X21554023Y-9658380D01*
X21613547Y-9777428D01*
X21732595Y-9836952D01*
X22208785Y-9836952D01*
X22327833Y-9777428D01*
X22387357Y-9658380D01*
X22387357Y-9420285D01*
X22327833Y-9301238D01*
X22208785Y-9241714D01*
X22089738Y-9241714D01*
X21970690Y-9836952D01*
X21554023Y-8706000D02*
X22387357Y-8706000D01*
X22149261Y-8706000D02*
X22268309Y-8646476D01*
X22327833Y-8586952D01*
X22387357Y-8467904D01*
X22387357Y-8348857D01*
X19479023Y-23914333D02*
X20729023Y-23914333D01*
X19538547Y-23914333D02*
X19479023Y-24033380D01*
X19479023Y-24271476D01*
X19538547Y-24390523D01*
X19598071Y-24450047D01*
X19717119Y-24509571D01*
X20074261Y-24509571D01*
X20193309Y-24450047D01*
X20252833Y-24390523D01*
X20312357Y-24271476D01*
X20312357Y-24033380D01*
X20252833Y-23914333D01*
X19479023Y-22783380D02*
X20133785Y-22783380D01*
X20252833Y-22842904D01*
X20312357Y-22961952D01*
X20312357Y-23200047D01*
X20252833Y-23319095D01*
X19538547Y-22783380D02*
X19479023Y-22902428D01*
X19479023Y-23200047D01*
X19538547Y-23319095D01*
X19657595Y-23378619D01*
X19776642Y-23378619D01*
X19895690Y-23319095D01*
X19955214Y-23200047D01*
X19955214Y-22902428D01*
X20014738Y-22783380D01*
X20312357Y-22188142D02*
X19479023Y-22188142D01*
X20193309Y-22188142D02*
X20252833Y-22128619D01*
X20312357Y-22009571D01*
X20312357Y-21831000D01*
X20252833Y-21711952D01*
X20133785Y-21652428D01*
X19479023Y-21652428D01*
X19479023Y-21057190D02*
X20729023Y-21057190D01*
X20252833Y-21057190D02*
X20312357Y-20938142D01*
X20312357Y-20700047D01*
X20252833Y-20581000D01*
X20193309Y-20521476D01*
X20074261Y-20461952D01*
X19717119Y-20461952D01*
X19598071Y-20521476D01*
X19538547Y-20581000D01*
X19479023Y-20700047D01*
X19479023Y-20938142D01*
X19538547Y-21057190D01*
X19479023Y-19390523D02*
X20133785Y-19390523D01*
X20252833Y-19450047D01*
X20312357Y-19569095D01*
X20312357Y-19807190D01*
X20252833Y-19926238D01*
X19538547Y-19390523D02*
X19479023Y-19509571D01*
X19479023Y-19807190D01*
X19538547Y-19926238D01*
X19657595Y-19985761D01*
X19776642Y-19985761D01*
X19895690Y-19926238D01*
X19955214Y-19807190D01*
X19955214Y-19509571D01*
X20014738Y-19390523D01*
X19479023Y-18795285D02*
X20729023Y-18795285D01*
X19955214Y-18676238D02*
X19479023Y-18319095D01*
X20312357Y-18319095D02*
X19836166Y-18795285D01*
X19538547Y-17307190D02*
X19479023Y-17426238D01*
X19479023Y-17664333D01*
X19538547Y-17783380D01*
X19657595Y-17842904D01*
X20133785Y-17842904D01*
X20252833Y-17783380D01*
X20312357Y-17664333D01*
X20312357Y-17426238D01*
X20252833Y-17307190D01*
X20133785Y-17247666D01*
X20014738Y-17247666D01*
X19895690Y-17842904D01*
X19479023Y-16711952D02*
X20312357Y-16711952D01*
X20074261Y-16711952D02*
X20193309Y-16652428D01*
X20252833Y-16592904D01*
X20312357Y-16473857D01*
X20312357Y-16354809D01*
X20312357Y-15402428D02*
X19479023Y-15402428D01*
X20788547Y-15700047D02*
X19895690Y-15997666D01*
X19895690Y-15223857D01*
X19479023Y-14092904D02*
X19479023Y-14807190D01*
X19479023Y-14450047D02*
X20729023Y-14450047D01*
X20550452Y-14569095D01*
X20431404Y-14688142D01*
X20371880Y-14807190D01*
X19479023Y-12902428D02*
X19479023Y-13616714D01*
X19479023Y-13259571D02*
X20729023Y-13259571D01*
X20550452Y-13378619D01*
X20431404Y-13497666D01*
X20371880Y-13616714D01*
X20074261Y-11592904D02*
X20133785Y-11652428D01*
X20193309Y-11771476D01*
X20193309Y-11890523D01*
X20133785Y-12009571D01*
X20074261Y-12069095D01*
X19955214Y-12128619D01*
X19836166Y-12128619D01*
X19717119Y-12069095D01*
X19657595Y-12009571D01*
X19598071Y-11890523D01*
X19598071Y-11771476D01*
X19657595Y-11652428D01*
X19717119Y-11592904D01*
X20193309Y-11592904D02*
X19717119Y-11592904D01*
X19657595Y-11533380D01*
X19657595Y-11473857D01*
X19717119Y-11354809D01*
X19836166Y-11295285D01*
X20133785Y-11295285D01*
X20312357Y-11414333D01*
X20431404Y-11592904D01*
X20490928Y-11831000D01*
X20431404Y-12069095D01*
X20312357Y-12247666D01*
X20133785Y-12366714D01*
X19895690Y-12426238D01*
X19657595Y-12366714D01*
X19479023Y-12247666D01*
X19359976Y-12069095D01*
X19300452Y-11831000D01*
X19359976Y-11592904D01*
X19479023Y-11414333D01*
X20312357Y-10223857D02*
X19300452Y-10223857D01*
X19181404Y-10283380D01*
X19121880Y-10342904D01*
X19062357Y-10461952D01*
X19062357Y-10640523D01*
X19121880Y-10759571D01*
X19538547Y-10223857D02*
X19479023Y-10342904D01*
X19479023Y-10581000D01*
X19538547Y-10700047D01*
X19598071Y-10759571D01*
X19717119Y-10819095D01*
X20074261Y-10819095D01*
X20193309Y-10759571D01*
X20252833Y-10700047D01*
X20312357Y-10581000D01*
X20312357Y-10342904D01*
X20252833Y-10223857D01*
X19479023Y-9628619D02*
X20312357Y-9628619D01*
X20193309Y-9628619D02*
X20252833Y-9569095D01*
X20312357Y-9450047D01*
X20312357Y-9271476D01*
X20252833Y-9152428D01*
X20133785Y-9092904D01*
X19479023Y-9092904D01*
X20133785Y-9092904D02*
X20252833Y-9033380D01*
X20312357Y-8914333D01*
X20312357Y-8735761D01*
X20252833Y-8616714D01*
X20133785Y-8557190D01*
X19479023Y-8557190D01*
X19479023Y-7426238D02*
X20133785Y-7426238D01*
X20252833Y-7485761D01*
X20312357Y-7604809D01*
X20312357Y-7842904D01*
X20252833Y-7961952D01*
X19538547Y-7426238D02*
X19479023Y-7545285D01*
X19479023Y-7842904D01*
X19538547Y-7961952D01*
X19657595Y-8021476D01*
X19776642Y-8021476D01*
X19895690Y-7961952D01*
X19955214Y-7842904D01*
X19955214Y-7545285D01*
X20014738Y-7426238D01*
X19479023Y-6831000D02*
X20312357Y-6831000D01*
X20729023Y-6831000D02*
X20669500Y-6890523D01*
X20609976Y-6831000D01*
X20669500Y-6771476D01*
X20729023Y-6831000D01*
X20609976Y-6831000D01*
X19479023Y-6057190D02*
X19538547Y-6176238D01*
X19657595Y-6235761D01*
X20729023Y-6235761D01*
X19598071Y-5581000D02*
X19538547Y-5521476D01*
X19479023Y-5581000D01*
X19538547Y-5640523D01*
X19598071Y-5581000D01*
X19479023Y-5581000D01*
X19538547Y-4450047D02*
X19479023Y-4569095D01*
X19479023Y-4807190D01*
X19538547Y-4926238D01*
X19598071Y-4985761D01*
X19717119Y-5045285D01*
X20074261Y-5045285D01*
X20193309Y-4985761D01*
X20252833Y-4926238D01*
X20312357Y-4807190D01*
X20312357Y-4569095D01*
X20252833Y-4450047D01*
X19479023Y-3735761D02*
X19538547Y-3854809D01*
X19598071Y-3914333D01*
X19717119Y-3973857D01*
X20074261Y-3973857D01*
X20193309Y-3914333D01*
X20252833Y-3854809D01*
X20312357Y-3735761D01*
X20312357Y-3557190D01*
X20252833Y-3438142D01*
X20193309Y-3378619D01*
X20074261Y-3319095D01*
X19717119Y-3319095D01*
X19598071Y-3378619D01*
X19538547Y-3438142D01*
X19479023Y-3557190D01*
X19479023Y-3735761D01*
X19479023Y-2783380D02*
X20312357Y-2783380D01*
X20193309Y-2783380D02*
X20252833Y-2723857D01*
X20312357Y-2604809D01*
X20312357Y-2426238D01*
X20252833Y-2307190D01*
X20133785Y-2247666D01*
X19479023Y-2247666D01*
X20133785Y-2247666D02*
X20252833Y-2188142D01*
X20312357Y-2069095D01*
X20312357Y-1890523D01*
X20252833Y-1771476D01*
X20133785Y-1711952D01*
X19479023Y-1711952D01*
D11*
X35641785Y-65433333D02*
X35587023Y-65488095D01*
X35532261Y-65652380D01*
X35532261Y-65761904D01*
X35587023Y-65926190D01*
X35696547Y-66035714D01*
X35806071Y-66090476D01*
X36025119Y-66145238D01*
X36189404Y-66145238D01*
X36408452Y-66090476D01*
X36517976Y-66035714D01*
X36627500Y-65926190D01*
X36682261Y-65761904D01*
X36682261Y-65652380D01*
X36627500Y-65488095D01*
X36572738Y-65433333D01*
X35532261Y-64776190D02*
X35587023Y-64885714D01*
X35641785Y-64940476D01*
X35751309Y-64995238D01*
X36079880Y-64995238D01*
X36189404Y-64940476D01*
X36244166Y-64885714D01*
X36298928Y-64776190D01*
X36298928Y-64611904D01*
X36244166Y-64502380D01*
X36189404Y-64447619D01*
X36079880Y-64392857D01*
X35751309Y-64392857D01*
X35641785Y-64447619D01*
X35587023Y-64502380D01*
X35532261Y-64611904D01*
X35532261Y-64776190D01*
X36298928Y-63899999D02*
X35532261Y-63899999D01*
X36189404Y-63899999D02*
X36244166Y-63845238D01*
X36298928Y-63735714D01*
X36298928Y-63571428D01*
X36244166Y-63461904D01*
X36134642Y-63407142D01*
X35532261Y-63407142D01*
X36298928Y-62859523D02*
X35532261Y-62859523D01*
X36189404Y-62859523D02*
X36244166Y-62804761D01*
X36298928Y-62695238D01*
X36298928Y-62530952D01*
X36244166Y-62421428D01*
X36134642Y-62366666D01*
X35532261Y-62366666D01*
X35587023Y-61380952D02*
X35532261Y-61490476D01*
X35532261Y-61709523D01*
X35587023Y-61819047D01*
X35696547Y-61873809D01*
X36134642Y-61873809D01*
X36244166Y-61819047D01*
X36298928Y-61709523D01*
X36298928Y-61490476D01*
X36244166Y-61380952D01*
X36134642Y-61326190D01*
X36025119Y-61326190D01*
X35915595Y-61873809D01*
X35587023Y-60340476D02*
X35532261Y-60449999D01*
X35532261Y-60669047D01*
X35587023Y-60778571D01*
X35641785Y-60833333D01*
X35751309Y-60888095D01*
X36079880Y-60888095D01*
X36189404Y-60833333D01*
X36244166Y-60778571D01*
X36298928Y-60669047D01*
X36298928Y-60449999D01*
X36244166Y-60340476D01*
X36298928Y-60011904D02*
X36298928Y-59573809D01*
X36682261Y-59847619D02*
X35696547Y-59847619D01*
X35587023Y-59792857D01*
X35532261Y-59683333D01*
X35532261Y-59573809D01*
X35532261Y-57821428D02*
X36134642Y-57821428D01*
X36244166Y-57876190D01*
X36298928Y-57985714D01*
X36298928Y-58204761D01*
X36244166Y-58314285D01*
X35587023Y-57821428D02*
X35532261Y-57930952D01*
X35532261Y-58204761D01*
X35587023Y-58314285D01*
X35696547Y-58369047D01*
X35806071Y-58369047D01*
X35915595Y-58314285D01*
X35970357Y-58204761D01*
X35970357Y-57930952D01*
X36025119Y-57821428D01*
X36298928Y-57273809D02*
X35532261Y-57273809D01*
X36189404Y-57273809D02*
X36244166Y-57219047D01*
X36298928Y-57109523D01*
X36298928Y-56945238D01*
X36244166Y-56835714D01*
X36134642Y-56780952D01*
X35532261Y-56780952D01*
X36134642Y-55357142D02*
X36134642Y-54973809D01*
X35532261Y-54809523D02*
X35532261Y-55357142D01*
X36682261Y-55357142D01*
X36682261Y-54809523D01*
X35587023Y-54371428D02*
X35532261Y-54207142D01*
X35532261Y-53933333D01*
X35587023Y-53823809D01*
X35641785Y-53769047D01*
X35751309Y-53714285D01*
X35860833Y-53714285D01*
X35970357Y-53769047D01*
X36025119Y-53823809D01*
X36079880Y-53933333D01*
X36134642Y-54152380D01*
X36189404Y-54261904D01*
X36244166Y-54316666D01*
X36353690Y-54371428D01*
X36463214Y-54371428D01*
X36572738Y-54316666D01*
X36627500Y-54261904D01*
X36682261Y-54152380D01*
X36682261Y-53878571D01*
X36627500Y-53714285D01*
X35532261Y-53221428D02*
X36682261Y-53221428D01*
X36682261Y-52783333D01*
X36627500Y-52673809D01*
X36572738Y-52619047D01*
X36463214Y-52564285D01*
X36298928Y-52564285D01*
X36189404Y-52619047D01*
X36134642Y-52673809D01*
X36079880Y-52783333D01*
X36079880Y-53221428D01*
X36189404Y-51907142D02*
X36244166Y-52016666D01*
X36298928Y-52071428D01*
X36408452Y-52126190D01*
X36463214Y-52126190D01*
X36572738Y-52071428D01*
X36627500Y-52016666D01*
X36682261Y-51907142D01*
X36682261Y-51688095D01*
X36627500Y-51578571D01*
X36572738Y-51523809D01*
X36463214Y-51469047D01*
X36408452Y-51469047D01*
X36298928Y-51523809D01*
X36244166Y-51578571D01*
X36189404Y-51688095D01*
X36189404Y-51907142D01*
X36134642Y-52016666D01*
X36079880Y-52071428D01*
X35970357Y-52126190D01*
X35751309Y-52126190D01*
X35641785Y-52071428D01*
X35587023Y-52016666D01*
X35532261Y-51907142D01*
X35532261Y-51688095D01*
X35587023Y-51578571D01*
X35641785Y-51523809D01*
X35751309Y-51469047D01*
X35970357Y-51469047D01*
X36079880Y-51523809D01*
X36134642Y-51578571D01*
X36189404Y-51688095D01*
X36572738Y-51030952D02*
X36627500Y-50976190D01*
X36682261Y-50866666D01*
X36682261Y-50592857D01*
X36627500Y-50483333D01*
X36572738Y-50428571D01*
X36463214Y-50373809D01*
X36353690Y-50373809D01*
X36189404Y-50428571D01*
X35532261Y-51085714D01*
X35532261Y-50373809D01*
X36682261Y-49388095D02*
X36682261Y-49607142D01*
X36627500Y-49716666D01*
X36572738Y-49771428D01*
X36408452Y-49880952D01*
X36189404Y-49935714D01*
X35751309Y-49935714D01*
X35641785Y-49880952D01*
X35587023Y-49826190D01*
X35532261Y-49716666D01*
X35532261Y-49497619D01*
X35587023Y-49388095D01*
X35641785Y-49333333D01*
X35751309Y-49278571D01*
X36025119Y-49278571D01*
X36134642Y-49333333D01*
X36189404Y-49388095D01*
X36244166Y-49497619D01*
X36244166Y-49716666D01*
X36189404Y-49826190D01*
X36134642Y-49880952D01*
X36025119Y-49935714D01*
X36682261Y-48292857D02*
X36682261Y-48511904D01*
X36627500Y-48621428D01*
X36572738Y-48676190D01*
X36408452Y-48785714D01*
X36189404Y-48840476D01*
X35751309Y-48840476D01*
X35641785Y-48785714D01*
X35587023Y-48730952D01*
X35532261Y-48621428D01*
X35532261Y-48402380D01*
X35587023Y-48292857D01*
X35641785Y-48238095D01*
X35751309Y-48183333D01*
X36025119Y-48183333D01*
X36134642Y-48238095D01*
X36189404Y-48292857D01*
X36244166Y-48402380D01*
X36244166Y-48621428D01*
X36189404Y-48730952D01*
X36134642Y-48785714D01*
X36025119Y-48840476D01*
X35532261Y-46814285D02*
X36682261Y-46814285D01*
X36682261Y-46540476D01*
X36627500Y-46376190D01*
X36517976Y-46266666D01*
X36408452Y-46211904D01*
X36189404Y-46157142D01*
X36025119Y-46157142D01*
X35806071Y-46211904D01*
X35696547Y-46266666D01*
X35587023Y-46376190D01*
X35532261Y-46540476D01*
X35532261Y-46814285D01*
X35532261Y-45061904D02*
X35532261Y-45719047D01*
X35532261Y-45390476D02*
X36682261Y-45390476D01*
X36517976Y-45499999D01*
X36408452Y-45609523D01*
X36353690Y-45719047D01*
X35532261Y-43692857D02*
X36298928Y-43692857D01*
X36189404Y-43692857D02*
X36244166Y-43638095D01*
X36298928Y-43528571D01*
X36298928Y-43364285D01*
X36244166Y-43254761D01*
X36134642Y-43199999D01*
X35532261Y-43199999D01*
X36134642Y-43199999D02*
X36244166Y-43145238D01*
X36298928Y-43035714D01*
X36298928Y-42871428D01*
X36244166Y-42761904D01*
X36134642Y-42707142D01*
X35532261Y-42707142D01*
X35532261Y-42159523D02*
X36298928Y-42159523D01*
X36682261Y-42159523D02*
X36627500Y-42214285D01*
X36572738Y-42159523D01*
X36627500Y-42104761D01*
X36682261Y-42159523D01*
X36572738Y-42159523D01*
X36298928Y-41611904D02*
X35532261Y-41611904D01*
X36189404Y-41611904D02*
X36244166Y-41557142D01*
X36298928Y-41447619D01*
X36298928Y-41283333D01*
X36244166Y-41173809D01*
X36134642Y-41119047D01*
X35532261Y-41119047D01*
X35532261Y-40571428D02*
X36298928Y-40571428D01*
X36682261Y-40571428D02*
X36627500Y-40626190D01*
X36572738Y-40571428D01*
X36627500Y-40516666D01*
X36682261Y-40571428D01*
X36572738Y-40571428D01*
X35532261Y-39147619D02*
X36298928Y-39147619D01*
X36189404Y-39147619D02*
X36244166Y-39092857D01*
X36298928Y-38983333D01*
X36298928Y-38819047D01*
X36244166Y-38709523D01*
X36134642Y-38654761D01*
X35532261Y-38654761D01*
X36134642Y-38654761D02*
X36244166Y-38599999D01*
X36298928Y-38490476D01*
X36298928Y-38326190D01*
X36244166Y-38216666D01*
X36134642Y-38161904D01*
X35532261Y-38161904D01*
X35532261Y-37449999D02*
X35587023Y-37559523D01*
X35641785Y-37614285D01*
X35751309Y-37669047D01*
X36079880Y-37669047D01*
X36189404Y-37614285D01*
X36244166Y-37559523D01*
X36298928Y-37449999D01*
X36298928Y-37285714D01*
X36244166Y-37176190D01*
X36189404Y-37121428D01*
X36079880Y-37066666D01*
X35751309Y-37066666D01*
X35641785Y-37121428D01*
X35587023Y-37176190D01*
X35532261Y-37285714D01*
X35532261Y-37449999D01*
X35532261Y-36080952D02*
X36682261Y-36080952D01*
X35587023Y-36080952D02*
X35532261Y-36190476D01*
X35532261Y-36409523D01*
X35587023Y-36519047D01*
X35641785Y-36573809D01*
X35751309Y-36628571D01*
X36079880Y-36628571D01*
X36189404Y-36573809D01*
X36244166Y-36519047D01*
X36298928Y-36409523D01*
X36298928Y-36190476D01*
X36244166Y-36080952D01*
X36298928Y-35040476D02*
X35532261Y-35040476D01*
X36298928Y-35533333D02*
X35696547Y-35533333D01*
X35587023Y-35478571D01*
X35532261Y-35369047D01*
X35532261Y-35204761D01*
X35587023Y-35095238D01*
X35641785Y-35040476D01*
X35532261Y-34328571D02*
X35587023Y-34438095D01*
X35696547Y-34492857D01*
X36682261Y-34492857D01*
X35587023Y-33452380D02*
X35532261Y-33561904D01*
X35532261Y-33780952D01*
X35587023Y-33890476D01*
X35696547Y-33945238D01*
X36134642Y-33945238D01*
X36244166Y-33890476D01*
X36298928Y-33780952D01*
X36298928Y-33561904D01*
X36244166Y-33452380D01*
X36134642Y-33397619D01*
X36025119Y-33397619D01*
X35915595Y-33945238D01*
X36298928Y-32192857D02*
X36298928Y-31754761D01*
X36682261Y-32028571D02*
X35696547Y-32028571D01*
X35587023Y-31973809D01*
X35532261Y-31864285D01*
X35532261Y-31754761D01*
X35532261Y-31207142D02*
X35587023Y-31316666D01*
X35641785Y-31371428D01*
X35751309Y-31426190D01*
X36079880Y-31426190D01*
X36189404Y-31371428D01*
X36244166Y-31316666D01*
X36298928Y-31207142D01*
X36298928Y-31042857D01*
X36244166Y-30933333D01*
X36189404Y-30878571D01*
X36079880Y-30823809D01*
X35751309Y-30823809D01*
X35641785Y-30878571D01*
X35587023Y-30933333D01*
X35532261Y-31042857D01*
X35532261Y-31207142D01*
X35532261Y-28961904D02*
X36134642Y-28961904D01*
X36244166Y-29016666D01*
X36298928Y-29126190D01*
X36298928Y-29345238D01*
X36244166Y-29454761D01*
X35587023Y-28961904D02*
X35532261Y-29071428D01*
X35532261Y-29345238D01*
X35587023Y-29454761D01*
X35696547Y-29509523D01*
X35806071Y-29509523D01*
X35915595Y-29454761D01*
X35970357Y-29345238D01*
X35970357Y-29071428D01*
X36025119Y-28961904D01*
X35532261Y-27538095D02*
X36682261Y-27538095D01*
X36134642Y-27538095D02*
X36134642Y-26880952D01*
X35532261Y-26880952D02*
X36682261Y-26880952D01*
X35532261Y-26169047D02*
X35587023Y-26278571D01*
X35641785Y-26333333D01*
X35751309Y-26388095D01*
X36079880Y-26388095D01*
X36189404Y-26333333D01*
X36244166Y-26278571D01*
X36298928Y-26169047D01*
X36298928Y-26004761D01*
X36244166Y-25895238D01*
X36189404Y-25840476D01*
X36079880Y-25785714D01*
X35751309Y-25785714D01*
X35641785Y-25840476D01*
X35587023Y-25895238D01*
X35532261Y-26004761D01*
X35532261Y-26169047D01*
X36298928Y-25292857D02*
X35532261Y-25292857D01*
X36189404Y-25292857D02*
X36244166Y-25238095D01*
X36298928Y-25128571D01*
X36298928Y-24964285D01*
X36244166Y-24854761D01*
X36134642Y-24799999D01*
X35532261Y-24799999D01*
X35587023Y-23814285D02*
X35532261Y-23923809D01*
X35532261Y-24142857D01*
X35587023Y-24252380D01*
X35696547Y-24307142D01*
X36134642Y-24307142D01*
X36244166Y-24252380D01*
X36298928Y-24142857D01*
X36298928Y-23923809D01*
X36244166Y-23814285D01*
X36134642Y-23759523D01*
X36025119Y-23759523D01*
X35915595Y-24307142D01*
X36298928Y-23376190D02*
X35532261Y-23102380D01*
X36298928Y-22828571D02*
X35532261Y-23102380D01*
X35258452Y-23211904D01*
X35203690Y-23266666D01*
X35148928Y-23376190D01*
X36298928Y-22499999D02*
X35532261Y-22280952D01*
X36079880Y-22061904D01*
X35532261Y-21842857D01*
X36298928Y-21623809D01*
X35587023Y-20747619D02*
X35532261Y-20857142D01*
X35532261Y-21076190D01*
X35587023Y-21185714D01*
X35696547Y-21240476D01*
X36134642Y-21240476D01*
X36244166Y-21185714D01*
X36298928Y-21076190D01*
X36298928Y-20857142D01*
X36244166Y-20747619D01*
X36134642Y-20692857D01*
X36025119Y-20692857D01*
X35915595Y-21240476D01*
X35532261Y-20035714D02*
X35587023Y-20145238D01*
X35696547Y-20199999D01*
X36682261Y-20199999D01*
X35532261Y-19433333D02*
X35587023Y-19542857D01*
X35696547Y-19597619D01*
X36682261Y-19597619D01*
X36682261Y-18283333D02*
X35532261Y-17899999D01*
X36682261Y-17516666D01*
X35532261Y-17133333D02*
X36298928Y-17133333D01*
X36682261Y-17133333D02*
X36627500Y-17188095D01*
X36572738Y-17133333D01*
X36627500Y-17078571D01*
X36682261Y-17133333D01*
X36572738Y-17133333D01*
X35587023Y-16640476D02*
X35532261Y-16530952D01*
X35532261Y-16311904D01*
X35587023Y-16202380D01*
X35696547Y-16147619D01*
X35751309Y-16147619D01*
X35860833Y-16202380D01*
X35915595Y-16311904D01*
X35915595Y-16476190D01*
X35970357Y-16585714D01*
X36079880Y-16640476D01*
X36134642Y-16640476D01*
X36244166Y-16585714D01*
X36298928Y-16476190D01*
X36298928Y-16311904D01*
X36244166Y-16202380D01*
X36298928Y-15819047D02*
X36298928Y-15380952D01*
X36682261Y-15654761D02*
X35696547Y-15654761D01*
X35587023Y-15599999D01*
X35532261Y-15490476D01*
X35532261Y-15380952D01*
X35532261Y-14504761D02*
X36134642Y-14504761D01*
X36244166Y-14559523D01*
X36298928Y-14669047D01*
X36298928Y-14888095D01*
X36244166Y-14997619D01*
X35587023Y-14504761D02*
X35532261Y-14614285D01*
X35532261Y-14888095D01*
X35587023Y-14997619D01*
X35696547Y-15052380D01*
X35806071Y-15052380D01*
X35915595Y-14997619D01*
X35970357Y-14888095D01*
X35970357Y-14614285D01*
X36025119Y-14504761D01*
X35532261Y-12588095D02*
X36134642Y-12588095D01*
X36244166Y-12642857D01*
X36298928Y-12752380D01*
X36298928Y-12971428D01*
X36244166Y-13080952D01*
X35587023Y-12588095D02*
X35532261Y-12697619D01*
X35532261Y-12971428D01*
X35587023Y-13080952D01*
X35696547Y-13135714D01*
X35806071Y-13135714D01*
X35915595Y-13080952D01*
X35970357Y-12971428D01*
X35970357Y-12697619D01*
X36025119Y-12588095D01*
X35532261Y-11876190D02*
X35587023Y-11985714D01*
X35696547Y-12040476D01*
X36682261Y-12040476D01*
X35532261Y-10945238D02*
X36134642Y-10945238D01*
X36244166Y-10999999D01*
X36298928Y-11109523D01*
X36298928Y-11328571D01*
X36244166Y-11438095D01*
X35587023Y-10945238D02*
X35532261Y-11054761D01*
X35532261Y-11328571D01*
X35587023Y-11438095D01*
X35696547Y-11492857D01*
X35806071Y-11492857D01*
X35915595Y-11438095D01*
X35970357Y-11328571D01*
X35970357Y-11054761D01*
X36025119Y-10945238D01*
X35532261Y-10397619D02*
X36298928Y-10397619D01*
X36079880Y-10397619D02*
X36189404Y-10342857D01*
X36244166Y-10288095D01*
X36298928Y-10178571D01*
X36298928Y-10069047D01*
X35532261Y-9685714D02*
X36298928Y-9685714D01*
X36189404Y-9685714D02*
X36244166Y-9630952D01*
X36298928Y-9521428D01*
X36298928Y-9357142D01*
X36244166Y-9247619D01*
X36134642Y-9192857D01*
X35532261Y-9192857D01*
X36134642Y-9192857D02*
X36244166Y-9138095D01*
X36298928Y-9028571D01*
X36298928Y-8864285D01*
X36244166Y-8754761D01*
X36134642Y-8699999D01*
X35532261Y-8699999D01*
X35587023Y-7330952D02*
X35532261Y-7221428D01*
X35532261Y-7002380D01*
X35587023Y-6892857D01*
X35696547Y-6838095D01*
X35751309Y-6838095D01*
X35860833Y-6892857D01*
X35915595Y-7002380D01*
X35915595Y-7166666D01*
X35970357Y-7276190D01*
X36079880Y-7330952D01*
X36134642Y-7330952D01*
X36244166Y-7276190D01*
X36298928Y-7166666D01*
X36298928Y-7002380D01*
X36244166Y-6892857D01*
X36298928Y-6454761D02*
X35532261Y-6180952D01*
X36298928Y-5907142D02*
X35532261Y-6180952D01*
X35258452Y-6290476D01*
X35203690Y-6345238D01*
X35148928Y-6454761D01*
X35587023Y-5523809D02*
X35532261Y-5414285D01*
X35532261Y-5195238D01*
X35587023Y-5085714D01*
X35696547Y-5030952D01*
X35751309Y-5030952D01*
X35860833Y-5085714D01*
X35915595Y-5195238D01*
X35915595Y-5359523D01*
X35970357Y-5469047D01*
X36079880Y-5523809D01*
X36134642Y-5523809D01*
X36244166Y-5469047D01*
X36298928Y-5359523D01*
X36298928Y-5195238D01*
X36244166Y-5085714D01*
X36298928Y-4702380D02*
X36298928Y-4264285D01*
X36682261Y-4538095D02*
X35696547Y-4538095D01*
X35587023Y-4483333D01*
X35532261Y-4373809D01*
X35532261Y-4264285D01*
X35587023Y-3442857D02*
X35532261Y-3552380D01*
X35532261Y-3771428D01*
X35587023Y-3880952D01*
X35696547Y-3935714D01*
X36134642Y-3935714D01*
X36244166Y-3880952D01*
X36298928Y-3771428D01*
X36298928Y-3552380D01*
X36244166Y-3442857D01*
X36134642Y-3388095D01*
X36025119Y-3388095D01*
X35915595Y-3935714D01*
X35532261Y-2895238D02*
X36298928Y-2895238D01*
X36189404Y-2895238D02*
X36244166Y-2840476D01*
X36298928Y-2730952D01*
X36298928Y-2566666D01*
X36244166Y-2457142D01*
X36134642Y-2402380D01*
X35532261Y-2402380D01*
X36134642Y-2402380D02*
X36244166Y-2347619D01*
X36298928Y-2238095D01*
X36298928Y-2073809D01*
X36244166Y-1964285D01*
X36134642Y-1909523D01*
X35532261Y-1909523D01*
X34323928Y-63954761D02*
X33557261Y-63954761D01*
X34323928Y-64447619D02*
X33721547Y-64447619D01*
X33612023Y-64392857D01*
X33557261Y-64283333D01*
X33557261Y-64119047D01*
X33612023Y-64009523D01*
X33666785Y-63954761D01*
X33612023Y-63461904D02*
X33557261Y-63352380D01*
X33557261Y-63133333D01*
X33612023Y-63023809D01*
X33721547Y-62969047D01*
X33776309Y-62969047D01*
X33885833Y-63023809D01*
X33940595Y-63133333D01*
X33940595Y-63297619D01*
X33995357Y-63407142D01*
X34104880Y-63461904D01*
X34159642Y-63461904D01*
X34269166Y-63407142D01*
X34323928Y-63297619D01*
X34323928Y-63133333D01*
X34269166Y-63023809D01*
X33557261Y-62476190D02*
X34323928Y-62476190D01*
X34707261Y-62476190D02*
X34652500Y-62530952D01*
X34597738Y-62476190D01*
X34652500Y-62421428D01*
X34707261Y-62476190D01*
X34597738Y-62476190D01*
X34323928Y-61928571D02*
X33557261Y-61928571D01*
X34214404Y-61928571D02*
X34269166Y-61873809D01*
X34323928Y-61764285D01*
X34323928Y-61600000D01*
X34269166Y-61490476D01*
X34159642Y-61435714D01*
X33557261Y-61435714D01*
X34323928Y-60395238D02*
X33392976Y-60395238D01*
X33283452Y-60450000D01*
X33228690Y-60504761D01*
X33173928Y-60614285D01*
X33173928Y-60778571D01*
X33228690Y-60888095D01*
X33612023Y-60395238D02*
X33557261Y-60504761D01*
X33557261Y-60723809D01*
X33612023Y-60833333D01*
X33666785Y-60888095D01*
X33776309Y-60942857D01*
X34104880Y-60942857D01*
X34214404Y-60888095D01*
X34269166Y-60833333D01*
X34323928Y-60723809D01*
X34323928Y-60504761D01*
X34269166Y-60395238D01*
X34323928Y-59135714D02*
X34323928Y-58697619D01*
X34707261Y-58971428D02*
X33721547Y-58971428D01*
X33612023Y-58916666D01*
X33557261Y-58807142D01*
X33557261Y-58697619D01*
X33557261Y-58314285D02*
X34707261Y-58314285D01*
X33557261Y-57821428D02*
X34159642Y-57821428D01*
X34269166Y-57876190D01*
X34323928Y-57985714D01*
X34323928Y-58150000D01*
X34269166Y-58259523D01*
X34214404Y-58314285D01*
X33612023Y-56835714D02*
X33557261Y-56945238D01*
X33557261Y-57164285D01*
X33612023Y-57273809D01*
X33721547Y-57328571D01*
X34159642Y-57328571D01*
X34269166Y-57273809D01*
X34323928Y-57164285D01*
X34323928Y-56945238D01*
X34269166Y-56835714D01*
X34159642Y-56780952D01*
X34050119Y-56780952D01*
X33940595Y-57328571D01*
X34159642Y-55411904D02*
X34159642Y-55028571D01*
X33557261Y-54864285D02*
X33557261Y-55411904D01*
X34707261Y-55411904D01*
X34707261Y-54864285D01*
X33666785Y-53714285D02*
X33612023Y-53769047D01*
X33557261Y-53933333D01*
X33557261Y-54042857D01*
X33612023Y-54207142D01*
X33721547Y-54316666D01*
X33831071Y-54371428D01*
X34050119Y-54426190D01*
X34214404Y-54426190D01*
X34433452Y-54371428D01*
X34542976Y-54316666D01*
X34652500Y-54207142D01*
X34707261Y-54042857D01*
X34707261Y-53933333D01*
X34652500Y-53769047D01*
X34597738Y-53714285D01*
X33557261Y-53221428D02*
X34707261Y-53221428D01*
X34707261Y-52783333D01*
X34652500Y-52673809D01*
X34597738Y-52619047D01*
X34488214Y-52564285D01*
X34323928Y-52564285D01*
X34214404Y-52619047D01*
X34159642Y-52673809D01*
X34104880Y-52783333D01*
X34104880Y-53221428D01*
X33557261Y-50592857D02*
X33557261Y-51250000D01*
X33557261Y-50921428D02*
X34707261Y-50921428D01*
X34542976Y-51030952D01*
X34433452Y-51140476D01*
X34378690Y-51250000D01*
X34597738Y-50154761D02*
X34652500Y-50100000D01*
X34707261Y-49990476D01*
X34707261Y-49716666D01*
X34652500Y-49607142D01*
X34597738Y-49552380D01*
X34488214Y-49497619D01*
X34378690Y-49497619D01*
X34214404Y-49552380D01*
X33557261Y-50209523D01*
X33557261Y-49497619D01*
X34323928Y-49114285D02*
X33557261Y-48840476D01*
X34323928Y-48566666D01*
X33557261Y-47635714D02*
X34707261Y-47635714D01*
X33612023Y-47635714D02*
X33557261Y-47745238D01*
X33557261Y-47964285D01*
X33612023Y-48073809D01*
X33666785Y-48128571D01*
X33776309Y-48183333D01*
X34104880Y-48183333D01*
X34214404Y-48128571D01*
X34269166Y-48073809D01*
X34323928Y-47964285D01*
X34323928Y-47745238D01*
X34269166Y-47635714D01*
X33612023Y-46595238D02*
X33557261Y-46704761D01*
X33557261Y-46923809D01*
X33612023Y-47033333D01*
X33666785Y-47088095D01*
X33776309Y-47142857D01*
X34104880Y-47142857D01*
X34214404Y-47088095D01*
X34269166Y-47033333D01*
X34323928Y-46923809D01*
X34323928Y-46704761D01*
X34269166Y-46595238D01*
X33612023Y-45280952D02*
X33557261Y-45171428D01*
X33557261Y-44952380D01*
X33612023Y-44842857D01*
X33721547Y-44788095D01*
X33776309Y-44788095D01*
X33885833Y-44842857D01*
X33940595Y-44952380D01*
X33940595Y-45116666D01*
X33995357Y-45226190D01*
X34104880Y-45280952D01*
X34159642Y-45280952D01*
X34269166Y-45226190D01*
X34323928Y-45116666D01*
X34323928Y-44952380D01*
X34269166Y-44842857D01*
X33612023Y-43857142D02*
X33557261Y-43966666D01*
X33557261Y-44185714D01*
X33612023Y-44295238D01*
X33721547Y-44349999D01*
X34159642Y-44349999D01*
X34269166Y-44295238D01*
X34323928Y-44185714D01*
X34323928Y-43966666D01*
X34269166Y-43857142D01*
X34159642Y-43802380D01*
X34050119Y-43802380D01*
X33940595Y-44349999D01*
X33557261Y-43309523D02*
X34323928Y-43309523D01*
X34104880Y-43309523D02*
X34214404Y-43254761D01*
X34269166Y-43199999D01*
X34323928Y-43090476D01*
X34323928Y-42980952D01*
X33557261Y-42597619D02*
X34323928Y-42597619D01*
X34707261Y-42597619D02*
X34652500Y-42652380D01*
X34597738Y-42597619D01*
X34652500Y-42542857D01*
X34707261Y-42597619D01*
X34597738Y-42597619D01*
X33557261Y-41557142D02*
X34159642Y-41557142D01*
X34269166Y-41611904D01*
X34323928Y-41721428D01*
X34323928Y-41940476D01*
X34269166Y-42050000D01*
X33612023Y-41557142D02*
X33557261Y-41666666D01*
X33557261Y-41940476D01*
X33612023Y-42050000D01*
X33721547Y-42104761D01*
X33831071Y-42104761D01*
X33940595Y-42050000D01*
X33995357Y-41940476D01*
X33995357Y-41666666D01*
X34050119Y-41557142D01*
X33557261Y-40845238D02*
X33612023Y-40954761D01*
X33721547Y-41009523D01*
X34707261Y-41009523D01*
X33557261Y-39530952D02*
X34323928Y-39530952D01*
X34707261Y-39530952D02*
X34652500Y-39585714D01*
X34597738Y-39530952D01*
X34652500Y-39476190D01*
X34707261Y-39530952D01*
X34597738Y-39530952D01*
X34323928Y-38983333D02*
X33557261Y-38983333D01*
X34214404Y-38983333D02*
X34269166Y-38928571D01*
X34323928Y-38819047D01*
X34323928Y-38654761D01*
X34269166Y-38545238D01*
X34159642Y-38490476D01*
X33557261Y-38490476D01*
X34323928Y-38107142D02*
X34323928Y-37669047D01*
X34707261Y-37942857D02*
X33721547Y-37942857D01*
X33612023Y-37888095D01*
X33557261Y-37778571D01*
X33557261Y-37669047D01*
X33612023Y-36847619D02*
X33557261Y-36957142D01*
X33557261Y-37176190D01*
X33612023Y-37285714D01*
X33721547Y-37340476D01*
X34159642Y-37340476D01*
X34269166Y-37285714D01*
X34323928Y-37176190D01*
X34323928Y-36957142D01*
X34269166Y-36847619D01*
X34159642Y-36792857D01*
X34050119Y-36792857D01*
X33940595Y-37340476D01*
X33557261Y-36299999D02*
X34323928Y-36299999D01*
X34104880Y-36299999D02*
X34214404Y-36245238D01*
X34269166Y-36190476D01*
X34323928Y-36080952D01*
X34323928Y-35971428D01*
X34323928Y-35752380D02*
X34323928Y-35314285D01*
X33557261Y-35588095D02*
X34542976Y-35588095D01*
X34652500Y-35533333D01*
X34707261Y-35423809D01*
X34707261Y-35314285D01*
X33557261Y-34438095D02*
X34159642Y-34438095D01*
X34269166Y-34492857D01*
X34323928Y-34602380D01*
X34323928Y-34821428D01*
X34269166Y-34930952D01*
X33612023Y-34438095D02*
X33557261Y-34547619D01*
X33557261Y-34821428D01*
X33612023Y-34930952D01*
X33721547Y-34985714D01*
X33831071Y-34985714D01*
X33940595Y-34930952D01*
X33995357Y-34821428D01*
X33995357Y-34547619D01*
X34050119Y-34438095D01*
X33612023Y-33397619D02*
X33557261Y-33507142D01*
X33557261Y-33726190D01*
X33612023Y-33835714D01*
X33666785Y-33890476D01*
X33776309Y-33945238D01*
X34104880Y-33945238D01*
X34214404Y-33890476D01*
X34269166Y-33835714D01*
X34323928Y-33726190D01*
X34323928Y-33507142D01*
X34269166Y-33397619D01*
X33612023Y-32466666D02*
X33557261Y-32576190D01*
X33557261Y-32795238D01*
X33612023Y-32904761D01*
X33721547Y-32959523D01*
X34159642Y-32959523D01*
X34269166Y-32904761D01*
X34323928Y-32795238D01*
X34323928Y-32576190D01*
X34269166Y-32466666D01*
X34159642Y-32411904D01*
X34050119Y-32411904D01*
X33940595Y-32959523D01*
X33557261Y-30549999D02*
X34159642Y-30549999D01*
X34269166Y-30604761D01*
X34323928Y-30714285D01*
X34323928Y-30933333D01*
X34269166Y-31042857D01*
X33612023Y-30549999D02*
X33557261Y-30659523D01*
X33557261Y-30933333D01*
X33612023Y-31042857D01*
X33721547Y-31097619D01*
X33831071Y-31097619D01*
X33940595Y-31042857D01*
X33995357Y-30933333D01*
X33995357Y-30659523D01*
X34050119Y-30549999D01*
X34323928Y-30002380D02*
X33557261Y-30002380D01*
X34214404Y-30002380D02*
X34269166Y-29947619D01*
X34323928Y-29838095D01*
X34323928Y-29673809D01*
X34269166Y-29564285D01*
X34159642Y-29509523D01*
X33557261Y-29509523D01*
X33557261Y-28469047D02*
X34707261Y-28469047D01*
X33612023Y-28469047D02*
X33557261Y-28578571D01*
X33557261Y-28797619D01*
X33612023Y-28907142D01*
X33666785Y-28961904D01*
X33776309Y-29016666D01*
X34104880Y-29016666D01*
X34214404Y-28961904D01*
X34269166Y-28907142D01*
X34323928Y-28797619D01*
X34323928Y-28578571D01*
X34269166Y-28469047D01*
X33885833Y-27099999D02*
X33885833Y-26552380D01*
X33557261Y-27209523D02*
X34707261Y-26826190D01*
X33557261Y-26442857D01*
X33557261Y-25895238D02*
X33612023Y-26004761D01*
X33721547Y-26059523D01*
X34707261Y-26059523D01*
X33557261Y-24964285D02*
X34159642Y-24964285D01*
X34269166Y-25019047D01*
X34323928Y-25128571D01*
X34323928Y-25347619D01*
X34269166Y-25457142D01*
X33612023Y-24964285D02*
X33557261Y-25073809D01*
X33557261Y-25347619D01*
X33612023Y-25457142D01*
X33721547Y-25511904D01*
X33831071Y-25511904D01*
X33940595Y-25457142D01*
X33995357Y-25347619D01*
X33995357Y-25073809D01*
X34050119Y-24964285D01*
X33557261Y-24416666D02*
X34323928Y-24416666D01*
X34707261Y-24416666D02*
X34652500Y-24471428D01*
X34597738Y-24416666D01*
X34652500Y-24361904D01*
X34707261Y-24416666D01*
X34597738Y-24416666D01*
X34323928Y-23869047D02*
X33557261Y-23869047D01*
X34214404Y-23869047D02*
X34269166Y-23814285D01*
X34323928Y-23704761D01*
X34323928Y-23540476D01*
X34269166Y-23430952D01*
X34159642Y-23376190D01*
X33557261Y-23376190D01*
X34707261Y-22116666D02*
X34707261Y-21459523D01*
X33557261Y-21788095D02*
X34707261Y-21788095D01*
X34323928Y-20583333D02*
X33557261Y-20583333D01*
X34323928Y-21076190D02*
X33721547Y-21076190D01*
X33612023Y-21021428D01*
X33557261Y-20911904D01*
X33557261Y-20747619D01*
X33612023Y-20638095D01*
X33666785Y-20583333D01*
X33557261Y-20035714D02*
X34323928Y-20035714D01*
X34104880Y-20035714D02*
X34214404Y-19980952D01*
X34269166Y-19926190D01*
X34323928Y-19816666D01*
X34323928Y-19707142D01*
X33557261Y-19323809D02*
X34707261Y-19323809D01*
X34269166Y-19323809D02*
X34323928Y-19214285D01*
X34323928Y-18995238D01*
X34269166Y-18885714D01*
X34214404Y-18830952D01*
X34104880Y-18776190D01*
X33776309Y-18776190D01*
X33666785Y-18830952D01*
X33612023Y-18885714D01*
X33557261Y-18995238D01*
X33557261Y-19214285D01*
X33612023Y-19323809D01*
X33557261Y-18283333D02*
X34323928Y-18283333D01*
X34707261Y-18283333D02*
X34652500Y-18338095D01*
X34597738Y-18283333D01*
X34652500Y-18228571D01*
X34707261Y-18283333D01*
X34597738Y-18283333D01*
X33557261Y-17242857D02*
X34707261Y-17242857D01*
X33612023Y-17242857D02*
X33557261Y-17352380D01*
X33557261Y-17571428D01*
X33612023Y-17680952D01*
X33666785Y-17735714D01*
X33776309Y-17790476D01*
X34104880Y-17790476D01*
X34214404Y-17735714D01*
X34269166Y-17680952D01*
X34323928Y-17571428D01*
X34323928Y-17352380D01*
X34269166Y-17242857D01*
X33612023Y-16257142D02*
X33557261Y-16366666D01*
X33557261Y-16585714D01*
X33612023Y-16695238D01*
X33721547Y-16749999D01*
X34159642Y-16749999D01*
X34269166Y-16695238D01*
X34323928Y-16585714D01*
X34323928Y-16366666D01*
X34269166Y-16257142D01*
X34159642Y-16202380D01*
X34050119Y-16202380D01*
X33940595Y-16749999D01*
X34707261Y-15654761D02*
X34488214Y-15764285D01*
X33612023Y-15216666D02*
X33557261Y-15107142D01*
X33557261Y-14888095D01*
X33612023Y-14778571D01*
X33721547Y-14723809D01*
X33776309Y-14723809D01*
X33885833Y-14778571D01*
X33940595Y-14888095D01*
X33940595Y-15052380D01*
X33995357Y-15161904D01*
X34104880Y-15216666D01*
X34159642Y-15216666D01*
X34269166Y-15161904D01*
X34323928Y-15052380D01*
X34323928Y-14888095D01*
X34269166Y-14778571D01*
X33612023Y-13409523D02*
X33557261Y-13299999D01*
X33557261Y-13080952D01*
X33612023Y-12971428D01*
X33721547Y-12916666D01*
X33776309Y-12916666D01*
X33885833Y-12971428D01*
X33940595Y-13080952D01*
X33940595Y-13245238D01*
X33995357Y-13354761D01*
X34104880Y-13409523D01*
X34159642Y-13409523D01*
X34269166Y-13354761D01*
X34323928Y-13245238D01*
X34323928Y-13080952D01*
X34269166Y-12971428D01*
X33557261Y-12259523D02*
X33612023Y-12369047D01*
X33666785Y-12423809D01*
X33776309Y-12478571D01*
X34104880Y-12478571D01*
X34214404Y-12423809D01*
X34269166Y-12369047D01*
X34323928Y-12259523D01*
X34323928Y-12095238D01*
X34269166Y-11985714D01*
X34214404Y-11930952D01*
X34104880Y-11876190D01*
X33776309Y-11876190D01*
X33666785Y-11930952D01*
X33612023Y-11985714D01*
X33557261Y-12095238D01*
X33557261Y-12259523D01*
X34323928Y-11547619D02*
X34323928Y-11109523D01*
X33557261Y-11383333D02*
X34542976Y-11383333D01*
X34652500Y-11328571D01*
X34707261Y-11219047D01*
X34707261Y-11109523D01*
X34323928Y-10890476D02*
X34323928Y-10452380D01*
X34707261Y-10726190D02*
X33721547Y-10726190D01*
X33612023Y-10671428D01*
X33557261Y-10561904D01*
X33557261Y-10452380D01*
X34323928Y-10178571D02*
X33557261Y-9959523D01*
X34104880Y-9740476D01*
X33557261Y-9521428D01*
X34323928Y-9302380D01*
X33557261Y-8371428D02*
X34159642Y-8371428D01*
X34269166Y-8426190D01*
X34323928Y-8535714D01*
X34323928Y-8754761D01*
X34269166Y-8864285D01*
X33612023Y-8371428D02*
X33557261Y-8480952D01*
X33557261Y-8754761D01*
X33612023Y-8864285D01*
X33721547Y-8919047D01*
X33831071Y-8919047D01*
X33940595Y-8864285D01*
X33995357Y-8754761D01*
X33995357Y-8480952D01*
X34050119Y-8371428D01*
X33557261Y-7823809D02*
X34323928Y-7823809D01*
X34104880Y-7823809D02*
X34214404Y-7769047D01*
X34269166Y-7714285D01*
X34323928Y-7604761D01*
X34323928Y-7495238D01*
X33612023Y-6673809D02*
X33557261Y-6783333D01*
X33557261Y-7002380D01*
X33612023Y-7111904D01*
X33721547Y-7166666D01*
X34159642Y-7166666D01*
X34269166Y-7111904D01*
X34323928Y-7002380D01*
X34323928Y-6783333D01*
X34269166Y-6673809D01*
X34159642Y-6619047D01*
X34050119Y-6619047D01*
X33940595Y-7166666D01*
X33557261Y-4757142D02*
X34159642Y-4757142D01*
X34269166Y-4811904D01*
X34323928Y-4921428D01*
X34323928Y-5140476D01*
X34269166Y-5249999D01*
X33612023Y-4757142D02*
X33557261Y-4866666D01*
X33557261Y-5140476D01*
X33612023Y-5249999D01*
X33721547Y-5304761D01*
X33831071Y-5304761D01*
X33940595Y-5249999D01*
X33995357Y-5140476D01*
X33995357Y-4866666D01*
X34050119Y-4757142D01*
X34323928Y-4373809D02*
X34323928Y-3935714D01*
X34707261Y-4209523D02*
X33721547Y-4209523D01*
X33612023Y-4154761D01*
X33557261Y-4045238D01*
X33557261Y-3935714D01*
X33666785Y-3552380D02*
X33612023Y-3497619D01*
X33557261Y-3552380D01*
X33612023Y-3607142D01*
X33666785Y-3552380D01*
X33557261Y-3552380D01*
X34269166Y-3552380D02*
X34214404Y-3497619D01*
X34159642Y-3552380D01*
X34214404Y-3607142D01*
X34269166Y-3552380D01*
X34159642Y-3552380D01*
X31582261Y-55439285D02*
X32732261Y-55439285D01*
X31582261Y-54946428D02*
X32184642Y-54946428D01*
X32294166Y-55001190D01*
X32348928Y-55110714D01*
X32348928Y-55275000D01*
X32294166Y-55384523D01*
X32239404Y-55439285D01*
X32348928Y-54563095D02*
X32348928Y-54125000D01*
X32732261Y-54398809D02*
X31746547Y-54398809D01*
X31637023Y-54344047D01*
X31582261Y-54234523D01*
X31582261Y-54125000D01*
X32348928Y-53905952D02*
X32348928Y-53467857D01*
X32732261Y-53741666D02*
X31746547Y-53741666D01*
X31637023Y-53686904D01*
X31582261Y-53577380D01*
X31582261Y-53467857D01*
X32348928Y-53084523D02*
X31198928Y-53084523D01*
X32294166Y-53084523D02*
X32348928Y-52974999D01*
X32348928Y-52755952D01*
X32294166Y-52646428D01*
X32239404Y-52591666D01*
X32129880Y-52536904D01*
X31801309Y-52536904D01*
X31691785Y-52591666D01*
X31637023Y-52646428D01*
X31582261Y-52755952D01*
X31582261Y-52974999D01*
X31637023Y-53084523D01*
X31637023Y-52098809D02*
X31582261Y-51989285D01*
X31582261Y-51770238D01*
X31637023Y-51660714D01*
X31746547Y-51605952D01*
X31801309Y-51605952D01*
X31910833Y-51660714D01*
X31965595Y-51770238D01*
X31965595Y-51934523D01*
X32020357Y-52044047D01*
X32129880Y-52098809D01*
X32184642Y-52098809D01*
X32294166Y-52044047D01*
X32348928Y-51934523D01*
X32348928Y-51770238D01*
X32294166Y-51660714D01*
X31691785Y-51113095D02*
X31637023Y-51058333D01*
X31582261Y-51113095D01*
X31637023Y-51167857D01*
X31691785Y-51113095D01*
X31582261Y-51113095D01*
X32294166Y-51113095D02*
X32239404Y-51058333D01*
X32184642Y-51113095D01*
X32239404Y-51167857D01*
X32294166Y-51113095D01*
X32184642Y-51113095D01*
X32787023Y-49744047D02*
X31308452Y-50729761D01*
X32787023Y-48539285D02*
X31308452Y-49525000D01*
X32348928Y-47663095D02*
X31417976Y-47663095D01*
X31308452Y-47717857D01*
X31253690Y-47772619D01*
X31198928Y-47882142D01*
X31198928Y-48046428D01*
X31253690Y-48155952D01*
X31637023Y-47663095D02*
X31582261Y-47772619D01*
X31582261Y-47991666D01*
X31637023Y-48101190D01*
X31691785Y-48155952D01*
X31801309Y-48210714D01*
X32129880Y-48210714D01*
X32239404Y-48155952D01*
X32294166Y-48101190D01*
X32348928Y-47991666D01*
X32348928Y-47772619D01*
X32294166Y-47663095D01*
X31582261Y-47115476D02*
X32348928Y-47115476D01*
X32732261Y-47115476D02*
X32677500Y-47170238D01*
X32622738Y-47115476D01*
X32677500Y-47060714D01*
X32732261Y-47115476D01*
X32622738Y-47115476D01*
X32348928Y-46732142D02*
X32348928Y-46294047D01*
X32732261Y-46567857D02*
X31746547Y-46567857D01*
X31637023Y-46513095D01*
X31582261Y-46403571D01*
X31582261Y-46294047D01*
X31582261Y-45910714D02*
X32732261Y-45910714D01*
X31582261Y-45417857D02*
X32184642Y-45417857D01*
X32294166Y-45472619D01*
X32348928Y-45582142D01*
X32348928Y-45746428D01*
X32294166Y-45855952D01*
X32239404Y-45910714D01*
X32348928Y-44377380D02*
X31582261Y-44377380D01*
X32348928Y-44870238D02*
X31746547Y-44870238D01*
X31637023Y-44815476D01*
X31582261Y-44705952D01*
X31582261Y-44541666D01*
X31637023Y-44432142D01*
X31691785Y-44377380D01*
X31582261Y-43829761D02*
X32732261Y-43829761D01*
X32294166Y-43829761D02*
X32348928Y-43720238D01*
X32348928Y-43501190D01*
X32294166Y-43391666D01*
X32239404Y-43336904D01*
X32129880Y-43282142D01*
X31801309Y-43282142D01*
X31691785Y-43336904D01*
X31637023Y-43391666D01*
X31582261Y-43501190D01*
X31582261Y-43720238D01*
X31637023Y-43829761D01*
X31691785Y-42789285D02*
X31637023Y-42734523D01*
X31582261Y-42789285D01*
X31637023Y-42844047D01*
X31691785Y-42789285D01*
X31582261Y-42789285D01*
X31637023Y-41748809D02*
X31582261Y-41858333D01*
X31582261Y-42077380D01*
X31637023Y-42186904D01*
X31691785Y-42241666D01*
X31801309Y-42296428D01*
X32129880Y-42296428D01*
X32239404Y-42241666D01*
X32294166Y-42186904D01*
X32348928Y-42077380D01*
X32348928Y-41858333D01*
X32294166Y-41748809D01*
X31582261Y-41091666D02*
X31637023Y-41201190D01*
X31691785Y-41255952D01*
X31801309Y-41310714D01*
X32129880Y-41310714D01*
X32239404Y-41255952D01*
X32294166Y-41201190D01*
X32348928Y-41091666D01*
X32348928Y-40927380D01*
X32294166Y-40817857D01*
X32239404Y-40763095D01*
X32129880Y-40708333D01*
X31801309Y-40708333D01*
X31691785Y-40763095D01*
X31637023Y-40817857D01*
X31582261Y-40927380D01*
X31582261Y-41091666D01*
X31582261Y-40215476D02*
X32348928Y-40215476D01*
X32239404Y-40215476D02*
X32294166Y-40160714D01*
X32348928Y-40051190D01*
X32348928Y-39886904D01*
X32294166Y-39777380D01*
X32184642Y-39722619D01*
X31582261Y-39722619D01*
X32184642Y-39722619D02*
X32294166Y-39667857D01*
X32348928Y-39558333D01*
X32348928Y-39394047D01*
X32294166Y-39284523D01*
X32184642Y-39229761D01*
X31582261Y-39229761D01*
X32787023Y-37860714D02*
X31308452Y-38846428D01*
X31582261Y-37477380D02*
X32732261Y-37477380D01*
X32732261Y-37203571D01*
X32677500Y-37039285D01*
X32567976Y-36929761D01*
X32458452Y-36875000D01*
X32239404Y-36820238D01*
X32075119Y-36820238D01*
X31856071Y-36875000D01*
X31746547Y-36929761D01*
X31637023Y-37039285D01*
X31582261Y-37203571D01*
X31582261Y-37477380D01*
X31582261Y-36327380D02*
X32348928Y-36327380D01*
X32732261Y-36327380D02*
X32677500Y-36382142D01*
X32622738Y-36327380D01*
X32677500Y-36272619D01*
X32732261Y-36327380D01*
X32622738Y-36327380D01*
X31582261Y-35615476D02*
X31637023Y-35725000D01*
X31746547Y-35779761D01*
X32732261Y-35779761D01*
X31582261Y-35177380D02*
X32732261Y-35177380D01*
X32294166Y-35177380D02*
X32348928Y-35067857D01*
X32348928Y-34848809D01*
X32294166Y-34739285D01*
X32239404Y-34684523D01*
X32129880Y-34629761D01*
X31801309Y-34629761D01*
X31691785Y-34684523D01*
X31637023Y-34739285D01*
X31582261Y-34848809D01*
X31582261Y-35067857D01*
X31637023Y-35177380D01*
X31637023Y-33698809D02*
X31582261Y-33808333D01*
X31582261Y-34027380D01*
X31637023Y-34136904D01*
X31746547Y-34191666D01*
X32184642Y-34191666D01*
X32294166Y-34136904D01*
X32348928Y-34027380D01*
X32348928Y-33808333D01*
X32294166Y-33698809D01*
X32184642Y-33644047D01*
X32075119Y-33644047D01*
X31965595Y-34191666D01*
X31582261Y-33151190D02*
X32348928Y-33151190D01*
X32129880Y-33151190D02*
X32239404Y-33096428D01*
X32294166Y-33041666D01*
X32348928Y-32932142D01*
X32348928Y-32822619D01*
X32348928Y-32603571D02*
X32348928Y-32165476D01*
X32732261Y-32439285D02*
X31746547Y-32439285D01*
X31637023Y-32384523D01*
X31582261Y-32275000D01*
X31582261Y-32165476D01*
X32732261Y-31289285D02*
X32732261Y-31508333D01*
X32677500Y-31617857D01*
X32622738Y-31672619D01*
X32458452Y-31782142D01*
X32239404Y-31836904D01*
X31801309Y-31836904D01*
X31691785Y-31782142D01*
X31637023Y-31727380D01*
X31582261Y-31617857D01*
X31582261Y-31398809D01*
X31637023Y-31289285D01*
X31691785Y-31234523D01*
X31801309Y-31179761D01*
X32075119Y-31179761D01*
X32184642Y-31234523D01*
X32239404Y-31289285D01*
X32294166Y-31398809D01*
X32294166Y-31617857D01*
X32239404Y-31727380D01*
X32184642Y-31782142D01*
X32075119Y-31836904D01*
X32732261Y-30194047D02*
X32732261Y-30413095D01*
X32677500Y-30522619D01*
X32622738Y-30577380D01*
X32458452Y-30686904D01*
X32239404Y-30741666D01*
X31801309Y-30741666D01*
X31691785Y-30686904D01*
X31637023Y-30632142D01*
X31582261Y-30522619D01*
X31582261Y-30303571D01*
X31637023Y-30194047D01*
X31691785Y-30139285D01*
X31801309Y-30084523D01*
X32075119Y-30084523D01*
X32184642Y-30139285D01*
X32239404Y-30194047D01*
X32294166Y-30303571D01*
X32294166Y-30522619D01*
X32239404Y-30632142D01*
X32184642Y-30686904D01*
X32075119Y-30741666D01*
X32787023Y-28770238D02*
X31308452Y-29755952D01*
X31637023Y-27948809D02*
X31582261Y-28058333D01*
X31582261Y-28277380D01*
X31637023Y-28386904D01*
X31746547Y-28441666D01*
X32184642Y-28441666D01*
X32294166Y-28386904D01*
X32348928Y-28277380D01*
X32348928Y-28058333D01*
X32294166Y-27948809D01*
X32184642Y-27894047D01*
X32075119Y-27894047D01*
X31965595Y-28441666D01*
X31637023Y-27455952D02*
X31582261Y-27346428D01*
X31582261Y-27127380D01*
X31637023Y-27017857D01*
X31746547Y-26963095D01*
X31801309Y-26963095D01*
X31910833Y-27017857D01*
X31965595Y-27127380D01*
X31965595Y-27291666D01*
X32020357Y-27401190D01*
X32129880Y-27455952D01*
X32184642Y-27455952D01*
X32294166Y-27401190D01*
X32348928Y-27291666D01*
X32348928Y-27127380D01*
X32294166Y-27017857D01*
X32348928Y-26470238D02*
X31198928Y-26470238D01*
X32294166Y-26470238D02*
X32348928Y-26360714D01*
X32348928Y-26141666D01*
X32294166Y-26032142D01*
X32239404Y-25977380D01*
X32129880Y-25922619D01*
X31801309Y-25922619D01*
X31691785Y-25977380D01*
X31637023Y-26032142D01*
X31582261Y-26141666D01*
X31582261Y-26360714D01*
X31637023Y-26470238D01*
X31582261Y-25429761D02*
X32732261Y-25429761D01*
X31582261Y-24936904D02*
X32184642Y-24936904D01*
X32294166Y-24991666D01*
X32348928Y-25101190D01*
X32348928Y-25265476D01*
X32294166Y-25375000D01*
X32239404Y-25429761D01*
X31582261Y-24225000D02*
X31637023Y-24334523D01*
X31691785Y-24389285D01*
X31801309Y-24444047D01*
X32129880Y-24444047D01*
X32239404Y-24389285D01*
X32294166Y-24334523D01*
X32348928Y-24225000D01*
X32348928Y-24060714D01*
X32294166Y-23951190D01*
X32239404Y-23896428D01*
X32129880Y-23841666D01*
X31801309Y-23841666D01*
X31691785Y-23896428D01*
X31637023Y-23951190D01*
X31582261Y-24060714D01*
X31582261Y-24225000D01*
X31582261Y-23348809D02*
X32348928Y-23348809D01*
X32239404Y-23348809D02*
X32294166Y-23294047D01*
X32348928Y-23184523D01*
X32348928Y-23020238D01*
X32294166Y-22910714D01*
X32184642Y-22855952D01*
X31582261Y-22855952D01*
X32184642Y-22855952D02*
X32294166Y-22801190D01*
X32348928Y-22691666D01*
X32348928Y-22527380D01*
X32294166Y-22417857D01*
X32184642Y-22363095D01*
X31582261Y-22363095D01*
X31637023Y-21377380D02*
X31582261Y-21486904D01*
X31582261Y-21705952D01*
X31637023Y-21815476D01*
X31746547Y-21870238D01*
X32184642Y-21870238D01*
X32294166Y-21815476D01*
X32348928Y-21705952D01*
X32348928Y-21486904D01*
X32294166Y-21377380D01*
X32184642Y-21322619D01*
X32075119Y-21322619D01*
X31965595Y-21870238D01*
X32020357Y-20829761D02*
X32020357Y-19953571D01*
X32348928Y-19515476D02*
X31582261Y-19241666D01*
X32348928Y-18967857D01*
X31582261Y-18529761D02*
X32348928Y-18529761D01*
X32732261Y-18529761D02*
X32677500Y-18584523D01*
X32622738Y-18529761D01*
X32677500Y-18475000D01*
X32732261Y-18529761D01*
X32622738Y-18529761D01*
X31637023Y-18036904D02*
X31582261Y-17927380D01*
X31582261Y-17708333D01*
X31637023Y-17598809D01*
X31746547Y-17544047D01*
X31801309Y-17544047D01*
X31910833Y-17598809D01*
X31965595Y-17708333D01*
X31965595Y-17872619D01*
X32020357Y-17982142D01*
X32129880Y-18036904D01*
X32184642Y-18036904D01*
X32294166Y-17982142D01*
X32348928Y-17872619D01*
X32348928Y-17708333D01*
X32294166Y-17598809D01*
X32348928Y-17215476D02*
X32348928Y-16777380D01*
X32732261Y-17051190D02*
X31746547Y-17051190D01*
X31637023Y-16996428D01*
X31582261Y-16886904D01*
X31582261Y-16777380D01*
X31582261Y-15901190D02*
X32184642Y-15901190D01*
X32294166Y-15955952D01*
X32348928Y-16065476D01*
X32348928Y-16284523D01*
X32294166Y-16394047D01*
X31637023Y-15901190D02*
X31582261Y-16010714D01*
X31582261Y-16284523D01*
X31637023Y-16394047D01*
X31746547Y-16448809D01*
X31856071Y-16448809D01*
X31965595Y-16394047D01*
X32020357Y-16284523D01*
X32020357Y-16010714D01*
X32075119Y-15901190D01*
X32184642Y-15353571D02*
X32184642Y-14970238D01*
X31582261Y-14805952D02*
X31582261Y-15353571D01*
X32732261Y-15353571D01*
X32732261Y-14805952D01*
X31691785Y-13655952D02*
X31637023Y-13710714D01*
X31582261Y-13875000D01*
X31582261Y-13984523D01*
X31637023Y-14148809D01*
X31746547Y-14258333D01*
X31856071Y-14313095D01*
X32075119Y-14367857D01*
X32239404Y-14367857D01*
X32458452Y-14313095D01*
X32567976Y-14258333D01*
X32677500Y-14148809D01*
X32732261Y-13984523D01*
X32732261Y-13875000D01*
X32677500Y-13710714D01*
X32622738Y-13655952D01*
X31582261Y-13163095D02*
X32732261Y-13163095D01*
X32732261Y-12725000D01*
X32677500Y-12615476D01*
X32622738Y-12560714D01*
X32513214Y-12505952D01*
X32348928Y-12505952D01*
X32239404Y-12560714D01*
X32184642Y-12615476D01*
X32129880Y-12725000D01*
X32129880Y-13163095D01*
X28234642Y-57848809D02*
X28179880Y-57684523D01*
X28125119Y-57629761D01*
X28015595Y-57575000D01*
X27851309Y-57575000D01*
X27741785Y-57629761D01*
X27687023Y-57684523D01*
X27632261Y-57794047D01*
X27632261Y-58232142D01*
X28782261Y-58232142D01*
X28782261Y-57848809D01*
X28727500Y-57739285D01*
X28672738Y-57684523D01*
X28563214Y-57629761D01*
X28453690Y-57629761D01*
X28344166Y-57684523D01*
X28289404Y-57739285D01*
X28234642Y-57848809D01*
X28234642Y-58232142D01*
X27632261Y-56589285D02*
X28234642Y-56589285D01*
X28344166Y-56644047D01*
X28398928Y-56753571D01*
X28398928Y-56972619D01*
X28344166Y-57082142D01*
X27687023Y-56589285D02*
X27632261Y-56698809D01*
X27632261Y-56972619D01*
X27687023Y-57082142D01*
X27796547Y-57136904D01*
X27906071Y-57136904D01*
X28015595Y-57082142D01*
X28070357Y-56972619D01*
X28070357Y-56698809D01*
X28125119Y-56589285D01*
X27687023Y-56096428D02*
X27632261Y-55986904D01*
X27632261Y-55767857D01*
X27687023Y-55658333D01*
X27796547Y-55603571D01*
X27851309Y-55603571D01*
X27960833Y-55658333D01*
X28015595Y-55767857D01*
X28015595Y-55932142D01*
X28070357Y-56041666D01*
X28179880Y-56096428D01*
X28234642Y-56096428D01*
X28344166Y-56041666D01*
X28398928Y-55932142D01*
X28398928Y-55767857D01*
X28344166Y-55658333D01*
X27687023Y-54672619D02*
X27632261Y-54782142D01*
X27632261Y-55001190D01*
X27687023Y-55110714D01*
X27796547Y-55165476D01*
X28234642Y-55165476D01*
X28344166Y-55110714D01*
X28398928Y-55001190D01*
X28398928Y-54782142D01*
X28344166Y-54672619D01*
X28234642Y-54617857D01*
X28125119Y-54617857D01*
X28015595Y-55165476D01*
X27632261Y-53632142D02*
X28782261Y-53632142D01*
X27687023Y-53632142D02*
X27632261Y-53741666D01*
X27632261Y-53960714D01*
X27687023Y-54070238D01*
X27741785Y-54125000D01*
X27851309Y-54179761D01*
X28179880Y-54179761D01*
X28289404Y-54125000D01*
X28344166Y-54070238D01*
X28398928Y-53960714D01*
X28398928Y-53741666D01*
X28344166Y-53632142D01*
X27632261Y-52044047D02*
X27687023Y-52153571D01*
X27741785Y-52208333D01*
X27851309Y-52263095D01*
X28179880Y-52263095D01*
X28289404Y-52208333D01*
X28344166Y-52153571D01*
X28398928Y-52044047D01*
X28398928Y-51879761D01*
X28344166Y-51770238D01*
X28289404Y-51715476D01*
X28179880Y-51660714D01*
X27851309Y-51660714D01*
X27741785Y-51715476D01*
X27687023Y-51770238D01*
X27632261Y-51879761D01*
X27632261Y-52044047D01*
X28398928Y-51167857D02*
X27632261Y-51167857D01*
X28289404Y-51167857D02*
X28344166Y-51113095D01*
X28398928Y-51003571D01*
X28398928Y-50839285D01*
X28344166Y-50729761D01*
X28234642Y-50675000D01*
X27632261Y-50675000D01*
X27632261Y-48758333D02*
X28234642Y-48758333D01*
X28344166Y-48813095D01*
X28398928Y-48922619D01*
X28398928Y-49141666D01*
X28344166Y-49251190D01*
X27687023Y-48758333D02*
X27632261Y-48867857D01*
X27632261Y-49141666D01*
X27687023Y-49251190D01*
X27796547Y-49305952D01*
X27906071Y-49305952D01*
X28015595Y-49251190D01*
X28070357Y-49141666D01*
X28070357Y-48867857D01*
X28125119Y-48758333D01*
X27632261Y-47334523D02*
X28398928Y-47334523D01*
X28289404Y-47334523D02*
X28344166Y-47279761D01*
X28398928Y-47170238D01*
X28398928Y-47005952D01*
X28344166Y-46896428D01*
X28234642Y-46841666D01*
X27632261Y-46841666D01*
X28234642Y-46841666D02*
X28344166Y-46786904D01*
X28398928Y-46677380D01*
X28398928Y-46513095D01*
X28344166Y-46403571D01*
X28234642Y-46348809D01*
X27632261Y-46348809D01*
X27632261Y-45636904D02*
X27687023Y-45746428D01*
X27741785Y-45801190D01*
X27851309Y-45855952D01*
X28179880Y-45855952D01*
X28289404Y-45801190D01*
X28344166Y-45746428D01*
X28398928Y-45636904D01*
X28398928Y-45472619D01*
X28344166Y-45363095D01*
X28289404Y-45308333D01*
X28179880Y-45253571D01*
X27851309Y-45253571D01*
X27741785Y-45308333D01*
X27687023Y-45363095D01*
X27632261Y-45472619D01*
X27632261Y-45636904D01*
X27632261Y-44267857D02*
X28782261Y-44267857D01*
X27687023Y-44267857D02*
X27632261Y-44377380D01*
X27632261Y-44596428D01*
X27687023Y-44705952D01*
X27741785Y-44760714D01*
X27851309Y-44815476D01*
X28179880Y-44815476D01*
X28289404Y-44760714D01*
X28344166Y-44705952D01*
X28398928Y-44596428D01*
X28398928Y-44377380D01*
X28344166Y-44267857D01*
X27632261Y-43720238D02*
X28398928Y-43720238D01*
X28782261Y-43720238D02*
X28727500Y-43774999D01*
X28672738Y-43720238D01*
X28727500Y-43665476D01*
X28782261Y-43720238D01*
X28672738Y-43720238D01*
X28398928Y-43336904D02*
X28398928Y-42898809D01*
X27632261Y-43172619D02*
X28617976Y-43172619D01*
X28727500Y-43117857D01*
X28782261Y-43008333D01*
X28782261Y-42898809D01*
X27632261Y-42515476D02*
X28398928Y-42515476D01*
X28782261Y-42515476D02*
X28727500Y-42570238D01*
X28672738Y-42515476D01*
X28727500Y-42460714D01*
X28782261Y-42515476D01*
X28672738Y-42515476D01*
X27687023Y-41529761D02*
X27632261Y-41639285D01*
X27632261Y-41858333D01*
X27687023Y-41967857D01*
X27796547Y-42022619D01*
X28234642Y-42022619D01*
X28344166Y-41967857D01*
X28398928Y-41858333D01*
X28398928Y-41639285D01*
X28344166Y-41529761D01*
X28234642Y-41474999D01*
X28125119Y-41474999D01*
X28015595Y-42022619D01*
X27632261Y-40489285D02*
X28782261Y-40489285D01*
X27687023Y-40489285D02*
X27632261Y-40598809D01*
X27632261Y-40817857D01*
X27687023Y-40927380D01*
X27741785Y-40982142D01*
X27851309Y-41036904D01*
X28179880Y-41036904D01*
X28289404Y-40982142D01*
X28344166Y-40927380D01*
X28398928Y-40817857D01*
X28398928Y-40598809D01*
X28344166Y-40489285D01*
X27194166Y-38736904D02*
X27248928Y-38791666D01*
X27413214Y-38901190D01*
X27522738Y-38955952D01*
X27687023Y-39010714D01*
X27960833Y-39065476D01*
X28179880Y-39065476D01*
X28453690Y-39010714D01*
X28617976Y-38955952D01*
X28727500Y-38901190D01*
X28891785Y-38791666D01*
X28946547Y-38736904D01*
X27632261Y-38298809D02*
X28782261Y-38298809D01*
X28344166Y-38298809D02*
X28398928Y-38189285D01*
X28398928Y-37970238D01*
X28344166Y-37860714D01*
X28289404Y-37805952D01*
X28179880Y-37751190D01*
X27851309Y-37751190D01*
X27741785Y-37805952D01*
X27687023Y-37860714D01*
X27632261Y-37970238D01*
X27632261Y-38189285D01*
X27687023Y-38298809D01*
X28398928Y-37367857D02*
X27632261Y-37094047D01*
X28398928Y-36820238D02*
X27632261Y-37094047D01*
X27358452Y-37203571D01*
X27303690Y-37258333D01*
X27248928Y-37367857D01*
X27960833Y-35560714D02*
X27960833Y-35013095D01*
X27632261Y-35670238D02*
X28782261Y-35286904D01*
X27632261Y-34903571D01*
X28398928Y-34520238D02*
X27632261Y-34520238D01*
X28289404Y-34520238D02*
X28344166Y-34465476D01*
X28398928Y-34355952D01*
X28398928Y-34191666D01*
X28344166Y-34082142D01*
X28234642Y-34027380D01*
X27632261Y-34027380D01*
X27632261Y-32986904D02*
X28782261Y-32986904D01*
X27687023Y-32986904D02*
X27632261Y-33096428D01*
X27632261Y-33315476D01*
X27687023Y-33424999D01*
X27741785Y-33479761D01*
X27851309Y-33534523D01*
X28179880Y-33534523D01*
X28289404Y-33479761D01*
X28344166Y-33424999D01*
X28398928Y-33315476D01*
X28398928Y-33096428D01*
X28344166Y-32986904D01*
X27632261Y-32439285D02*
X28398928Y-32439285D01*
X28179880Y-32439285D02*
X28289404Y-32384523D01*
X28344166Y-32329761D01*
X28398928Y-32220238D01*
X28398928Y-32110714D01*
X27687023Y-31289285D02*
X27632261Y-31398809D01*
X27632261Y-31617857D01*
X27687023Y-31727380D01*
X27796547Y-31782142D01*
X28234642Y-31782142D01*
X28344166Y-31727380D01*
X28398928Y-31617857D01*
X28398928Y-31398809D01*
X28344166Y-31289285D01*
X28234642Y-31234523D01*
X28125119Y-31234523D01*
X28015595Y-31782142D01*
X28398928Y-30851190D02*
X27632261Y-30632142D01*
X28179880Y-30413095D01*
X27632261Y-30194047D01*
X28398928Y-29974999D01*
X27687023Y-28715476D02*
X27632261Y-28551190D01*
X27632261Y-28277380D01*
X27687023Y-28167857D01*
X27741785Y-28113095D01*
X27851309Y-28058333D01*
X27960833Y-28058333D01*
X28070357Y-28113095D01*
X28125119Y-28167857D01*
X28179880Y-28277380D01*
X28234642Y-28496428D01*
X28289404Y-28605952D01*
X28344166Y-28660714D01*
X28453690Y-28715476D01*
X28563214Y-28715476D01*
X28672738Y-28660714D01*
X28727500Y-28605952D01*
X28782261Y-28496428D01*
X28782261Y-28222619D01*
X28727500Y-28058333D01*
X27687023Y-27127380D02*
X27632261Y-27236904D01*
X27632261Y-27455952D01*
X27687023Y-27565476D01*
X27796547Y-27620238D01*
X28234642Y-27620238D01*
X28344166Y-27565476D01*
X28398928Y-27455952D01*
X28398928Y-27236904D01*
X28344166Y-27127380D01*
X28234642Y-27072619D01*
X28125119Y-27072619D01*
X28015595Y-27620238D01*
X27632261Y-26415476D02*
X27687023Y-26524999D01*
X27796547Y-26579761D01*
X28782261Y-26579761D01*
X27632261Y-25813095D02*
X27687023Y-25922619D01*
X27796547Y-25977380D01*
X28782261Y-25977380D01*
X27687023Y-24936904D02*
X27632261Y-25046428D01*
X27632261Y-25265476D01*
X27687023Y-25374999D01*
X27796547Y-25429761D01*
X28234642Y-25429761D01*
X28344166Y-25374999D01*
X28398928Y-25265476D01*
X28398928Y-25046428D01*
X28344166Y-24936904D01*
X28234642Y-24882142D01*
X28125119Y-24882142D01*
X28015595Y-25429761D01*
X27741785Y-23513095D02*
X27687023Y-23458333D01*
X27632261Y-23513095D01*
X27687023Y-23567857D01*
X27741785Y-23513095D01*
X27632261Y-23513095D01*
X28344166Y-23513095D02*
X28289404Y-23458333D01*
X28234642Y-23513095D01*
X28289404Y-23567857D01*
X28344166Y-23513095D01*
X28234642Y-23513095D01*
X27687023Y-21651190D02*
X27632261Y-21760714D01*
X27632261Y-21979761D01*
X27687023Y-22089285D01*
X27796547Y-22144047D01*
X28234642Y-22144047D01*
X28344166Y-22089285D01*
X28398928Y-21979761D01*
X28398928Y-21760714D01*
X28344166Y-21651190D01*
X28234642Y-21596428D01*
X28125119Y-21596428D01*
X28015595Y-22144047D01*
X27687023Y-21158333D02*
X27632261Y-21048809D01*
X27632261Y-20829761D01*
X27687023Y-20720238D01*
X27796547Y-20665476D01*
X27851309Y-20665476D01*
X27960833Y-20720238D01*
X28015595Y-20829761D01*
X28015595Y-20994047D01*
X28070357Y-21103571D01*
X28179880Y-21158333D01*
X28234642Y-21158333D01*
X28344166Y-21103571D01*
X28398928Y-20994047D01*
X28398928Y-20829761D01*
X28344166Y-20720238D01*
X27687023Y-19734523D02*
X27632261Y-19844047D01*
X27632261Y-20063095D01*
X27687023Y-20172619D01*
X27796547Y-20227380D01*
X28234642Y-20227380D01*
X28344166Y-20172619D01*
X28398928Y-20063095D01*
X28398928Y-19844047D01*
X28344166Y-19734523D01*
X28234642Y-19679761D01*
X28125119Y-19679761D01*
X28015595Y-20227380D01*
X27632261Y-19022619D02*
X27687023Y-19132142D01*
X27796547Y-19186904D01*
X28782261Y-19186904D01*
X27632261Y-18420238D02*
X27687023Y-18529761D01*
X27796547Y-18584523D01*
X28782261Y-18584523D01*
X27687023Y-17544047D02*
X27632261Y-17653571D01*
X27632261Y-17872619D01*
X27687023Y-17982142D01*
X27796547Y-18036904D01*
X28234642Y-18036904D01*
X28344166Y-17982142D01*
X28398928Y-17872619D01*
X28398928Y-17653571D01*
X28344166Y-17544047D01*
X28234642Y-17489285D01*
X28125119Y-17489285D01*
X28015595Y-18036904D01*
X27194166Y-17105952D02*
X27248928Y-17051190D01*
X27413214Y-16941666D01*
X27522738Y-16886904D01*
X27687023Y-16832142D01*
X27960833Y-16777380D01*
X28179880Y-16777380D01*
X28453690Y-16832142D01*
X28617976Y-16886904D01*
X28727500Y-16941666D01*
X28891785Y-17051190D01*
X28946547Y-17105952D01*
X28398928Y-15463095D02*
X27632261Y-15189285D01*
X28398928Y-14915476D01*
X27687023Y-14039285D02*
X27632261Y-14148809D01*
X27632261Y-14367857D01*
X27687023Y-14477380D01*
X27796547Y-14532142D01*
X28234642Y-14532142D01*
X28344166Y-14477380D01*
X28398928Y-14367857D01*
X28398928Y-14148809D01*
X28344166Y-14039285D01*
X28234642Y-13984523D01*
X28125119Y-13984523D01*
X28015595Y-14532142D01*
X27632261Y-13491666D02*
X28398928Y-13491666D01*
X28179880Y-13491666D02*
X28289404Y-13436904D01*
X28344166Y-13382142D01*
X28398928Y-13272619D01*
X28398928Y-13163095D01*
X27687023Y-12834523D02*
X27632261Y-12724999D01*
X27632261Y-12505952D01*
X27687023Y-12396428D01*
X27796547Y-12341666D01*
X27851309Y-12341666D01*
X27960833Y-12396428D01*
X28015595Y-12505952D01*
X28015595Y-12670238D01*
X28070357Y-12779761D01*
X28179880Y-12834523D01*
X28234642Y-12834523D01*
X28344166Y-12779761D01*
X28398928Y-12670238D01*
X28398928Y-12505952D01*
X28344166Y-12396428D01*
X27632261Y-11848809D02*
X28398928Y-11848809D01*
X28782261Y-11848809D02*
X28727500Y-11903571D01*
X28672738Y-11848809D01*
X28727500Y-11794047D01*
X28782261Y-11848809D01*
X28672738Y-11848809D01*
X27632261Y-11136904D02*
X27687023Y-11246428D01*
X27741785Y-11301190D01*
X27851309Y-11355952D01*
X28179880Y-11355952D01*
X28289404Y-11301190D01*
X28344166Y-11246428D01*
X28398928Y-11136904D01*
X28398928Y-10972619D01*
X28344166Y-10863095D01*
X28289404Y-10808333D01*
X28179880Y-10753571D01*
X27851309Y-10753571D01*
X27741785Y-10808333D01*
X27687023Y-10863095D01*
X27632261Y-10972619D01*
X27632261Y-11136904D01*
X28398928Y-10260714D02*
X27632261Y-10260714D01*
X28289404Y-10260714D02*
X28344166Y-10205952D01*
X28398928Y-10096428D01*
X28398928Y-9932142D01*
X28344166Y-9822619D01*
X28234642Y-9767857D01*
X27632261Y-9767857D01*
X25657261Y-57492857D02*
X25712023Y-57602380D01*
X25766785Y-57657142D01*
X25876309Y-57711904D01*
X26204880Y-57711904D01*
X26314404Y-57657142D01*
X26369166Y-57602380D01*
X26423928Y-57492857D01*
X26423928Y-57328571D01*
X26369166Y-57219047D01*
X26314404Y-57164285D01*
X26204880Y-57109523D01*
X25876309Y-57109523D01*
X25766785Y-57164285D01*
X25712023Y-57219047D01*
X25657261Y-57328571D01*
X25657261Y-57492857D01*
X26423928Y-56780952D02*
X26423928Y-56342857D01*
X25657261Y-56616666D02*
X26642976Y-56616666D01*
X26752500Y-56561904D01*
X26807261Y-56452380D01*
X26807261Y-56342857D01*
X25985833Y-55138095D02*
X25985833Y-54590476D01*
X25657261Y-55247619D02*
X26807261Y-54864285D01*
X25657261Y-54480952D01*
X25657261Y-53933333D02*
X25712023Y-54042857D01*
X25821547Y-54097619D01*
X26807261Y-54097619D01*
X25657261Y-53002380D02*
X26259642Y-53002380D01*
X26369166Y-53057142D01*
X26423928Y-53166666D01*
X26423928Y-53385714D01*
X26369166Y-53495238D01*
X25712023Y-53002380D02*
X25657261Y-53111904D01*
X25657261Y-53385714D01*
X25712023Y-53495238D01*
X25821547Y-53549999D01*
X25931071Y-53549999D01*
X26040595Y-53495238D01*
X26095357Y-53385714D01*
X26095357Y-53111904D01*
X26150119Y-53002380D01*
X25657261Y-52454761D02*
X26423928Y-52454761D01*
X26807261Y-52454761D02*
X26752500Y-52509523D01*
X26697738Y-52454761D01*
X26752500Y-52400000D01*
X26807261Y-52454761D01*
X26697738Y-52454761D01*
X26423928Y-51907142D02*
X25657261Y-51907142D01*
X26314404Y-51907142D02*
X26369166Y-51852380D01*
X26423928Y-51742857D01*
X26423928Y-51578571D01*
X26369166Y-51469047D01*
X26259642Y-51414285D01*
X25657261Y-51414285D01*
X26807261Y-50154761D02*
X26807261Y-49497619D01*
X25657261Y-49826190D02*
X26807261Y-49826190D01*
X26423928Y-48621428D02*
X25657261Y-48621428D01*
X26423928Y-49114285D02*
X25821547Y-49114285D01*
X25712023Y-49059523D01*
X25657261Y-48949999D01*
X25657261Y-48785714D01*
X25712023Y-48676190D01*
X25766785Y-48621428D01*
X25657261Y-48073809D02*
X26423928Y-48073809D01*
X26204880Y-48073809D02*
X26314404Y-48019047D01*
X26369166Y-47964285D01*
X26423928Y-47854761D01*
X26423928Y-47745238D01*
X25657261Y-47361904D02*
X26807261Y-47361904D01*
X26369166Y-47361904D02*
X26423928Y-47252380D01*
X26423928Y-47033333D01*
X26369166Y-46923809D01*
X26314404Y-46869047D01*
X26204880Y-46814285D01*
X25876309Y-46814285D01*
X25766785Y-46869047D01*
X25712023Y-46923809D01*
X25657261Y-47033333D01*
X25657261Y-47252380D01*
X25712023Y-47361904D01*
X25657261Y-46321428D02*
X26423928Y-46321428D01*
X26807261Y-46321428D02*
X26752500Y-46376190D01*
X26697738Y-46321428D01*
X26752500Y-46266666D01*
X26807261Y-46321428D01*
X26697738Y-46321428D01*
X25657261Y-45280952D02*
X26807261Y-45280952D01*
X25712023Y-45280952D02*
X25657261Y-45390476D01*
X25657261Y-45609523D01*
X25712023Y-45719047D01*
X25766785Y-45773809D01*
X25876309Y-45828571D01*
X26204880Y-45828571D01*
X26314404Y-45773809D01*
X26369166Y-45719047D01*
X26423928Y-45609523D01*
X26423928Y-45390476D01*
X26369166Y-45280952D01*
X25712023Y-44295238D02*
X25657261Y-44404761D01*
X25657261Y-44623809D01*
X25712023Y-44733333D01*
X25821547Y-44788095D01*
X26259642Y-44788095D01*
X26369166Y-44733333D01*
X26423928Y-44623809D01*
X26423928Y-44404761D01*
X26369166Y-44295238D01*
X26259642Y-44240476D01*
X26150119Y-44240476D01*
X26040595Y-44788095D01*
X25766785Y-42871428D02*
X25712023Y-42816666D01*
X25657261Y-42871428D01*
X25712023Y-42926190D01*
X25766785Y-42871428D01*
X25657261Y-42871428D01*
X26369166Y-42871428D02*
X26314404Y-42816666D01*
X26259642Y-42871428D01*
X26314404Y-42926190D01*
X26369166Y-42871428D01*
X26259642Y-42871428D01*
X25657261Y-41447619D02*
X26807261Y-41447619D01*
X26807261Y-41173809D01*
X26752500Y-41009523D01*
X26642976Y-40899999D01*
X26533452Y-40845238D01*
X26314404Y-40790476D01*
X26150119Y-40790476D01*
X25931071Y-40845238D01*
X25821547Y-40899999D01*
X25712023Y-41009523D01*
X25657261Y-41173809D01*
X25657261Y-41447619D01*
X25657261Y-40297619D02*
X26423928Y-40297619D01*
X26807261Y-40297619D02*
X26752500Y-40352380D01*
X26697738Y-40297619D01*
X26752500Y-40242857D01*
X26807261Y-40297619D01*
X26697738Y-40297619D01*
X25657261Y-39585714D02*
X25712023Y-39695238D01*
X25821547Y-39749999D01*
X26807261Y-39749999D01*
X25657261Y-39147619D02*
X26807261Y-39147619D01*
X26369166Y-39147619D02*
X26423928Y-39038095D01*
X26423928Y-38819047D01*
X26369166Y-38709523D01*
X26314404Y-38654761D01*
X26204880Y-38599999D01*
X25876309Y-38599999D01*
X25766785Y-38654761D01*
X25712023Y-38709523D01*
X25657261Y-38819047D01*
X25657261Y-39038095D01*
X25712023Y-39147619D01*
X25712023Y-37669047D02*
X25657261Y-37778571D01*
X25657261Y-37997619D01*
X25712023Y-38107142D01*
X25821547Y-38161904D01*
X26259642Y-38161904D01*
X26369166Y-38107142D01*
X26423928Y-37997619D01*
X26423928Y-37778571D01*
X26369166Y-37669047D01*
X26259642Y-37614285D01*
X26150119Y-37614285D01*
X26040595Y-38161904D01*
X25657261Y-37121428D02*
X26423928Y-37121428D01*
X26204880Y-37121428D02*
X26314404Y-37066666D01*
X26369166Y-37011904D01*
X26423928Y-36902380D01*
X26423928Y-36792857D01*
X26423928Y-36573809D02*
X26423928Y-36135714D01*
X26807261Y-36409523D02*
X25821547Y-36409523D01*
X25712023Y-36354761D01*
X25657261Y-36245238D01*
X25657261Y-36135714D01*
X26807261Y-35259523D02*
X26807261Y-35478571D01*
X26752500Y-35588095D01*
X26697738Y-35642857D01*
X26533452Y-35752380D01*
X26314404Y-35807142D01*
X25876309Y-35807142D01*
X25766785Y-35752380D01*
X25712023Y-35697619D01*
X25657261Y-35588095D01*
X25657261Y-35369047D01*
X25712023Y-35259523D01*
X25766785Y-35204761D01*
X25876309Y-35149999D01*
X26150119Y-35149999D01*
X26259642Y-35204761D01*
X26314404Y-35259523D01*
X26369166Y-35369047D01*
X26369166Y-35588095D01*
X26314404Y-35697619D01*
X26259642Y-35752380D01*
X26150119Y-35807142D01*
X26807261Y-34164285D02*
X26807261Y-34383333D01*
X26752500Y-34492857D01*
X26697738Y-34547619D01*
X26533452Y-34657142D01*
X26314404Y-34711904D01*
X25876309Y-34711904D01*
X25766785Y-34657142D01*
X25712023Y-34602380D01*
X25657261Y-34492857D01*
X25657261Y-34273809D01*
X25712023Y-34164285D01*
X25766785Y-34109523D01*
X25876309Y-34054761D01*
X26150119Y-34054761D01*
X26259642Y-34109523D01*
X26314404Y-34164285D01*
X26369166Y-34273809D01*
X26369166Y-34492857D01*
X26314404Y-34602380D01*
X26259642Y-34657142D01*
X26150119Y-34711904D01*
X26807261Y-33507142D02*
X26588214Y-33616666D01*
X25712023Y-33069047D02*
X25657261Y-32959523D01*
X25657261Y-32740476D01*
X25712023Y-32630952D01*
X25821547Y-32576190D01*
X25876309Y-32576190D01*
X25985833Y-32630952D01*
X26040595Y-32740476D01*
X26040595Y-32904761D01*
X26095357Y-33014285D01*
X26204880Y-33069047D01*
X26259642Y-33069047D01*
X26369166Y-33014285D01*
X26423928Y-32904761D01*
X26423928Y-32740476D01*
X26369166Y-32630952D01*
X25657261Y-31042857D02*
X25712023Y-31152380D01*
X25766785Y-31207142D01*
X25876309Y-31261904D01*
X26204880Y-31261904D01*
X26314404Y-31207142D01*
X26369166Y-31152380D01*
X26423928Y-31042857D01*
X26423928Y-30878571D01*
X26369166Y-30769047D01*
X26314404Y-30714285D01*
X26204880Y-30659523D01*
X25876309Y-30659523D01*
X25766785Y-30714285D01*
X25712023Y-30769047D01*
X25657261Y-30878571D01*
X25657261Y-31042857D01*
X25657261Y-30166666D02*
X26423928Y-30166666D01*
X26204880Y-30166666D02*
X26314404Y-30111904D01*
X26369166Y-30057142D01*
X26423928Y-29947619D01*
X26423928Y-29838095D01*
X25657261Y-29454761D02*
X26423928Y-29454761D01*
X26807261Y-29454761D02*
X26752500Y-29509523D01*
X26697738Y-29454761D01*
X26752500Y-29399999D01*
X26807261Y-29454761D01*
X26697738Y-29454761D01*
X26423928Y-28414285D02*
X25492976Y-28414285D01*
X25383452Y-28469047D01*
X25328690Y-28523809D01*
X25273928Y-28633333D01*
X25273928Y-28797619D01*
X25328690Y-28907142D01*
X25712023Y-28414285D02*
X25657261Y-28523809D01*
X25657261Y-28742857D01*
X25712023Y-28852380D01*
X25766785Y-28907142D01*
X25876309Y-28961904D01*
X26204880Y-28961904D01*
X26314404Y-28907142D01*
X26369166Y-28852380D01*
X26423928Y-28742857D01*
X26423928Y-28523809D01*
X26369166Y-28414285D01*
X25657261Y-27866666D02*
X26423928Y-27866666D01*
X26807261Y-27866666D02*
X26752500Y-27921428D01*
X26697738Y-27866666D01*
X26752500Y-27811904D01*
X26807261Y-27866666D01*
X26697738Y-27866666D01*
X26423928Y-27319047D02*
X25657261Y-27319047D01*
X26314404Y-27319047D02*
X26369166Y-27264285D01*
X26423928Y-27154761D01*
X26423928Y-26990476D01*
X26369166Y-26880952D01*
X26259642Y-26826190D01*
X25657261Y-26826190D01*
X25657261Y-25785714D02*
X26259642Y-25785714D01*
X26369166Y-25840476D01*
X26423928Y-25949999D01*
X26423928Y-26169047D01*
X26369166Y-26278571D01*
X25712023Y-25785714D02*
X25657261Y-25895238D01*
X25657261Y-26169047D01*
X25712023Y-26278571D01*
X25821547Y-26333333D01*
X25931071Y-26333333D01*
X26040595Y-26278571D01*
X26095357Y-26169047D01*
X26095357Y-25895238D01*
X26150119Y-25785714D01*
X25657261Y-25073809D02*
X25712023Y-25183333D01*
X25821547Y-25238095D01*
X26807261Y-25238095D01*
X25657261Y-23759523D02*
X26423928Y-23759523D01*
X26807261Y-23759523D02*
X26752500Y-23814285D01*
X26697738Y-23759523D01*
X26752500Y-23704761D01*
X26807261Y-23759523D01*
X26697738Y-23759523D01*
X26423928Y-23211904D02*
X25657261Y-23211904D01*
X26314404Y-23211904D02*
X26369166Y-23157142D01*
X26423928Y-23047619D01*
X26423928Y-22883333D01*
X26369166Y-22773809D01*
X26259642Y-22719047D01*
X25657261Y-22719047D01*
X26423928Y-22335714D02*
X26423928Y-21897619D01*
X26807261Y-22171428D02*
X25821547Y-22171428D01*
X25712023Y-22116666D01*
X25657261Y-22007142D01*
X25657261Y-21897619D01*
X25712023Y-21076190D02*
X25657261Y-21185714D01*
X25657261Y-21404761D01*
X25712023Y-21514285D01*
X25821547Y-21569047D01*
X26259642Y-21569047D01*
X26369166Y-21514285D01*
X26423928Y-21404761D01*
X26423928Y-21185714D01*
X26369166Y-21076190D01*
X26259642Y-21021428D01*
X26150119Y-21021428D01*
X26040595Y-21569047D01*
X25657261Y-20528571D02*
X26423928Y-20528571D01*
X26204880Y-20528571D02*
X26314404Y-20473809D01*
X26369166Y-20419047D01*
X26423928Y-20309523D01*
X26423928Y-20199999D01*
X26423928Y-19980952D02*
X26423928Y-19542857D01*
X25657261Y-19816666D02*
X26642976Y-19816666D01*
X26752500Y-19761904D01*
X26807261Y-19652380D01*
X26807261Y-19542857D01*
X25657261Y-18666666D02*
X26259642Y-18666666D01*
X26369166Y-18721428D01*
X26423928Y-18830952D01*
X26423928Y-19049999D01*
X26369166Y-19159523D01*
X25712023Y-18666666D02*
X25657261Y-18776190D01*
X25657261Y-19049999D01*
X25712023Y-19159523D01*
X25821547Y-19214285D01*
X25931071Y-19214285D01*
X26040595Y-19159523D01*
X26095357Y-19049999D01*
X26095357Y-18776190D01*
X26150119Y-18666666D01*
X25712023Y-17626190D02*
X25657261Y-17735714D01*
X25657261Y-17954761D01*
X25712023Y-18064285D01*
X25766785Y-18119047D01*
X25876309Y-18173809D01*
X26204880Y-18173809D01*
X26314404Y-18119047D01*
X26369166Y-18064285D01*
X26423928Y-17954761D01*
X26423928Y-17735714D01*
X26369166Y-17626190D01*
X25712023Y-16695238D02*
X25657261Y-16804761D01*
X25657261Y-17023809D01*
X25712023Y-17133333D01*
X25821547Y-17188095D01*
X26259642Y-17188095D01*
X26369166Y-17133333D01*
X26423928Y-17023809D01*
X26423928Y-16804761D01*
X26369166Y-16695238D01*
X26259642Y-16640476D01*
X26150119Y-16640476D01*
X26040595Y-17188095D01*
X25712023Y-14778571D02*
X25657261Y-14888095D01*
X25657261Y-15107142D01*
X25712023Y-15216666D01*
X25766785Y-15271428D01*
X25876309Y-15326190D01*
X26204880Y-15326190D01*
X26314404Y-15271428D01*
X26369166Y-15216666D01*
X26423928Y-15107142D01*
X26423928Y-14888095D01*
X26369166Y-14778571D01*
X25657261Y-14285714D02*
X26423928Y-14285714D01*
X26807261Y-14285714D02*
X26752500Y-14340476D01*
X26697738Y-14285714D01*
X26752500Y-14230952D01*
X26807261Y-14285714D01*
X26697738Y-14285714D01*
X25657261Y-13738095D02*
X26423928Y-13738095D01*
X26204880Y-13738095D02*
X26314404Y-13683333D01*
X26369166Y-13628571D01*
X26423928Y-13519047D01*
X26423928Y-13409523D01*
X25712023Y-12533333D02*
X25657261Y-12642857D01*
X25657261Y-12861904D01*
X25712023Y-12971428D01*
X25766785Y-13026190D01*
X25876309Y-13080952D01*
X26204880Y-13080952D01*
X26314404Y-13026190D01*
X26369166Y-12971428D01*
X26423928Y-12861904D01*
X26423928Y-12642857D01*
X26369166Y-12533333D01*
X26423928Y-11547619D02*
X25657261Y-11547619D01*
X26423928Y-12040476D02*
X25821547Y-12040476D01*
X25712023Y-11985714D01*
X25657261Y-11876190D01*
X25657261Y-11711904D01*
X25712023Y-11602380D01*
X25766785Y-11547619D01*
X25657261Y-10999999D02*
X26423928Y-10999999D01*
X26807261Y-10999999D02*
X26752500Y-11054761D01*
X26697738Y-10999999D01*
X26752500Y-10945238D01*
X26807261Y-10999999D01*
X26697738Y-10999999D01*
X26423928Y-10616666D02*
X26423928Y-10178571D01*
X26807261Y-10452380D02*
X25821547Y-10452380D01*
X25712023Y-10397619D01*
X25657261Y-10288095D01*
X25657261Y-10178571D01*
M02*
