%TF.GenerationSoftware,KiCad,Pcbnew,5.1.12-84ad8e8a86~92~ubuntu20.04.1*%
%TF.CreationDate,2022-04-06T17:43:39-04:00*%
%TF.ProjectId,vistaECP,76697374-6145-4435-902e-6b696361645f,rev?*%
%TF.SameCoordinates,Original*%
%TF.FileFunction,Legend,Top*%
%TF.FilePolarity,Positive*%
%FSLAX46Y46*%
G04 Gerber Fmt 4.6, Leading zero omitted, Abs format (unit mm)*
G04 Created by KiCad (PCBNEW 5.1.12-84ad8e8a86~92~ubuntu20.04.1) date 2022-04-06 17:43:39*
%MOMM*%
%LPD*%
G01*
G04 APERTURE LIST*
%ADD10C,0.120000*%
%ADD11C,0.250000*%
%ADD12C,0.300000*%
%ADD13C,0.010000*%
%ADD14C,0.500000*%
%ADD15C,0.150000*%
G04 APERTURE END LIST*
D10*
X43942000Y-63881000D02*
X55118000Y-63881000D01*
X43942000Y-59944000D02*
X43942000Y-63881000D01*
X55118000Y-59944000D02*
X43942000Y-59944000D01*
X55118000Y-63881000D02*
X55118000Y-59944000D01*
D11*
X45997857Y-60615071D02*
X46271666Y-61381738D01*
X46545476Y-60615071D01*
X46983571Y-61381738D02*
X46983571Y-60615071D01*
X46983571Y-60231738D02*
X46928809Y-60286500D01*
X46983571Y-60341261D01*
X47038333Y-60286500D01*
X46983571Y-60231738D01*
X46983571Y-60341261D01*
X47476428Y-61326976D02*
X47585952Y-61381738D01*
X47805000Y-61381738D01*
X47914523Y-61326976D01*
X47969285Y-61217452D01*
X47969285Y-61162690D01*
X47914523Y-61053166D01*
X47805000Y-60998404D01*
X47640714Y-60998404D01*
X47531190Y-60943642D01*
X47476428Y-60834119D01*
X47476428Y-60779357D01*
X47531190Y-60669833D01*
X47640714Y-60615071D01*
X47805000Y-60615071D01*
X47914523Y-60669833D01*
X48297857Y-60615071D02*
X48735952Y-60615071D01*
X48462142Y-60231738D02*
X48462142Y-61217452D01*
X48516904Y-61326976D01*
X48626428Y-61381738D01*
X48735952Y-61381738D01*
X49612142Y-61381738D02*
X49612142Y-60779357D01*
X49557380Y-60669833D01*
X49447857Y-60615071D01*
X49228809Y-60615071D01*
X49119285Y-60669833D01*
X49612142Y-61326976D02*
X49502619Y-61381738D01*
X49228809Y-61381738D01*
X49119285Y-61326976D01*
X49064523Y-61217452D01*
X49064523Y-61107928D01*
X49119285Y-60998404D01*
X49228809Y-60943642D01*
X49502619Y-60943642D01*
X49612142Y-60888880D01*
X50159761Y-60779357D02*
X50543095Y-60779357D01*
X50707380Y-61381738D02*
X50159761Y-61381738D01*
X50159761Y-60231738D01*
X50707380Y-60231738D01*
X51857380Y-61272214D02*
X51802619Y-61326976D01*
X51638333Y-61381738D01*
X51528809Y-61381738D01*
X51364523Y-61326976D01*
X51255000Y-61217452D01*
X51200238Y-61107928D01*
X51145476Y-60888880D01*
X51145476Y-60724595D01*
X51200238Y-60505547D01*
X51255000Y-60396023D01*
X51364523Y-60286500D01*
X51528809Y-60231738D01*
X51638333Y-60231738D01*
X51802619Y-60286500D01*
X51857380Y-60341261D01*
X52350238Y-61381738D02*
X52350238Y-60231738D01*
X52788333Y-60231738D01*
X52897857Y-60286500D01*
X52952619Y-60341261D01*
X53007380Y-60450785D01*
X53007380Y-60615071D01*
X52952619Y-60724595D01*
X52897857Y-60779357D01*
X52788333Y-60834119D01*
X52350238Y-60834119D01*
X45258571Y-62590071D02*
X45258571Y-63356738D01*
X44984761Y-62151976D02*
X44710952Y-62973404D01*
X45422857Y-62973404D01*
X46682380Y-62151976D02*
X45696666Y-63630547D01*
X47284761Y-62206738D02*
X47394285Y-62206738D01*
X47503809Y-62261500D01*
X47558571Y-62316261D01*
X47613333Y-62425785D01*
X47668095Y-62644833D01*
X47668095Y-62918642D01*
X47613333Y-63137690D01*
X47558571Y-63247214D01*
X47503809Y-63301976D01*
X47394285Y-63356738D01*
X47284761Y-63356738D01*
X47175238Y-63301976D01*
X47120476Y-63247214D01*
X47065714Y-63137690D01*
X47010952Y-62918642D01*
X47010952Y-62644833D01*
X47065714Y-62425785D01*
X47120476Y-62316261D01*
X47175238Y-62261500D01*
X47284761Y-62206738D01*
X48653809Y-62206738D02*
X48434761Y-62206738D01*
X48325238Y-62261500D01*
X48270476Y-62316261D01*
X48160952Y-62480547D01*
X48106190Y-62699595D01*
X48106190Y-63137690D01*
X48160952Y-63247214D01*
X48215714Y-63301976D01*
X48325238Y-63356738D01*
X48544285Y-63356738D01*
X48653809Y-63301976D01*
X48708571Y-63247214D01*
X48763333Y-63137690D01*
X48763333Y-62863880D01*
X48708571Y-62754357D01*
X48653809Y-62699595D01*
X48544285Y-62644833D01*
X48325238Y-62644833D01*
X48215714Y-62699595D01*
X48160952Y-62754357D01*
X48106190Y-62863880D01*
X50077619Y-62151976D02*
X49091904Y-63630547D01*
X50406190Y-62316261D02*
X50460952Y-62261500D01*
X50570476Y-62206738D01*
X50844285Y-62206738D01*
X50953809Y-62261500D01*
X51008571Y-62316261D01*
X51063333Y-62425785D01*
X51063333Y-62535309D01*
X51008571Y-62699595D01*
X50351428Y-63356738D01*
X51063333Y-63356738D01*
X51775238Y-62206738D02*
X51884761Y-62206738D01*
X51994285Y-62261500D01*
X52049047Y-62316261D01*
X52103809Y-62425785D01*
X52158571Y-62644833D01*
X52158571Y-62918642D01*
X52103809Y-63137690D01*
X52049047Y-63247214D01*
X51994285Y-63301976D01*
X51884761Y-63356738D01*
X51775238Y-63356738D01*
X51665714Y-63301976D01*
X51610952Y-63247214D01*
X51556190Y-63137690D01*
X51501428Y-62918642D01*
X51501428Y-62644833D01*
X51556190Y-62425785D01*
X51610952Y-62316261D01*
X51665714Y-62261500D01*
X51775238Y-62206738D01*
X52596666Y-62316261D02*
X52651428Y-62261500D01*
X52760952Y-62206738D01*
X53034761Y-62206738D01*
X53144285Y-62261500D01*
X53199047Y-62316261D01*
X53253809Y-62425785D01*
X53253809Y-62535309D01*
X53199047Y-62699595D01*
X52541904Y-63356738D01*
X53253809Y-63356738D01*
X53691904Y-62316261D02*
X53746666Y-62261500D01*
X53856190Y-62206738D01*
X54130000Y-62206738D01*
X54239523Y-62261500D01*
X54294285Y-62316261D01*
X54349047Y-62425785D01*
X54349047Y-62535309D01*
X54294285Y-62699595D01*
X53637142Y-63356738D01*
X54349047Y-63356738D01*
D12*
X35963809Y-63009000D02*
X35773333Y-62913761D01*
X35487619Y-62913761D01*
X35201904Y-63009000D01*
X35011428Y-63199476D01*
X34916190Y-63389952D01*
X34820952Y-63770904D01*
X34820952Y-64056619D01*
X34916190Y-64437571D01*
X35011428Y-64628047D01*
X35201904Y-64818523D01*
X35487619Y-64913761D01*
X35678095Y-64913761D01*
X35963809Y-64818523D01*
X36059047Y-64723285D01*
X36059047Y-64056619D01*
X35678095Y-64056619D01*
X30502857Y-63866142D02*
X30788571Y-63961380D01*
X30883809Y-64056619D01*
X30979047Y-64247095D01*
X30979047Y-64532809D01*
X30883809Y-64723285D01*
X30788571Y-64818523D01*
X30598095Y-64913761D01*
X29836190Y-64913761D01*
X29836190Y-62913761D01*
X30502857Y-62913761D01*
X30693333Y-63009000D01*
X30788571Y-63104238D01*
X30883809Y-63294714D01*
X30883809Y-63485190D01*
X30788571Y-63675666D01*
X30693333Y-63770904D01*
X30502857Y-63866142D01*
X29836190Y-63866142D01*
X25899047Y-64913761D02*
X25232380Y-63961380D01*
X24756190Y-64913761D02*
X24756190Y-62913761D01*
X25518095Y-62913761D01*
X25708571Y-63009000D01*
X25803809Y-63104238D01*
X25899047Y-63294714D01*
X25899047Y-63580428D01*
X25803809Y-63770904D01*
X25708571Y-63866142D01*
X25518095Y-63961380D01*
X24756190Y-63961380D01*
X20200000Y-63961380D02*
X20200000Y-64913761D01*
X19533333Y-62913761D02*
X20200000Y-63961380D01*
X20866666Y-62913761D01*
D13*
%TO.C,G\u002A\u002A\u002A*%
G36*
X11208625Y-66851710D02*
G01*
X11441244Y-66857640D01*
X11637673Y-66868587D01*
X11805191Y-66885421D01*
X11951075Y-66909012D01*
X12082603Y-66940230D01*
X12207053Y-66979945D01*
X12291824Y-67012443D01*
X12510698Y-67116608D01*
X12688762Y-67237797D01*
X12835339Y-67384519D01*
X12959753Y-67565284D01*
X13019129Y-67676253D01*
X13094538Y-67848061D01*
X13148846Y-68021337D01*
X13184073Y-68207459D01*
X13202243Y-68417803D01*
X13205376Y-68663746D01*
X13204370Y-68718491D01*
X13196304Y-69074243D01*
X13336144Y-69113028D01*
X13544253Y-69189440D01*
X13710253Y-69292644D01*
X13836603Y-69424951D01*
X13925765Y-69588671D01*
X13961879Y-69700758D01*
X13989049Y-69881034D01*
X13981543Y-70060116D01*
X13942786Y-70229933D01*
X13876200Y-70382419D01*
X13785208Y-70509504D01*
X13673233Y-70603119D01*
X13558376Y-70651832D01*
X13497341Y-70672450D01*
X13483240Y-70694250D01*
X13517072Y-70720290D01*
X13590563Y-70750319D01*
X13757726Y-70836606D01*
X13899809Y-70963029D01*
X14011666Y-71122944D01*
X14088150Y-71309707D01*
X14114038Y-71426201D01*
X14130850Y-71664143D01*
X14103599Y-71880997D01*
X14033468Y-72074176D01*
X13921641Y-72241094D01*
X13769303Y-72379164D01*
X13642649Y-72455523D01*
X13565781Y-72492193D01*
X13490330Y-72521918D01*
X13409962Y-72545413D01*
X13318342Y-72563393D01*
X13209136Y-72576576D01*
X13076007Y-72585675D01*
X12912622Y-72591406D01*
X12712646Y-72594486D01*
X12469744Y-72595630D01*
X12401759Y-72595697D01*
X11607215Y-72596073D01*
X11607215Y-72196147D01*
X12115723Y-72196147D01*
X12630588Y-72183625D01*
X12805729Y-72179112D01*
X12938447Y-72174556D01*
X13037159Y-72168893D01*
X13110284Y-72161063D01*
X13166238Y-72150004D01*
X13213440Y-72134655D01*
X13260307Y-72113955D01*
X13287104Y-72100840D01*
X13420180Y-72008009D01*
X13518165Y-71882201D01*
X13578324Y-71729669D01*
X13597921Y-71556666D01*
X13584883Y-71420147D01*
X13537296Y-71258131D01*
X13457217Y-71132719D01*
X13340394Y-71038227D01*
X13273343Y-71003667D01*
X13218295Y-70980046D01*
X13167301Y-70962319D01*
X13111573Y-70949406D01*
X13042322Y-70940225D01*
X12950760Y-70933697D01*
X12828100Y-70928741D01*
X12665554Y-70924276D01*
X12618271Y-70923125D01*
X12115723Y-70911031D01*
X12115723Y-72196147D01*
X11607215Y-72196147D01*
X11607215Y-70393034D01*
X10920728Y-70404622D01*
X10234242Y-70416210D01*
X10234242Y-70288559D01*
X12115723Y-70288559D01*
X12115723Y-70518316D01*
X12592450Y-70505760D01*
X12761105Y-70500958D01*
X12887733Y-70495933D01*
X12981147Y-70489539D01*
X13050163Y-70480631D01*
X13103596Y-70468062D01*
X13150260Y-70450688D01*
X13198971Y-70427361D01*
X13200152Y-70426762D01*
X13283284Y-70377609D01*
X13354189Y-70323748D01*
X13383039Y-70294326D01*
X13450977Y-70172827D01*
X13481871Y-70037197D01*
X13477575Y-69898633D01*
X13439941Y-69768334D01*
X13370822Y-69657495D01*
X13272071Y-69577314D01*
X13263662Y-69572919D01*
X13168443Y-69526938D01*
X13105744Y-69507232D01*
X13063174Y-69516224D01*
X13028342Y-69556337D01*
X12990722Y-69626295D01*
X12869854Y-69812077D01*
X12707443Y-69977972D01*
X12510946Y-70117694D01*
X12287817Y-70224961D01*
X12274632Y-70229901D01*
X12115723Y-70288559D01*
X10234242Y-70288559D01*
X10234242Y-69978455D01*
X10717325Y-69978455D01*
X11155913Y-69971498D01*
X11594502Y-69964541D01*
X11601906Y-69468745D01*
X12115723Y-69468745D01*
X12115723Y-69634011D01*
X12118063Y-69718180D01*
X12124184Y-69777705D01*
X12132392Y-69799276D01*
X12161289Y-69785490D01*
X12214591Y-69750747D01*
X12240450Y-69732261D01*
X12308091Y-69676797D01*
X12375698Y-69612074D01*
X12432061Y-69549980D01*
X12465968Y-69502403D01*
X12470995Y-69487814D01*
X12448076Y-69478419D01*
X12387116Y-69471609D01*
X12300907Y-69468761D01*
X12293701Y-69468745D01*
X12115723Y-69468745D01*
X11601906Y-69468745D01*
X11608362Y-69036513D01*
X12644145Y-69036513D01*
X12660592Y-68970983D01*
X12671919Y-68890561D01*
X12677303Y-68773749D01*
X12677170Y-68634608D01*
X12671947Y-68487198D01*
X12662059Y-68345580D01*
X12647934Y-68223813D01*
X12635953Y-68158774D01*
X12593830Y-68018713D01*
X12534173Y-67874198D01*
X12465597Y-67743834D01*
X12400691Y-67650804D01*
X12318335Y-67571094D01*
X12210836Y-67488921D01*
X12100370Y-67420440D01*
X12052160Y-67396899D01*
X11947612Y-67356534D01*
X11839208Y-67325431D01*
X11717418Y-67302122D01*
X11572711Y-67285141D01*
X11395558Y-67273021D01*
X11194052Y-67264850D01*
X10717325Y-67249605D01*
X10717325Y-69978455D01*
X10234242Y-69978455D01*
X10234242Y-66849927D01*
X10932539Y-66849927D01*
X11208625Y-66851710D01*
G37*
X11208625Y-66851710D02*
X11441244Y-66857640D01*
X11637673Y-66868587D01*
X11805191Y-66885421D01*
X11951075Y-66909012D01*
X12082603Y-66940230D01*
X12207053Y-66979945D01*
X12291824Y-67012443D01*
X12510698Y-67116608D01*
X12688762Y-67237797D01*
X12835339Y-67384519D01*
X12959753Y-67565284D01*
X13019129Y-67676253D01*
X13094538Y-67848061D01*
X13148846Y-68021337D01*
X13184073Y-68207459D01*
X13202243Y-68417803D01*
X13205376Y-68663746D01*
X13204370Y-68718491D01*
X13196304Y-69074243D01*
X13336144Y-69113028D01*
X13544253Y-69189440D01*
X13710253Y-69292644D01*
X13836603Y-69424951D01*
X13925765Y-69588671D01*
X13961879Y-69700758D01*
X13989049Y-69881034D01*
X13981543Y-70060116D01*
X13942786Y-70229933D01*
X13876200Y-70382419D01*
X13785208Y-70509504D01*
X13673233Y-70603119D01*
X13558376Y-70651832D01*
X13497341Y-70672450D01*
X13483240Y-70694250D01*
X13517072Y-70720290D01*
X13590563Y-70750319D01*
X13757726Y-70836606D01*
X13899809Y-70963029D01*
X14011666Y-71122944D01*
X14088150Y-71309707D01*
X14114038Y-71426201D01*
X14130850Y-71664143D01*
X14103599Y-71880997D01*
X14033468Y-72074176D01*
X13921641Y-72241094D01*
X13769303Y-72379164D01*
X13642649Y-72455523D01*
X13565781Y-72492193D01*
X13490330Y-72521918D01*
X13409962Y-72545413D01*
X13318342Y-72563393D01*
X13209136Y-72576576D01*
X13076007Y-72585675D01*
X12912622Y-72591406D01*
X12712646Y-72594486D01*
X12469744Y-72595630D01*
X12401759Y-72595697D01*
X11607215Y-72596073D01*
X11607215Y-72196147D01*
X12115723Y-72196147D01*
X12630588Y-72183625D01*
X12805729Y-72179112D01*
X12938447Y-72174556D01*
X13037159Y-72168893D01*
X13110284Y-72161063D01*
X13166238Y-72150004D01*
X13213440Y-72134655D01*
X13260307Y-72113955D01*
X13287104Y-72100840D01*
X13420180Y-72008009D01*
X13518165Y-71882201D01*
X13578324Y-71729669D01*
X13597921Y-71556666D01*
X13584883Y-71420147D01*
X13537296Y-71258131D01*
X13457217Y-71132719D01*
X13340394Y-71038227D01*
X13273343Y-71003667D01*
X13218295Y-70980046D01*
X13167301Y-70962319D01*
X13111573Y-70949406D01*
X13042322Y-70940225D01*
X12950760Y-70933697D01*
X12828100Y-70928741D01*
X12665554Y-70924276D01*
X12618271Y-70923125D01*
X12115723Y-70911031D01*
X12115723Y-72196147D01*
X11607215Y-72196147D01*
X11607215Y-70393034D01*
X10920728Y-70404622D01*
X10234242Y-70416210D01*
X10234242Y-70288559D01*
X12115723Y-70288559D01*
X12115723Y-70518316D01*
X12592450Y-70505760D01*
X12761105Y-70500958D01*
X12887733Y-70495933D01*
X12981147Y-70489539D01*
X13050163Y-70480631D01*
X13103596Y-70468062D01*
X13150260Y-70450688D01*
X13198971Y-70427361D01*
X13200152Y-70426762D01*
X13283284Y-70377609D01*
X13354189Y-70323748D01*
X13383039Y-70294326D01*
X13450977Y-70172827D01*
X13481871Y-70037197D01*
X13477575Y-69898633D01*
X13439941Y-69768334D01*
X13370822Y-69657495D01*
X13272071Y-69577314D01*
X13263662Y-69572919D01*
X13168443Y-69526938D01*
X13105744Y-69507232D01*
X13063174Y-69516224D01*
X13028342Y-69556337D01*
X12990722Y-69626295D01*
X12869854Y-69812077D01*
X12707443Y-69977972D01*
X12510946Y-70117694D01*
X12287817Y-70224961D01*
X12274632Y-70229901D01*
X12115723Y-70288559D01*
X10234242Y-70288559D01*
X10234242Y-69978455D01*
X10717325Y-69978455D01*
X11155913Y-69971498D01*
X11594502Y-69964541D01*
X11601906Y-69468745D01*
X12115723Y-69468745D01*
X12115723Y-69634011D01*
X12118063Y-69718180D01*
X12124184Y-69777705D01*
X12132392Y-69799276D01*
X12161289Y-69785490D01*
X12214591Y-69750747D01*
X12240450Y-69732261D01*
X12308091Y-69676797D01*
X12375698Y-69612074D01*
X12432061Y-69549980D01*
X12465968Y-69502403D01*
X12470995Y-69487814D01*
X12448076Y-69478419D01*
X12387116Y-69471609D01*
X12300907Y-69468761D01*
X12293701Y-69468745D01*
X12115723Y-69468745D01*
X11601906Y-69468745D01*
X11608362Y-69036513D01*
X12644145Y-69036513D01*
X12660592Y-68970983D01*
X12671919Y-68890561D01*
X12677303Y-68773749D01*
X12677170Y-68634608D01*
X12671947Y-68487198D01*
X12662059Y-68345580D01*
X12647934Y-68223813D01*
X12635953Y-68158774D01*
X12593830Y-68018713D01*
X12534173Y-67874198D01*
X12465597Y-67743834D01*
X12400691Y-67650804D01*
X12318335Y-67571094D01*
X12210836Y-67488921D01*
X12100370Y-67420440D01*
X12052160Y-67396899D01*
X11947612Y-67356534D01*
X11839208Y-67325431D01*
X11717418Y-67302122D01*
X11572711Y-67285141D01*
X11395558Y-67273021D01*
X11194052Y-67264850D01*
X10717325Y-67249605D01*
X10717325Y-69978455D01*
X10234242Y-69978455D01*
X10234242Y-66849927D01*
X10932539Y-66849927D01*
X11208625Y-66851710D01*
D14*
%TO.C,REF\u002A\u002A*%
X1647000Y-37211000D02*
G75*
G03*
X1647000Y-37211000I-175000J0D01*
G01*
D15*
X2397000Y-34211000D02*
G75*
G03*
X2397000Y-34211000I-925000J0D01*
G01*
X2397000Y-40211000D02*
G75*
G03*
X2397000Y-40211000I-925000J0D01*
G01*
X1472000Y-39211000D02*
X1472000Y-38311000D01*
X1472000Y-37211000D02*
X1472000Y-35211000D01*
X722000Y-36536000D02*
G75*
G03*
X2147000Y-36461000I750000J-675000D01*
G01*
D13*
G36*
X30619878Y-33117776D02*
G01*
X30725612Y-33118355D01*
X30802132Y-33119922D01*
X30854372Y-33122972D01*
X30887263Y-33127996D01*
X30905737Y-33135489D01*
X30914727Y-33145944D01*
X30919163Y-33159853D01*
X30919594Y-33161654D01*
X30926333Y-33194145D01*
X30938808Y-33258252D01*
X30955719Y-33347151D01*
X30975771Y-33454019D01*
X30997664Y-33572033D01*
X30998429Y-33576178D01*
X31020359Y-33691831D01*
X31040877Y-33794014D01*
X31058659Y-33876598D01*
X31072381Y-33933456D01*
X31080718Y-33958458D01*
X31081116Y-33958901D01*
X31105677Y-33971110D01*
X31156315Y-33991456D01*
X31222095Y-34015545D01*
X31222461Y-34015674D01*
X31305317Y-34046818D01*
X31403000Y-34086491D01*
X31495077Y-34126381D01*
X31499434Y-34128353D01*
X31649407Y-34196420D01*
X31981498Y-33969639D01*
X32083374Y-33900504D01*
X32175657Y-33838697D01*
X32253003Y-33787733D01*
X32310064Y-33751127D01*
X32341495Y-33732394D01*
X32344479Y-33731004D01*
X32367321Y-33737190D01*
X32409982Y-33767035D01*
X32474128Y-33821947D01*
X32561421Y-33903334D01*
X32650535Y-33989922D01*
X32736441Y-34075247D01*
X32813327Y-34153108D01*
X32876564Y-34218697D01*
X32921523Y-34267205D01*
X32943576Y-34293825D01*
X32944396Y-34295195D01*
X32946834Y-34313463D01*
X32937650Y-34343295D01*
X32914574Y-34388721D01*
X32875337Y-34453770D01*
X32817670Y-34542470D01*
X32740795Y-34656657D01*
X32672570Y-34757162D01*
X32611582Y-34847303D01*
X32561356Y-34921849D01*
X32525416Y-34975565D01*
X32507287Y-35003218D01*
X32506146Y-35005095D01*
X32508359Y-35031590D01*
X32525138Y-35083086D01*
X32553142Y-35149851D01*
X32563122Y-35171172D01*
X32606672Y-35266159D01*
X32653134Y-35373937D01*
X32690877Y-35467192D01*
X32718073Y-35536406D01*
X32739675Y-35589006D01*
X32752158Y-35616497D01*
X32753709Y-35618616D01*
X32776668Y-35622124D01*
X32830786Y-35631738D01*
X32908868Y-35646089D01*
X33003719Y-35663807D01*
X33108143Y-35683525D01*
X33214944Y-35703874D01*
X33316926Y-35723486D01*
X33406894Y-35740991D01*
X33477653Y-35755022D01*
X33522006Y-35764209D01*
X33532885Y-35766807D01*
X33544122Y-35773218D01*
X33552605Y-35787697D01*
X33558714Y-35815133D01*
X33562832Y-35860411D01*
X33565341Y-35928420D01*
X33566621Y-36024047D01*
X33567054Y-36152180D01*
X33567077Y-36204701D01*
X33567077Y-36631845D01*
X33464500Y-36652091D01*
X33407431Y-36663070D01*
X33322269Y-36679095D01*
X33219372Y-36698233D01*
X33109096Y-36718551D01*
X33078615Y-36724132D01*
X32976855Y-36743917D01*
X32888205Y-36763373D01*
X32820108Y-36780697D01*
X32780004Y-36794088D01*
X32773323Y-36798079D01*
X32756919Y-36826342D01*
X32733399Y-36881109D01*
X32707316Y-36951588D01*
X32702142Y-36966769D01*
X32667956Y-37060896D01*
X32625523Y-37167101D01*
X32583997Y-37262473D01*
X32583792Y-37262916D01*
X32514640Y-37412525D01*
X32969512Y-38081617D01*
X32677500Y-38374116D01*
X32589180Y-38461170D01*
X32508625Y-38537909D01*
X32440360Y-38600237D01*
X32388908Y-38644056D01*
X32358794Y-38665270D01*
X32354474Y-38666616D01*
X32329111Y-38656016D01*
X32277358Y-38626547D01*
X32204868Y-38581705D01*
X32117294Y-38524984D01*
X32022612Y-38461462D01*
X31926516Y-38396668D01*
X31840837Y-38340287D01*
X31771016Y-38295788D01*
X31722494Y-38266639D01*
X31700782Y-38256308D01*
X31674293Y-38265050D01*
X31624062Y-38288087D01*
X31560451Y-38320631D01*
X31553708Y-38324249D01*
X31468046Y-38367210D01*
X31409306Y-38388279D01*
X31372772Y-38388503D01*
X31353731Y-38368928D01*
X31353620Y-38368654D01*
X31344102Y-38345472D01*
X31321403Y-38290441D01*
X31287282Y-38207822D01*
X31243500Y-38101872D01*
X31191816Y-37976852D01*
X31133992Y-37837020D01*
X31077991Y-37701637D01*
X31016447Y-37552234D01*
X30959939Y-37413832D01*
X30910161Y-37290673D01*
X30868806Y-37187002D01*
X30837568Y-37107059D01*
X30818141Y-37055088D01*
X30812154Y-37035692D01*
X30827168Y-37013443D01*
X30866439Y-36977982D01*
X30918807Y-36938887D01*
X31067941Y-36815245D01*
X31184511Y-36673522D01*
X31267118Y-36516704D01*
X31314366Y-36347775D01*
X31324857Y-36169722D01*
X31317231Y-36087539D01*
X31275682Y-35917031D01*
X31204123Y-35766459D01*
X31106995Y-35637309D01*
X30988734Y-35531064D01*
X30853780Y-35449210D01*
X30706571Y-35393232D01*
X30551544Y-35364615D01*
X30393139Y-35364844D01*
X30235794Y-35395405D01*
X30083946Y-35457782D01*
X29942035Y-35553460D01*
X29882803Y-35607572D01*
X29769203Y-35746520D01*
X29690106Y-35898361D01*
X29644986Y-36058667D01*
X29633316Y-36223012D01*
X29654569Y-36386971D01*
X29708220Y-36546118D01*
X29793740Y-36696025D01*
X29910605Y-36832267D01*
X30041193Y-36938887D01*
X30095588Y-36979642D01*
X30134014Y-37014718D01*
X30147846Y-37035726D01*
X30140603Y-37058635D01*
X30120005Y-37113365D01*
X30087746Y-37195672D01*
X30045521Y-37301315D01*
X29995023Y-37426050D01*
X29937948Y-37565636D01*
X29881854Y-37701670D01*
X29819967Y-37851201D01*
X29762644Y-37989767D01*
X29711644Y-38113107D01*
X29668727Y-38216964D01*
X29635653Y-38297080D01*
X29614181Y-38349195D01*
X29606225Y-38368654D01*
X29587429Y-38388423D01*
X29551074Y-38388365D01*
X29492479Y-38367441D01*
X29406968Y-38324613D01*
X29406292Y-38324249D01*
X29341907Y-38291012D01*
X29289861Y-38266802D01*
X29260512Y-38256404D01*
X29259217Y-38256308D01*
X29237124Y-38266855D01*
X29188348Y-38296184D01*
X29118331Y-38340827D01*
X29032514Y-38397314D01*
X28937388Y-38461462D01*
X28840540Y-38526411D01*
X28753253Y-38582896D01*
X28681181Y-38627421D01*
X28629977Y-38656490D01*
X28605526Y-38666616D01*
X28583010Y-38653307D01*
X28537742Y-38616112D01*
X28474244Y-38559128D01*
X28397039Y-38486449D01*
X28310651Y-38402171D01*
X28282399Y-38374016D01*
X27990287Y-38081416D01*
X28212631Y-37755104D01*
X28280202Y-37654897D01*
X28339507Y-37564963D01*
X28387217Y-37490510D01*
X28420007Y-37436751D01*
X28434548Y-37408894D01*
X28434974Y-37406912D01*
X28427308Y-37380655D01*
X28406689Y-37327837D01*
X28376685Y-37257310D01*
X28355625Y-37210093D01*
X28316248Y-37119694D01*
X28279165Y-37028366D01*
X28250415Y-36951200D01*
X28242605Y-36927692D01*
X28220417Y-36864916D01*
X28198727Y-36816411D01*
X28186813Y-36798079D01*
X28160523Y-36786859D01*
X28103142Y-36770954D01*
X28022118Y-36752167D01*
X27924895Y-36732299D01*
X27881385Y-36724132D01*
X27770896Y-36703829D01*
X27664916Y-36684170D01*
X27573801Y-36667088D01*
X27507908Y-36654518D01*
X27495500Y-36652091D01*
X27392923Y-36631845D01*
X27392923Y-36204701D01*
X27393153Y-36064246D01*
X27394099Y-35957979D01*
X27396141Y-35881013D01*
X27399662Y-35828460D01*
X27405043Y-35795433D01*
X27412666Y-35777045D01*
X27422912Y-35768408D01*
X27427115Y-35766807D01*
X27452470Y-35761127D01*
X27508484Y-35749795D01*
X27587964Y-35734179D01*
X27683712Y-35715647D01*
X27788533Y-35695569D01*
X27895232Y-35675312D01*
X27996613Y-35656246D01*
X28085479Y-35639739D01*
X28154637Y-35627159D01*
X28196889Y-35619875D01*
X28206290Y-35618616D01*
X28214807Y-35601763D01*
X28233660Y-35556870D01*
X28259324Y-35492430D01*
X28269123Y-35467192D01*
X28308648Y-35369686D01*
X28355192Y-35261959D01*
X28396877Y-35171172D01*
X28427550Y-35101753D01*
X28447956Y-35044710D01*
X28454768Y-35009777D01*
X28453682Y-35005095D01*
X28439285Y-34982991D01*
X28406412Y-34933831D01*
X28358590Y-34862848D01*
X28299348Y-34775278D01*
X28232215Y-34676357D01*
X28218941Y-34656830D01*
X28141046Y-34541140D01*
X28083787Y-34453044D01*
X28044881Y-34388486D01*
X28022044Y-34343411D01*
X28012994Y-34313763D01*
X28015448Y-34295485D01*
X28015511Y-34295369D01*
X28034827Y-34271361D01*
X28077551Y-34224947D01*
X28139051Y-34160937D01*
X28214698Y-34084145D01*
X28299861Y-33999382D01*
X28309465Y-33989922D01*
X28416790Y-33885989D01*
X28499615Y-33809675D01*
X28559605Y-33759571D01*
X28598423Y-33734270D01*
X28615520Y-33731004D01*
X28640473Y-33745250D01*
X28692255Y-33778156D01*
X28765520Y-33826208D01*
X28854920Y-33885890D01*
X28955111Y-33953688D01*
X28978501Y-33969639D01*
X29310593Y-34196420D01*
X29460565Y-34128353D01*
X29551770Y-34088685D01*
X29649669Y-34048791D01*
X29733831Y-34016983D01*
X29737538Y-34015674D01*
X29803369Y-33991576D01*
X29854116Y-33971200D01*
X29878842Y-33958936D01*
X29878884Y-33958901D01*
X29886729Y-33936734D01*
X29900066Y-33882217D01*
X29917570Y-33801480D01*
X29937917Y-33700650D01*
X29959782Y-33585856D01*
X29961571Y-33576178D01*
X29983504Y-33457904D01*
X30003640Y-33350542D01*
X30020680Y-33260917D01*
X30033328Y-33195851D01*
X30040284Y-33162168D01*
X30040406Y-33161654D01*
X30044639Y-33147325D01*
X30052871Y-33136507D01*
X30070033Y-33128706D01*
X30101058Y-33123429D01*
X30150878Y-33120182D01*
X30224424Y-33118472D01*
X30326629Y-33117807D01*
X30462425Y-33117693D01*
X30480000Y-33117692D01*
X30619878Y-33117776D01*
G37*
X30619878Y-33117776D02*
X30725612Y-33118355D01*
X30802132Y-33119922D01*
X30854372Y-33122972D01*
X30887263Y-33127996D01*
X30905737Y-33135489D01*
X30914727Y-33145944D01*
X30919163Y-33159853D01*
X30919594Y-33161654D01*
X30926333Y-33194145D01*
X30938808Y-33258252D01*
X30955719Y-33347151D01*
X30975771Y-33454019D01*
X30997664Y-33572033D01*
X30998429Y-33576178D01*
X31020359Y-33691831D01*
X31040877Y-33794014D01*
X31058659Y-33876598D01*
X31072381Y-33933456D01*
X31080718Y-33958458D01*
X31081116Y-33958901D01*
X31105677Y-33971110D01*
X31156315Y-33991456D01*
X31222095Y-34015545D01*
X31222461Y-34015674D01*
X31305317Y-34046818D01*
X31403000Y-34086491D01*
X31495077Y-34126381D01*
X31499434Y-34128353D01*
X31649407Y-34196420D01*
X31981498Y-33969639D01*
X32083374Y-33900504D01*
X32175657Y-33838697D01*
X32253003Y-33787733D01*
X32310064Y-33751127D01*
X32341495Y-33732394D01*
X32344479Y-33731004D01*
X32367321Y-33737190D01*
X32409982Y-33767035D01*
X32474128Y-33821947D01*
X32561421Y-33903334D01*
X32650535Y-33989922D01*
X32736441Y-34075247D01*
X32813327Y-34153108D01*
X32876564Y-34218697D01*
X32921523Y-34267205D01*
X32943576Y-34293825D01*
X32944396Y-34295195D01*
X32946834Y-34313463D01*
X32937650Y-34343295D01*
X32914574Y-34388721D01*
X32875337Y-34453770D01*
X32817670Y-34542470D01*
X32740795Y-34656657D01*
X32672570Y-34757162D01*
X32611582Y-34847303D01*
X32561356Y-34921849D01*
X32525416Y-34975565D01*
X32507287Y-35003218D01*
X32506146Y-35005095D01*
X32508359Y-35031590D01*
X32525138Y-35083086D01*
X32553142Y-35149851D01*
X32563122Y-35171172D01*
X32606672Y-35266159D01*
X32653134Y-35373937D01*
X32690877Y-35467192D01*
X32718073Y-35536406D01*
X32739675Y-35589006D01*
X32752158Y-35616497D01*
X32753709Y-35618616D01*
X32776668Y-35622124D01*
X32830786Y-35631738D01*
X32908868Y-35646089D01*
X33003719Y-35663807D01*
X33108143Y-35683525D01*
X33214944Y-35703874D01*
X33316926Y-35723486D01*
X33406894Y-35740991D01*
X33477653Y-35755022D01*
X33522006Y-35764209D01*
X33532885Y-35766807D01*
X33544122Y-35773218D01*
X33552605Y-35787697D01*
X33558714Y-35815133D01*
X33562832Y-35860411D01*
X33565341Y-35928420D01*
X33566621Y-36024047D01*
X33567054Y-36152180D01*
X33567077Y-36204701D01*
X33567077Y-36631845D01*
X33464500Y-36652091D01*
X33407431Y-36663070D01*
X33322269Y-36679095D01*
X33219372Y-36698233D01*
X33109096Y-36718551D01*
X33078615Y-36724132D01*
X32976855Y-36743917D01*
X32888205Y-36763373D01*
X32820108Y-36780697D01*
X32780004Y-36794088D01*
X32773323Y-36798079D01*
X32756919Y-36826342D01*
X32733399Y-36881109D01*
X32707316Y-36951588D01*
X32702142Y-36966769D01*
X32667956Y-37060896D01*
X32625523Y-37167101D01*
X32583997Y-37262473D01*
X32583792Y-37262916D01*
X32514640Y-37412525D01*
X32969512Y-38081617D01*
X32677500Y-38374116D01*
X32589180Y-38461170D01*
X32508625Y-38537909D01*
X32440360Y-38600237D01*
X32388908Y-38644056D01*
X32358794Y-38665270D01*
X32354474Y-38666616D01*
X32329111Y-38656016D01*
X32277358Y-38626547D01*
X32204868Y-38581705D01*
X32117294Y-38524984D01*
X32022612Y-38461462D01*
X31926516Y-38396668D01*
X31840837Y-38340287D01*
X31771016Y-38295788D01*
X31722494Y-38266639D01*
X31700782Y-38256308D01*
X31674293Y-38265050D01*
X31624062Y-38288087D01*
X31560451Y-38320631D01*
X31553708Y-38324249D01*
X31468046Y-38367210D01*
X31409306Y-38388279D01*
X31372772Y-38388503D01*
X31353731Y-38368928D01*
X31353620Y-38368654D01*
X31344102Y-38345472D01*
X31321403Y-38290441D01*
X31287282Y-38207822D01*
X31243500Y-38101872D01*
X31191816Y-37976852D01*
X31133992Y-37837020D01*
X31077991Y-37701637D01*
X31016447Y-37552234D01*
X30959939Y-37413832D01*
X30910161Y-37290673D01*
X30868806Y-37187002D01*
X30837568Y-37107059D01*
X30818141Y-37055088D01*
X30812154Y-37035692D01*
X30827168Y-37013443D01*
X30866439Y-36977982D01*
X30918807Y-36938887D01*
X31067941Y-36815245D01*
X31184511Y-36673522D01*
X31267118Y-36516704D01*
X31314366Y-36347775D01*
X31324857Y-36169722D01*
X31317231Y-36087539D01*
X31275682Y-35917031D01*
X31204123Y-35766459D01*
X31106995Y-35637309D01*
X30988734Y-35531064D01*
X30853780Y-35449210D01*
X30706571Y-35393232D01*
X30551544Y-35364615D01*
X30393139Y-35364844D01*
X30235794Y-35395405D01*
X30083946Y-35457782D01*
X29942035Y-35553460D01*
X29882803Y-35607572D01*
X29769203Y-35746520D01*
X29690106Y-35898361D01*
X29644986Y-36058667D01*
X29633316Y-36223012D01*
X29654569Y-36386971D01*
X29708220Y-36546118D01*
X29793740Y-36696025D01*
X29910605Y-36832267D01*
X30041193Y-36938887D01*
X30095588Y-36979642D01*
X30134014Y-37014718D01*
X30147846Y-37035726D01*
X30140603Y-37058635D01*
X30120005Y-37113365D01*
X30087746Y-37195672D01*
X30045521Y-37301315D01*
X29995023Y-37426050D01*
X29937948Y-37565636D01*
X29881854Y-37701670D01*
X29819967Y-37851201D01*
X29762644Y-37989767D01*
X29711644Y-38113107D01*
X29668727Y-38216964D01*
X29635653Y-38297080D01*
X29614181Y-38349195D01*
X29606225Y-38368654D01*
X29587429Y-38388423D01*
X29551074Y-38388365D01*
X29492479Y-38367441D01*
X29406968Y-38324613D01*
X29406292Y-38324249D01*
X29341907Y-38291012D01*
X29289861Y-38266802D01*
X29260512Y-38256404D01*
X29259217Y-38256308D01*
X29237124Y-38266855D01*
X29188348Y-38296184D01*
X29118331Y-38340827D01*
X29032514Y-38397314D01*
X28937388Y-38461462D01*
X28840540Y-38526411D01*
X28753253Y-38582896D01*
X28681181Y-38627421D01*
X28629977Y-38656490D01*
X28605526Y-38666616D01*
X28583010Y-38653307D01*
X28537742Y-38616112D01*
X28474244Y-38559128D01*
X28397039Y-38486449D01*
X28310651Y-38402171D01*
X28282399Y-38374016D01*
X27990287Y-38081416D01*
X28212631Y-37755104D01*
X28280202Y-37654897D01*
X28339507Y-37564963D01*
X28387217Y-37490510D01*
X28420007Y-37436751D01*
X28434548Y-37408894D01*
X28434974Y-37406912D01*
X28427308Y-37380655D01*
X28406689Y-37327837D01*
X28376685Y-37257310D01*
X28355625Y-37210093D01*
X28316248Y-37119694D01*
X28279165Y-37028366D01*
X28250415Y-36951200D01*
X28242605Y-36927692D01*
X28220417Y-36864916D01*
X28198727Y-36816411D01*
X28186813Y-36798079D01*
X28160523Y-36786859D01*
X28103142Y-36770954D01*
X28022118Y-36752167D01*
X27924895Y-36732299D01*
X27881385Y-36724132D01*
X27770896Y-36703829D01*
X27664916Y-36684170D01*
X27573801Y-36667088D01*
X27507908Y-36654518D01*
X27495500Y-36652091D01*
X27392923Y-36631845D01*
X27392923Y-36204701D01*
X27393153Y-36064246D01*
X27394099Y-35957979D01*
X27396141Y-35881013D01*
X27399662Y-35828460D01*
X27405043Y-35795433D01*
X27412666Y-35777045D01*
X27422912Y-35768408D01*
X27427115Y-35766807D01*
X27452470Y-35761127D01*
X27508484Y-35749795D01*
X27587964Y-35734179D01*
X27683712Y-35715647D01*
X27788533Y-35695569D01*
X27895232Y-35675312D01*
X27996613Y-35656246D01*
X28085479Y-35639739D01*
X28154637Y-35627159D01*
X28196889Y-35619875D01*
X28206290Y-35618616D01*
X28214807Y-35601763D01*
X28233660Y-35556870D01*
X28259324Y-35492430D01*
X28269123Y-35467192D01*
X28308648Y-35369686D01*
X28355192Y-35261959D01*
X28396877Y-35171172D01*
X28427550Y-35101753D01*
X28447956Y-35044710D01*
X28454768Y-35009777D01*
X28453682Y-35005095D01*
X28439285Y-34982991D01*
X28406412Y-34933831D01*
X28358590Y-34862848D01*
X28299348Y-34775278D01*
X28232215Y-34676357D01*
X28218941Y-34656830D01*
X28141046Y-34541140D01*
X28083787Y-34453044D01*
X28044881Y-34388486D01*
X28022044Y-34343411D01*
X28012994Y-34313763D01*
X28015448Y-34295485D01*
X28015511Y-34295369D01*
X28034827Y-34271361D01*
X28077551Y-34224947D01*
X28139051Y-34160937D01*
X28214698Y-34084145D01*
X28299861Y-33999382D01*
X28309465Y-33989922D01*
X28416790Y-33885989D01*
X28499615Y-33809675D01*
X28559605Y-33759571D01*
X28598423Y-33734270D01*
X28615520Y-33731004D01*
X28640473Y-33745250D01*
X28692255Y-33778156D01*
X28765520Y-33826208D01*
X28854920Y-33885890D01*
X28955111Y-33953688D01*
X28978501Y-33969639D01*
X29310593Y-34196420D01*
X29460565Y-34128353D01*
X29551770Y-34088685D01*
X29649669Y-34048791D01*
X29733831Y-34016983D01*
X29737538Y-34015674D01*
X29803369Y-33991576D01*
X29854116Y-33971200D01*
X29878842Y-33958936D01*
X29878884Y-33958901D01*
X29886729Y-33936734D01*
X29900066Y-33882217D01*
X29917570Y-33801480D01*
X29937917Y-33700650D01*
X29959782Y-33585856D01*
X29961571Y-33576178D01*
X29983504Y-33457904D01*
X30003640Y-33350542D01*
X30020680Y-33260917D01*
X30033328Y-33195851D01*
X30040284Y-33162168D01*
X30040406Y-33161654D01*
X30044639Y-33147325D01*
X30052871Y-33136507D01*
X30070033Y-33128706D01*
X30101058Y-33123429D01*
X30150878Y-33120182D01*
X30224424Y-33118472D01*
X30326629Y-33117807D01*
X30462425Y-33117693D01*
X30480000Y-33117692D01*
X30619878Y-33117776D01*
G36*
X34725224Y-39477838D02*
G01*
X34802528Y-39528361D01*
X34839814Y-39573590D01*
X34869353Y-39655663D01*
X34871699Y-39720607D01*
X34866385Y-39807445D01*
X34666115Y-39895103D01*
X34568739Y-39939887D01*
X34505113Y-39975913D01*
X34472029Y-40007117D01*
X34466280Y-40037436D01*
X34484658Y-40070805D01*
X34504923Y-40092923D01*
X34563889Y-40128393D01*
X34628024Y-40130879D01*
X34686926Y-40103235D01*
X34730197Y-40048320D01*
X34737936Y-40028928D01*
X34775006Y-39968364D01*
X34817654Y-39942552D01*
X34876154Y-39920471D01*
X34876154Y-40004184D01*
X34870982Y-40061150D01*
X34850723Y-40109189D01*
X34808262Y-40164346D01*
X34801951Y-40171514D01*
X34754720Y-40220585D01*
X34714121Y-40246920D01*
X34663328Y-40259035D01*
X34621220Y-40263003D01*
X34545902Y-40263991D01*
X34492286Y-40251466D01*
X34458838Y-40232869D01*
X34406268Y-40191975D01*
X34369879Y-40147748D01*
X34346850Y-40092126D01*
X34334359Y-40017047D01*
X34329587Y-39914449D01*
X34329206Y-39862376D01*
X34330501Y-39799948D01*
X34448471Y-39799948D01*
X34449839Y-39833438D01*
X34453249Y-39838923D01*
X34475753Y-39831472D01*
X34524182Y-39811753D01*
X34588908Y-39783718D01*
X34602443Y-39777692D01*
X34684244Y-39736096D01*
X34729312Y-39699538D01*
X34739217Y-39665296D01*
X34715526Y-39630648D01*
X34695960Y-39615339D01*
X34625360Y-39584721D01*
X34559280Y-39589780D01*
X34503959Y-39627151D01*
X34465636Y-39693473D01*
X34453349Y-39746116D01*
X34448471Y-39799948D01*
X34330501Y-39799948D01*
X34331730Y-39740720D01*
X34341032Y-39650710D01*
X34359460Y-39585167D01*
X34389360Y-39536912D01*
X34433080Y-39498767D01*
X34452141Y-39486440D01*
X34538726Y-39454336D01*
X34633522Y-39452316D01*
X34725224Y-39477838D01*
G37*
X34725224Y-39477838D02*
X34802528Y-39528361D01*
X34839814Y-39573590D01*
X34869353Y-39655663D01*
X34871699Y-39720607D01*
X34866385Y-39807445D01*
X34666115Y-39895103D01*
X34568739Y-39939887D01*
X34505113Y-39975913D01*
X34472029Y-40007117D01*
X34466280Y-40037436D01*
X34484658Y-40070805D01*
X34504923Y-40092923D01*
X34563889Y-40128393D01*
X34628024Y-40130879D01*
X34686926Y-40103235D01*
X34730197Y-40048320D01*
X34737936Y-40028928D01*
X34775006Y-39968364D01*
X34817654Y-39942552D01*
X34876154Y-39920471D01*
X34876154Y-40004184D01*
X34870982Y-40061150D01*
X34850723Y-40109189D01*
X34808262Y-40164346D01*
X34801951Y-40171514D01*
X34754720Y-40220585D01*
X34714121Y-40246920D01*
X34663328Y-40259035D01*
X34621220Y-40263003D01*
X34545902Y-40263991D01*
X34492286Y-40251466D01*
X34458838Y-40232869D01*
X34406268Y-40191975D01*
X34369879Y-40147748D01*
X34346850Y-40092126D01*
X34334359Y-40017047D01*
X34329587Y-39914449D01*
X34329206Y-39862376D01*
X34330501Y-39799948D01*
X34448471Y-39799948D01*
X34449839Y-39833438D01*
X34453249Y-39838923D01*
X34475753Y-39831472D01*
X34524182Y-39811753D01*
X34588908Y-39783718D01*
X34602443Y-39777692D01*
X34684244Y-39736096D01*
X34729312Y-39699538D01*
X34739217Y-39665296D01*
X34715526Y-39630648D01*
X34695960Y-39615339D01*
X34625360Y-39584721D01*
X34559280Y-39589780D01*
X34503959Y-39627151D01*
X34465636Y-39693473D01*
X34453349Y-39746116D01*
X34448471Y-39799948D01*
X34330501Y-39799948D01*
X34331730Y-39740720D01*
X34341032Y-39650710D01*
X34359460Y-39585167D01*
X34389360Y-39536912D01*
X34433080Y-39498767D01*
X34452141Y-39486440D01*
X34538726Y-39454336D01*
X34633522Y-39452316D01*
X34725224Y-39477838D01*
G36*
X34050807Y-39466782D02*
G01*
X34074161Y-39476988D01*
X34129902Y-39521134D01*
X34177569Y-39584967D01*
X34207048Y-39653087D01*
X34211846Y-39686670D01*
X34195760Y-39733556D01*
X34160475Y-39758365D01*
X34122644Y-39773387D01*
X34105321Y-39776155D01*
X34096886Y-39756066D01*
X34080230Y-39712351D01*
X34072923Y-39692598D01*
X34031948Y-39624271D01*
X33972622Y-39590191D01*
X33896552Y-39591239D01*
X33890918Y-39592581D01*
X33850305Y-39611836D01*
X33820448Y-39649375D01*
X33800055Y-39709809D01*
X33787836Y-39797751D01*
X33782500Y-39917813D01*
X33782000Y-39981698D01*
X33781752Y-40082403D01*
X33780126Y-40151054D01*
X33775801Y-40194673D01*
X33767454Y-40220282D01*
X33753765Y-40234903D01*
X33733411Y-40245558D01*
X33732234Y-40246095D01*
X33693038Y-40262667D01*
X33673619Y-40268769D01*
X33670635Y-40250319D01*
X33668081Y-40199323D01*
X33666140Y-40122308D01*
X33664997Y-40025805D01*
X33664769Y-39955184D01*
X33665932Y-39818525D01*
X33670479Y-39714851D01*
X33679999Y-39638108D01*
X33696081Y-39582246D01*
X33720313Y-39541212D01*
X33754286Y-39508954D01*
X33787833Y-39486440D01*
X33868499Y-39456476D01*
X33962381Y-39449718D01*
X34050807Y-39466782D01*
G37*
X34050807Y-39466782D02*
X34074161Y-39476988D01*
X34129902Y-39521134D01*
X34177569Y-39584967D01*
X34207048Y-39653087D01*
X34211846Y-39686670D01*
X34195760Y-39733556D01*
X34160475Y-39758365D01*
X34122644Y-39773387D01*
X34105321Y-39776155D01*
X34096886Y-39756066D01*
X34080230Y-39712351D01*
X34072923Y-39692598D01*
X34031948Y-39624271D01*
X33972622Y-39590191D01*
X33896552Y-39591239D01*
X33890918Y-39592581D01*
X33850305Y-39611836D01*
X33820448Y-39649375D01*
X33800055Y-39709809D01*
X33787836Y-39797751D01*
X33782500Y-39917813D01*
X33782000Y-39981698D01*
X33781752Y-40082403D01*
X33780126Y-40151054D01*
X33775801Y-40194673D01*
X33767454Y-40220282D01*
X33753765Y-40234903D01*
X33733411Y-40245558D01*
X33732234Y-40246095D01*
X33693038Y-40262667D01*
X33673619Y-40268769D01*
X33670635Y-40250319D01*
X33668081Y-40199323D01*
X33666140Y-40122308D01*
X33664997Y-40025805D01*
X33664769Y-39955184D01*
X33665932Y-39818525D01*
X33670479Y-39714851D01*
X33679999Y-39638108D01*
X33696081Y-39582246D01*
X33720313Y-39541212D01*
X33754286Y-39508954D01*
X33787833Y-39486440D01*
X33868499Y-39456476D01*
X33962381Y-39449718D01*
X34050807Y-39466782D01*
G36*
X33367333Y-39463528D02*
G01*
X33423590Y-39489117D01*
X33467747Y-39520124D01*
X33500101Y-39554795D01*
X33522438Y-39599520D01*
X33536546Y-39660692D01*
X33544211Y-39744701D01*
X33547220Y-39857940D01*
X33547538Y-39932509D01*
X33547538Y-40223420D01*
X33497773Y-40246095D01*
X33458576Y-40262667D01*
X33439157Y-40268769D01*
X33435442Y-40250610D01*
X33432495Y-40201648D01*
X33430691Y-40130153D01*
X33430308Y-40073385D01*
X33428661Y-39991371D01*
X33424222Y-39926309D01*
X33417740Y-39886467D01*
X33412590Y-39878000D01*
X33377977Y-39886646D01*
X33323640Y-39908823D01*
X33260722Y-39938886D01*
X33200368Y-39971192D01*
X33153721Y-40000098D01*
X33131926Y-40019961D01*
X33131839Y-40020175D01*
X33133714Y-40056935D01*
X33150525Y-40092026D01*
X33180039Y-40120528D01*
X33223116Y-40130061D01*
X33259932Y-40128950D01*
X33312074Y-40128133D01*
X33339444Y-40140349D01*
X33355882Y-40172624D01*
X33357955Y-40178710D01*
X33365081Y-40224739D01*
X33346024Y-40252687D01*
X33296353Y-40266007D01*
X33242697Y-40268470D01*
X33146142Y-40250210D01*
X33096159Y-40224131D01*
X33034429Y-40162868D01*
X33001690Y-40087670D01*
X32998753Y-40008211D01*
X33026424Y-39934167D01*
X33068047Y-39887769D01*
X33109604Y-39861793D01*
X33174922Y-39828907D01*
X33251038Y-39795557D01*
X33263726Y-39790461D01*
X33347333Y-39753565D01*
X33395530Y-39721046D01*
X33411030Y-39688718D01*
X33396550Y-39652394D01*
X33371692Y-39624000D01*
X33312939Y-39589039D01*
X33248293Y-39586417D01*
X33189008Y-39613358D01*
X33146339Y-39667088D01*
X33140739Y-39680950D01*
X33108133Y-39731936D01*
X33060530Y-39769787D01*
X33000461Y-39800850D01*
X33000461Y-39712768D01*
X33003997Y-39658951D01*
X33019156Y-39616534D01*
X33052768Y-39571279D01*
X33085035Y-39536420D01*
X33135209Y-39487062D01*
X33174193Y-39460547D01*
X33216064Y-39449911D01*
X33263460Y-39448154D01*
X33367333Y-39463528D01*
G37*
X33367333Y-39463528D02*
X33423590Y-39489117D01*
X33467747Y-39520124D01*
X33500101Y-39554795D01*
X33522438Y-39599520D01*
X33536546Y-39660692D01*
X33544211Y-39744701D01*
X33547220Y-39857940D01*
X33547538Y-39932509D01*
X33547538Y-40223420D01*
X33497773Y-40246095D01*
X33458576Y-40262667D01*
X33439157Y-40268769D01*
X33435442Y-40250610D01*
X33432495Y-40201648D01*
X33430691Y-40130153D01*
X33430308Y-40073385D01*
X33428661Y-39991371D01*
X33424222Y-39926309D01*
X33417740Y-39886467D01*
X33412590Y-39878000D01*
X33377977Y-39886646D01*
X33323640Y-39908823D01*
X33260722Y-39938886D01*
X33200368Y-39971192D01*
X33153721Y-40000098D01*
X33131926Y-40019961D01*
X33131839Y-40020175D01*
X33133714Y-40056935D01*
X33150525Y-40092026D01*
X33180039Y-40120528D01*
X33223116Y-40130061D01*
X33259932Y-40128950D01*
X33312074Y-40128133D01*
X33339444Y-40140349D01*
X33355882Y-40172624D01*
X33357955Y-40178710D01*
X33365081Y-40224739D01*
X33346024Y-40252687D01*
X33296353Y-40266007D01*
X33242697Y-40268470D01*
X33146142Y-40250210D01*
X33096159Y-40224131D01*
X33034429Y-40162868D01*
X33001690Y-40087670D01*
X32998753Y-40008211D01*
X33026424Y-39934167D01*
X33068047Y-39887769D01*
X33109604Y-39861793D01*
X33174922Y-39828907D01*
X33251038Y-39795557D01*
X33263726Y-39790461D01*
X33347333Y-39753565D01*
X33395530Y-39721046D01*
X33411030Y-39688718D01*
X33396550Y-39652394D01*
X33371692Y-39624000D01*
X33312939Y-39589039D01*
X33248293Y-39586417D01*
X33189008Y-39613358D01*
X33146339Y-39667088D01*
X33140739Y-39680950D01*
X33108133Y-39731936D01*
X33060530Y-39769787D01*
X33000461Y-39800850D01*
X33000461Y-39712768D01*
X33003997Y-39658951D01*
X33019156Y-39616534D01*
X33052768Y-39571279D01*
X33085035Y-39536420D01*
X33135209Y-39487062D01*
X33174193Y-39460547D01*
X33216064Y-39449911D01*
X33263460Y-39448154D01*
X33367333Y-39463528D01*
G36*
X32875929Y-39466662D02*
G01*
X32878911Y-39518068D01*
X32881247Y-39596192D01*
X32882749Y-39694857D01*
X32883231Y-39798343D01*
X32883231Y-40148533D01*
X32821401Y-40210363D01*
X32778793Y-40248462D01*
X32741390Y-40263895D01*
X32690270Y-40262918D01*
X32669978Y-40260433D01*
X32606554Y-40253200D01*
X32554095Y-40249055D01*
X32541308Y-40248672D01*
X32498199Y-40251176D01*
X32436544Y-40257462D01*
X32412638Y-40260433D01*
X32353922Y-40265028D01*
X32314464Y-40255046D01*
X32275338Y-40224228D01*
X32261215Y-40210363D01*
X32199385Y-40148533D01*
X32199385Y-39493503D01*
X32249150Y-39470829D01*
X32292002Y-39454034D01*
X32317073Y-39448154D01*
X32323501Y-39466736D01*
X32329509Y-39518655D01*
X32334697Y-39598172D01*
X32338664Y-39699546D01*
X32340577Y-39785192D01*
X32345923Y-40122231D01*
X32392560Y-40128825D01*
X32434976Y-40124214D01*
X32455760Y-40109287D01*
X32461570Y-40081377D01*
X32466530Y-40021925D01*
X32470246Y-39938466D01*
X32472324Y-39838532D01*
X32472624Y-39787104D01*
X32472923Y-39491054D01*
X32534454Y-39469604D01*
X32578004Y-39455020D01*
X32601694Y-39448219D01*
X32602377Y-39448154D01*
X32604754Y-39466642D01*
X32607366Y-39517906D01*
X32609995Y-39595649D01*
X32612421Y-39693574D01*
X32614115Y-39785192D01*
X32619461Y-40122231D01*
X32736692Y-40122231D01*
X32742072Y-39814746D01*
X32747451Y-39507261D01*
X32804601Y-39477707D01*
X32846797Y-39457413D01*
X32871770Y-39448204D01*
X32872491Y-39448154D01*
X32875929Y-39466662D01*
G37*
X32875929Y-39466662D02*
X32878911Y-39518068D01*
X32881247Y-39596192D01*
X32882749Y-39694857D01*
X32883231Y-39798343D01*
X32883231Y-40148533D01*
X32821401Y-40210363D01*
X32778793Y-40248462D01*
X32741390Y-40263895D01*
X32690270Y-40262918D01*
X32669978Y-40260433D01*
X32606554Y-40253200D01*
X32554095Y-40249055D01*
X32541308Y-40248672D01*
X32498199Y-40251176D01*
X32436544Y-40257462D01*
X32412638Y-40260433D01*
X32353922Y-40265028D01*
X32314464Y-40255046D01*
X32275338Y-40224228D01*
X32261215Y-40210363D01*
X32199385Y-40148533D01*
X32199385Y-39493503D01*
X32249150Y-39470829D01*
X32292002Y-39454034D01*
X32317073Y-39448154D01*
X32323501Y-39466736D01*
X32329509Y-39518655D01*
X32334697Y-39598172D01*
X32338664Y-39699546D01*
X32340577Y-39785192D01*
X32345923Y-40122231D01*
X32392560Y-40128825D01*
X32434976Y-40124214D01*
X32455760Y-40109287D01*
X32461570Y-40081377D01*
X32466530Y-40021925D01*
X32470246Y-39938466D01*
X32472324Y-39838532D01*
X32472624Y-39787104D01*
X32472923Y-39491054D01*
X32534454Y-39469604D01*
X32578004Y-39455020D01*
X32601694Y-39448219D01*
X32602377Y-39448154D01*
X32604754Y-39466642D01*
X32607366Y-39517906D01*
X32609995Y-39595649D01*
X32612421Y-39693574D01*
X32614115Y-39785192D01*
X32619461Y-40122231D01*
X32736692Y-40122231D01*
X32742072Y-39814746D01*
X32747451Y-39507261D01*
X32804601Y-39477707D01*
X32846797Y-39457413D01*
X32871770Y-39448204D01*
X32872491Y-39448154D01*
X32875929Y-39466662D01*
G36*
X32082081Y-39610289D02*
G01*
X32081833Y-39756320D01*
X32080872Y-39868655D01*
X32078794Y-39952678D01*
X32075193Y-40013769D01*
X32069665Y-40057309D01*
X32061804Y-40088679D01*
X32051207Y-40113262D01*
X32043182Y-40127294D01*
X31976728Y-40203388D01*
X31892470Y-40251084D01*
X31799249Y-40268199D01*
X31705900Y-40252546D01*
X31650312Y-40224418D01*
X31591957Y-40175760D01*
X31552186Y-40116333D01*
X31528190Y-40038507D01*
X31517161Y-39934652D01*
X31515599Y-39858462D01*
X31515809Y-39852986D01*
X31652308Y-39852986D01*
X31653141Y-39940355D01*
X31656961Y-39998192D01*
X31665746Y-40036029D01*
X31681474Y-40063398D01*
X31700266Y-40084042D01*
X31763375Y-40123890D01*
X31831137Y-40127295D01*
X31895179Y-40094025D01*
X31900164Y-40089517D01*
X31921439Y-40066067D01*
X31934779Y-40038166D01*
X31942001Y-39996641D01*
X31944923Y-39932316D01*
X31945385Y-39861200D01*
X31944383Y-39771858D01*
X31940238Y-39712258D01*
X31931236Y-39673089D01*
X31915667Y-39645040D01*
X31902902Y-39630144D01*
X31843600Y-39592575D01*
X31775301Y-39588057D01*
X31710110Y-39616753D01*
X31697528Y-39627406D01*
X31676111Y-39651063D01*
X31662744Y-39679251D01*
X31655566Y-39721245D01*
X31652719Y-39786319D01*
X31652308Y-39852986D01*
X31515809Y-39852986D01*
X31520322Y-39735765D01*
X31536362Y-39643577D01*
X31566528Y-39574269D01*
X31613629Y-39520211D01*
X31650312Y-39492505D01*
X31716990Y-39462572D01*
X31794272Y-39448678D01*
X31866110Y-39452397D01*
X31906308Y-39467400D01*
X31922082Y-39471670D01*
X31932550Y-39455750D01*
X31939856Y-39413089D01*
X31945385Y-39348106D01*
X31951437Y-39275732D01*
X31959844Y-39232187D01*
X31975141Y-39207287D01*
X32001864Y-39190845D01*
X32018654Y-39183564D01*
X32082154Y-39156963D01*
X32082081Y-39610289D01*
G37*
X32082081Y-39610289D02*
X32081833Y-39756320D01*
X32080872Y-39868655D01*
X32078794Y-39952678D01*
X32075193Y-40013769D01*
X32069665Y-40057309D01*
X32061804Y-40088679D01*
X32051207Y-40113262D01*
X32043182Y-40127294D01*
X31976728Y-40203388D01*
X31892470Y-40251084D01*
X31799249Y-40268199D01*
X31705900Y-40252546D01*
X31650312Y-40224418D01*
X31591957Y-40175760D01*
X31552186Y-40116333D01*
X31528190Y-40038507D01*
X31517161Y-39934652D01*
X31515599Y-39858462D01*
X31515809Y-39852986D01*
X31652308Y-39852986D01*
X31653141Y-39940355D01*
X31656961Y-39998192D01*
X31665746Y-40036029D01*
X31681474Y-40063398D01*
X31700266Y-40084042D01*
X31763375Y-40123890D01*
X31831137Y-40127295D01*
X31895179Y-40094025D01*
X31900164Y-40089517D01*
X31921439Y-40066067D01*
X31934779Y-40038166D01*
X31942001Y-39996641D01*
X31944923Y-39932316D01*
X31945385Y-39861200D01*
X31944383Y-39771858D01*
X31940238Y-39712258D01*
X31931236Y-39673089D01*
X31915667Y-39645040D01*
X31902902Y-39630144D01*
X31843600Y-39592575D01*
X31775301Y-39588057D01*
X31710110Y-39616753D01*
X31697528Y-39627406D01*
X31676111Y-39651063D01*
X31662744Y-39679251D01*
X31655566Y-39721245D01*
X31652719Y-39786319D01*
X31652308Y-39852986D01*
X31515809Y-39852986D01*
X31520322Y-39735765D01*
X31536362Y-39643577D01*
X31566528Y-39574269D01*
X31613629Y-39520211D01*
X31650312Y-39492505D01*
X31716990Y-39462572D01*
X31794272Y-39448678D01*
X31866110Y-39452397D01*
X31906308Y-39467400D01*
X31922082Y-39471670D01*
X31932550Y-39455750D01*
X31939856Y-39413089D01*
X31945385Y-39348106D01*
X31951437Y-39275732D01*
X31959844Y-39232187D01*
X31975141Y-39207287D01*
X32001864Y-39190845D01*
X32018654Y-39183564D01*
X32082154Y-39156963D01*
X32082081Y-39610289D01*
G36*
X31193362Y-39454670D02*
G01*
X31282117Y-39487421D01*
X31354022Y-39545350D01*
X31382144Y-39586128D01*
X31412802Y-39660954D01*
X31412165Y-39715058D01*
X31379987Y-39751446D01*
X31368081Y-39757633D01*
X31316675Y-39776925D01*
X31290422Y-39771982D01*
X31281530Y-39739587D01*
X31281077Y-39721692D01*
X31264797Y-39655859D01*
X31222365Y-39609807D01*
X31163388Y-39587564D01*
X31097475Y-39593161D01*
X31043895Y-39622229D01*
X31025798Y-39638810D01*
X31012971Y-39658925D01*
X31004306Y-39689332D01*
X30998696Y-39736788D01*
X30995035Y-39808050D01*
X30992215Y-39909875D01*
X30991484Y-39942115D01*
X30988820Y-40052410D01*
X30985792Y-40130036D01*
X30981250Y-40181396D01*
X30974046Y-40212890D01*
X30963033Y-40230920D01*
X30947060Y-40241888D01*
X30936834Y-40246733D01*
X30893406Y-40263301D01*
X30867842Y-40268769D01*
X30859395Y-40250507D01*
X30854239Y-40195296D01*
X30852346Y-40102499D01*
X30853689Y-39971478D01*
X30854107Y-39951269D01*
X30857058Y-39831733D01*
X30860548Y-39744449D01*
X30865514Y-39682591D01*
X30872893Y-39639336D01*
X30883624Y-39607860D01*
X30898645Y-39581339D01*
X30906502Y-39569975D01*
X30951553Y-39519692D01*
X31001940Y-39480581D01*
X31008108Y-39477167D01*
X31098458Y-39450212D01*
X31193362Y-39454670D01*
G37*
X31193362Y-39454670D02*
X31282117Y-39487421D01*
X31354022Y-39545350D01*
X31382144Y-39586128D01*
X31412802Y-39660954D01*
X31412165Y-39715058D01*
X31379987Y-39751446D01*
X31368081Y-39757633D01*
X31316675Y-39776925D01*
X31290422Y-39771982D01*
X31281530Y-39739587D01*
X31281077Y-39721692D01*
X31264797Y-39655859D01*
X31222365Y-39609807D01*
X31163388Y-39587564D01*
X31097475Y-39593161D01*
X31043895Y-39622229D01*
X31025798Y-39638810D01*
X31012971Y-39658925D01*
X31004306Y-39689332D01*
X30998696Y-39736788D01*
X30995035Y-39808050D01*
X30992215Y-39909875D01*
X30991484Y-39942115D01*
X30988820Y-40052410D01*
X30985792Y-40130036D01*
X30981250Y-40181396D01*
X30974046Y-40212890D01*
X30963033Y-40230920D01*
X30947060Y-40241888D01*
X30936834Y-40246733D01*
X30893406Y-40263301D01*
X30867842Y-40268769D01*
X30859395Y-40250507D01*
X30854239Y-40195296D01*
X30852346Y-40102499D01*
X30853689Y-39971478D01*
X30854107Y-39951269D01*
X30857058Y-39831733D01*
X30860548Y-39744449D01*
X30865514Y-39682591D01*
X30872893Y-39639336D01*
X30883624Y-39607860D01*
X30898645Y-39581339D01*
X30906502Y-39569975D01*
X30951553Y-39519692D01*
X31001940Y-39480581D01*
X31008108Y-39477167D01*
X31098458Y-39450212D01*
X31193362Y-39454670D01*
G36*
X30533501Y-39456303D02*
G01*
X30610060Y-39484733D01*
X30610936Y-39485279D01*
X30658285Y-39520127D01*
X30693241Y-39560852D01*
X30717825Y-39613925D01*
X30734062Y-39685814D01*
X30743975Y-39782992D01*
X30749586Y-39911928D01*
X30750077Y-39930298D01*
X30757141Y-40207287D01*
X30697695Y-40238028D01*
X30654681Y-40258802D01*
X30628710Y-40268646D01*
X30627509Y-40268769D01*
X30623014Y-40250606D01*
X30619444Y-40201612D01*
X30617248Y-40130031D01*
X30616769Y-40072068D01*
X30616758Y-39978170D01*
X30612466Y-39919203D01*
X30597503Y-39891079D01*
X30565482Y-39889706D01*
X30510014Y-39910998D01*
X30426269Y-39950136D01*
X30364689Y-39982643D01*
X30333017Y-40010845D01*
X30323706Y-40041582D01*
X30323692Y-40043104D01*
X30339057Y-40096054D01*
X30384547Y-40124660D01*
X30454166Y-40128803D01*
X30504313Y-40128084D01*
X30530754Y-40142527D01*
X30547243Y-40177218D01*
X30556733Y-40221416D01*
X30543057Y-40246493D01*
X30537907Y-40250082D01*
X30489425Y-40264496D01*
X30421531Y-40266537D01*
X30351612Y-40256983D01*
X30302068Y-40239522D01*
X30233570Y-40181364D01*
X30194634Y-40100408D01*
X30186923Y-40037160D01*
X30192807Y-39980111D01*
X30214101Y-39933542D01*
X30256265Y-39892181D01*
X30324759Y-39850755D01*
X30425044Y-39803993D01*
X30431154Y-39801350D01*
X30521490Y-39759617D01*
X30577235Y-39725391D01*
X30601129Y-39694635D01*
X30595913Y-39663311D01*
X30564328Y-39627383D01*
X30554883Y-39619116D01*
X30491617Y-39587058D01*
X30426064Y-39588407D01*
X30368972Y-39619838D01*
X30331093Y-39678024D01*
X30327574Y-39689446D01*
X30293300Y-39744837D01*
X30249809Y-39771518D01*
X30186923Y-39797960D01*
X30186923Y-39729548D01*
X30206052Y-39630110D01*
X30262831Y-39538902D01*
X30292378Y-39508389D01*
X30359542Y-39469228D01*
X30444956Y-39451500D01*
X30533501Y-39456303D01*
G37*
X30533501Y-39456303D02*
X30610060Y-39484733D01*
X30610936Y-39485279D01*
X30658285Y-39520127D01*
X30693241Y-39560852D01*
X30717825Y-39613925D01*
X30734062Y-39685814D01*
X30743975Y-39782992D01*
X30749586Y-39911928D01*
X30750077Y-39930298D01*
X30757141Y-40207287D01*
X30697695Y-40238028D01*
X30654681Y-40258802D01*
X30628710Y-40268646D01*
X30627509Y-40268769D01*
X30623014Y-40250606D01*
X30619444Y-40201612D01*
X30617248Y-40130031D01*
X30616769Y-40072068D01*
X30616758Y-39978170D01*
X30612466Y-39919203D01*
X30597503Y-39891079D01*
X30565482Y-39889706D01*
X30510014Y-39910998D01*
X30426269Y-39950136D01*
X30364689Y-39982643D01*
X30333017Y-40010845D01*
X30323706Y-40041582D01*
X30323692Y-40043104D01*
X30339057Y-40096054D01*
X30384547Y-40124660D01*
X30454166Y-40128803D01*
X30504313Y-40128084D01*
X30530754Y-40142527D01*
X30547243Y-40177218D01*
X30556733Y-40221416D01*
X30543057Y-40246493D01*
X30537907Y-40250082D01*
X30489425Y-40264496D01*
X30421531Y-40266537D01*
X30351612Y-40256983D01*
X30302068Y-40239522D01*
X30233570Y-40181364D01*
X30194634Y-40100408D01*
X30186923Y-40037160D01*
X30192807Y-39980111D01*
X30214101Y-39933542D01*
X30256265Y-39892181D01*
X30324759Y-39850755D01*
X30425044Y-39803993D01*
X30431154Y-39801350D01*
X30521490Y-39759617D01*
X30577235Y-39725391D01*
X30601129Y-39694635D01*
X30595913Y-39663311D01*
X30564328Y-39627383D01*
X30554883Y-39619116D01*
X30491617Y-39587058D01*
X30426064Y-39588407D01*
X30368972Y-39619838D01*
X30331093Y-39678024D01*
X30327574Y-39689446D01*
X30293300Y-39744837D01*
X30249809Y-39771518D01*
X30186923Y-39797960D01*
X30186923Y-39729548D01*
X30206052Y-39630110D01*
X30262831Y-39538902D01*
X30292378Y-39508389D01*
X30359542Y-39469228D01*
X30444956Y-39451500D01*
X30533501Y-39456303D01*
G36*
X29639846Y-39322120D02*
G01*
X29645572Y-39401980D01*
X29652149Y-39449039D01*
X29661262Y-39469566D01*
X29674598Y-39469829D01*
X29678923Y-39467378D01*
X29736444Y-39449636D01*
X29811268Y-39450672D01*
X29887339Y-39468910D01*
X29934918Y-39492505D01*
X29983702Y-39530198D01*
X30019364Y-39572855D01*
X30043845Y-39627057D01*
X30059087Y-39699384D01*
X30067030Y-39796419D01*
X30069616Y-39924742D01*
X30069662Y-39949358D01*
X30069692Y-40225870D01*
X30008161Y-40247320D01*
X29964459Y-40261912D01*
X29940482Y-40268706D01*
X29939777Y-40268769D01*
X29937415Y-40250345D01*
X29935406Y-40199526D01*
X29933901Y-40122993D01*
X29933053Y-40027430D01*
X29932923Y-39969329D01*
X29932651Y-39854771D01*
X29931252Y-39772667D01*
X29927849Y-39716393D01*
X29921567Y-39679326D01*
X29911529Y-39654844D01*
X29896861Y-39636325D01*
X29887702Y-39627406D01*
X29824789Y-39591466D01*
X29756136Y-39588775D01*
X29693848Y-39619170D01*
X29682329Y-39630144D01*
X29665433Y-39650779D01*
X29653714Y-39675256D01*
X29646233Y-39710647D01*
X29642054Y-39764026D01*
X29640237Y-39842466D01*
X29639846Y-39950617D01*
X29639846Y-40225870D01*
X29578315Y-40247320D01*
X29534613Y-40261912D01*
X29510636Y-40268706D01*
X29509930Y-40268769D01*
X29508126Y-40250069D01*
X29506500Y-40197322D01*
X29505117Y-40115557D01*
X29504042Y-40009805D01*
X29503340Y-39885094D01*
X29503077Y-39746455D01*
X29503077Y-39211806D01*
X29630077Y-39158236D01*
X29639846Y-39322120D01*
G37*
X29639846Y-39322120D02*
X29645572Y-39401980D01*
X29652149Y-39449039D01*
X29661262Y-39469566D01*
X29674598Y-39469829D01*
X29678923Y-39467378D01*
X29736444Y-39449636D01*
X29811268Y-39450672D01*
X29887339Y-39468910D01*
X29934918Y-39492505D01*
X29983702Y-39530198D01*
X30019364Y-39572855D01*
X30043845Y-39627057D01*
X30059087Y-39699384D01*
X30067030Y-39796419D01*
X30069616Y-39924742D01*
X30069662Y-39949358D01*
X30069692Y-40225870D01*
X30008161Y-40247320D01*
X29964459Y-40261912D01*
X29940482Y-40268706D01*
X29939777Y-40268769D01*
X29937415Y-40250345D01*
X29935406Y-40199526D01*
X29933901Y-40122993D01*
X29933053Y-40027430D01*
X29932923Y-39969329D01*
X29932651Y-39854771D01*
X29931252Y-39772667D01*
X29927849Y-39716393D01*
X29921567Y-39679326D01*
X29911529Y-39654844D01*
X29896861Y-39636325D01*
X29887702Y-39627406D01*
X29824789Y-39591466D01*
X29756136Y-39588775D01*
X29693848Y-39619170D01*
X29682329Y-39630144D01*
X29665433Y-39650779D01*
X29653714Y-39675256D01*
X29646233Y-39710647D01*
X29642054Y-39764026D01*
X29640237Y-39842466D01*
X29639846Y-39950617D01*
X29639846Y-40225870D01*
X29578315Y-40247320D01*
X29534613Y-40261912D01*
X29510636Y-40268706D01*
X29509930Y-40268769D01*
X29508126Y-40250069D01*
X29506500Y-40197322D01*
X29505117Y-40115557D01*
X29504042Y-40009805D01*
X29503340Y-39885094D01*
X29503077Y-39746455D01*
X29503077Y-39211806D01*
X29630077Y-39158236D01*
X29639846Y-39322120D01*
G36*
X28014254Y-39429745D02*
G01*
X28091286Y-39481567D01*
X28150816Y-39556412D01*
X28186378Y-39651654D01*
X28193571Y-39721756D01*
X28192754Y-39751009D01*
X28185914Y-39773407D01*
X28167112Y-39793474D01*
X28130408Y-39815733D01*
X28069862Y-39844709D01*
X27979534Y-39884927D01*
X27979077Y-39885129D01*
X27895933Y-39923210D01*
X27827753Y-39957025D01*
X27781505Y-39982933D01*
X27764158Y-39997295D01*
X27764154Y-39997411D01*
X27779443Y-40028685D01*
X27815196Y-40063157D01*
X27856242Y-40087990D01*
X27877037Y-40092923D01*
X27933770Y-40075862D01*
X27982627Y-40033133D01*
X28006465Y-39986155D01*
X28029397Y-39951522D01*
X28074318Y-39912081D01*
X28127123Y-39878009D01*
X28173710Y-39859480D01*
X28183452Y-39858462D01*
X28194418Y-39875215D01*
X28195079Y-39918039D01*
X28187020Y-39975781D01*
X28171827Y-40037289D01*
X28151086Y-40091409D01*
X28150038Y-40093510D01*
X28087621Y-40180660D01*
X28006726Y-40239939D01*
X27914856Y-40269034D01*
X27819513Y-40265634D01*
X27728198Y-40227428D01*
X27724138Y-40224741D01*
X27652306Y-40159642D01*
X27605073Y-40074705D01*
X27578934Y-39963021D01*
X27575426Y-39931643D01*
X27569213Y-39783536D01*
X27576661Y-39714468D01*
X27764154Y-39714468D01*
X27766590Y-39757552D01*
X27779914Y-39770126D01*
X27813132Y-39760719D01*
X27865494Y-39738483D01*
X27924024Y-39710610D01*
X27925479Y-39709872D01*
X27975089Y-39683777D01*
X27995000Y-39666363D01*
X27990090Y-39648107D01*
X27969416Y-39624120D01*
X27916819Y-39589406D01*
X27860177Y-39586856D01*
X27809369Y-39612119D01*
X27774276Y-39660847D01*
X27764154Y-39714468D01*
X27576661Y-39714468D01*
X27581992Y-39665036D01*
X27614778Y-39571055D01*
X27660421Y-39505215D01*
X27742802Y-39438681D01*
X27833546Y-39405676D01*
X27926185Y-39403573D01*
X28014254Y-39429745D01*
G37*
X28014254Y-39429745D02*
X28091286Y-39481567D01*
X28150816Y-39556412D01*
X28186378Y-39651654D01*
X28193571Y-39721756D01*
X28192754Y-39751009D01*
X28185914Y-39773407D01*
X28167112Y-39793474D01*
X28130408Y-39815733D01*
X28069862Y-39844709D01*
X27979534Y-39884927D01*
X27979077Y-39885129D01*
X27895933Y-39923210D01*
X27827753Y-39957025D01*
X27781505Y-39982933D01*
X27764158Y-39997295D01*
X27764154Y-39997411D01*
X27779443Y-40028685D01*
X27815196Y-40063157D01*
X27856242Y-40087990D01*
X27877037Y-40092923D01*
X27933770Y-40075862D01*
X27982627Y-40033133D01*
X28006465Y-39986155D01*
X28029397Y-39951522D01*
X28074318Y-39912081D01*
X28127123Y-39878009D01*
X28173710Y-39859480D01*
X28183452Y-39858462D01*
X28194418Y-39875215D01*
X28195079Y-39918039D01*
X28187020Y-39975781D01*
X28171827Y-40037289D01*
X28151086Y-40091409D01*
X28150038Y-40093510D01*
X28087621Y-40180660D01*
X28006726Y-40239939D01*
X27914856Y-40269034D01*
X27819513Y-40265634D01*
X27728198Y-40227428D01*
X27724138Y-40224741D01*
X27652306Y-40159642D01*
X27605073Y-40074705D01*
X27578934Y-39963021D01*
X27575426Y-39931643D01*
X27569213Y-39783536D01*
X27576661Y-39714468D01*
X27764154Y-39714468D01*
X27766590Y-39757552D01*
X27779914Y-39770126D01*
X27813132Y-39760719D01*
X27865494Y-39738483D01*
X27924024Y-39710610D01*
X27925479Y-39709872D01*
X27975089Y-39683777D01*
X27995000Y-39666363D01*
X27990090Y-39648107D01*
X27969416Y-39624120D01*
X27916819Y-39589406D01*
X27860177Y-39586856D01*
X27809369Y-39612119D01*
X27774276Y-39660847D01*
X27764154Y-39714468D01*
X27576661Y-39714468D01*
X27581992Y-39665036D01*
X27614778Y-39571055D01*
X27660421Y-39505215D01*
X27742802Y-39438681D01*
X27833546Y-39405676D01*
X27926185Y-39403573D01*
X28014254Y-39429745D01*
G36*
X26496886Y-39417256D02*
G01*
X26588464Y-39465409D01*
X26656049Y-39542905D01*
X26680057Y-39592727D01*
X26698738Y-39667533D01*
X26708301Y-39762052D01*
X26709208Y-39865210D01*
X26701921Y-39965935D01*
X26686903Y-40053153D01*
X26664615Y-40115791D01*
X26657765Y-40126579D01*
X26576632Y-40207105D01*
X26480266Y-40255336D01*
X26375701Y-40269450D01*
X26269968Y-40247629D01*
X26240543Y-40234547D01*
X26183241Y-40194231D01*
X26132950Y-40140775D01*
X26128197Y-40133995D01*
X26108878Y-40101321D01*
X26096108Y-40066394D01*
X26088564Y-40020414D01*
X26084924Y-39954584D01*
X26083865Y-39860105D01*
X26083846Y-39838923D01*
X26083894Y-39832182D01*
X26279231Y-39832182D01*
X26280368Y-39921349D01*
X26284841Y-39980520D01*
X26294246Y-40018741D01*
X26310176Y-40045053D01*
X26318308Y-40053846D01*
X26365058Y-40087261D01*
X26410447Y-40085737D01*
X26456340Y-40056752D01*
X26483712Y-40025809D01*
X26499923Y-39980643D01*
X26509026Y-39909420D01*
X26509651Y-39901114D01*
X26511204Y-39772037D01*
X26494965Y-39676172D01*
X26461152Y-39614107D01*
X26409984Y-39586432D01*
X26391720Y-39584923D01*
X26343760Y-39592513D01*
X26310953Y-39618808D01*
X26290895Y-39669095D01*
X26281178Y-39748664D01*
X26279231Y-39832182D01*
X26083894Y-39832182D01*
X26084574Y-39738249D01*
X26087629Y-39667906D01*
X26094322Y-39619163D01*
X26105960Y-39583288D01*
X26123853Y-39551548D01*
X26127808Y-39545648D01*
X26194267Y-39466104D01*
X26266685Y-39419929D01*
X26354849Y-39401599D01*
X26384787Y-39400703D01*
X26496886Y-39417256D01*
G37*
X26496886Y-39417256D02*
X26588464Y-39465409D01*
X26656049Y-39542905D01*
X26680057Y-39592727D01*
X26698738Y-39667533D01*
X26708301Y-39762052D01*
X26709208Y-39865210D01*
X26701921Y-39965935D01*
X26686903Y-40053153D01*
X26664615Y-40115791D01*
X26657765Y-40126579D01*
X26576632Y-40207105D01*
X26480266Y-40255336D01*
X26375701Y-40269450D01*
X26269968Y-40247629D01*
X26240543Y-40234547D01*
X26183241Y-40194231D01*
X26132950Y-40140775D01*
X26128197Y-40133995D01*
X26108878Y-40101321D01*
X26096108Y-40066394D01*
X26088564Y-40020414D01*
X26084924Y-39954584D01*
X26083865Y-39860105D01*
X26083846Y-39838923D01*
X26083894Y-39832182D01*
X26279231Y-39832182D01*
X26280368Y-39921349D01*
X26284841Y-39980520D01*
X26294246Y-40018741D01*
X26310176Y-40045053D01*
X26318308Y-40053846D01*
X26365058Y-40087261D01*
X26410447Y-40085737D01*
X26456340Y-40056752D01*
X26483712Y-40025809D01*
X26499923Y-39980643D01*
X26509026Y-39909420D01*
X26509651Y-39901114D01*
X26511204Y-39772037D01*
X26494965Y-39676172D01*
X26461152Y-39614107D01*
X26409984Y-39586432D01*
X26391720Y-39584923D01*
X26343760Y-39592513D01*
X26310953Y-39618808D01*
X26290895Y-39669095D01*
X26281178Y-39748664D01*
X26279231Y-39832182D01*
X26083894Y-39832182D01*
X26084574Y-39738249D01*
X26087629Y-39667906D01*
X26094322Y-39619163D01*
X26105960Y-39583288D01*
X26123853Y-39551548D01*
X26127808Y-39545648D01*
X26194267Y-39466104D01*
X26266685Y-39419929D01*
X26354849Y-39401599D01*
X26384787Y-39400703D01*
X26496886Y-39417256D01*
G36*
X28751664Y-39425089D02*
G01*
X28814367Y-39461358D01*
X28857961Y-39497358D01*
X28889845Y-39535075D01*
X28911810Y-39581199D01*
X28925649Y-39642421D01*
X28933153Y-39725431D01*
X28936117Y-39836919D01*
X28936461Y-39917062D01*
X28936461Y-40212065D01*
X28770385Y-40286515D01*
X28760615Y-39963402D01*
X28756579Y-39842729D01*
X28752344Y-39755141D01*
X28747097Y-39694650D01*
X28740025Y-39655268D01*
X28730311Y-39631007D01*
X28717144Y-39615880D01*
X28712919Y-39612606D01*
X28648909Y-39587034D01*
X28584208Y-39597153D01*
X28545692Y-39624000D01*
X28530025Y-39643024D01*
X28519180Y-39667988D01*
X28512288Y-39705834D01*
X28508479Y-39763502D01*
X28506883Y-39847935D01*
X28506615Y-39935928D01*
X28506563Y-40046323D01*
X28504672Y-40124463D01*
X28498345Y-40177165D01*
X28484983Y-40211242D01*
X28461985Y-40233511D01*
X28426754Y-40250787D01*
X28379697Y-40268738D01*
X28328303Y-40288278D01*
X28334421Y-39941485D01*
X28336884Y-39816468D01*
X28339767Y-39724082D01*
X28343898Y-39657881D01*
X28350107Y-39611420D01*
X28359226Y-39578256D01*
X28372083Y-39551944D01*
X28387584Y-39528729D01*
X28462371Y-39454569D01*
X28553628Y-39411684D01*
X28652883Y-39401412D01*
X28751664Y-39425089D01*
G37*
X28751664Y-39425089D02*
X28814367Y-39461358D01*
X28857961Y-39497358D01*
X28889845Y-39535075D01*
X28911810Y-39581199D01*
X28925649Y-39642421D01*
X28933153Y-39725431D01*
X28936117Y-39836919D01*
X28936461Y-39917062D01*
X28936461Y-40212065D01*
X28770385Y-40286515D01*
X28760615Y-39963402D01*
X28756579Y-39842729D01*
X28752344Y-39755141D01*
X28747097Y-39694650D01*
X28740025Y-39655268D01*
X28730311Y-39631007D01*
X28717144Y-39615880D01*
X28712919Y-39612606D01*
X28648909Y-39587034D01*
X28584208Y-39597153D01*
X28545692Y-39624000D01*
X28530025Y-39643024D01*
X28519180Y-39667988D01*
X28512288Y-39705834D01*
X28508479Y-39763502D01*
X28506883Y-39847935D01*
X28506615Y-39935928D01*
X28506563Y-40046323D01*
X28504672Y-40124463D01*
X28498345Y-40177165D01*
X28484983Y-40211242D01*
X28461985Y-40233511D01*
X28426754Y-40250787D01*
X28379697Y-40268738D01*
X28328303Y-40288278D01*
X28334421Y-39941485D01*
X28336884Y-39816468D01*
X28339767Y-39724082D01*
X28343898Y-39657881D01*
X28350107Y-39611420D01*
X28359226Y-39578256D01*
X28372083Y-39551944D01*
X28387584Y-39528729D01*
X28462371Y-39454569D01*
X28553628Y-39411684D01*
X28652883Y-39401412D01*
X28751664Y-39425089D01*
G36*
X27248886Y-39414505D02*
G01*
X27323539Y-39451727D01*
X27389431Y-39520261D01*
X27407577Y-39545648D01*
X27427345Y-39578866D01*
X27440172Y-39614945D01*
X27447510Y-39663098D01*
X27450813Y-39732536D01*
X27451538Y-39824206D01*
X27448263Y-39949830D01*
X27436877Y-40044154D01*
X27415041Y-40114523D01*
X27380419Y-40168286D01*
X27330670Y-40212788D01*
X27327014Y-40215423D01*
X27277985Y-40242377D01*
X27218945Y-40255712D01*
X27143859Y-40259000D01*
X27021795Y-40259000D01*
X27021744Y-40377497D01*
X27020608Y-40443492D01*
X27013686Y-40482202D01*
X26995598Y-40505419D01*
X26960962Y-40524933D01*
X26952645Y-40528920D01*
X26913720Y-40547603D01*
X26883583Y-40559403D01*
X26861174Y-40560422D01*
X26845433Y-40546761D01*
X26835302Y-40514522D01*
X26829723Y-40459804D01*
X26827635Y-40378711D01*
X26827981Y-40267344D01*
X26829700Y-40121802D01*
X26830237Y-40078269D01*
X26832172Y-39928205D01*
X26833904Y-39830042D01*
X27021692Y-39830042D01*
X27022748Y-39913364D01*
X27027438Y-39967880D01*
X27038051Y-40003837D01*
X27056872Y-40031482D01*
X27069650Y-40044965D01*
X27121890Y-40084417D01*
X27168142Y-40087628D01*
X27215867Y-40055049D01*
X27217077Y-40053846D01*
X27236494Y-40028668D01*
X27248307Y-39994447D01*
X27254265Y-39941748D01*
X27256120Y-39861131D01*
X27256154Y-39843271D01*
X27251670Y-39732175D01*
X27237074Y-39655161D01*
X27210650Y-39608147D01*
X27170683Y-39587050D01*
X27147584Y-39584923D01*
X27092762Y-39594900D01*
X27055158Y-39627752D01*
X27032523Y-39687857D01*
X27022606Y-39779598D01*
X27021692Y-39830042D01*
X26833904Y-39830042D01*
X26834222Y-39812060D01*
X26836873Y-39724679D01*
X26840606Y-39660905D01*
X26845907Y-39615582D01*
X26853258Y-39583555D01*
X26863143Y-39559668D01*
X26876046Y-39538764D01*
X26881579Y-39530898D01*
X26954969Y-39456595D01*
X27047760Y-39414467D01*
X27155096Y-39402722D01*
X27248886Y-39414505D01*
G37*
X27248886Y-39414505D02*
X27323539Y-39451727D01*
X27389431Y-39520261D01*
X27407577Y-39545648D01*
X27427345Y-39578866D01*
X27440172Y-39614945D01*
X27447510Y-39663098D01*
X27450813Y-39732536D01*
X27451538Y-39824206D01*
X27448263Y-39949830D01*
X27436877Y-40044154D01*
X27415041Y-40114523D01*
X27380419Y-40168286D01*
X27330670Y-40212788D01*
X27327014Y-40215423D01*
X27277985Y-40242377D01*
X27218945Y-40255712D01*
X27143859Y-40259000D01*
X27021795Y-40259000D01*
X27021744Y-40377497D01*
X27020608Y-40443492D01*
X27013686Y-40482202D01*
X26995598Y-40505419D01*
X26960962Y-40524933D01*
X26952645Y-40528920D01*
X26913720Y-40547603D01*
X26883583Y-40559403D01*
X26861174Y-40560422D01*
X26845433Y-40546761D01*
X26835302Y-40514522D01*
X26829723Y-40459804D01*
X26827635Y-40378711D01*
X26827981Y-40267344D01*
X26829700Y-40121802D01*
X26830237Y-40078269D01*
X26832172Y-39928205D01*
X26833904Y-39830042D01*
X27021692Y-39830042D01*
X27022748Y-39913364D01*
X27027438Y-39967880D01*
X27038051Y-40003837D01*
X27056872Y-40031482D01*
X27069650Y-40044965D01*
X27121890Y-40084417D01*
X27168142Y-40087628D01*
X27215867Y-40055049D01*
X27217077Y-40053846D01*
X27236494Y-40028668D01*
X27248307Y-39994447D01*
X27254265Y-39941748D01*
X27256120Y-39861131D01*
X27256154Y-39843271D01*
X27251670Y-39732175D01*
X27237074Y-39655161D01*
X27210650Y-39608147D01*
X27170683Y-39587050D01*
X27147584Y-39584923D01*
X27092762Y-39594900D01*
X27055158Y-39627752D01*
X27032523Y-39687857D01*
X27022606Y-39779598D01*
X27021692Y-39830042D01*
X26833904Y-39830042D01*
X26834222Y-39812060D01*
X26836873Y-39724679D01*
X26840606Y-39660905D01*
X26845907Y-39615582D01*
X26853258Y-39583555D01*
X26863143Y-39559668D01*
X26876046Y-39538764D01*
X26881579Y-39530898D01*
X26954969Y-39456595D01*
X27047760Y-39414467D01*
X27155096Y-39402722D01*
X27248886Y-39414505D01*
G36*
X33353258Y-58941663D02*
G01*
X33353659Y-58902181D01*
X33356451Y-58786492D01*
X33364742Y-58689603D01*
X33379424Y-58608211D01*
X33401385Y-58539015D01*
X33431514Y-58478712D01*
X33470702Y-58424000D01*
X33487724Y-58404459D01*
X33527555Y-58372042D01*
X33581605Y-58342812D01*
X33641515Y-58320283D01*
X33698931Y-58307971D01*
X33720148Y-58306692D01*
X33778961Y-58314709D01*
X33843205Y-58336191D01*
X33904013Y-58367291D01*
X33952522Y-58404158D01*
X33958374Y-58410146D01*
X33999513Y-58460871D01*
X34031627Y-58516417D01*
X34055557Y-58579988D01*
X34072145Y-58654786D01*
X34082233Y-58744014D01*
X34086661Y-58850874D01*
X34087037Y-58899820D01*
X34086737Y-58962054D01*
X34085484Y-59005820D01*
X34082746Y-59035223D01*
X34077993Y-59054371D01*
X34070693Y-59067369D01*
X34064459Y-59074337D01*
X34056886Y-59080918D01*
X34047116Y-59086080D01*
X34032532Y-59089995D01*
X34010518Y-59092835D01*
X33978456Y-59094772D01*
X33933728Y-59095976D01*
X33873718Y-59096620D01*
X33795809Y-59096875D01*
X33720148Y-59096914D01*
X33619233Y-59097162D01*
X33538619Y-59097109D01*
X33500014Y-59096149D01*
X33500014Y-58950159D01*
X33940281Y-58950159D01*
X33940196Y-58857026D01*
X33938588Y-58800985D01*
X33934448Y-58742291D01*
X33928656Y-58693320D01*
X33928418Y-58691830D01*
X33909282Y-58612684D01*
X33879479Y-58551294D01*
X33837070Y-58504597D01*
X33791153Y-58474927D01*
X33740218Y-58456645D01*
X33692392Y-58458063D01*
X33641125Y-58479280D01*
X33588091Y-58520781D01*
X33548792Y-58578290D01*
X33522523Y-58653042D01*
X33513227Y-58703000D01*
X33506699Y-58759708D01*
X33501974Y-58819811D01*
X33500009Y-58870931D01*
X33500000Y-58873959D01*
X33500014Y-58950159D01*
X33500014Y-59096149D01*
X33476043Y-59095552D01*
X33429247Y-59091290D01*
X33395970Y-59083122D01*
X33373951Y-59069848D01*
X33360931Y-59050266D01*
X33354649Y-59023175D01*
X33352845Y-58987374D01*
X33353258Y-58941663D01*
G37*
X33353258Y-58941663D02*
X33353659Y-58902181D01*
X33356451Y-58786492D01*
X33364742Y-58689603D01*
X33379424Y-58608211D01*
X33401385Y-58539015D01*
X33431514Y-58478712D01*
X33470702Y-58424000D01*
X33487724Y-58404459D01*
X33527555Y-58372042D01*
X33581605Y-58342812D01*
X33641515Y-58320283D01*
X33698931Y-58307971D01*
X33720148Y-58306692D01*
X33778961Y-58314709D01*
X33843205Y-58336191D01*
X33904013Y-58367291D01*
X33952522Y-58404158D01*
X33958374Y-58410146D01*
X33999513Y-58460871D01*
X34031627Y-58516417D01*
X34055557Y-58579988D01*
X34072145Y-58654786D01*
X34082233Y-58744014D01*
X34086661Y-58850874D01*
X34087037Y-58899820D01*
X34086737Y-58962054D01*
X34085484Y-59005820D01*
X34082746Y-59035223D01*
X34077993Y-59054371D01*
X34070693Y-59067369D01*
X34064459Y-59074337D01*
X34056886Y-59080918D01*
X34047116Y-59086080D01*
X34032532Y-59089995D01*
X34010518Y-59092835D01*
X33978456Y-59094772D01*
X33933728Y-59095976D01*
X33873718Y-59096620D01*
X33795809Y-59096875D01*
X33720148Y-59096914D01*
X33619233Y-59097162D01*
X33538619Y-59097109D01*
X33500014Y-59096149D01*
X33500014Y-58950159D01*
X33940281Y-58950159D01*
X33940196Y-58857026D01*
X33938588Y-58800985D01*
X33934448Y-58742291D01*
X33928656Y-58693320D01*
X33928418Y-58691830D01*
X33909282Y-58612684D01*
X33879479Y-58551294D01*
X33837070Y-58504597D01*
X33791153Y-58474927D01*
X33740218Y-58456645D01*
X33692392Y-58458063D01*
X33641125Y-58479280D01*
X33588091Y-58520781D01*
X33548792Y-58578290D01*
X33522523Y-58653042D01*
X33513227Y-58703000D01*
X33506699Y-58759708D01*
X33501974Y-58819811D01*
X33500009Y-58870931D01*
X33500000Y-58873959D01*
X33500014Y-58950159D01*
X33500014Y-59096149D01*
X33476043Y-59095552D01*
X33429247Y-59091290D01*
X33395970Y-59083122D01*
X33373951Y-59069848D01*
X33360931Y-59050266D01*
X33354649Y-59023175D01*
X33352845Y-58987374D01*
X33353258Y-58941663D01*
G36*
X33353338Y-57533086D02*
G01*
X33353710Y-57463678D01*
X33354577Y-57411289D01*
X33356138Y-57373139D01*
X33358595Y-57346451D01*
X33362149Y-57328445D01*
X33367002Y-57316341D01*
X33373353Y-57307361D01*
X33376276Y-57304110D01*
X33407334Y-57284335D01*
X33443020Y-57280774D01*
X33474702Y-57293783D01*
X33481105Y-57299798D01*
X33487313Y-57309527D01*
X33492102Y-57325193D01*
X33495706Y-57349700D01*
X33498356Y-57385953D01*
X33500287Y-57436857D01*
X33501731Y-57505318D01*
X33502610Y-57567909D01*
X33505659Y-57815626D01*
X33570570Y-57819011D01*
X33635481Y-57822397D01*
X33635481Y-57654250D01*
X33636111Y-57581251D01*
X33638745Y-57527809D01*
X33644501Y-57490920D01*
X33654496Y-57467580D01*
X33669848Y-57454786D01*
X33691674Y-57449534D01*
X33711930Y-57448737D01*
X33736784Y-57451215D01*
X33755098Y-57460569D01*
X33767829Y-57479675D01*
X33775933Y-57511410D01*
X33780368Y-57558651D01*
X33782091Y-57624275D01*
X33782237Y-57660093D01*
X33782237Y-57821270D01*
X33940281Y-57821270D01*
X33940281Y-57572914D01*
X33940394Y-57491505D01*
X33940904Y-57429634D01*
X33942062Y-57384260D01*
X33944122Y-57352346D01*
X33947338Y-57330851D01*
X33951964Y-57316735D01*
X33958251Y-57306960D01*
X33962859Y-57301981D01*
X33989752Y-57284902D01*
X34013659Y-57279403D01*
X34042859Y-57287255D01*
X34064459Y-57301981D01*
X34071258Y-57309838D01*
X34076538Y-57319980D01*
X34080490Y-57335136D01*
X34083305Y-57358033D01*
X34085174Y-57391401D01*
X34086290Y-57437967D01*
X34086843Y-57500459D01*
X34087025Y-57581606D01*
X34087037Y-57623714D01*
X34086957Y-57713890D01*
X34086590Y-57784216D01*
X34085744Y-57837421D01*
X34084228Y-57876232D01*
X34081851Y-57903379D01*
X34078421Y-57921590D01*
X34073746Y-57933592D01*
X34067636Y-57942114D01*
X34064459Y-57945448D01*
X34056862Y-57952047D01*
X34047062Y-57957219D01*
X34032431Y-57961138D01*
X34010344Y-57963976D01*
X33978174Y-57965907D01*
X33933295Y-57967104D01*
X33873081Y-57967740D01*
X33794905Y-57967989D01*
X33722115Y-57968026D01*
X33628899Y-57967992D01*
X33555623Y-57967757D01*
X33499650Y-57967122D01*
X33458343Y-57965886D01*
X33429064Y-57963848D01*
X33409176Y-57960809D01*
X33396042Y-57956569D01*
X33387024Y-57950927D01*
X33379485Y-57943683D01*
X33377804Y-57941898D01*
X33370364Y-57933237D01*
X33364601Y-57923174D01*
X33360304Y-57908917D01*
X33357256Y-57887675D01*
X33355243Y-57856656D01*
X33354052Y-57813069D01*
X33353467Y-57754123D01*
X33353275Y-57677026D01*
X33353259Y-57622293D01*
X33353338Y-57533086D01*
G37*
X33353338Y-57533086D02*
X33353710Y-57463678D01*
X33354577Y-57411289D01*
X33356138Y-57373139D01*
X33358595Y-57346451D01*
X33362149Y-57328445D01*
X33367002Y-57316341D01*
X33373353Y-57307361D01*
X33376276Y-57304110D01*
X33407334Y-57284335D01*
X33443020Y-57280774D01*
X33474702Y-57293783D01*
X33481105Y-57299798D01*
X33487313Y-57309527D01*
X33492102Y-57325193D01*
X33495706Y-57349700D01*
X33498356Y-57385953D01*
X33500287Y-57436857D01*
X33501731Y-57505318D01*
X33502610Y-57567909D01*
X33505659Y-57815626D01*
X33570570Y-57819011D01*
X33635481Y-57822397D01*
X33635481Y-57654250D01*
X33636111Y-57581251D01*
X33638745Y-57527809D01*
X33644501Y-57490920D01*
X33654496Y-57467580D01*
X33669848Y-57454786D01*
X33691674Y-57449534D01*
X33711930Y-57448737D01*
X33736784Y-57451215D01*
X33755098Y-57460569D01*
X33767829Y-57479675D01*
X33775933Y-57511410D01*
X33780368Y-57558651D01*
X33782091Y-57624275D01*
X33782237Y-57660093D01*
X33782237Y-57821270D01*
X33940281Y-57821270D01*
X33940281Y-57572914D01*
X33940394Y-57491505D01*
X33940904Y-57429634D01*
X33942062Y-57384260D01*
X33944122Y-57352346D01*
X33947338Y-57330851D01*
X33951964Y-57316735D01*
X33958251Y-57306960D01*
X33962859Y-57301981D01*
X33989752Y-57284902D01*
X34013659Y-57279403D01*
X34042859Y-57287255D01*
X34064459Y-57301981D01*
X34071258Y-57309838D01*
X34076538Y-57319980D01*
X34080490Y-57335136D01*
X34083305Y-57358033D01*
X34085174Y-57391401D01*
X34086290Y-57437967D01*
X34086843Y-57500459D01*
X34087025Y-57581606D01*
X34087037Y-57623714D01*
X34086957Y-57713890D01*
X34086590Y-57784216D01*
X34085744Y-57837421D01*
X34084228Y-57876232D01*
X34081851Y-57903379D01*
X34078421Y-57921590D01*
X34073746Y-57933592D01*
X34067636Y-57942114D01*
X34064459Y-57945448D01*
X34056862Y-57952047D01*
X34047062Y-57957219D01*
X34032431Y-57961138D01*
X34010344Y-57963976D01*
X33978174Y-57965907D01*
X33933295Y-57967104D01*
X33873081Y-57967740D01*
X33794905Y-57967989D01*
X33722115Y-57968026D01*
X33628899Y-57967992D01*
X33555623Y-57967757D01*
X33499650Y-57967122D01*
X33458343Y-57965886D01*
X33429064Y-57963848D01*
X33409176Y-57960809D01*
X33396042Y-57956569D01*
X33387024Y-57950927D01*
X33379485Y-57943683D01*
X33377804Y-57941898D01*
X33370364Y-57933237D01*
X33364601Y-57923174D01*
X33360304Y-57908917D01*
X33357256Y-57887675D01*
X33355243Y-57856656D01*
X33354052Y-57813069D01*
X33353467Y-57754123D01*
X33353275Y-57677026D01*
X33353259Y-57622293D01*
X33353338Y-57533086D01*
G36*
X33354543Y-56511995D02*
G01*
X33359773Y-56437180D01*
X33367942Y-56367598D01*
X33378742Y-56307294D01*
X33391865Y-56260312D01*
X33407005Y-56230698D01*
X33411461Y-56226152D01*
X33446042Y-56210346D01*
X33481543Y-56215139D01*
X33511917Y-56239656D01*
X33512788Y-56240826D01*
X33522146Y-56255246D01*
X33527068Y-56270300D01*
X33527665Y-56291297D01*
X33524053Y-56323549D01*
X33516346Y-56372365D01*
X33515697Y-56376292D01*
X33506761Y-56449031D01*
X33502353Y-56527509D01*
X33502311Y-56606219D01*
X33506471Y-56679653D01*
X33514671Y-56742303D01*
X33526749Y-56788662D01*
X33527963Y-56791708D01*
X33546807Y-56825340D01*
X33565877Y-56837156D01*
X33584631Y-56827906D01*
X33602529Y-56798339D01*
X33619029Y-56749203D01*
X33633588Y-56681249D01*
X33640598Y-56635937D01*
X33654081Y-56541748D01*
X33666406Y-56466836D01*
X33678641Y-56408009D01*
X33691853Y-56362077D01*
X33707109Y-56325847D01*
X33725477Y-56296130D01*
X33748023Y-56269734D01*
X33770163Y-56248522D01*
X33801011Y-56223357D01*
X33827537Y-56210973D01*
X33860218Y-56207100D01*
X33872187Y-56206959D01*
X33911904Y-56209868D01*
X33941451Y-56221494D01*
X33967678Y-56241615D01*
X34007768Y-56282508D01*
X34038341Y-56328109D01*
X34060395Y-56381805D01*
X34074927Y-56446984D01*
X34082933Y-56527036D01*
X34085410Y-56625349D01*
X34085369Y-56641581D01*
X34084010Y-56707141D01*
X34080922Y-56772158D01*
X34076548Y-56829544D01*
X34071332Y-56872214D01*
X34070733Y-56875664D01*
X34060683Y-56918088D01*
X34047988Y-56954072D01*
X34036382Y-56974442D01*
X34005764Y-56993399D01*
X33970110Y-56994719D01*
X33938336Y-56978377D01*
X33934743Y-56974721D01*
X33924068Y-56959607D01*
X33919468Y-56940707D01*
X33920251Y-56911454D01*
X33924319Y-56875943D01*
X33927954Y-56836262D01*
X33931020Y-56780637D01*
X33933245Y-56715698D01*
X33934356Y-56648077D01*
X33934429Y-56630292D01*
X33934156Y-56562420D01*
X33932838Y-56512746D01*
X33930019Y-56476902D01*
X33925242Y-56450516D01*
X33918049Y-56429218D01*
X33912059Y-56416418D01*
X33895425Y-56388292D01*
X33880360Y-56370360D01*
X33876089Y-56367739D01*
X33858455Y-56373268D01*
X33841384Y-56399552D01*
X33825650Y-56444770D01*
X33812030Y-56507100D01*
X33808996Y-56525463D01*
X33793930Y-56621382D01*
X33781338Y-56697933D01*
X33770303Y-56758072D01*
X33759912Y-56804752D01*
X33749248Y-56840929D01*
X33737397Y-56869557D01*
X33723443Y-56893590D01*
X33706473Y-56915984D01*
X33685570Y-56939694D01*
X33678241Y-56947672D01*
X33650891Y-56975645D01*
X33629221Y-56990452D01*
X33604424Y-56996244D01*
X33573175Y-56997181D01*
X33511897Y-56986867D01*
X33459832Y-56956044D01*
X33417150Y-56904887D01*
X33384017Y-56833575D01*
X33369156Y-56782692D01*
X33359558Y-56727392D01*
X33354128Y-56661145D01*
X33352559Y-56587998D01*
X33354543Y-56511995D01*
G37*
X33354543Y-56511995D02*
X33359773Y-56437180D01*
X33367942Y-56367598D01*
X33378742Y-56307294D01*
X33391865Y-56260312D01*
X33407005Y-56230698D01*
X33411461Y-56226152D01*
X33446042Y-56210346D01*
X33481543Y-56215139D01*
X33511917Y-56239656D01*
X33512788Y-56240826D01*
X33522146Y-56255246D01*
X33527068Y-56270300D01*
X33527665Y-56291297D01*
X33524053Y-56323549D01*
X33516346Y-56372365D01*
X33515697Y-56376292D01*
X33506761Y-56449031D01*
X33502353Y-56527509D01*
X33502311Y-56606219D01*
X33506471Y-56679653D01*
X33514671Y-56742303D01*
X33526749Y-56788662D01*
X33527963Y-56791708D01*
X33546807Y-56825340D01*
X33565877Y-56837156D01*
X33584631Y-56827906D01*
X33602529Y-56798339D01*
X33619029Y-56749203D01*
X33633588Y-56681249D01*
X33640598Y-56635937D01*
X33654081Y-56541748D01*
X33666406Y-56466836D01*
X33678641Y-56408009D01*
X33691853Y-56362077D01*
X33707109Y-56325847D01*
X33725477Y-56296130D01*
X33748023Y-56269734D01*
X33770163Y-56248522D01*
X33801011Y-56223357D01*
X33827537Y-56210973D01*
X33860218Y-56207100D01*
X33872187Y-56206959D01*
X33911904Y-56209868D01*
X33941451Y-56221494D01*
X33967678Y-56241615D01*
X34007768Y-56282508D01*
X34038341Y-56328109D01*
X34060395Y-56381805D01*
X34074927Y-56446984D01*
X34082933Y-56527036D01*
X34085410Y-56625349D01*
X34085369Y-56641581D01*
X34084010Y-56707141D01*
X34080922Y-56772158D01*
X34076548Y-56829544D01*
X34071332Y-56872214D01*
X34070733Y-56875664D01*
X34060683Y-56918088D01*
X34047988Y-56954072D01*
X34036382Y-56974442D01*
X34005764Y-56993399D01*
X33970110Y-56994719D01*
X33938336Y-56978377D01*
X33934743Y-56974721D01*
X33924068Y-56959607D01*
X33919468Y-56940707D01*
X33920251Y-56911454D01*
X33924319Y-56875943D01*
X33927954Y-56836262D01*
X33931020Y-56780637D01*
X33933245Y-56715698D01*
X33934356Y-56648077D01*
X33934429Y-56630292D01*
X33934156Y-56562420D01*
X33932838Y-56512746D01*
X33930019Y-56476902D01*
X33925242Y-56450516D01*
X33918049Y-56429218D01*
X33912059Y-56416418D01*
X33895425Y-56388292D01*
X33880360Y-56370360D01*
X33876089Y-56367739D01*
X33858455Y-56373268D01*
X33841384Y-56399552D01*
X33825650Y-56444770D01*
X33812030Y-56507100D01*
X33808996Y-56525463D01*
X33793930Y-56621382D01*
X33781338Y-56697933D01*
X33770303Y-56758072D01*
X33759912Y-56804752D01*
X33749248Y-56840929D01*
X33737397Y-56869557D01*
X33723443Y-56893590D01*
X33706473Y-56915984D01*
X33685570Y-56939694D01*
X33678241Y-56947672D01*
X33650891Y-56975645D01*
X33629221Y-56990452D01*
X33604424Y-56996244D01*
X33573175Y-56997181D01*
X33511897Y-56986867D01*
X33459832Y-56956044D01*
X33417150Y-56904887D01*
X33384017Y-56833575D01*
X33369156Y-56782692D01*
X33359558Y-56727392D01*
X33354128Y-56661145D01*
X33352559Y-56587998D01*
X33354543Y-56511995D01*
G36*
X33375837Y-55744114D02*
G01*
X33383410Y-55737534D01*
X33393179Y-55732371D01*
X33407763Y-55728456D01*
X33429777Y-55725616D01*
X33461840Y-55723679D01*
X33506567Y-55722475D01*
X33566577Y-55721831D01*
X33644486Y-55721576D01*
X33720148Y-55721537D01*
X33813994Y-55721606D01*
X33887881Y-55721930D01*
X33944424Y-55722678D01*
X33986241Y-55724024D01*
X34015949Y-55726138D01*
X34036165Y-55729192D01*
X34049506Y-55733358D01*
X34058590Y-55738808D01*
X34064459Y-55744114D01*
X34084139Y-55777118D01*
X34082373Y-55812283D01*
X34060909Y-55843747D01*
X34052529Y-55850976D01*
X34042806Y-55856626D01*
X34029053Y-55860891D01*
X34008581Y-55863965D01*
X33978704Y-55866044D01*
X33936733Y-55867322D01*
X33879981Y-55867993D01*
X33805759Y-55868251D01*
X33721729Y-55868292D01*
X33408677Y-55868292D01*
X33380968Y-55840583D01*
X33357655Y-55806429D01*
X33356815Y-55773298D01*
X33375837Y-55744114D01*
G37*
X33375837Y-55744114D02*
X33383410Y-55737534D01*
X33393179Y-55732371D01*
X33407763Y-55728456D01*
X33429777Y-55725616D01*
X33461840Y-55723679D01*
X33506567Y-55722475D01*
X33566577Y-55721831D01*
X33644486Y-55721576D01*
X33720148Y-55721537D01*
X33813994Y-55721606D01*
X33887881Y-55721930D01*
X33944424Y-55722678D01*
X33986241Y-55724024D01*
X34015949Y-55726138D01*
X34036165Y-55729192D01*
X34049506Y-55733358D01*
X34058590Y-55738808D01*
X34064459Y-55744114D01*
X34084139Y-55777118D01*
X34082373Y-55812283D01*
X34060909Y-55843747D01*
X34052529Y-55850976D01*
X34042806Y-55856626D01*
X34029053Y-55860891D01*
X34008581Y-55863965D01*
X33978704Y-55866044D01*
X33936733Y-55867322D01*
X33879981Y-55867993D01*
X33805759Y-55868251D01*
X33721729Y-55868292D01*
X33408677Y-55868292D01*
X33380968Y-55840583D01*
X33357655Y-55806429D01*
X33356815Y-55773298D01*
X33375837Y-55744114D01*
G36*
X33358791Y-54770373D02*
G01*
X33370287Y-54701857D01*
X33388159Y-54649235D01*
X33411691Y-54615000D01*
X33425116Y-54605671D01*
X33456340Y-54596185D01*
X33484587Y-54602569D01*
X33511374Y-54622722D01*
X33523905Y-54654037D01*
X33522888Y-54699475D01*
X33516098Y-54734618D01*
X33503163Y-54812711D01*
X33501934Y-54892518D01*
X33512433Y-54981847D01*
X33516882Y-55006521D01*
X33540300Y-55089583D01*
X33575137Y-55154565D01*
X33620796Y-55200753D01*
X33676686Y-55227437D01*
X33705580Y-55232955D01*
X33764204Y-55229343D01*
X33816071Y-55206021D01*
X33860170Y-55165116D01*
X33895491Y-55108751D01*
X33921021Y-55039052D01*
X33935751Y-54958144D01*
X33938670Y-54868152D01*
X33928767Y-54771202D01*
X33927833Y-54765728D01*
X33920651Y-54727167D01*
X33913713Y-54705786D01*
X33903419Y-54696519D01*
X33886168Y-54694298D01*
X33877033Y-54694248D01*
X33838681Y-54694248D01*
X33838681Y-54762723D01*
X33834539Y-54823192D01*
X33821339Y-54864457D01*
X33797922Y-54888467D01*
X33763128Y-54897169D01*
X33758586Y-54897275D01*
X33728846Y-54892184D01*
X33707611Y-54874725D01*
X33693558Y-54842231D01*
X33685365Y-54792035D01*
X33682353Y-54743415D01*
X33680625Y-54672748D01*
X33683262Y-54621490D01*
X33692992Y-54586531D01*
X33712545Y-54564762D01*
X33744648Y-54553072D01*
X33792030Y-54548352D01*
X33854263Y-54547492D01*
X33923727Y-54548901D01*
X33970978Y-54553140D01*
X33996204Y-54560228D01*
X33998180Y-54561603D01*
X34029700Y-54600520D01*
X34054662Y-54657578D01*
X34072532Y-54729161D01*
X34082778Y-54811650D01*
X34084865Y-54901431D01*
X34078260Y-54994884D01*
X34070148Y-55049848D01*
X34045746Y-55136058D01*
X34005854Y-55216184D01*
X33954079Y-55283269D01*
X33943731Y-55293465D01*
X33900227Y-55326594D01*
X33846310Y-55356486D01*
X33789784Y-55379649D01*
X33738451Y-55392590D01*
X33718736Y-55394150D01*
X33677611Y-55387510D01*
X33626444Y-55369860D01*
X33572586Y-55344589D01*
X33523387Y-55315081D01*
X33490526Y-55289011D01*
X33441644Y-55228057D01*
X33402737Y-55149261D01*
X33374686Y-55055449D01*
X33358371Y-54949442D01*
X33354384Y-54852292D01*
X33358791Y-54770373D01*
G37*
X33358791Y-54770373D02*
X33370287Y-54701857D01*
X33388159Y-54649235D01*
X33411691Y-54615000D01*
X33425116Y-54605671D01*
X33456340Y-54596185D01*
X33484587Y-54602569D01*
X33511374Y-54622722D01*
X33523905Y-54654037D01*
X33522888Y-54699475D01*
X33516098Y-54734618D01*
X33503163Y-54812711D01*
X33501934Y-54892518D01*
X33512433Y-54981847D01*
X33516882Y-55006521D01*
X33540300Y-55089583D01*
X33575137Y-55154565D01*
X33620796Y-55200753D01*
X33676686Y-55227437D01*
X33705580Y-55232955D01*
X33764204Y-55229343D01*
X33816071Y-55206021D01*
X33860170Y-55165116D01*
X33895491Y-55108751D01*
X33921021Y-55039052D01*
X33935751Y-54958144D01*
X33938670Y-54868152D01*
X33928767Y-54771202D01*
X33927833Y-54765728D01*
X33920651Y-54727167D01*
X33913713Y-54705786D01*
X33903419Y-54696519D01*
X33886168Y-54694298D01*
X33877033Y-54694248D01*
X33838681Y-54694248D01*
X33838681Y-54762723D01*
X33834539Y-54823192D01*
X33821339Y-54864457D01*
X33797922Y-54888467D01*
X33763128Y-54897169D01*
X33758586Y-54897275D01*
X33728846Y-54892184D01*
X33707611Y-54874725D01*
X33693558Y-54842231D01*
X33685365Y-54792035D01*
X33682353Y-54743415D01*
X33680625Y-54672748D01*
X33683262Y-54621490D01*
X33692992Y-54586531D01*
X33712545Y-54564762D01*
X33744648Y-54553072D01*
X33792030Y-54548352D01*
X33854263Y-54547492D01*
X33923727Y-54548901D01*
X33970978Y-54553140D01*
X33996204Y-54560228D01*
X33998180Y-54561603D01*
X34029700Y-54600520D01*
X34054662Y-54657578D01*
X34072532Y-54729161D01*
X34082778Y-54811650D01*
X34084865Y-54901431D01*
X34078260Y-54994884D01*
X34070148Y-55049848D01*
X34045746Y-55136058D01*
X34005854Y-55216184D01*
X33954079Y-55283269D01*
X33943731Y-55293465D01*
X33900227Y-55326594D01*
X33846310Y-55356486D01*
X33789784Y-55379649D01*
X33738451Y-55392590D01*
X33718736Y-55394150D01*
X33677611Y-55387510D01*
X33626444Y-55369860D01*
X33572586Y-55344589D01*
X33523387Y-55315081D01*
X33490526Y-55289011D01*
X33441644Y-55228057D01*
X33402737Y-55149261D01*
X33374686Y-55055449D01*
X33358371Y-54949442D01*
X33354384Y-54852292D01*
X33358791Y-54770373D01*
G36*
X33357640Y-54120406D02*
G01*
X33371465Y-54096840D01*
X33394073Y-54066027D01*
X33426530Y-54026370D01*
X33469900Y-53976272D01*
X33525250Y-53914135D01*
X33593643Y-53838364D01*
X33672276Y-53751626D01*
X33836070Y-53571003D01*
X33616221Y-53565359D01*
X33540543Y-53563321D01*
X33484186Y-53561355D01*
X33443898Y-53559026D01*
X33416427Y-53555898D01*
X33398521Y-53551537D01*
X33386929Y-53545508D01*
X33378400Y-53537376D01*
X33374815Y-53533064D01*
X33355862Y-53498533D01*
X33358633Y-53465675D01*
X33374825Y-53439610D01*
X33396391Y-53412959D01*
X33711343Y-53409644D01*
X33803971Y-53408727D01*
X33876736Y-53408260D01*
X33932353Y-53408405D01*
X33973534Y-53409324D01*
X34002995Y-53411179D01*
X34023447Y-53414131D01*
X34037605Y-53418342D01*
X34048183Y-53423974D01*
X34056666Y-53430219D01*
X34072399Y-53443731D01*
X34082828Y-53457175D01*
X34086831Y-53472416D01*
X34083286Y-53491318D01*
X34071071Y-53515747D01*
X34049063Y-53547565D01*
X34016141Y-53588640D01*
X33971183Y-53640834D01*
X33913067Y-53706014D01*
X33846291Y-53779848D01*
X33605650Y-54045137D01*
X33824781Y-54050781D01*
X33900320Y-54052823D01*
X33956546Y-54054794D01*
X33996716Y-54057131D01*
X34024088Y-54060273D01*
X34041920Y-54064656D01*
X34053471Y-54070716D01*
X34061999Y-54078892D01*
X34065474Y-54083076D01*
X34084564Y-54120057D01*
X34081685Y-54155000D01*
X34057292Y-54185428D01*
X34047478Y-54192389D01*
X34036018Y-54197815D01*
X34020160Y-54201895D01*
X33997155Y-54204821D01*
X33964254Y-54206784D01*
X33918708Y-54207975D01*
X33857765Y-54208584D01*
X33778678Y-54208803D01*
X33720148Y-54208826D01*
X33628599Y-54208752D01*
X33556879Y-54208405D01*
X33502237Y-54207593D01*
X33461924Y-54206125D01*
X33433190Y-54203811D01*
X33413285Y-54200459D01*
X33399460Y-54195880D01*
X33388964Y-54189881D01*
X33383003Y-54185428D01*
X33368883Y-54174142D01*
X33358221Y-54163593D01*
X33352084Y-54152185D01*
X33351535Y-54138322D01*
X33357640Y-54120406D01*
G37*
X33357640Y-54120406D02*
X33371465Y-54096840D01*
X33394073Y-54066027D01*
X33426530Y-54026370D01*
X33469900Y-53976272D01*
X33525250Y-53914135D01*
X33593643Y-53838364D01*
X33672276Y-53751626D01*
X33836070Y-53571003D01*
X33616221Y-53565359D01*
X33540543Y-53563321D01*
X33484186Y-53561355D01*
X33443898Y-53559026D01*
X33416427Y-53555898D01*
X33398521Y-53551537D01*
X33386929Y-53545508D01*
X33378400Y-53537376D01*
X33374815Y-53533064D01*
X33355862Y-53498533D01*
X33358633Y-53465675D01*
X33374825Y-53439610D01*
X33396391Y-53412959D01*
X33711343Y-53409644D01*
X33803971Y-53408727D01*
X33876736Y-53408260D01*
X33932353Y-53408405D01*
X33973534Y-53409324D01*
X34002995Y-53411179D01*
X34023447Y-53414131D01*
X34037605Y-53418342D01*
X34048183Y-53423974D01*
X34056666Y-53430219D01*
X34072399Y-53443731D01*
X34082828Y-53457175D01*
X34086831Y-53472416D01*
X34083286Y-53491318D01*
X34071071Y-53515747D01*
X34049063Y-53547565D01*
X34016141Y-53588640D01*
X33971183Y-53640834D01*
X33913067Y-53706014D01*
X33846291Y-53779848D01*
X33605650Y-54045137D01*
X33824781Y-54050781D01*
X33900320Y-54052823D01*
X33956546Y-54054794D01*
X33996716Y-54057131D01*
X34024088Y-54060273D01*
X34041920Y-54064656D01*
X34053471Y-54070716D01*
X34061999Y-54078892D01*
X34065474Y-54083076D01*
X34084564Y-54120057D01*
X34081685Y-54155000D01*
X34057292Y-54185428D01*
X34047478Y-54192389D01*
X34036018Y-54197815D01*
X34020160Y-54201895D01*
X33997155Y-54204821D01*
X33964254Y-54206784D01*
X33918708Y-54207975D01*
X33857765Y-54208584D01*
X33778678Y-54208803D01*
X33720148Y-54208826D01*
X33628599Y-54208752D01*
X33556879Y-54208405D01*
X33502237Y-54207593D01*
X33461924Y-54206125D01*
X33433190Y-54203811D01*
X33413285Y-54200459D01*
X33399460Y-54195880D01*
X33388964Y-54189881D01*
X33383003Y-54185428D01*
X33368883Y-54174142D01*
X33358221Y-54163593D01*
X33352084Y-54152185D01*
X33351535Y-54138322D01*
X33357640Y-54120406D01*
G36*
X33353452Y-52589949D02*
G01*
X33354366Y-52513591D01*
X33356503Y-52455075D01*
X33360367Y-52412037D01*
X33366459Y-52382109D01*
X33375282Y-52362924D01*
X33387338Y-52352116D01*
X33403131Y-52347319D01*
X33423162Y-52346165D01*
X33425527Y-52346159D01*
X33448184Y-52347161D01*
X33465695Y-52351896D01*
X33478766Y-52362959D01*
X33488105Y-52382944D01*
X33494419Y-52414446D01*
X33498414Y-52460060D01*
X33500798Y-52522379D01*
X33502278Y-52603999D01*
X33502606Y-52629015D01*
X33505659Y-52871092D01*
X33570570Y-52874478D01*
X33635481Y-52877863D01*
X33635481Y-52709716D01*
X33635723Y-52644026D01*
X33636748Y-52597120D01*
X33639003Y-52565209D01*
X33642934Y-52544501D01*
X33648990Y-52531208D01*
X33657616Y-52521537D01*
X33657685Y-52521475D01*
X33691304Y-52503936D01*
X33727640Y-52504570D01*
X33758615Y-52522978D01*
X33761799Y-52526621D01*
X33770004Y-52539551D01*
X33775713Y-52557268D01*
X33779354Y-52583722D01*
X33781359Y-52622860D01*
X33782156Y-52678630D01*
X33782237Y-52714298D01*
X33782237Y-52876737D01*
X33940281Y-52876737D01*
X33940281Y-52630131D01*
X33940423Y-52548712D01*
X33941006Y-52486882D01*
X33942260Y-52441655D01*
X33944419Y-52410044D01*
X33947715Y-52389061D01*
X33952381Y-52375719D01*
X33958649Y-52367031D01*
X33960925Y-52364842D01*
X33992472Y-52348678D01*
X34028360Y-52347495D01*
X34059477Y-52360756D01*
X34069463Y-52371249D01*
X34074961Y-52382163D01*
X34079214Y-52399075D01*
X34082372Y-52424659D01*
X34084584Y-52461591D01*
X34085998Y-52512546D01*
X34086764Y-52580198D01*
X34087030Y-52667223D01*
X34087037Y-52686898D01*
X34086979Y-52775381D01*
X34086659Y-52844065D01*
X34085859Y-52895728D01*
X34084359Y-52933147D01*
X34081941Y-52959102D01*
X34078386Y-52976370D01*
X34073474Y-52987730D01*
X34066987Y-52995960D01*
X34062330Y-53000475D01*
X34054081Y-53007271D01*
X34043861Y-53012580D01*
X34028992Y-53016586D01*
X34006794Y-53019471D01*
X33974585Y-53021418D01*
X33929688Y-53022611D01*
X33869420Y-53023231D01*
X33791103Y-53023463D01*
X33725186Y-53023492D01*
X33632820Y-53023421D01*
X33560309Y-53023084D01*
X33504929Y-53022294D01*
X33463957Y-53020866D01*
X33434670Y-53018613D01*
X33414345Y-53015349D01*
X33400258Y-53010888D01*
X33389687Y-53005044D01*
X33383003Y-53000095D01*
X33353259Y-52976698D01*
X33353259Y-52686518D01*
X33353452Y-52589949D01*
G37*
X33353452Y-52589949D02*
X33354366Y-52513591D01*
X33356503Y-52455075D01*
X33360367Y-52412037D01*
X33366459Y-52382109D01*
X33375282Y-52362924D01*
X33387338Y-52352116D01*
X33403131Y-52347319D01*
X33423162Y-52346165D01*
X33425527Y-52346159D01*
X33448184Y-52347161D01*
X33465695Y-52351896D01*
X33478766Y-52362959D01*
X33488105Y-52382944D01*
X33494419Y-52414446D01*
X33498414Y-52460060D01*
X33500798Y-52522379D01*
X33502278Y-52603999D01*
X33502606Y-52629015D01*
X33505659Y-52871092D01*
X33570570Y-52874478D01*
X33635481Y-52877863D01*
X33635481Y-52709716D01*
X33635723Y-52644026D01*
X33636748Y-52597120D01*
X33639003Y-52565209D01*
X33642934Y-52544501D01*
X33648990Y-52531208D01*
X33657616Y-52521537D01*
X33657685Y-52521475D01*
X33691304Y-52503936D01*
X33727640Y-52504570D01*
X33758615Y-52522978D01*
X33761799Y-52526621D01*
X33770004Y-52539551D01*
X33775713Y-52557268D01*
X33779354Y-52583722D01*
X33781359Y-52622860D01*
X33782156Y-52678630D01*
X33782237Y-52714298D01*
X33782237Y-52876737D01*
X33940281Y-52876737D01*
X33940281Y-52630131D01*
X33940423Y-52548712D01*
X33941006Y-52486882D01*
X33942260Y-52441655D01*
X33944419Y-52410044D01*
X33947715Y-52389061D01*
X33952381Y-52375719D01*
X33958649Y-52367031D01*
X33960925Y-52364842D01*
X33992472Y-52348678D01*
X34028360Y-52347495D01*
X34059477Y-52360756D01*
X34069463Y-52371249D01*
X34074961Y-52382163D01*
X34079214Y-52399075D01*
X34082372Y-52424659D01*
X34084584Y-52461591D01*
X34085998Y-52512546D01*
X34086764Y-52580198D01*
X34087030Y-52667223D01*
X34087037Y-52686898D01*
X34086979Y-52775381D01*
X34086659Y-52844065D01*
X34085859Y-52895728D01*
X34084359Y-52933147D01*
X34081941Y-52959102D01*
X34078386Y-52976370D01*
X34073474Y-52987730D01*
X34066987Y-52995960D01*
X34062330Y-53000475D01*
X34054081Y-53007271D01*
X34043861Y-53012580D01*
X34028992Y-53016586D01*
X34006794Y-53019471D01*
X33974585Y-53021418D01*
X33929688Y-53022611D01*
X33869420Y-53023231D01*
X33791103Y-53023463D01*
X33725186Y-53023492D01*
X33632820Y-53023421D01*
X33560309Y-53023084D01*
X33504929Y-53022294D01*
X33463957Y-53020866D01*
X33434670Y-53018613D01*
X33414345Y-53015349D01*
X33400258Y-53010888D01*
X33389687Y-53005044D01*
X33383003Y-53000095D01*
X33353259Y-52976698D01*
X33353259Y-52686518D01*
X33353452Y-52589949D01*
G36*
X33353467Y-51801983D02*
G01*
X33357828Y-51673004D01*
X33371053Y-51563301D01*
X33393933Y-51471066D01*
X33427262Y-51394490D01*
X33471830Y-51331765D01*
X33528428Y-51281080D01*
X33597850Y-51240629D01*
X33599543Y-51239833D01*
X33661675Y-51215691D01*
X33716701Y-51207089D01*
X33772079Y-51214061D01*
X33835265Y-51236638D01*
X33844881Y-51240920D01*
X33901158Y-51270120D01*
X33944643Y-51302936D01*
X33981609Y-51345290D01*
X34018327Y-51403102D01*
X34020244Y-51406461D01*
X34044419Y-51456788D01*
X34062474Y-51513671D01*
X34075031Y-51580765D01*
X34082714Y-51661727D01*
X34086145Y-51760210D01*
X34086443Y-51795006D01*
X34087037Y-51960698D01*
X34057292Y-51984095D01*
X34047511Y-51991035D01*
X34036089Y-51996450D01*
X34020287Y-52000527D01*
X33997367Y-52003455D01*
X33964588Y-52005425D01*
X33940281Y-52006067D01*
X33940281Y-51849448D01*
X33940281Y-51755566D01*
X33938675Y-51700628D01*
X33934447Y-51644232D01*
X33928484Y-51597947D01*
X33927982Y-51595153D01*
X33905928Y-51512944D01*
X33872792Y-51449178D01*
X33827039Y-51401840D01*
X33767131Y-51368910D01*
X33751253Y-51363184D01*
X33726525Y-51357571D01*
X33702094Y-51360001D01*
X33669592Y-51371825D01*
X33653626Y-51378952D01*
X33611198Y-51402292D01*
X33581432Y-51430412D01*
X33560703Y-51461352D01*
X33533729Y-51523326D01*
X33514190Y-51602641D01*
X33502938Y-51695039D01*
X33500462Y-51761959D01*
X33500014Y-51849448D01*
X33940281Y-51849448D01*
X33940281Y-52006067D01*
X33919213Y-52006624D01*
X33858503Y-52007242D01*
X33779718Y-52007467D01*
X33718112Y-52007492D01*
X33408677Y-52007492D01*
X33380968Y-51979783D01*
X33369736Y-51967486D01*
X33362045Y-51954189D01*
X33357232Y-51935620D01*
X33354638Y-51907506D01*
X33353602Y-51865575D01*
X33353462Y-51805555D01*
X33353467Y-51801983D01*
G37*
X33353467Y-51801983D02*
X33357828Y-51673004D01*
X33371053Y-51563301D01*
X33393933Y-51471066D01*
X33427262Y-51394490D01*
X33471830Y-51331765D01*
X33528428Y-51281080D01*
X33597850Y-51240629D01*
X33599543Y-51239833D01*
X33661675Y-51215691D01*
X33716701Y-51207089D01*
X33772079Y-51214061D01*
X33835265Y-51236638D01*
X33844881Y-51240920D01*
X33901158Y-51270120D01*
X33944643Y-51302936D01*
X33981609Y-51345290D01*
X34018327Y-51403102D01*
X34020244Y-51406461D01*
X34044419Y-51456788D01*
X34062474Y-51513671D01*
X34075031Y-51580765D01*
X34082714Y-51661727D01*
X34086145Y-51760210D01*
X34086443Y-51795006D01*
X34087037Y-51960698D01*
X34057292Y-51984095D01*
X34047511Y-51991035D01*
X34036089Y-51996450D01*
X34020287Y-52000527D01*
X33997367Y-52003455D01*
X33964588Y-52005425D01*
X33940281Y-52006067D01*
X33940281Y-51849448D01*
X33940281Y-51755566D01*
X33938675Y-51700628D01*
X33934447Y-51644232D01*
X33928484Y-51597947D01*
X33927982Y-51595153D01*
X33905928Y-51512944D01*
X33872792Y-51449178D01*
X33827039Y-51401840D01*
X33767131Y-51368910D01*
X33751253Y-51363184D01*
X33726525Y-51357571D01*
X33702094Y-51360001D01*
X33669592Y-51371825D01*
X33653626Y-51378952D01*
X33611198Y-51402292D01*
X33581432Y-51430412D01*
X33560703Y-51461352D01*
X33533729Y-51523326D01*
X33514190Y-51602641D01*
X33502938Y-51695039D01*
X33500462Y-51761959D01*
X33500014Y-51849448D01*
X33940281Y-51849448D01*
X33940281Y-52006067D01*
X33919213Y-52006624D01*
X33858503Y-52007242D01*
X33779718Y-52007467D01*
X33718112Y-52007492D01*
X33408677Y-52007492D01*
X33380968Y-51979783D01*
X33369736Y-51967486D01*
X33362045Y-51954189D01*
X33357232Y-51935620D01*
X33354638Y-51907506D01*
X33353602Y-51865575D01*
X33353462Y-51805555D01*
X33353467Y-51801983D01*
G36*
X33355226Y-49075627D02*
G01*
X33362227Y-49056037D01*
X33362569Y-49055282D01*
X33382870Y-49028679D01*
X33403753Y-49014022D01*
X33413544Y-49011154D01*
X33426553Y-49011296D01*
X33445087Y-49015331D01*
X33471449Y-49024146D01*
X33507944Y-49038623D01*
X33556879Y-49059647D01*
X33620557Y-49088104D01*
X33701285Y-49124877D01*
X33745408Y-49145117D01*
X33824177Y-49181667D01*
X33896615Y-49215977D01*
X33960072Y-49246740D01*
X34011900Y-49272644D01*
X34049451Y-49292382D01*
X34070076Y-49304642D01*
X34072925Y-49307068D01*
X34085494Y-49338109D01*
X34083811Y-49373171D01*
X34068524Y-49401292D01*
X34067281Y-49402438D01*
X34050346Y-49413624D01*
X34017362Y-49432388D01*
X33972572Y-49456417D01*
X33920224Y-49483395D01*
X33900934Y-49493091D01*
X33754342Y-49566278D01*
X33913585Y-49646052D01*
X33968607Y-49674525D01*
X34016324Y-49700942D01*
X34053085Y-49723144D01*
X34075236Y-49738973D01*
X34079933Y-49744338D01*
X34086294Y-49786035D01*
X34072925Y-49820443D01*
X34058638Y-49830564D01*
X34026884Y-49848078D01*
X33980789Y-49871557D01*
X33923477Y-49899572D01*
X33858072Y-49930693D01*
X33787699Y-49963493D01*
X33715483Y-49996542D01*
X33644547Y-50028411D01*
X33578017Y-50057673D01*
X33519018Y-50082897D01*
X33470673Y-50102656D01*
X33436107Y-50115520D01*
X33418445Y-50120061D01*
X33417805Y-50120015D01*
X33395580Y-50108966D01*
X33372945Y-50086882D01*
X33371960Y-50085582D01*
X33356617Y-50058439D01*
X33356766Y-50033334D01*
X33359658Y-50023924D01*
X33365910Y-50012458D01*
X33378206Y-50000282D01*
X33399100Y-49985935D01*
X33431141Y-49967956D01*
X33476880Y-49944885D01*
X33538869Y-49915262D01*
X33596090Y-49888547D01*
X33662418Y-49857812D01*
X33722066Y-49830271D01*
X33771917Y-49807354D01*
X33808856Y-49790494D01*
X33829765Y-49781119D01*
X33833037Y-49779752D01*
X33827689Y-49773603D01*
X33805301Y-49759470D01*
X33769138Y-49739235D01*
X33722469Y-49714777D01*
X33703214Y-49705044D01*
X33638196Y-49672075D01*
X33590846Y-49646649D01*
X33558411Y-49626680D01*
X33538138Y-49610082D01*
X33527274Y-49594768D01*
X33523067Y-49578652D01*
X33522592Y-49568149D01*
X33524234Y-49549622D01*
X33531023Y-49533388D01*
X33545758Y-49517257D01*
X33571236Y-49499041D01*
X33610253Y-49476553D01*
X33665606Y-49447603D01*
X33697095Y-49431630D01*
X33747279Y-49405722D01*
X33788896Y-49383125D01*
X33818434Y-49365834D01*
X33832381Y-49355842D01*
X33832962Y-49354483D01*
X33821985Y-49348031D01*
X33793482Y-49333584D01*
X33750436Y-49312589D01*
X33695830Y-49286495D01*
X33632646Y-49256746D01*
X33601263Y-49242112D01*
X33520270Y-49204042D01*
X33457948Y-49173387D01*
X33412263Y-49148555D01*
X33381181Y-49127955D01*
X33362670Y-49109994D01*
X33354696Y-49093082D01*
X33355226Y-49075627D01*
G37*
X33355226Y-49075627D02*
X33362227Y-49056037D01*
X33362569Y-49055282D01*
X33382870Y-49028679D01*
X33403753Y-49014022D01*
X33413544Y-49011154D01*
X33426553Y-49011296D01*
X33445087Y-49015331D01*
X33471449Y-49024146D01*
X33507944Y-49038623D01*
X33556879Y-49059647D01*
X33620557Y-49088104D01*
X33701285Y-49124877D01*
X33745408Y-49145117D01*
X33824177Y-49181667D01*
X33896615Y-49215977D01*
X33960072Y-49246740D01*
X34011900Y-49272644D01*
X34049451Y-49292382D01*
X34070076Y-49304642D01*
X34072925Y-49307068D01*
X34085494Y-49338109D01*
X34083811Y-49373171D01*
X34068524Y-49401292D01*
X34067281Y-49402438D01*
X34050346Y-49413624D01*
X34017362Y-49432388D01*
X33972572Y-49456417D01*
X33920224Y-49483395D01*
X33900934Y-49493091D01*
X33754342Y-49566278D01*
X33913585Y-49646052D01*
X33968607Y-49674525D01*
X34016324Y-49700942D01*
X34053085Y-49723144D01*
X34075236Y-49738973D01*
X34079933Y-49744338D01*
X34086294Y-49786035D01*
X34072925Y-49820443D01*
X34058638Y-49830564D01*
X34026884Y-49848078D01*
X33980789Y-49871557D01*
X33923477Y-49899572D01*
X33858072Y-49930693D01*
X33787699Y-49963493D01*
X33715483Y-49996542D01*
X33644547Y-50028411D01*
X33578017Y-50057673D01*
X33519018Y-50082897D01*
X33470673Y-50102656D01*
X33436107Y-50115520D01*
X33418445Y-50120061D01*
X33417805Y-50120015D01*
X33395580Y-50108966D01*
X33372945Y-50086882D01*
X33371960Y-50085582D01*
X33356617Y-50058439D01*
X33356766Y-50033334D01*
X33359658Y-50023924D01*
X33365910Y-50012458D01*
X33378206Y-50000282D01*
X33399100Y-49985935D01*
X33431141Y-49967956D01*
X33476880Y-49944885D01*
X33538869Y-49915262D01*
X33596090Y-49888547D01*
X33662418Y-49857812D01*
X33722066Y-49830271D01*
X33771917Y-49807354D01*
X33808856Y-49790494D01*
X33829765Y-49781119D01*
X33833037Y-49779752D01*
X33827689Y-49773603D01*
X33805301Y-49759470D01*
X33769138Y-49739235D01*
X33722469Y-49714777D01*
X33703214Y-49705044D01*
X33638196Y-49672075D01*
X33590846Y-49646649D01*
X33558411Y-49626680D01*
X33538138Y-49610082D01*
X33527274Y-49594768D01*
X33523067Y-49578652D01*
X33522592Y-49568149D01*
X33524234Y-49549622D01*
X33531023Y-49533388D01*
X33545758Y-49517257D01*
X33571236Y-49499041D01*
X33610253Y-49476553D01*
X33665606Y-49447603D01*
X33697095Y-49431630D01*
X33747279Y-49405722D01*
X33788896Y-49383125D01*
X33818434Y-49365834D01*
X33832381Y-49355842D01*
X33832962Y-49354483D01*
X33821985Y-49348031D01*
X33793482Y-49333584D01*
X33750436Y-49312589D01*
X33695830Y-49286495D01*
X33632646Y-49256746D01*
X33601263Y-49242112D01*
X33520270Y-49204042D01*
X33457948Y-49173387D01*
X33412263Y-49148555D01*
X33381181Y-49127955D01*
X33362670Y-49109994D01*
X33354696Y-49093082D01*
X33355226Y-49075627D01*
G36*
X33360069Y-48631678D02*
G01*
X33374839Y-48607965D01*
X33396419Y-48581314D01*
X33717965Y-48581314D01*
X33812022Y-48581399D01*
X33886124Y-48581763D01*
X33942896Y-48582568D01*
X33984960Y-48583979D01*
X34014940Y-48586159D01*
X34035459Y-48589271D01*
X34049141Y-48593478D01*
X34058608Y-48598944D01*
X34063274Y-48602820D01*
X34083767Y-48634258D01*
X34082931Y-48670059D01*
X34065456Y-48701419D01*
X34043876Y-48728070D01*
X33396419Y-48728070D01*
X33374839Y-48701419D01*
X33359141Y-48675698D01*
X33353259Y-48654692D01*
X33360069Y-48631678D01*
G37*
X33360069Y-48631678D02*
X33374839Y-48607965D01*
X33396419Y-48581314D01*
X33717965Y-48581314D01*
X33812022Y-48581399D01*
X33886124Y-48581763D01*
X33942896Y-48582568D01*
X33984960Y-48583979D01*
X34014940Y-48586159D01*
X34035459Y-48589271D01*
X34049141Y-48593478D01*
X34058608Y-48598944D01*
X34063274Y-48602820D01*
X34083767Y-48634258D01*
X34082931Y-48670059D01*
X34065456Y-48701419D01*
X34043876Y-48728070D01*
X33396419Y-48728070D01*
X33374839Y-48701419D01*
X33359141Y-48675698D01*
X33353259Y-48654692D01*
X33360069Y-48631678D01*
G36*
X33353355Y-47857227D02*
G01*
X33353734Y-47778520D01*
X33354525Y-47717429D01*
X33355862Y-47671475D01*
X33357875Y-47638178D01*
X33360698Y-47615056D01*
X33364461Y-47599630D01*
X33369297Y-47589421D01*
X33373014Y-47584479D01*
X33405550Y-47558835D01*
X33439330Y-47555733D01*
X33470018Y-47571581D01*
X33482281Y-47581944D01*
X33490642Y-47593096D01*
X33495849Y-47609257D01*
X33498649Y-47634650D01*
X33499788Y-47673494D01*
X33500013Y-47730012D01*
X33500014Y-47741112D01*
X33500014Y-47887048D01*
X33770948Y-47887048D01*
X33856346Y-47887144D01*
X33922056Y-47887581D01*
X33970966Y-47888580D01*
X34005965Y-47890364D01*
X34029941Y-47893155D01*
X34045785Y-47897175D01*
X34056383Y-47902647D01*
X34064459Y-47909626D01*
X34084304Y-47942558D01*
X34082740Y-47976938D01*
X34060098Y-48008116D01*
X34057292Y-48010406D01*
X34046684Y-48017863D01*
X34034273Y-48023545D01*
X34017042Y-48027691D01*
X33991976Y-48030542D01*
X33956059Y-48032338D01*
X33906275Y-48033320D01*
X33839609Y-48033728D01*
X33763781Y-48033803D01*
X33500014Y-48033803D01*
X33500014Y-48173165D01*
X33499610Y-48232970D01*
X33498032Y-48274374D01*
X33494739Y-48301544D01*
X33489184Y-48318646D01*
X33480823Y-48329849D01*
X33479370Y-48331209D01*
X33446131Y-48347567D01*
X33408554Y-48346120D01*
X33375837Y-48327314D01*
X33369490Y-48320042D01*
X33364458Y-48310665D01*
X33360588Y-48296683D01*
X33357729Y-48275596D01*
X33355727Y-48244903D01*
X33354431Y-48202103D01*
X33353690Y-48144697D01*
X33353350Y-48070182D01*
X33353260Y-47976059D01*
X33353259Y-47956032D01*
X33353355Y-47857227D01*
G37*
X33353355Y-47857227D02*
X33353734Y-47778520D01*
X33354525Y-47717429D01*
X33355862Y-47671475D01*
X33357875Y-47638178D01*
X33360698Y-47615056D01*
X33364461Y-47599630D01*
X33369297Y-47589421D01*
X33373014Y-47584479D01*
X33405550Y-47558835D01*
X33439330Y-47555733D01*
X33470018Y-47571581D01*
X33482281Y-47581944D01*
X33490642Y-47593096D01*
X33495849Y-47609257D01*
X33498649Y-47634650D01*
X33499788Y-47673494D01*
X33500013Y-47730012D01*
X33500014Y-47741112D01*
X33500014Y-47887048D01*
X33770948Y-47887048D01*
X33856346Y-47887144D01*
X33922056Y-47887581D01*
X33970966Y-47888580D01*
X34005965Y-47890364D01*
X34029941Y-47893155D01*
X34045785Y-47897175D01*
X34056383Y-47902647D01*
X34064459Y-47909626D01*
X34084304Y-47942558D01*
X34082740Y-47976938D01*
X34060098Y-48008116D01*
X34057292Y-48010406D01*
X34046684Y-48017863D01*
X34034273Y-48023545D01*
X34017042Y-48027691D01*
X33991976Y-48030542D01*
X33956059Y-48032338D01*
X33906275Y-48033320D01*
X33839609Y-48033728D01*
X33763781Y-48033803D01*
X33500014Y-48033803D01*
X33500014Y-48173165D01*
X33499610Y-48232970D01*
X33498032Y-48274374D01*
X33494739Y-48301544D01*
X33489184Y-48318646D01*
X33480823Y-48329849D01*
X33479370Y-48331209D01*
X33446131Y-48347567D01*
X33408554Y-48346120D01*
X33375837Y-48327314D01*
X33369490Y-48320042D01*
X33364458Y-48310665D01*
X33360588Y-48296683D01*
X33357729Y-48275596D01*
X33355727Y-48244903D01*
X33354431Y-48202103D01*
X33353690Y-48144697D01*
X33353350Y-48070182D01*
X33353260Y-47976059D01*
X33353259Y-47956032D01*
X33353355Y-47857227D01*
G36*
X33358725Y-46591469D02*
G01*
X33380968Y-46560090D01*
X33408677Y-46532381D01*
X33718112Y-46532381D01*
X33809991Y-46532454D01*
X33882032Y-46532797D01*
X33936972Y-46533600D01*
X33977552Y-46535051D01*
X34006509Y-46537340D01*
X34026583Y-46540656D01*
X34040513Y-46545187D01*
X34051037Y-46551123D01*
X34057292Y-46555778D01*
X34081865Y-46586509D01*
X34084533Y-46621796D01*
X34069463Y-46654047D01*
X34060566Y-46664704D01*
X34048749Y-46671828D01*
X34029718Y-46676125D01*
X33999184Y-46678301D01*
X33952854Y-46679064D01*
X33917063Y-46679137D01*
X33782237Y-46679137D01*
X33782237Y-47175848D01*
X33904892Y-47175848D01*
X33960979Y-47176361D01*
X33999525Y-47178416D01*
X34025553Y-47182784D01*
X34044089Y-47190236D01*
X34057292Y-47199245D01*
X34081796Y-47230148D01*
X34084698Y-47265096D01*
X34067281Y-47298554D01*
X34058151Y-47307688D01*
X34046047Y-47314140D01*
X34027193Y-47318395D01*
X33997812Y-47320940D01*
X33954129Y-47322263D01*
X33892367Y-47322849D01*
X33878192Y-47322917D01*
X33761823Y-47323401D01*
X33665919Y-47323651D01*
X33588369Y-47323569D01*
X33527061Y-47323061D01*
X33479882Y-47322030D01*
X33444722Y-47320379D01*
X33419468Y-47318013D01*
X33402009Y-47314835D01*
X33390233Y-47310748D01*
X33382027Y-47305658D01*
X33375837Y-47300026D01*
X33356036Y-47268164D01*
X33358725Y-47234935D01*
X33380968Y-47203557D01*
X33395318Y-47190859D01*
X33411170Y-47182766D01*
X33433746Y-47178250D01*
X33468270Y-47176286D01*
X33519968Y-47175848D01*
X33635481Y-47175848D01*
X33635481Y-46679137D01*
X33516948Y-46679137D01*
X33462340Y-46678630D01*
X33425467Y-46676594D01*
X33401499Y-46672257D01*
X33385607Y-46664845D01*
X33375837Y-46656559D01*
X33356036Y-46624698D01*
X33358725Y-46591469D01*
G37*
X33358725Y-46591469D02*
X33380968Y-46560090D01*
X33408677Y-46532381D01*
X33718112Y-46532381D01*
X33809991Y-46532454D01*
X33882032Y-46532797D01*
X33936972Y-46533600D01*
X33977552Y-46535051D01*
X34006509Y-46537340D01*
X34026583Y-46540656D01*
X34040513Y-46545187D01*
X34051037Y-46551123D01*
X34057292Y-46555778D01*
X34081865Y-46586509D01*
X34084533Y-46621796D01*
X34069463Y-46654047D01*
X34060566Y-46664704D01*
X34048749Y-46671828D01*
X34029718Y-46676125D01*
X33999184Y-46678301D01*
X33952854Y-46679064D01*
X33917063Y-46679137D01*
X33782237Y-46679137D01*
X33782237Y-47175848D01*
X33904892Y-47175848D01*
X33960979Y-47176361D01*
X33999525Y-47178416D01*
X34025553Y-47182784D01*
X34044089Y-47190236D01*
X34057292Y-47199245D01*
X34081796Y-47230148D01*
X34084698Y-47265096D01*
X34067281Y-47298554D01*
X34058151Y-47307688D01*
X34046047Y-47314140D01*
X34027193Y-47318395D01*
X33997812Y-47320940D01*
X33954129Y-47322263D01*
X33892367Y-47322849D01*
X33878192Y-47322917D01*
X33761823Y-47323401D01*
X33665919Y-47323651D01*
X33588369Y-47323569D01*
X33527061Y-47323061D01*
X33479882Y-47322030D01*
X33444722Y-47320379D01*
X33419468Y-47318013D01*
X33402009Y-47314835D01*
X33390233Y-47310748D01*
X33382027Y-47305658D01*
X33375837Y-47300026D01*
X33356036Y-47268164D01*
X33358725Y-47234935D01*
X33380968Y-47203557D01*
X33395318Y-47190859D01*
X33411170Y-47182766D01*
X33433746Y-47178250D01*
X33468270Y-47176286D01*
X33519968Y-47175848D01*
X33635481Y-47175848D01*
X33635481Y-46679137D01*
X33516948Y-46679137D01*
X33462340Y-46678630D01*
X33425467Y-46676594D01*
X33401499Y-46672257D01*
X33385607Y-46664845D01*
X33375837Y-46656559D01*
X33356036Y-46624698D01*
X33358725Y-46591469D01*
G36*
X26754490Y-55558079D02*
G01*
X26790238Y-55454973D01*
X26846507Y-55358978D01*
X26923288Y-55273247D01*
X27020573Y-55200930D01*
X27081892Y-55168445D01*
X27167660Y-55140332D01*
X27266677Y-55126705D01*
X27368471Y-55128214D01*
X27460714Y-55144969D01*
X27573432Y-55190763D01*
X27671207Y-55257168D01*
X27752115Y-55340809D01*
X27814232Y-55438312D01*
X27855634Y-55546300D01*
X27874397Y-55661399D01*
X27868598Y-55780234D01*
X27856206Y-55838811D01*
X27811797Y-55952972D01*
X27744033Y-56054365D01*
X27655001Y-56140545D01*
X27546791Y-56209066D01*
X27534973Y-56214864D01*
X27490628Y-56234904D01*
X27453280Y-56247487D01*
X27413880Y-56254319D01*
X27363381Y-56257105D01*
X27308433Y-56257568D01*
X27242415Y-56256803D01*
X27194689Y-56253352D01*
X27156103Y-56245477D01*
X27117506Y-56231443D01*
X27079426Y-56214120D01*
X26971328Y-56149505D01*
X26883803Y-56069934D01*
X26816841Y-55978560D01*
X26770436Y-55878536D01*
X26744581Y-55773012D01*
X26739268Y-55665142D01*
X26754490Y-55558079D01*
G37*
X26754490Y-55558079D02*
X26790238Y-55454973D01*
X26846507Y-55358978D01*
X26923288Y-55273247D01*
X27020573Y-55200930D01*
X27081892Y-55168445D01*
X27167660Y-55140332D01*
X27266677Y-55126705D01*
X27368471Y-55128214D01*
X27460714Y-55144969D01*
X27573432Y-55190763D01*
X27671207Y-55257168D01*
X27752115Y-55340809D01*
X27814232Y-55438312D01*
X27855634Y-55546300D01*
X27874397Y-55661399D01*
X27868598Y-55780234D01*
X27856206Y-55838811D01*
X27811797Y-55952972D01*
X27744033Y-56054365D01*
X27655001Y-56140545D01*
X27546791Y-56209066D01*
X27534973Y-56214864D01*
X27490628Y-56234904D01*
X27453280Y-56247487D01*
X27413880Y-56254319D01*
X27363381Y-56257105D01*
X27308433Y-56257568D01*
X27242415Y-56256803D01*
X27194689Y-56253352D01*
X27156103Y-56245477D01*
X27117506Y-56231443D01*
X27079426Y-56214120D01*
X26971328Y-56149505D01*
X26883803Y-56069934D01*
X26816841Y-55978560D01*
X26770436Y-55878536D01*
X26744581Y-55773012D01*
X26739268Y-55665142D01*
X26754490Y-55558079D01*
G36*
X27674825Y-45989730D02*
G01*
X27675304Y-45872959D01*
X27675545Y-45833271D01*
X27679135Y-45287514D01*
X29772919Y-45280649D01*
X30056842Y-45279742D01*
X30314640Y-45278938D01*
X30547646Y-45278185D01*
X30757194Y-45277431D01*
X30944618Y-45276625D01*
X31111250Y-45275715D01*
X31258425Y-45274649D01*
X31387477Y-45273376D01*
X31499739Y-45271844D01*
X31596544Y-45270002D01*
X31679226Y-45267797D01*
X31749119Y-45265178D01*
X31807557Y-45262094D01*
X31855872Y-45258492D01*
X31895400Y-45254322D01*
X31927473Y-45249531D01*
X31953424Y-45244069D01*
X31974589Y-45237882D01*
X31992299Y-45230920D01*
X32007889Y-45223131D01*
X32022693Y-45214463D01*
X32038044Y-45204865D01*
X32055276Y-45194285D01*
X32058946Y-45192116D01*
X32121031Y-45155732D01*
X32117434Y-45681569D01*
X32113838Y-46207406D01*
X31998331Y-46214271D01*
X31942899Y-46218008D01*
X31910851Y-46221903D01*
X31898135Y-46227189D01*
X31900696Y-46235097D01*
X31908024Y-46241730D01*
X31934714Y-46270626D01*
X31969021Y-46317721D01*
X32006846Y-46376380D01*
X32044090Y-46439969D01*
X32076653Y-46501851D01*
X32098077Y-46549366D01*
X32133283Y-46660684D01*
X32158222Y-46788404D01*
X32171941Y-46923099D01*
X32173486Y-47055337D01*
X32161906Y-47175692D01*
X32161574Y-47177674D01*
X32120250Y-47342359D01*
X32054412Y-47496521D01*
X31965474Y-47638672D01*
X31854852Y-47767325D01*
X31723961Y-47880993D01*
X31574216Y-47978190D01*
X31407033Y-48057428D01*
X31283190Y-48100570D01*
X31179581Y-48129021D01*
X31079252Y-48150120D01*
X30976109Y-48164512D01*
X30864057Y-48172842D01*
X30737001Y-48175755D01*
X30633252Y-48174465D01*
X30633252Y-47161350D01*
X30807222Y-47156556D01*
X30956895Y-47141432D01*
X31083597Y-47115515D01*
X31188658Y-47078337D01*
X31273406Y-47029435D01*
X31339169Y-46968342D01*
X31385659Y-46897823D01*
X31403014Y-46861129D01*
X31413419Y-46829304D01*
X31418179Y-46793823D01*
X31418601Y-46746159D01*
X31416748Y-46694811D01*
X31407841Y-46593831D01*
X31390398Y-46513965D01*
X31381661Y-46488865D01*
X31355857Y-46431552D01*
X31323453Y-46371103D01*
X31307233Y-46344703D01*
X31262205Y-46276054D01*
X29834982Y-46276054D01*
X29789718Y-46351568D01*
X29738572Y-46456879D01*
X29708324Y-46564475D01*
X29698795Y-46670419D01*
X29709807Y-46770776D01*
X29741181Y-46861613D01*
X29792740Y-46938993D01*
X29817488Y-46963961D01*
X29898577Y-47024144D01*
X29996734Y-47072855D01*
X30113643Y-47110501D01*
X30250985Y-47137488D01*
X30410444Y-47154225D01*
X30593700Y-47161117D01*
X30633252Y-47161350D01*
X30633252Y-48174465D01*
X30590067Y-48173927D01*
X30364053Y-48162353D01*
X30160192Y-48139080D01*
X29975513Y-48103496D01*
X29807048Y-48054987D01*
X29651826Y-47992940D01*
X29605808Y-47970799D01*
X29455739Y-47881615D01*
X29322377Y-47773841D01*
X29207877Y-47650010D01*
X29114389Y-47512658D01*
X29044068Y-47364317D01*
X29015060Y-47275396D01*
X28997840Y-47188067D01*
X28987594Y-47082989D01*
X28984318Y-46968971D01*
X28988009Y-46854823D01*
X28998660Y-46749352D01*
X29015370Y-46664666D01*
X29048140Y-46563872D01*
X29090279Y-46466178D01*
X29137519Y-46380704D01*
X29169581Y-46335211D01*
X29193422Y-46303831D01*
X29207939Y-46281858D01*
X29210000Y-46276859D01*
X29196718Y-46275310D01*
X29158663Y-46273865D01*
X29098519Y-46272557D01*
X29018973Y-46271417D01*
X28922711Y-46270479D01*
X28812419Y-46269774D01*
X28690781Y-46269333D01*
X28566885Y-46269189D01*
X28408196Y-46269270D01*
X28274408Y-46269665D01*
X28162960Y-46270605D01*
X28071295Y-46272320D01*
X27996853Y-46275043D01*
X27937075Y-46279003D01*
X27889402Y-46284431D01*
X27851274Y-46291559D01*
X27820134Y-46300616D01*
X27793421Y-46311833D01*
X27768577Y-46325442D01*
X27743043Y-46341672D01*
X27739881Y-46343760D01*
X27706810Y-46364694D01*
X27684069Y-46377333D01*
X27679272Y-46379027D01*
X27677759Y-46365784D01*
X27676528Y-46327998D01*
X27675599Y-46268584D01*
X27674992Y-46190458D01*
X27674727Y-46096535D01*
X27674825Y-45989730D01*
G37*
X27674825Y-45989730D02*
X27675304Y-45872959D01*
X27675545Y-45833271D01*
X27679135Y-45287514D01*
X29772919Y-45280649D01*
X30056842Y-45279742D01*
X30314640Y-45278938D01*
X30547646Y-45278185D01*
X30757194Y-45277431D01*
X30944618Y-45276625D01*
X31111250Y-45275715D01*
X31258425Y-45274649D01*
X31387477Y-45273376D01*
X31499739Y-45271844D01*
X31596544Y-45270002D01*
X31679226Y-45267797D01*
X31749119Y-45265178D01*
X31807557Y-45262094D01*
X31855872Y-45258492D01*
X31895400Y-45254322D01*
X31927473Y-45249531D01*
X31953424Y-45244069D01*
X31974589Y-45237882D01*
X31992299Y-45230920D01*
X32007889Y-45223131D01*
X32022693Y-45214463D01*
X32038044Y-45204865D01*
X32055276Y-45194285D01*
X32058946Y-45192116D01*
X32121031Y-45155732D01*
X32117434Y-45681569D01*
X32113838Y-46207406D01*
X31998331Y-46214271D01*
X31942899Y-46218008D01*
X31910851Y-46221903D01*
X31898135Y-46227189D01*
X31900696Y-46235097D01*
X31908024Y-46241730D01*
X31934714Y-46270626D01*
X31969021Y-46317721D01*
X32006846Y-46376380D01*
X32044090Y-46439969D01*
X32076653Y-46501851D01*
X32098077Y-46549366D01*
X32133283Y-46660684D01*
X32158222Y-46788404D01*
X32171941Y-46923099D01*
X32173486Y-47055337D01*
X32161906Y-47175692D01*
X32161574Y-47177674D01*
X32120250Y-47342359D01*
X32054412Y-47496521D01*
X31965474Y-47638672D01*
X31854852Y-47767325D01*
X31723961Y-47880993D01*
X31574216Y-47978190D01*
X31407033Y-48057428D01*
X31283190Y-48100570D01*
X31179581Y-48129021D01*
X31079252Y-48150120D01*
X30976109Y-48164512D01*
X30864057Y-48172842D01*
X30737001Y-48175755D01*
X30633252Y-48174465D01*
X30633252Y-47161350D01*
X30807222Y-47156556D01*
X30956895Y-47141432D01*
X31083597Y-47115515D01*
X31188658Y-47078337D01*
X31273406Y-47029435D01*
X31339169Y-46968342D01*
X31385659Y-46897823D01*
X31403014Y-46861129D01*
X31413419Y-46829304D01*
X31418179Y-46793823D01*
X31418601Y-46746159D01*
X31416748Y-46694811D01*
X31407841Y-46593831D01*
X31390398Y-46513965D01*
X31381661Y-46488865D01*
X31355857Y-46431552D01*
X31323453Y-46371103D01*
X31307233Y-46344703D01*
X31262205Y-46276054D01*
X29834982Y-46276054D01*
X29789718Y-46351568D01*
X29738572Y-46456879D01*
X29708324Y-46564475D01*
X29698795Y-46670419D01*
X29709807Y-46770776D01*
X29741181Y-46861613D01*
X29792740Y-46938993D01*
X29817488Y-46963961D01*
X29898577Y-47024144D01*
X29996734Y-47072855D01*
X30113643Y-47110501D01*
X30250985Y-47137488D01*
X30410444Y-47154225D01*
X30593700Y-47161117D01*
X30633252Y-47161350D01*
X30633252Y-48174465D01*
X30590067Y-48173927D01*
X30364053Y-48162353D01*
X30160192Y-48139080D01*
X29975513Y-48103496D01*
X29807048Y-48054987D01*
X29651826Y-47992940D01*
X29605808Y-47970799D01*
X29455739Y-47881615D01*
X29322377Y-47773841D01*
X29207877Y-47650010D01*
X29114389Y-47512658D01*
X29044068Y-47364317D01*
X29015060Y-47275396D01*
X28997840Y-47188067D01*
X28987594Y-47082989D01*
X28984318Y-46968971D01*
X28988009Y-46854823D01*
X28998660Y-46749352D01*
X29015370Y-46664666D01*
X29048140Y-46563872D01*
X29090279Y-46466178D01*
X29137519Y-46380704D01*
X29169581Y-46335211D01*
X29193422Y-46303831D01*
X29207939Y-46281858D01*
X29210000Y-46276859D01*
X29196718Y-46275310D01*
X29158663Y-46273865D01*
X29098519Y-46272557D01*
X29018973Y-46271417D01*
X28922711Y-46270479D01*
X28812419Y-46269774D01*
X28690781Y-46269333D01*
X28566885Y-46269189D01*
X28408196Y-46269270D01*
X28274408Y-46269665D01*
X28162960Y-46270605D01*
X28071295Y-46272320D01*
X27996853Y-46275043D01*
X27937075Y-46279003D01*
X27889402Y-46284431D01*
X27851274Y-46291559D01*
X27820134Y-46300616D01*
X27793421Y-46311833D01*
X27768577Y-46325442D01*
X27743043Y-46341672D01*
X27739881Y-46343760D01*
X27706810Y-46364694D01*
X27684069Y-46377333D01*
X27679272Y-46379027D01*
X27677759Y-46365784D01*
X27676528Y-46327998D01*
X27675599Y-46268584D01*
X27674992Y-46190458D01*
X27674727Y-46096535D01*
X27674825Y-45989730D01*
G36*
X28982229Y-49664495D02*
G01*
X28987378Y-49596469D01*
X29013273Y-49401837D01*
X29054575Y-49229471D01*
X29111853Y-49078530D01*
X29185674Y-48948175D01*
X29276608Y-48837566D01*
X29385222Y-48745865D01*
X29512085Y-48672230D01*
X29649352Y-48618461D01*
X29693137Y-48604813D01*
X29734141Y-48592927D01*
X29774569Y-48582666D01*
X29816630Y-48573887D01*
X29862531Y-48566452D01*
X29914480Y-48560220D01*
X29974685Y-48555050D01*
X30045352Y-48550804D01*
X30128689Y-48547340D01*
X30226905Y-48544519D01*
X30342205Y-48542200D01*
X30476799Y-48540243D01*
X30632893Y-48538509D01*
X30812695Y-48536857D01*
X30953676Y-48535676D01*
X31921622Y-48527730D01*
X32014770Y-48476244D01*
X32059645Y-48451863D01*
X32094501Y-48433720D01*
X32113054Y-48425065D01*
X32114311Y-48424757D01*
X32115749Y-48437986D01*
X32117074Y-48475674D01*
X32118249Y-48534817D01*
X32119237Y-48612414D01*
X32119999Y-48705464D01*
X32120500Y-48810965D01*
X32120701Y-48925916D01*
X32120703Y-48939622D01*
X32120703Y-49454487D01*
X32004000Y-49454487D01*
X31951260Y-49455365D01*
X31910926Y-49457708D01*
X31889300Y-49461079D01*
X31887298Y-49462569D01*
X31895683Y-49476196D01*
X31917692Y-49504243D01*
X31948601Y-49540697D01*
X31949316Y-49541515D01*
X31998843Y-49608038D01*
X32048575Y-49692052D01*
X32093626Y-49784063D01*
X32129110Y-49874579D01*
X32141236Y-49914433D01*
X32156637Y-49993745D01*
X32166465Y-50091065D01*
X32170580Y-50197484D01*
X32168841Y-50304093D01*
X32161108Y-50401983D01*
X32149981Y-50470487D01*
X32100648Y-50638480D01*
X32030342Y-50789719D01*
X31939933Y-50923218D01*
X31830295Y-51037994D01*
X31702299Y-51133063D01*
X31556818Y-51207440D01*
X31468541Y-51239526D01*
X31382739Y-51259635D01*
X31279736Y-51272962D01*
X31169034Y-51279128D01*
X31152925Y-51278926D01*
X31152925Y-50350352D01*
X31235184Y-50342652D01*
X31303546Y-50317011D01*
X31366970Y-50269622D01*
X31385567Y-50251421D01*
X31435846Y-50186718D01*
X31468056Y-50111934D01*
X31483648Y-50022338D01*
X31484796Y-49927988D01*
X31477216Y-49838499D01*
X31462389Y-49769982D01*
X31451253Y-49740225D01*
X31420904Y-49686592D01*
X31378221Y-49629765D01*
X31330317Y-49577918D01*
X31284301Y-49539222D01*
X31267421Y-49528946D01*
X31243782Y-49520958D01*
X31206168Y-49515279D01*
X31150985Y-49511644D01*
X31074640Y-49509789D01*
X31001981Y-49509406D01*
X30917270Y-49509665D01*
X30856018Y-49510713D01*
X30814227Y-49512955D01*
X30787899Y-49516794D01*
X30773035Y-49522635D01*
X30765639Y-49530882D01*
X30764461Y-49533433D01*
X30760833Y-49555600D01*
X30757866Y-49599320D01*
X30755827Y-49658689D01*
X30754983Y-49727804D01*
X30754982Y-49742811D01*
X30756457Y-49835195D01*
X30760842Y-49906568D01*
X30768738Y-49963281D01*
X30780270Y-50010128D01*
X30824215Y-50126331D01*
X30878243Y-50217457D01*
X30943219Y-50284295D01*
X31020005Y-50327635D01*
X31109467Y-50348266D01*
X31152925Y-50350352D01*
X31152925Y-51278926D01*
X31060133Y-51277756D01*
X30962536Y-51268468D01*
X30923105Y-51261223D01*
X30776701Y-51214961D01*
X30641995Y-51144616D01*
X30520280Y-51051516D01*
X30412847Y-50936988D01*
X30320988Y-50802360D01*
X30245996Y-50648960D01*
X30200458Y-50518541D01*
X30176533Y-50431377D01*
X30157943Y-50348004D01*
X30144084Y-50263024D01*
X30134351Y-50171035D01*
X30128141Y-50066638D01*
X30124851Y-49944432D01*
X30123924Y-49833945D01*
X30123027Y-49506323D01*
X30024547Y-49512599D01*
X29917695Y-49530421D01*
X29825852Y-49568333D01*
X29751310Y-49624720D01*
X29696364Y-49697969D01*
X29669552Y-49762465D01*
X29652654Y-49854877D01*
X29650227Y-49964889D01*
X29661378Y-50087344D01*
X29685210Y-50217086D01*
X29720830Y-50348958D01*
X29767343Y-50477802D01*
X29809883Y-50571434D01*
X29831728Y-50616483D01*
X29846984Y-50650844D01*
X29852937Y-50668319D01*
X29852746Y-50669267D01*
X29839412Y-50675297D01*
X29804068Y-50690355D01*
X29750101Y-50713023D01*
X29680896Y-50741885D01*
X29599840Y-50775523D01*
X29517118Y-50809716D01*
X29185803Y-50946414D01*
X29169833Y-50849180D01*
X29161820Y-50807036D01*
X29148361Y-50743681D01*
X29130679Y-50664543D01*
X29109996Y-50575049D01*
X29087532Y-50480627D01*
X29078403Y-50443027D01*
X29040674Y-50280363D01*
X29012388Y-50137950D01*
X28992972Y-50010473D01*
X28981854Y-49892616D01*
X28978464Y-49779062D01*
X28982229Y-49664495D01*
G37*
X28982229Y-49664495D02*
X28987378Y-49596469D01*
X29013273Y-49401837D01*
X29054575Y-49229471D01*
X29111853Y-49078530D01*
X29185674Y-48948175D01*
X29276608Y-48837566D01*
X29385222Y-48745865D01*
X29512085Y-48672230D01*
X29649352Y-48618461D01*
X29693137Y-48604813D01*
X29734141Y-48592927D01*
X29774569Y-48582666D01*
X29816630Y-48573887D01*
X29862531Y-48566452D01*
X29914480Y-48560220D01*
X29974685Y-48555050D01*
X30045352Y-48550804D01*
X30128689Y-48547340D01*
X30226905Y-48544519D01*
X30342205Y-48542200D01*
X30476799Y-48540243D01*
X30632893Y-48538509D01*
X30812695Y-48536857D01*
X30953676Y-48535676D01*
X31921622Y-48527730D01*
X32014770Y-48476244D01*
X32059645Y-48451863D01*
X32094501Y-48433720D01*
X32113054Y-48425065D01*
X32114311Y-48424757D01*
X32115749Y-48437986D01*
X32117074Y-48475674D01*
X32118249Y-48534817D01*
X32119237Y-48612414D01*
X32119999Y-48705464D01*
X32120500Y-48810965D01*
X32120701Y-48925916D01*
X32120703Y-48939622D01*
X32120703Y-49454487D01*
X32004000Y-49454487D01*
X31951260Y-49455365D01*
X31910926Y-49457708D01*
X31889300Y-49461079D01*
X31887298Y-49462569D01*
X31895683Y-49476196D01*
X31917692Y-49504243D01*
X31948601Y-49540697D01*
X31949316Y-49541515D01*
X31998843Y-49608038D01*
X32048575Y-49692052D01*
X32093626Y-49784063D01*
X32129110Y-49874579D01*
X32141236Y-49914433D01*
X32156637Y-49993745D01*
X32166465Y-50091065D01*
X32170580Y-50197484D01*
X32168841Y-50304093D01*
X32161108Y-50401983D01*
X32149981Y-50470487D01*
X32100648Y-50638480D01*
X32030342Y-50789719D01*
X31939933Y-50923218D01*
X31830295Y-51037994D01*
X31702299Y-51133063D01*
X31556818Y-51207440D01*
X31468541Y-51239526D01*
X31382739Y-51259635D01*
X31279736Y-51272962D01*
X31169034Y-51279128D01*
X31152925Y-51278926D01*
X31152925Y-50350352D01*
X31235184Y-50342652D01*
X31303546Y-50317011D01*
X31366970Y-50269622D01*
X31385567Y-50251421D01*
X31435846Y-50186718D01*
X31468056Y-50111934D01*
X31483648Y-50022338D01*
X31484796Y-49927988D01*
X31477216Y-49838499D01*
X31462389Y-49769982D01*
X31451253Y-49740225D01*
X31420904Y-49686592D01*
X31378221Y-49629765D01*
X31330317Y-49577918D01*
X31284301Y-49539222D01*
X31267421Y-49528946D01*
X31243782Y-49520958D01*
X31206168Y-49515279D01*
X31150985Y-49511644D01*
X31074640Y-49509789D01*
X31001981Y-49509406D01*
X30917270Y-49509665D01*
X30856018Y-49510713D01*
X30814227Y-49512955D01*
X30787899Y-49516794D01*
X30773035Y-49522635D01*
X30765639Y-49530882D01*
X30764461Y-49533433D01*
X30760833Y-49555600D01*
X30757866Y-49599320D01*
X30755827Y-49658689D01*
X30754983Y-49727804D01*
X30754982Y-49742811D01*
X30756457Y-49835195D01*
X30760842Y-49906568D01*
X30768738Y-49963281D01*
X30780270Y-50010128D01*
X30824215Y-50126331D01*
X30878243Y-50217457D01*
X30943219Y-50284295D01*
X31020005Y-50327635D01*
X31109467Y-50348266D01*
X31152925Y-50350352D01*
X31152925Y-51278926D01*
X31060133Y-51277756D01*
X30962536Y-51268468D01*
X30923105Y-51261223D01*
X30776701Y-51214961D01*
X30641995Y-51144616D01*
X30520280Y-51051516D01*
X30412847Y-50936988D01*
X30320988Y-50802360D01*
X30245996Y-50648960D01*
X30200458Y-50518541D01*
X30176533Y-50431377D01*
X30157943Y-50348004D01*
X30144084Y-50263024D01*
X30134351Y-50171035D01*
X30128141Y-50066638D01*
X30124851Y-49944432D01*
X30123924Y-49833945D01*
X30123027Y-49506323D01*
X30024547Y-49512599D01*
X29917695Y-49530421D01*
X29825852Y-49568333D01*
X29751310Y-49624720D01*
X29696364Y-49697969D01*
X29669552Y-49762465D01*
X29652654Y-49854877D01*
X29650227Y-49964889D01*
X29661378Y-50087344D01*
X29685210Y-50217086D01*
X29720830Y-50348958D01*
X29767343Y-50477802D01*
X29809883Y-50571434D01*
X29831728Y-50616483D01*
X29846984Y-50650844D01*
X29852937Y-50668319D01*
X29852746Y-50669267D01*
X29839412Y-50675297D01*
X29804068Y-50690355D01*
X29750101Y-50713023D01*
X29680896Y-50741885D01*
X29599840Y-50775523D01*
X29517118Y-50809716D01*
X29185803Y-50946414D01*
X29169833Y-50849180D01*
X29161820Y-50807036D01*
X29148361Y-50743681D01*
X29130679Y-50664543D01*
X29109996Y-50575049D01*
X29087532Y-50480627D01*
X29078403Y-50443027D01*
X29040674Y-50280363D01*
X29012388Y-50137950D01*
X28992972Y-50010473D01*
X28981854Y-49892616D01*
X28978464Y-49779062D01*
X28982229Y-49664495D01*
G36*
X27878499Y-52392038D02*
G01*
X27894707Y-52243986D01*
X27923718Y-52100548D01*
X27967045Y-51955890D01*
X28026201Y-51804176D01*
X28102700Y-51639572D01*
X28117517Y-51609929D01*
X28151031Y-51541902D01*
X28181208Y-51477744D01*
X28205166Y-51423785D01*
X28220024Y-51386360D01*
X28221895Y-51380611D01*
X28238402Y-51325514D01*
X28597201Y-51572149D01*
X28684893Y-51632448D01*
X28765012Y-51687578D01*
X28834836Y-51735664D01*
X28891647Y-51774832D01*
X28932723Y-51803206D01*
X28955346Y-51818913D01*
X28958928Y-51821464D01*
X28951438Y-51831829D01*
X28928918Y-51857340D01*
X28895461Y-51893437D01*
X28876550Y-51913358D01*
X28786778Y-52026227D01*
X28718561Y-52152986D01*
X28681195Y-52262217D01*
X28669460Y-52327786D01*
X28662308Y-52409884D01*
X28659874Y-52498856D01*
X28662288Y-52585044D01*
X28669683Y-52658795D01*
X28675347Y-52688224D01*
X28720982Y-52820867D01*
X28790663Y-52940394D01*
X28884260Y-53046717D01*
X29001649Y-53139747D01*
X29142700Y-53219395D01*
X29307286Y-53285574D01*
X29495280Y-53338194D01*
X29656217Y-53369467D01*
X29727263Y-53377626D01*
X29819046Y-53383185D01*
X29924968Y-53386198D01*
X30038434Y-53386719D01*
X30152849Y-53384800D01*
X30261617Y-53380497D01*
X30358143Y-53373863D01*
X30435831Y-53364951D01*
X30447817Y-53363021D01*
X30640892Y-53320501D01*
X30811773Y-53262567D01*
X30961224Y-53188867D01*
X31090011Y-53099049D01*
X31159639Y-53035293D01*
X31254173Y-52920714D01*
X31324246Y-52795058D01*
X31369477Y-52660443D01*
X31389484Y-52518989D01*
X31383885Y-52372817D01*
X31352300Y-52224045D01*
X31321394Y-52136089D01*
X31259506Y-52014371D01*
X31170729Y-51888920D01*
X31110694Y-51818647D01*
X31075947Y-51779189D01*
X31050454Y-51748188D01*
X31038170Y-51730542D01*
X31037795Y-51728352D01*
X31050347Y-51720476D01*
X31083516Y-51700068D01*
X31134458Y-51668868D01*
X31200331Y-51628614D01*
X31278289Y-51581043D01*
X31365490Y-51527896D01*
X31414067Y-51498313D01*
X31785215Y-51272352D01*
X31924639Y-51554473D01*
X31974719Y-51656478D01*
X32014210Y-51739111D01*
X32045073Y-51807422D01*
X32069268Y-51866463D01*
X32088758Y-51921286D01*
X32105503Y-51976940D01*
X32121465Y-52038477D01*
X32135482Y-52097460D01*
X32146329Y-52149885D01*
X32154526Y-52204712D01*
X32160528Y-52267428D01*
X32164790Y-52343523D01*
X32167767Y-52438484D01*
X32169052Y-52502487D01*
X32169930Y-52593808D01*
X32169487Y-52681373D01*
X32167852Y-52759388D01*
X32165149Y-52822058D01*
X32161505Y-52863587D01*
X32161142Y-52866048D01*
X32114487Y-53081697D01*
X32043729Y-53284207D01*
X31948914Y-53473505D01*
X31830089Y-53649521D01*
X31687300Y-53812184D01*
X31520594Y-53961422D01*
X31372433Y-54069504D01*
X31178502Y-54184566D01*
X30973699Y-54277577D01*
X30756383Y-54348987D01*
X30524912Y-54399244D01*
X30277643Y-54428799D01*
X30026559Y-54438111D01*
X29783670Y-54430452D01*
X29559570Y-54406387D01*
X29350477Y-54365148D01*
X29152613Y-54305973D01*
X28962196Y-54228096D01*
X28942468Y-54218797D01*
X28758059Y-54116352D01*
X28582576Y-53990528D01*
X28419650Y-53844888D01*
X28272914Y-53682999D01*
X28146001Y-53508424D01*
X28052905Y-53345756D01*
X27979991Y-53181427D01*
X27927174Y-53016749D01*
X27893015Y-52845348D01*
X27876078Y-52660847D01*
X27873580Y-52550541D01*
X27878499Y-52392038D01*
G37*
X27878499Y-52392038D02*
X27894707Y-52243986D01*
X27923718Y-52100548D01*
X27967045Y-51955890D01*
X28026201Y-51804176D01*
X28102700Y-51639572D01*
X28117517Y-51609929D01*
X28151031Y-51541902D01*
X28181208Y-51477744D01*
X28205166Y-51423785D01*
X28220024Y-51386360D01*
X28221895Y-51380611D01*
X28238402Y-51325514D01*
X28597201Y-51572149D01*
X28684893Y-51632448D01*
X28765012Y-51687578D01*
X28834836Y-51735664D01*
X28891647Y-51774832D01*
X28932723Y-51803206D01*
X28955346Y-51818913D01*
X28958928Y-51821464D01*
X28951438Y-51831829D01*
X28928918Y-51857340D01*
X28895461Y-51893437D01*
X28876550Y-51913358D01*
X28786778Y-52026227D01*
X28718561Y-52152986D01*
X28681195Y-52262217D01*
X28669460Y-52327786D01*
X28662308Y-52409884D01*
X28659874Y-52498856D01*
X28662288Y-52585044D01*
X28669683Y-52658795D01*
X28675347Y-52688224D01*
X28720982Y-52820867D01*
X28790663Y-52940394D01*
X28884260Y-53046717D01*
X29001649Y-53139747D01*
X29142700Y-53219395D01*
X29307286Y-53285574D01*
X29495280Y-53338194D01*
X29656217Y-53369467D01*
X29727263Y-53377626D01*
X29819046Y-53383185D01*
X29924968Y-53386198D01*
X30038434Y-53386719D01*
X30152849Y-53384800D01*
X30261617Y-53380497D01*
X30358143Y-53373863D01*
X30435831Y-53364951D01*
X30447817Y-53363021D01*
X30640892Y-53320501D01*
X30811773Y-53262567D01*
X30961224Y-53188867D01*
X31090011Y-53099049D01*
X31159639Y-53035293D01*
X31254173Y-52920714D01*
X31324246Y-52795058D01*
X31369477Y-52660443D01*
X31389484Y-52518989D01*
X31383885Y-52372817D01*
X31352300Y-52224045D01*
X31321394Y-52136089D01*
X31259506Y-52014371D01*
X31170729Y-51888920D01*
X31110694Y-51818647D01*
X31075947Y-51779189D01*
X31050454Y-51748188D01*
X31038170Y-51730542D01*
X31037795Y-51728352D01*
X31050347Y-51720476D01*
X31083516Y-51700068D01*
X31134458Y-51668868D01*
X31200331Y-51628614D01*
X31278289Y-51581043D01*
X31365490Y-51527896D01*
X31414067Y-51498313D01*
X31785215Y-51272352D01*
X31924639Y-51554473D01*
X31974719Y-51656478D01*
X32014210Y-51739111D01*
X32045073Y-51807422D01*
X32069268Y-51866463D01*
X32088758Y-51921286D01*
X32105503Y-51976940D01*
X32121465Y-52038477D01*
X32135482Y-52097460D01*
X32146329Y-52149885D01*
X32154526Y-52204712D01*
X32160528Y-52267428D01*
X32164790Y-52343523D01*
X32167767Y-52438484D01*
X32169052Y-52502487D01*
X32169930Y-52593808D01*
X32169487Y-52681373D01*
X32167852Y-52759388D01*
X32165149Y-52822058D01*
X32161505Y-52863587D01*
X32161142Y-52866048D01*
X32114487Y-53081697D01*
X32043729Y-53284207D01*
X31948914Y-53473505D01*
X31830089Y-53649521D01*
X31687300Y-53812184D01*
X31520594Y-53961422D01*
X31372433Y-54069504D01*
X31178502Y-54184566D01*
X30973699Y-54277577D01*
X30756383Y-54348987D01*
X30524912Y-54399244D01*
X30277643Y-54428799D01*
X30026559Y-54438111D01*
X29783670Y-54430452D01*
X29559570Y-54406387D01*
X29350477Y-54365148D01*
X29152613Y-54305973D01*
X28962196Y-54228096D01*
X28942468Y-54218797D01*
X28758059Y-54116352D01*
X28582576Y-53990528D01*
X28419650Y-53844888D01*
X28272914Y-53682999D01*
X28146001Y-53508424D01*
X28052905Y-53345756D01*
X27979991Y-53181427D01*
X27927174Y-53016749D01*
X27893015Y-52845348D01*
X27876078Y-52660847D01*
X27873580Y-52550541D01*
X27878499Y-52392038D01*
G36*
X27191689Y-58787743D02*
G01*
X27191725Y-58523220D01*
X27191730Y-58400088D01*
X27191730Y-56429189D01*
X27307910Y-56429189D01*
X27449291Y-56416789D01*
X27579684Y-56379364D01*
X27699862Y-56316577D01*
X27810602Y-56228094D01*
X27840511Y-56198157D01*
X27925348Y-56090466D01*
X27987221Y-55971725D01*
X28026159Y-55845460D01*
X28042190Y-55715197D01*
X28035342Y-55584465D01*
X28005643Y-55456788D01*
X27953120Y-55335695D01*
X27877803Y-55224712D01*
X27832363Y-55174868D01*
X27720952Y-55081983D01*
X27598435Y-55013873D01*
X27466215Y-54971129D01*
X27325692Y-54954347D01*
X27311867Y-54954124D01*
X27191734Y-54953244D01*
X27191732Y-54900443D01*
X27198089Y-54853604D01*
X27213556Y-54810817D01*
X27215154Y-54807989D01*
X27220168Y-54798325D01*
X27224073Y-54789451D01*
X27228007Y-54781335D01*
X27233106Y-54773943D01*
X27240508Y-54767245D01*
X27251351Y-54761208D01*
X27266772Y-54755801D01*
X27287909Y-54750990D01*
X27315899Y-54746745D01*
X27351879Y-54743032D01*
X27396987Y-54739821D01*
X27452360Y-54737078D01*
X27519137Y-54734772D01*
X27598453Y-54732871D01*
X27691447Y-54731342D01*
X27799257Y-54730154D01*
X27923019Y-54729274D01*
X28063871Y-54728670D01*
X28222950Y-54728311D01*
X28401395Y-54728165D01*
X28600342Y-54728198D01*
X28820929Y-54728380D01*
X29064293Y-54728677D01*
X29331572Y-54729059D01*
X29623903Y-54729492D01*
X29942424Y-54729945D01*
X29981230Y-54729998D01*
X30301782Y-54730404D01*
X30596012Y-54730749D01*
X30865056Y-54731069D01*
X31110052Y-54731400D01*
X31332137Y-54731779D01*
X31532447Y-54732243D01*
X31712119Y-54732828D01*
X31872290Y-54733570D01*
X32014098Y-54734506D01*
X32138679Y-54735673D01*
X32247170Y-54737107D01*
X32340707Y-54738844D01*
X32420429Y-54740922D01*
X32487472Y-54743376D01*
X32542973Y-54746244D01*
X32588068Y-54749561D01*
X32623895Y-54753364D01*
X32651591Y-54757690D01*
X32672293Y-54762575D01*
X32687137Y-54768055D01*
X32697260Y-54774168D01*
X32703800Y-54780950D01*
X32707893Y-54788437D01*
X32710676Y-54796666D01*
X32713287Y-54805673D01*
X32716862Y-54815495D01*
X32717950Y-54817894D01*
X32720396Y-54825435D01*
X32722642Y-54838056D01*
X32724698Y-54856859D01*
X32726572Y-54882947D01*
X32728271Y-54917422D01*
X32729803Y-54961385D01*
X32731177Y-55015939D01*
X32732400Y-55082185D01*
X32733481Y-55161226D01*
X32734427Y-55254163D01*
X32735247Y-55362099D01*
X32735947Y-55486136D01*
X32736538Y-55627376D01*
X32737025Y-55786921D01*
X32737419Y-55965872D01*
X32737725Y-56165332D01*
X32737953Y-56386404D01*
X32738110Y-56630188D01*
X32738205Y-56897787D01*
X32738245Y-57190303D01*
X32738238Y-57508839D01*
X32738228Y-57612021D01*
X32738176Y-57937623D01*
X32738091Y-58236881D01*
X32737963Y-58510909D01*
X32737785Y-58760824D01*
X32737548Y-58987740D01*
X32737242Y-59192773D01*
X32736860Y-59377038D01*
X32736392Y-59541650D01*
X32735830Y-59687725D01*
X32735165Y-59816376D01*
X32734388Y-59928721D01*
X32733491Y-60025874D01*
X32732465Y-60108950D01*
X32731301Y-60179064D01*
X32729991Y-60237332D01*
X32728525Y-60284869D01*
X32726896Y-60322790D01*
X32725093Y-60352210D01*
X32723110Y-60374245D01*
X32720936Y-60390010D01*
X32718563Y-60400620D01*
X32716391Y-60406404D01*
X32712056Y-60416684D01*
X32708859Y-60426122D01*
X32705665Y-60434755D01*
X32701338Y-60442619D01*
X32694744Y-60449748D01*
X32684747Y-60456179D01*
X32670212Y-60461947D01*
X32650003Y-60467089D01*
X32622985Y-60471640D01*
X32588023Y-60475635D01*
X32543981Y-60479111D01*
X32489724Y-60482102D01*
X32424117Y-60484646D01*
X32346024Y-60486777D01*
X32254310Y-60488532D01*
X32147840Y-60489945D01*
X32106973Y-60490315D01*
X32106973Y-60123884D01*
X32106973Y-58828734D01*
X32069217Y-58853655D01*
X32030417Y-58878447D01*
X31993469Y-58899440D01*
X31955788Y-58916935D01*
X31914788Y-58931230D01*
X31867883Y-58942623D01*
X31812487Y-58951413D01*
X31746016Y-58957898D01*
X31665883Y-58962377D01*
X31569502Y-58965150D01*
X31454289Y-58966513D01*
X31317657Y-58966767D01*
X31157020Y-58966209D01*
X31097382Y-58965893D01*
X30458041Y-58962325D01*
X31009449Y-58557298D01*
X31165876Y-58442554D01*
X31302088Y-58343143D01*
X31419890Y-58257990D01*
X31521084Y-58186022D01*
X31607477Y-58126166D01*
X31680874Y-58077348D01*
X31743077Y-58038495D01*
X31795893Y-58008534D01*
X31841125Y-57986391D01*
X31880578Y-57970993D01*
X31916058Y-57961266D01*
X31949368Y-57956137D01*
X31982313Y-57954532D01*
X32016697Y-57955379D01*
X32021019Y-57955595D01*
X32107031Y-57960054D01*
X32106973Y-56540692D01*
X32000522Y-56646265D01*
X31971406Y-56674913D01*
X31943076Y-56702090D01*
X31913968Y-56728989D01*
X31882520Y-56756803D01*
X31847169Y-56786725D01*
X31806354Y-56819946D01*
X31758511Y-56857661D01*
X31702079Y-56901060D01*
X31635494Y-56951338D01*
X31557195Y-57009688D01*
X31465619Y-57077300D01*
X31359204Y-57155369D01*
X31236387Y-57245088D01*
X31095605Y-57347648D01*
X30935297Y-57464242D01*
X30803798Y-57559809D01*
X30638596Y-57679749D01*
X30494152Y-57784380D01*
X30369094Y-57874648D01*
X30262052Y-57951503D01*
X30171654Y-58015891D01*
X30096529Y-58068761D01*
X30035304Y-58111060D01*
X29986610Y-58143736D01*
X29949074Y-58167738D01*
X29921325Y-58184013D01*
X29901992Y-58193508D01*
X29889703Y-58197173D01*
X29883242Y-58196071D01*
X29866048Y-58182724D01*
X29829655Y-58153866D01*
X29776224Y-58111240D01*
X29707919Y-58056585D01*
X29626903Y-57991644D01*
X29535340Y-57918158D01*
X29435392Y-57837868D01*
X29329224Y-57752515D01*
X29218997Y-57663840D01*
X29106876Y-57573586D01*
X29045244Y-57523944D01*
X29045244Y-56291373D01*
X29137919Y-56240146D01*
X29230595Y-56188919D01*
X31921622Y-56188919D01*
X32014298Y-56240146D01*
X32106973Y-56291373D01*
X32106973Y-55685396D01*
X32106931Y-55540734D01*
X32106741Y-55421244D01*
X32106308Y-55324642D01*
X32105536Y-55248642D01*
X32104330Y-55190957D01*
X32102594Y-55149301D01*
X32100232Y-55121389D01*
X32097150Y-55104935D01*
X32093251Y-55097652D01*
X32088440Y-55097255D01*
X32082622Y-55101458D01*
X32082574Y-55101501D01*
X32057532Y-55118813D01*
X32016815Y-55141736D01*
X31976168Y-55161981D01*
X31894162Y-55200379D01*
X29045244Y-55208211D01*
X29045244Y-56291373D01*
X29045244Y-57523944D01*
X28995024Y-57483493D01*
X28885604Y-57395302D01*
X28780778Y-57310754D01*
X28682711Y-57231592D01*
X28593566Y-57159556D01*
X28515505Y-57096387D01*
X28450692Y-57043827D01*
X28401290Y-57003617D01*
X28372487Y-56980000D01*
X28264778Y-56888290D01*
X28167580Y-56800060D01*
X28084076Y-56718403D01*
X28017448Y-56646410D01*
X27976599Y-56595319D01*
X27933135Y-56534907D01*
X27933135Y-57924298D01*
X28014666Y-57923908D01*
X28074606Y-57927791D01*
X28130177Y-57942390D01*
X28182855Y-57964988D01*
X28212615Y-57979678D01*
X28242103Y-57995472D01*
X28273276Y-58013814D01*
X28308093Y-58036145D01*
X28348510Y-58063909D01*
X28396486Y-58098549D01*
X28453978Y-58141507D01*
X28522943Y-58194227D01*
X28605339Y-58258151D01*
X28703124Y-58334721D01*
X28818255Y-58425381D01*
X28952690Y-58531574D01*
X28967859Y-58543568D01*
X29497412Y-58962325D01*
X28910922Y-58966378D01*
X28735251Y-58967195D01*
X28586532Y-58967021D01*
X28464275Y-58965849D01*
X28367989Y-58963669D01*
X28297183Y-58960474D01*
X28251369Y-58956256D01*
X28242679Y-58954838D01*
X28151135Y-58932591D01*
X28068608Y-58903443D01*
X28002253Y-58870182D01*
X27974110Y-58850200D01*
X27933135Y-58815722D01*
X27933135Y-59469914D01*
X27933269Y-59625969D01*
X27933703Y-59756467D01*
X27934489Y-59863310D01*
X27935676Y-59948398D01*
X27937317Y-60013635D01*
X27939461Y-60060921D01*
X27942159Y-60092157D01*
X27945462Y-60109246D01*
X27949421Y-60114088D01*
X27950298Y-60113753D01*
X27971231Y-60099885D01*
X28004412Y-60076732D01*
X28021193Y-60064754D01*
X28037940Y-60052369D01*
X28052915Y-60041237D01*
X28067594Y-60031288D01*
X28083449Y-60022451D01*
X28101955Y-60014657D01*
X28124585Y-60007835D01*
X28152813Y-60001916D01*
X28188113Y-59996829D01*
X28231958Y-59992504D01*
X28285822Y-59988871D01*
X28351180Y-59985860D01*
X28429504Y-59983401D01*
X28522268Y-59981423D01*
X28630947Y-59979858D01*
X28757013Y-59978634D01*
X28901942Y-59977681D01*
X29067206Y-59976930D01*
X29254279Y-59976311D01*
X29464635Y-59975752D01*
X29699748Y-59975185D01*
X29915741Y-59974655D01*
X30156535Y-59974155D01*
X30386274Y-59973895D01*
X30603493Y-59973868D01*
X30806722Y-59974067D01*
X30994496Y-59974486D01*
X31165345Y-59975118D01*
X31317803Y-59975956D01*
X31450403Y-59976992D01*
X31561676Y-59978220D01*
X31650156Y-59979633D01*
X31714375Y-59981225D01*
X31752865Y-59982987D01*
X31756933Y-59983321D01*
X31850248Y-59995466D01*
X31925190Y-60014427D01*
X31990594Y-60043302D01*
X32055293Y-60085190D01*
X32062352Y-60090429D01*
X32106973Y-60123884D01*
X32106973Y-60490315D01*
X32025479Y-60491054D01*
X31886090Y-60491893D01*
X31728539Y-60492498D01*
X31551691Y-60492905D01*
X31354410Y-60493150D01*
X31135560Y-60493267D01*
X30894007Y-60493295D01*
X30628615Y-60493267D01*
X30338249Y-60493220D01*
X30021773Y-60493190D01*
X29958946Y-60493189D01*
X29639137Y-60493172D01*
X29345661Y-60493112D01*
X29077390Y-60493002D01*
X28833198Y-60492833D01*
X28611957Y-60492597D01*
X28412540Y-60492284D01*
X28233820Y-60491885D01*
X28074671Y-60491393D01*
X27933966Y-60490797D01*
X27810576Y-60490090D01*
X27703376Y-60489263D01*
X27611238Y-60488307D01*
X27533035Y-60487213D01*
X27467641Y-60485973D01*
X27413928Y-60484578D01*
X27370769Y-60483018D01*
X27337037Y-60481286D01*
X27311605Y-60479372D01*
X27293347Y-60477268D01*
X27281134Y-60474966D01*
X27273841Y-60472455D01*
X27273659Y-60472363D01*
X27262518Y-60467192D01*
X27252431Y-60462885D01*
X27243346Y-60458121D01*
X27235212Y-60451578D01*
X27227976Y-60441935D01*
X27221586Y-60427871D01*
X27215989Y-60408063D01*
X27211133Y-60381191D01*
X27206966Y-60345933D01*
X27203436Y-60300968D01*
X27200491Y-60244974D01*
X27198077Y-60176629D01*
X27196144Y-60094614D01*
X27194638Y-59997605D01*
X27193508Y-59884282D01*
X27192702Y-59753323D01*
X27192166Y-59603407D01*
X27191849Y-59433213D01*
X27191699Y-59241418D01*
X27191663Y-59026702D01*
X27191689Y-58787743D01*
G37*
X27191689Y-58787743D02*
X27191725Y-58523220D01*
X27191730Y-58400088D01*
X27191730Y-56429189D01*
X27307910Y-56429189D01*
X27449291Y-56416789D01*
X27579684Y-56379364D01*
X27699862Y-56316577D01*
X27810602Y-56228094D01*
X27840511Y-56198157D01*
X27925348Y-56090466D01*
X27987221Y-55971725D01*
X28026159Y-55845460D01*
X28042190Y-55715197D01*
X28035342Y-55584465D01*
X28005643Y-55456788D01*
X27953120Y-55335695D01*
X27877803Y-55224712D01*
X27832363Y-55174868D01*
X27720952Y-55081983D01*
X27598435Y-55013873D01*
X27466215Y-54971129D01*
X27325692Y-54954347D01*
X27311867Y-54954124D01*
X27191734Y-54953244D01*
X27191732Y-54900443D01*
X27198089Y-54853604D01*
X27213556Y-54810817D01*
X27215154Y-54807989D01*
X27220168Y-54798325D01*
X27224073Y-54789451D01*
X27228007Y-54781335D01*
X27233106Y-54773943D01*
X27240508Y-54767245D01*
X27251351Y-54761208D01*
X27266772Y-54755801D01*
X27287909Y-54750990D01*
X27315899Y-54746745D01*
X27351879Y-54743032D01*
X27396987Y-54739821D01*
X27452360Y-54737078D01*
X27519137Y-54734772D01*
X27598453Y-54732871D01*
X27691447Y-54731342D01*
X27799257Y-54730154D01*
X27923019Y-54729274D01*
X28063871Y-54728670D01*
X28222950Y-54728311D01*
X28401395Y-54728165D01*
X28600342Y-54728198D01*
X28820929Y-54728380D01*
X29064293Y-54728677D01*
X29331572Y-54729059D01*
X29623903Y-54729492D01*
X29942424Y-54729945D01*
X29981230Y-54729998D01*
X30301782Y-54730404D01*
X30596012Y-54730749D01*
X30865056Y-54731069D01*
X31110052Y-54731400D01*
X31332137Y-54731779D01*
X31532447Y-54732243D01*
X31712119Y-54732828D01*
X31872290Y-54733570D01*
X32014098Y-54734506D01*
X32138679Y-54735673D01*
X32247170Y-54737107D01*
X32340707Y-54738844D01*
X32420429Y-54740922D01*
X32487472Y-54743376D01*
X32542973Y-54746244D01*
X32588068Y-54749561D01*
X32623895Y-54753364D01*
X32651591Y-54757690D01*
X32672293Y-54762575D01*
X32687137Y-54768055D01*
X32697260Y-54774168D01*
X32703800Y-54780950D01*
X32707893Y-54788437D01*
X32710676Y-54796666D01*
X32713287Y-54805673D01*
X32716862Y-54815495D01*
X32717950Y-54817894D01*
X32720396Y-54825435D01*
X32722642Y-54838056D01*
X32724698Y-54856859D01*
X32726572Y-54882947D01*
X32728271Y-54917422D01*
X32729803Y-54961385D01*
X32731177Y-55015939D01*
X32732400Y-55082185D01*
X32733481Y-55161226D01*
X32734427Y-55254163D01*
X32735247Y-55362099D01*
X32735947Y-55486136D01*
X32736538Y-55627376D01*
X32737025Y-55786921D01*
X32737419Y-55965872D01*
X32737725Y-56165332D01*
X32737953Y-56386404D01*
X32738110Y-56630188D01*
X32738205Y-56897787D01*
X32738245Y-57190303D01*
X32738238Y-57508839D01*
X32738228Y-57612021D01*
X32738176Y-57937623D01*
X32738091Y-58236881D01*
X32737963Y-58510909D01*
X32737785Y-58760824D01*
X32737548Y-58987740D01*
X32737242Y-59192773D01*
X32736860Y-59377038D01*
X32736392Y-59541650D01*
X32735830Y-59687725D01*
X32735165Y-59816376D01*
X32734388Y-59928721D01*
X32733491Y-60025874D01*
X32732465Y-60108950D01*
X32731301Y-60179064D01*
X32729991Y-60237332D01*
X32728525Y-60284869D01*
X32726896Y-60322790D01*
X32725093Y-60352210D01*
X32723110Y-60374245D01*
X32720936Y-60390010D01*
X32718563Y-60400620D01*
X32716391Y-60406404D01*
X32712056Y-60416684D01*
X32708859Y-60426122D01*
X32705665Y-60434755D01*
X32701338Y-60442619D01*
X32694744Y-60449748D01*
X32684747Y-60456179D01*
X32670212Y-60461947D01*
X32650003Y-60467089D01*
X32622985Y-60471640D01*
X32588023Y-60475635D01*
X32543981Y-60479111D01*
X32489724Y-60482102D01*
X32424117Y-60484646D01*
X32346024Y-60486777D01*
X32254310Y-60488532D01*
X32147840Y-60489945D01*
X32106973Y-60490315D01*
X32106973Y-60123884D01*
X32106973Y-58828734D01*
X32069217Y-58853655D01*
X32030417Y-58878447D01*
X31993469Y-58899440D01*
X31955788Y-58916935D01*
X31914788Y-58931230D01*
X31867883Y-58942623D01*
X31812487Y-58951413D01*
X31746016Y-58957898D01*
X31665883Y-58962377D01*
X31569502Y-58965150D01*
X31454289Y-58966513D01*
X31317657Y-58966767D01*
X31157020Y-58966209D01*
X31097382Y-58965893D01*
X30458041Y-58962325D01*
X31009449Y-58557298D01*
X31165876Y-58442554D01*
X31302088Y-58343143D01*
X31419890Y-58257990D01*
X31521084Y-58186022D01*
X31607477Y-58126166D01*
X31680874Y-58077348D01*
X31743077Y-58038495D01*
X31795893Y-58008534D01*
X31841125Y-57986391D01*
X31880578Y-57970993D01*
X31916058Y-57961266D01*
X31949368Y-57956137D01*
X31982313Y-57954532D01*
X32016697Y-57955379D01*
X32021019Y-57955595D01*
X32107031Y-57960054D01*
X32106973Y-56540692D01*
X32000522Y-56646265D01*
X31971406Y-56674913D01*
X31943076Y-56702090D01*
X31913968Y-56728989D01*
X31882520Y-56756803D01*
X31847169Y-56786725D01*
X31806354Y-56819946D01*
X31758511Y-56857661D01*
X31702079Y-56901060D01*
X31635494Y-56951338D01*
X31557195Y-57009688D01*
X31465619Y-57077300D01*
X31359204Y-57155369D01*
X31236387Y-57245088D01*
X31095605Y-57347648D01*
X30935297Y-57464242D01*
X30803798Y-57559809D01*
X30638596Y-57679749D01*
X30494152Y-57784380D01*
X30369094Y-57874648D01*
X30262052Y-57951503D01*
X30171654Y-58015891D01*
X30096529Y-58068761D01*
X30035304Y-58111060D01*
X29986610Y-58143736D01*
X29949074Y-58167738D01*
X29921325Y-58184013D01*
X29901992Y-58193508D01*
X29889703Y-58197173D01*
X29883242Y-58196071D01*
X29866048Y-58182724D01*
X29829655Y-58153866D01*
X29776224Y-58111240D01*
X29707919Y-58056585D01*
X29626903Y-57991644D01*
X29535340Y-57918158D01*
X29435392Y-57837868D01*
X29329224Y-57752515D01*
X29218997Y-57663840D01*
X29106876Y-57573586D01*
X29045244Y-57523944D01*
X29045244Y-56291373D01*
X29137919Y-56240146D01*
X29230595Y-56188919D01*
X31921622Y-56188919D01*
X32014298Y-56240146D01*
X32106973Y-56291373D01*
X32106973Y-55685396D01*
X32106931Y-55540734D01*
X32106741Y-55421244D01*
X32106308Y-55324642D01*
X32105536Y-55248642D01*
X32104330Y-55190957D01*
X32102594Y-55149301D01*
X32100232Y-55121389D01*
X32097150Y-55104935D01*
X32093251Y-55097652D01*
X32088440Y-55097255D01*
X32082622Y-55101458D01*
X32082574Y-55101501D01*
X32057532Y-55118813D01*
X32016815Y-55141736D01*
X31976168Y-55161981D01*
X31894162Y-55200379D01*
X29045244Y-55208211D01*
X29045244Y-56291373D01*
X29045244Y-57523944D01*
X28995024Y-57483493D01*
X28885604Y-57395302D01*
X28780778Y-57310754D01*
X28682711Y-57231592D01*
X28593566Y-57159556D01*
X28515505Y-57096387D01*
X28450692Y-57043827D01*
X28401290Y-57003617D01*
X28372487Y-56980000D01*
X28264778Y-56888290D01*
X28167580Y-56800060D01*
X28084076Y-56718403D01*
X28017448Y-56646410D01*
X27976599Y-56595319D01*
X27933135Y-56534907D01*
X27933135Y-57924298D01*
X28014666Y-57923908D01*
X28074606Y-57927791D01*
X28130177Y-57942390D01*
X28182855Y-57964988D01*
X28212615Y-57979678D01*
X28242103Y-57995472D01*
X28273276Y-58013814D01*
X28308093Y-58036145D01*
X28348510Y-58063909D01*
X28396486Y-58098549D01*
X28453978Y-58141507D01*
X28522943Y-58194227D01*
X28605339Y-58258151D01*
X28703124Y-58334721D01*
X28818255Y-58425381D01*
X28952690Y-58531574D01*
X28967859Y-58543568D01*
X29497412Y-58962325D01*
X28910922Y-58966378D01*
X28735251Y-58967195D01*
X28586532Y-58967021D01*
X28464275Y-58965849D01*
X28367989Y-58963669D01*
X28297183Y-58960474D01*
X28251369Y-58956256D01*
X28242679Y-58954838D01*
X28151135Y-58932591D01*
X28068608Y-58903443D01*
X28002253Y-58870182D01*
X27974110Y-58850200D01*
X27933135Y-58815722D01*
X27933135Y-59469914D01*
X27933269Y-59625969D01*
X27933703Y-59756467D01*
X27934489Y-59863310D01*
X27935676Y-59948398D01*
X27937317Y-60013635D01*
X27939461Y-60060921D01*
X27942159Y-60092157D01*
X27945462Y-60109246D01*
X27949421Y-60114088D01*
X27950298Y-60113753D01*
X27971231Y-60099885D01*
X28004412Y-60076732D01*
X28021193Y-60064754D01*
X28037940Y-60052369D01*
X28052915Y-60041237D01*
X28067594Y-60031288D01*
X28083449Y-60022451D01*
X28101955Y-60014657D01*
X28124585Y-60007835D01*
X28152813Y-60001916D01*
X28188113Y-59996829D01*
X28231958Y-59992504D01*
X28285822Y-59988871D01*
X28351180Y-59985860D01*
X28429504Y-59983401D01*
X28522268Y-59981423D01*
X28630947Y-59979858D01*
X28757013Y-59978634D01*
X28901942Y-59977681D01*
X29067206Y-59976930D01*
X29254279Y-59976311D01*
X29464635Y-59975752D01*
X29699748Y-59975185D01*
X29915741Y-59974655D01*
X30156535Y-59974155D01*
X30386274Y-59973895D01*
X30603493Y-59973868D01*
X30806722Y-59974067D01*
X30994496Y-59974486D01*
X31165345Y-59975118D01*
X31317803Y-59975956D01*
X31450403Y-59976992D01*
X31561676Y-59978220D01*
X31650156Y-59979633D01*
X31714375Y-59981225D01*
X31752865Y-59982987D01*
X31756933Y-59983321D01*
X31850248Y-59995466D01*
X31925190Y-60014427D01*
X31990594Y-60043302D01*
X32055293Y-60085190D01*
X32062352Y-60090429D01*
X32106973Y-60123884D01*
X32106973Y-60490315D01*
X32025479Y-60491054D01*
X31886090Y-60491893D01*
X31728539Y-60492498D01*
X31551691Y-60492905D01*
X31354410Y-60493150D01*
X31135560Y-60493267D01*
X30894007Y-60493295D01*
X30628615Y-60493267D01*
X30338249Y-60493220D01*
X30021773Y-60493190D01*
X29958946Y-60493189D01*
X29639137Y-60493172D01*
X29345661Y-60493112D01*
X29077390Y-60493002D01*
X28833198Y-60492833D01*
X28611957Y-60492597D01*
X28412540Y-60492284D01*
X28233820Y-60491885D01*
X28074671Y-60491393D01*
X27933966Y-60490797D01*
X27810576Y-60490090D01*
X27703376Y-60489263D01*
X27611238Y-60488307D01*
X27533035Y-60487213D01*
X27467641Y-60485973D01*
X27413928Y-60484578D01*
X27370769Y-60483018D01*
X27337037Y-60481286D01*
X27311605Y-60479372D01*
X27293347Y-60477268D01*
X27281134Y-60474966D01*
X27273841Y-60472455D01*
X27273659Y-60472363D01*
X27262518Y-60467192D01*
X27252431Y-60462885D01*
X27243346Y-60458121D01*
X27235212Y-60451578D01*
X27227976Y-60441935D01*
X27221586Y-60427871D01*
X27215989Y-60408063D01*
X27211133Y-60381191D01*
X27206966Y-60345933D01*
X27203436Y-60300968D01*
X27200491Y-60244974D01*
X27198077Y-60176629D01*
X27196144Y-60094614D01*
X27194638Y-59997605D01*
X27193508Y-59884282D01*
X27192702Y-59753323D01*
X27192166Y-59603407D01*
X27191849Y-59433213D01*
X27191699Y-59241418D01*
X27191663Y-59026702D01*
X27191689Y-58787743D01*
D10*
%TO.C,C2*%
X41832302Y-9350000D02*
X41832302Y-10150000D01*
X41432302Y-9750000D02*
X42232302Y-9750000D01*
X49923000Y-11532000D02*
X49923000Y-12598000D01*
X49883000Y-11297000D02*
X49883000Y-12833000D01*
X49843000Y-11117000D02*
X49843000Y-13013000D01*
X49803000Y-10967000D02*
X49803000Y-13163000D01*
X49763000Y-10836000D02*
X49763000Y-13294000D01*
X49723000Y-10719000D02*
X49723000Y-13411000D01*
X49683000Y-10612000D02*
X49683000Y-13518000D01*
X49643000Y-10513000D02*
X49643000Y-13617000D01*
X49603000Y-10420000D02*
X49603000Y-13710000D01*
X49563000Y-10334000D02*
X49563000Y-13796000D01*
X49523000Y-10252000D02*
X49523000Y-13878000D01*
X49483000Y-10175000D02*
X49483000Y-13955000D01*
X49443000Y-10101000D02*
X49443000Y-14029000D01*
X49403000Y-10031000D02*
X49403000Y-14099000D01*
X49363000Y-9963000D02*
X49363000Y-14167000D01*
X49323000Y-9899000D02*
X49323000Y-14231000D01*
X49283000Y-9837000D02*
X49283000Y-14293000D01*
X49243000Y-9778000D02*
X49243000Y-14352000D01*
X49203000Y-9720000D02*
X49203000Y-14410000D01*
X49163000Y-9665000D02*
X49163000Y-14465000D01*
X49123000Y-9611000D02*
X49123000Y-14519000D01*
X49083000Y-9560000D02*
X49083000Y-14570000D01*
X49043000Y-9509000D02*
X49043000Y-14621000D01*
X49003000Y-9461000D02*
X49003000Y-14669000D01*
X48963000Y-9414000D02*
X48963000Y-14716000D01*
X48923000Y-9368000D02*
X48923000Y-14762000D01*
X48883000Y-9324000D02*
X48883000Y-14806000D01*
X48843000Y-9281000D02*
X48843000Y-14849000D01*
X48803000Y-9239000D02*
X48803000Y-14891000D01*
X48763000Y-13105000D02*
X48763000Y-14932000D01*
X48763000Y-9198000D02*
X48763000Y-11025000D01*
X48723000Y-13105000D02*
X48723000Y-14972000D01*
X48723000Y-9158000D02*
X48723000Y-11025000D01*
X48683000Y-13105000D02*
X48683000Y-15010000D01*
X48683000Y-9120000D02*
X48683000Y-11025000D01*
X48643000Y-13105000D02*
X48643000Y-15048000D01*
X48643000Y-9082000D02*
X48643000Y-11025000D01*
X48603000Y-13105000D02*
X48603000Y-15084000D01*
X48603000Y-9046000D02*
X48603000Y-11025000D01*
X48563000Y-13105000D02*
X48563000Y-15120000D01*
X48563000Y-9010000D02*
X48563000Y-11025000D01*
X48523000Y-13105000D02*
X48523000Y-15155000D01*
X48523000Y-8975000D02*
X48523000Y-11025000D01*
X48483000Y-13105000D02*
X48483000Y-15189000D01*
X48483000Y-8941000D02*
X48483000Y-11025000D01*
X48443000Y-13105000D02*
X48443000Y-15221000D01*
X48443000Y-8909000D02*
X48443000Y-11025000D01*
X48403000Y-13105000D02*
X48403000Y-15254000D01*
X48403000Y-8876000D02*
X48403000Y-11025000D01*
X48363000Y-13105000D02*
X48363000Y-15285000D01*
X48363000Y-8845000D02*
X48363000Y-11025000D01*
X48323000Y-13105000D02*
X48323000Y-15315000D01*
X48323000Y-8815000D02*
X48323000Y-11025000D01*
X48283000Y-13105000D02*
X48283000Y-15345000D01*
X48283000Y-8785000D02*
X48283000Y-11025000D01*
X48243000Y-13105000D02*
X48243000Y-15374000D01*
X48243000Y-8756000D02*
X48243000Y-11025000D01*
X48203000Y-13105000D02*
X48203000Y-15403000D01*
X48203000Y-8727000D02*
X48203000Y-11025000D01*
X48163000Y-13105000D02*
X48163000Y-15430000D01*
X48163000Y-8700000D02*
X48163000Y-11025000D01*
X48123000Y-13105000D02*
X48123000Y-15457000D01*
X48123000Y-8673000D02*
X48123000Y-11025000D01*
X48083000Y-13105000D02*
X48083000Y-15483000D01*
X48083000Y-8647000D02*
X48083000Y-11025000D01*
X48043000Y-13105000D02*
X48043000Y-15509000D01*
X48043000Y-8621000D02*
X48043000Y-11025000D01*
X48003000Y-13105000D02*
X48003000Y-15534000D01*
X48003000Y-8596000D02*
X48003000Y-11025000D01*
X47963000Y-13105000D02*
X47963000Y-15558000D01*
X47963000Y-8572000D02*
X47963000Y-11025000D01*
X47923000Y-13105000D02*
X47923000Y-15582000D01*
X47923000Y-8548000D02*
X47923000Y-11025000D01*
X47883000Y-13105000D02*
X47883000Y-15605000D01*
X47883000Y-8525000D02*
X47883000Y-11025000D01*
X47843000Y-13105000D02*
X47843000Y-15627000D01*
X47843000Y-8503000D02*
X47843000Y-11025000D01*
X47803000Y-13105000D02*
X47803000Y-15649000D01*
X47803000Y-8481000D02*
X47803000Y-11025000D01*
X47763000Y-13105000D02*
X47763000Y-15671000D01*
X47763000Y-8459000D02*
X47763000Y-11025000D01*
X47723000Y-13105000D02*
X47723000Y-15692000D01*
X47723000Y-8438000D02*
X47723000Y-11025000D01*
X47683000Y-13105000D02*
X47683000Y-15712000D01*
X47683000Y-8418000D02*
X47683000Y-11025000D01*
X47643000Y-13105000D02*
X47643000Y-15731000D01*
X47643000Y-8399000D02*
X47643000Y-11025000D01*
X47603000Y-13105000D02*
X47603000Y-15751000D01*
X47603000Y-8379000D02*
X47603000Y-11025000D01*
X47563000Y-13105000D02*
X47563000Y-15769000D01*
X47563000Y-8361000D02*
X47563000Y-11025000D01*
X47523000Y-13105000D02*
X47523000Y-15787000D01*
X47523000Y-8343000D02*
X47523000Y-11025000D01*
X47483000Y-13105000D02*
X47483000Y-15805000D01*
X47483000Y-8325000D02*
X47483000Y-11025000D01*
X47443000Y-13105000D02*
X47443000Y-15822000D01*
X47443000Y-8308000D02*
X47443000Y-11025000D01*
X47403000Y-13105000D02*
X47403000Y-15839000D01*
X47403000Y-8291000D02*
X47403000Y-11025000D01*
X47363000Y-13105000D02*
X47363000Y-15855000D01*
X47363000Y-8275000D02*
X47363000Y-11025000D01*
X47323000Y-13105000D02*
X47323000Y-15870000D01*
X47323000Y-8260000D02*
X47323000Y-11025000D01*
X47283000Y-13105000D02*
X47283000Y-15886000D01*
X47283000Y-8244000D02*
X47283000Y-11025000D01*
X47243000Y-13105000D02*
X47243000Y-15900000D01*
X47243000Y-8230000D02*
X47243000Y-11025000D01*
X47203000Y-13105000D02*
X47203000Y-15915000D01*
X47203000Y-8215000D02*
X47203000Y-11025000D01*
X47163000Y-13105000D02*
X47163000Y-15928000D01*
X47163000Y-8202000D02*
X47163000Y-11025000D01*
X47123000Y-13105000D02*
X47123000Y-15942000D01*
X47123000Y-8188000D02*
X47123000Y-11025000D01*
X47083000Y-13105000D02*
X47083000Y-15954000D01*
X47083000Y-8176000D02*
X47083000Y-11025000D01*
X47043000Y-13105000D02*
X47043000Y-15967000D01*
X47043000Y-8163000D02*
X47043000Y-11025000D01*
X47003000Y-13105000D02*
X47003000Y-15979000D01*
X47003000Y-8151000D02*
X47003000Y-11025000D01*
X46963000Y-13105000D02*
X46963000Y-15990000D01*
X46963000Y-8140000D02*
X46963000Y-11025000D01*
X46923000Y-13105000D02*
X46923000Y-16001000D01*
X46923000Y-8129000D02*
X46923000Y-11025000D01*
X46883000Y-13105000D02*
X46883000Y-16012000D01*
X46883000Y-8118000D02*
X46883000Y-11025000D01*
X46843000Y-13105000D02*
X46843000Y-16022000D01*
X46843000Y-8108000D02*
X46843000Y-11025000D01*
X46803000Y-13105000D02*
X46803000Y-16032000D01*
X46803000Y-8098000D02*
X46803000Y-11025000D01*
X46763000Y-13105000D02*
X46763000Y-16041000D01*
X46763000Y-8089000D02*
X46763000Y-11025000D01*
X46723000Y-13105000D02*
X46723000Y-16050000D01*
X46723000Y-8080000D02*
X46723000Y-11025000D01*
X46683000Y-8071000D02*
X46683000Y-16059000D01*
X46643000Y-8063000D02*
X46643000Y-16067000D01*
X46603000Y-8055000D02*
X46603000Y-16075000D01*
X46563000Y-8048000D02*
X46563000Y-16082000D01*
X46522000Y-8041000D02*
X46522000Y-16089000D01*
X46482000Y-8035000D02*
X46482000Y-16095000D01*
X46442000Y-8028000D02*
X46442000Y-16102000D01*
X46402000Y-8023000D02*
X46402000Y-16107000D01*
X46362000Y-8017000D02*
X46362000Y-16113000D01*
X46322000Y-8013000D02*
X46322000Y-16117000D01*
X46282000Y-8008000D02*
X46282000Y-16122000D01*
X46242000Y-8004000D02*
X46242000Y-16126000D01*
X46202000Y-8000000D02*
X46202000Y-16130000D01*
X46162000Y-7997000D02*
X46162000Y-16133000D01*
X46122000Y-7994000D02*
X46122000Y-16136000D01*
X46082000Y-7991000D02*
X46082000Y-16139000D01*
X46042000Y-7989000D02*
X46042000Y-16141000D01*
X46002000Y-7988000D02*
X46002000Y-16142000D01*
X45962000Y-7986000D02*
X45962000Y-16144000D01*
X45922000Y-7985000D02*
X45922000Y-16145000D01*
X45882000Y-7985000D02*
X45882000Y-16145000D01*
X45842000Y-7985000D02*
X45842000Y-16145000D01*
X49962000Y-12065000D02*
G75*
G03*
X49962000Y-12065000I-4120000J0D01*
G01*
%TO.C,U5*%
X43478000Y-28771000D02*
X43478000Y-17050000D01*
X52098000Y-28771000D02*
X52098000Y-17050000D01*
X43478000Y-28771000D02*
X52098000Y-28771000D01*
X43478000Y-17050000D02*
X52098000Y-17050000D01*
X51098000Y-29011000D02*
X52338000Y-29011000D01*
X52338000Y-29011000D02*
X52338000Y-27771000D01*
%TO.C,J2*%
X6249000Y-30889000D02*
X-2751000Y-30889000D01*
X-2751000Y-30889000D02*
X-2751000Y-21689000D01*
X-2751000Y-21689000D02*
X11849000Y-21689000D01*
X11849000Y-21689000D02*
X11849000Y-24489000D01*
X11849000Y-28089000D02*
X11849000Y-30889000D01*
X11849000Y-30889000D02*
X9849000Y-30889000D01*
X10349000Y-21449000D02*
X12089000Y-21449000D01*
X12089000Y-21449000D02*
X12089000Y-23189000D01*
%TO.C,C1*%
X12145000Y-14859000D02*
G75*
G03*
X12145000Y-14859000I-5120000J0D01*
G01*
X7025000Y-19939000D02*
X7025000Y-9779000D01*
X6985000Y-19939000D02*
X6985000Y-9779000D01*
X6945000Y-19939000D02*
X6945000Y-9779000D01*
X6905000Y-19938000D02*
X6905000Y-9780000D01*
X6865000Y-19937000D02*
X6865000Y-9781000D01*
X6825000Y-19936000D02*
X6825000Y-9782000D01*
X6785000Y-19934000D02*
X6785000Y-9784000D01*
X6745000Y-19932000D02*
X6745000Y-9786000D01*
X6705000Y-19929000D02*
X6705000Y-9789000D01*
X6665000Y-19927000D02*
X6665000Y-9791000D01*
X6625000Y-19924000D02*
X6625000Y-9794000D01*
X6585000Y-19921000D02*
X6585000Y-9797000D01*
X6545000Y-19917000D02*
X6545000Y-9801000D01*
X6505000Y-19913000D02*
X6505000Y-9805000D01*
X6465000Y-19909000D02*
X6465000Y-9809000D01*
X6425000Y-19904000D02*
X6425000Y-9814000D01*
X6385000Y-19899000D02*
X6385000Y-9819000D01*
X6345000Y-19894000D02*
X6345000Y-9824000D01*
X6304000Y-19889000D02*
X6304000Y-9829000D01*
X6264000Y-19883000D02*
X6264000Y-9835000D01*
X6224000Y-19877000D02*
X6224000Y-9841000D01*
X6184000Y-19870000D02*
X6184000Y-9848000D01*
X6144000Y-19863000D02*
X6144000Y-9855000D01*
X6104000Y-19856000D02*
X6104000Y-9862000D01*
X6064000Y-19849000D02*
X6064000Y-9869000D01*
X6024000Y-19841000D02*
X6024000Y-9877000D01*
X5984000Y-19833000D02*
X5984000Y-9885000D01*
X5944000Y-19824000D02*
X5944000Y-9894000D01*
X5904000Y-19815000D02*
X5904000Y-9903000D01*
X5864000Y-19806000D02*
X5864000Y-9912000D01*
X5824000Y-19797000D02*
X5824000Y-9921000D01*
X5784000Y-19787000D02*
X5784000Y-9931000D01*
X5744000Y-19777000D02*
X5744000Y-16100000D01*
X5744000Y-13618000D02*
X5744000Y-9941000D01*
X5704000Y-19766000D02*
X5704000Y-16100000D01*
X5704000Y-13618000D02*
X5704000Y-9952000D01*
X5664000Y-19756000D02*
X5664000Y-16100000D01*
X5664000Y-13618000D02*
X5664000Y-9962000D01*
X5624000Y-19744000D02*
X5624000Y-16100000D01*
X5624000Y-13618000D02*
X5624000Y-9974000D01*
X5584000Y-19733000D02*
X5584000Y-16100000D01*
X5584000Y-13618000D02*
X5584000Y-9985000D01*
X5544000Y-19721000D02*
X5544000Y-16100000D01*
X5544000Y-13618000D02*
X5544000Y-9997000D01*
X5504000Y-19709000D02*
X5504000Y-16100000D01*
X5504000Y-13618000D02*
X5504000Y-10009000D01*
X5464000Y-19696000D02*
X5464000Y-16100000D01*
X5464000Y-13618000D02*
X5464000Y-10022000D01*
X5424000Y-19683000D02*
X5424000Y-16100000D01*
X5424000Y-13618000D02*
X5424000Y-10035000D01*
X5384000Y-19670000D02*
X5384000Y-16100000D01*
X5384000Y-13618000D02*
X5384000Y-10048000D01*
X5344000Y-19656000D02*
X5344000Y-16100000D01*
X5344000Y-13618000D02*
X5344000Y-10062000D01*
X5304000Y-19642000D02*
X5304000Y-16100000D01*
X5304000Y-13618000D02*
X5304000Y-10076000D01*
X5264000Y-19627000D02*
X5264000Y-16100000D01*
X5264000Y-13618000D02*
X5264000Y-10091000D01*
X5224000Y-19613000D02*
X5224000Y-16100000D01*
X5224000Y-13618000D02*
X5224000Y-10105000D01*
X5184000Y-19597000D02*
X5184000Y-16100000D01*
X5184000Y-13618000D02*
X5184000Y-10121000D01*
X5144000Y-19582000D02*
X5144000Y-16100000D01*
X5144000Y-13618000D02*
X5144000Y-10136000D01*
X5104000Y-19566000D02*
X5104000Y-16100000D01*
X5104000Y-13618000D02*
X5104000Y-10152000D01*
X5064000Y-19549000D02*
X5064000Y-16100000D01*
X5064000Y-13618000D02*
X5064000Y-10169000D01*
X5024000Y-19533000D02*
X5024000Y-16100000D01*
X5024000Y-13618000D02*
X5024000Y-10185000D01*
X4984000Y-19516000D02*
X4984000Y-16100000D01*
X4984000Y-13618000D02*
X4984000Y-10202000D01*
X4944000Y-19498000D02*
X4944000Y-16100000D01*
X4944000Y-13618000D02*
X4944000Y-10220000D01*
X4904000Y-19480000D02*
X4904000Y-16100000D01*
X4904000Y-13618000D02*
X4904000Y-10238000D01*
X4864000Y-19462000D02*
X4864000Y-16100000D01*
X4864000Y-13618000D02*
X4864000Y-10256000D01*
X4824000Y-19443000D02*
X4824000Y-16100000D01*
X4824000Y-13618000D02*
X4824000Y-10275000D01*
X4784000Y-19423000D02*
X4784000Y-16100000D01*
X4784000Y-13618000D02*
X4784000Y-10295000D01*
X4744000Y-19404000D02*
X4744000Y-16100000D01*
X4744000Y-13618000D02*
X4744000Y-10314000D01*
X4704000Y-19384000D02*
X4704000Y-16100000D01*
X4704000Y-13618000D02*
X4704000Y-10334000D01*
X4664000Y-19363000D02*
X4664000Y-16100000D01*
X4664000Y-13618000D02*
X4664000Y-10355000D01*
X4624000Y-19342000D02*
X4624000Y-16100000D01*
X4624000Y-13618000D02*
X4624000Y-10376000D01*
X4584000Y-19321000D02*
X4584000Y-16100000D01*
X4584000Y-13618000D02*
X4584000Y-10397000D01*
X4544000Y-19299000D02*
X4544000Y-16100000D01*
X4544000Y-13618000D02*
X4544000Y-10419000D01*
X4504000Y-19276000D02*
X4504000Y-16100000D01*
X4504000Y-13618000D02*
X4504000Y-10442000D01*
X4464000Y-19254000D02*
X4464000Y-16100000D01*
X4464000Y-13618000D02*
X4464000Y-10464000D01*
X4424000Y-19230000D02*
X4424000Y-16100000D01*
X4424000Y-13618000D02*
X4424000Y-10488000D01*
X4384000Y-19206000D02*
X4384000Y-16100000D01*
X4384000Y-13618000D02*
X4384000Y-10512000D01*
X4344000Y-19182000D02*
X4344000Y-16100000D01*
X4344000Y-13618000D02*
X4344000Y-10536000D01*
X4304000Y-19157000D02*
X4304000Y-16100000D01*
X4304000Y-13618000D02*
X4304000Y-10561000D01*
X4264000Y-19132000D02*
X4264000Y-16100000D01*
X4264000Y-13618000D02*
X4264000Y-10586000D01*
X4224000Y-19106000D02*
X4224000Y-16100000D01*
X4224000Y-13618000D02*
X4224000Y-10612000D01*
X4184000Y-19080000D02*
X4184000Y-16100000D01*
X4184000Y-13618000D02*
X4184000Y-10638000D01*
X4144000Y-19053000D02*
X4144000Y-16100000D01*
X4144000Y-13618000D02*
X4144000Y-10665000D01*
X4104000Y-19025000D02*
X4104000Y-16100000D01*
X4104000Y-13618000D02*
X4104000Y-10693000D01*
X4064000Y-18997000D02*
X4064000Y-16100000D01*
X4064000Y-13618000D02*
X4064000Y-10721000D01*
X4024000Y-18969000D02*
X4024000Y-16100000D01*
X4024000Y-13618000D02*
X4024000Y-10749000D01*
X3984000Y-18939000D02*
X3984000Y-16100000D01*
X3984000Y-13618000D02*
X3984000Y-10779000D01*
X3944000Y-18909000D02*
X3944000Y-16100000D01*
X3944000Y-13618000D02*
X3944000Y-10809000D01*
X3904000Y-18879000D02*
X3904000Y-16100000D01*
X3904000Y-13618000D02*
X3904000Y-10839000D01*
X3864000Y-18848000D02*
X3864000Y-16100000D01*
X3864000Y-13618000D02*
X3864000Y-10870000D01*
X3824000Y-18816000D02*
X3824000Y-16100000D01*
X3824000Y-13618000D02*
X3824000Y-10902000D01*
X3784000Y-18784000D02*
X3784000Y-16100000D01*
X3784000Y-13618000D02*
X3784000Y-10934000D01*
X3744000Y-18751000D02*
X3744000Y-16100000D01*
X3744000Y-13618000D02*
X3744000Y-10967000D01*
X3704000Y-18717000D02*
X3704000Y-16100000D01*
X3704000Y-13618000D02*
X3704000Y-11001000D01*
X3664000Y-18683000D02*
X3664000Y-16100000D01*
X3664000Y-13618000D02*
X3664000Y-11035000D01*
X3624000Y-18648000D02*
X3624000Y-16100000D01*
X3624000Y-13618000D02*
X3624000Y-11070000D01*
X3584000Y-18612000D02*
X3584000Y-16100000D01*
X3584000Y-13618000D02*
X3584000Y-11106000D01*
X3544000Y-18575000D02*
X3544000Y-16100000D01*
X3544000Y-13618000D02*
X3544000Y-11143000D01*
X3504000Y-18538000D02*
X3504000Y-16100000D01*
X3504000Y-13618000D02*
X3504000Y-11180000D01*
X3464000Y-18499000D02*
X3464000Y-16100000D01*
X3464000Y-13618000D02*
X3464000Y-11219000D01*
X3424000Y-18460000D02*
X3424000Y-16100000D01*
X3424000Y-13618000D02*
X3424000Y-11258000D01*
X3384000Y-18420000D02*
X3384000Y-16100000D01*
X3384000Y-13618000D02*
X3384000Y-11298000D01*
X3344000Y-18379000D02*
X3344000Y-16100000D01*
X3344000Y-13618000D02*
X3344000Y-11339000D01*
X3304000Y-18337000D02*
X3304000Y-16100000D01*
X3304000Y-13618000D02*
X3304000Y-11381000D01*
X3264000Y-18295000D02*
X3264000Y-11423000D01*
X3224000Y-18251000D02*
X3224000Y-11467000D01*
X3184000Y-18206000D02*
X3184000Y-11512000D01*
X3144000Y-18160000D02*
X3144000Y-11558000D01*
X3104000Y-18113000D02*
X3104000Y-11605000D01*
X3064000Y-18065000D02*
X3064000Y-11653000D01*
X3024000Y-18015000D02*
X3024000Y-11703000D01*
X2984000Y-17965000D02*
X2984000Y-11753000D01*
X2944000Y-17913000D02*
X2944000Y-11805000D01*
X2904000Y-17859000D02*
X2904000Y-11859000D01*
X2864000Y-17804000D02*
X2864000Y-11914000D01*
X2824000Y-17748000D02*
X2824000Y-11970000D01*
X2784000Y-17689000D02*
X2784000Y-12029000D01*
X2744000Y-17629000D02*
X2744000Y-12089000D01*
X2704000Y-17568000D02*
X2704000Y-12150000D01*
X2664000Y-17504000D02*
X2664000Y-12214000D01*
X2624000Y-17438000D02*
X2624000Y-12280000D01*
X2584000Y-17369000D02*
X2584000Y-12349000D01*
X2544000Y-17298000D02*
X2544000Y-12420000D01*
X2504000Y-17224000D02*
X2504000Y-12494000D01*
X2464000Y-17148000D02*
X2464000Y-12570000D01*
X2424000Y-17068000D02*
X2424000Y-12650000D01*
X2384000Y-16984000D02*
X2384000Y-12734000D01*
X2344000Y-16896000D02*
X2344000Y-12822000D01*
X2304000Y-16803000D02*
X2304000Y-12915000D01*
X2264000Y-16705000D02*
X2264000Y-13013000D01*
X2224000Y-16601000D02*
X2224000Y-13117000D01*
X2184000Y-16489000D02*
X2184000Y-13229000D01*
X2144000Y-16369000D02*
X2144000Y-13349000D01*
X2104000Y-16237000D02*
X2104000Y-13481000D01*
X2064000Y-16089000D02*
X2064000Y-13629000D01*
X2024000Y-15921000D02*
X2024000Y-13797000D01*
X1984000Y-15721000D02*
X1984000Y-13997000D01*
X1944000Y-15458000D02*
X1944000Y-14260000D01*
X12504646Y-17734000D02*
X11504646Y-17734000D01*
X12004646Y-18234000D02*
X12004646Y-17234000D01*
%TO.C,J1*%
X17710000Y-73280000D02*
X38030000Y-73280000D01*
X17710000Y-65660000D02*
X38030000Y-65660000D01*
X38030000Y-72010000D02*
X17710000Y-72010000D01*
X38030000Y-73280000D02*
X38030000Y-65660000D01*
X17710000Y-65660000D02*
X17710000Y-73280000D01*
%TO.C,Q1*%
X15977000Y-54031000D02*
X12377000Y-54031000D01*
X16015478Y-54042522D02*
G75*
G02*
X14177000Y-58481000I-1838478J-1838478D01*
G01*
X12338522Y-54042522D02*
G75*
G03*
X14177000Y-58481000I1838478J-1838478D01*
G01*
%TO.C,Q2*%
X38887000Y-59636000D02*
X42487000Y-59636000D01*
X42525478Y-59624478D02*
G75*
G03*
X40687000Y-55186000I-1838478J1838478D01*
G01*
X38848522Y-59624478D02*
G75*
G02*
X40687000Y-55186000I1838478J1838478D01*
G01*
%TO.C,Q3*%
X15836000Y-30205000D02*
X15836000Y-33805000D01*
X15847522Y-30166522D02*
G75*
G02*
X20286000Y-32005000I1838478J-1838478D01*
G01*
X15847522Y-33843478D02*
G75*
G03*
X20286000Y-32005000I1838478J1838478D01*
G01*
%TO.C,R1*%
X19055225Y-37510620D02*
G75*
G02*
X18946728Y-39282000I1344775J-971380D01*
G01*
%TO.C,R2*%
X13028775Y-62059380D02*
G75*
G02*
X13137272Y-60288000I-1344775J971380D01*
G01*
%TO.C,R3*%
X14005380Y-37264225D02*
G75*
G02*
X12234000Y-37155728I-971380J-1344775D01*
G01*
%TO.C,R4*%
X21341225Y-55036620D02*
G75*
G02*
X21232728Y-56808000I1344775J-971380D01*
G01*
%TO.C,R5*%
X45468380Y-31549225D02*
G75*
G02*
X43697000Y-31440728I-971380J-1344775D01*
G01*
%TO.C,R6*%
X6990225Y-54655620D02*
G75*
G02*
X6881728Y-56427000I1344775J-971380D01*
G01*
%TO.C,R7*%
X46581225Y-54655620D02*
G75*
G02*
X46472728Y-56427000I1344775J-971380D01*
G01*
%TO.C,R8*%
X5204620Y-38302775D02*
G75*
G02*
X6976000Y-38411272I971380J1344775D01*
G01*
%TO.C,R9*%
X43525620Y-38810775D02*
G75*
G02*
X45297000Y-38919272I971380J1344775D01*
G01*
%TO.C,R10*%
X37683620Y-34873775D02*
G75*
G02*
X39455000Y-34982272I971380J1344775D01*
G01*
%TO.C,U1*%
X17534000Y-20618000D02*
X17534000Y-27518000D01*
X14994000Y-20618000D02*
X17534000Y-20618000D01*
D15*
G36*
X13954000Y-763000D02*
G01*
X13954000Y-2033000D01*
X14589000Y-1398000D01*
X13954000Y-763000D01*
G37*
X13954000Y-763000D02*
X13954000Y-2033000D01*
X14589000Y-1398000D01*
X13954000Y-763000D01*
D10*
X38734000Y6942000D02*
X17124000Y6942000D01*
X40854000Y-27518000D02*
X40854000Y4812000D01*
X14994000Y-20618000D02*
X14994000Y4812000D01*
X17534000Y-27518000D02*
X40854000Y-27518000D01*
X14994000Y4812000D02*
G75*
G02*
X17124000Y6942000I2130000J0D01*
G01*
X38724000Y6942000D02*
G75*
G02*
X40854000Y4812000I0J-2130000D01*
G01*
%TO.C,U2*%
X22556000Y-49514000D02*
X22556000Y-47864000D01*
X14816000Y-49514000D02*
X22556000Y-49514000D01*
X14816000Y-44214000D02*
X14816000Y-49514000D01*
X22556000Y-44214000D02*
X14816000Y-44214000D01*
X22556000Y-45864000D02*
X22556000Y-44214000D01*
X22556000Y-47864000D02*
G75*
G02*
X22556000Y-45864000I0J1000000D01*
G01*
%TO.C,U3*%
X2846000Y-44214000D02*
X2846000Y-45864000D01*
X10586000Y-44214000D02*
X2846000Y-44214000D01*
X10586000Y-49514000D02*
X10586000Y-44214000D01*
X2846000Y-49514000D02*
X10586000Y-49514000D01*
X2846000Y-47864000D02*
X2846000Y-49514000D01*
X2846000Y-45864000D02*
G75*
G02*
X2846000Y-47864000I0J-1000000D01*
G01*
%TO.C,U4*%
X43167000Y-47864000D02*
X43167000Y-49514000D01*
X43167000Y-49514000D02*
X50907000Y-49514000D01*
X50907000Y-49514000D02*
X50907000Y-44214000D01*
X50907000Y-44214000D02*
X43167000Y-44214000D01*
X43167000Y-44214000D02*
X43167000Y-45864000D01*
X43167000Y-45864000D02*
G75*
G02*
X43167000Y-47864000I0J-1000000D01*
G01*
%TO.C,C2*%
D15*
X45675333Y-7172142D02*
X45627714Y-7219761D01*
X45484857Y-7267380D01*
X45389619Y-7267380D01*
X45246761Y-7219761D01*
X45151523Y-7124523D01*
X45103904Y-7029285D01*
X45056285Y-6838809D01*
X45056285Y-6695952D01*
X45103904Y-6505476D01*
X45151523Y-6410238D01*
X45246761Y-6315000D01*
X45389619Y-6267380D01*
X45484857Y-6267380D01*
X45627714Y-6315000D01*
X45675333Y-6362619D01*
X46056285Y-6362619D02*
X46103904Y-6315000D01*
X46199142Y-6267380D01*
X46437238Y-6267380D01*
X46532476Y-6315000D01*
X46580095Y-6362619D01*
X46627714Y-6457857D01*
X46627714Y-6553095D01*
X46580095Y-6695952D01*
X46008666Y-7267380D01*
X46627714Y-7267380D01*
%TO.C,U5*%
X41930380Y-23621904D02*
X42739904Y-23621904D01*
X42835142Y-23574285D01*
X42882761Y-23526666D01*
X42930380Y-23431428D01*
X42930380Y-23240952D01*
X42882761Y-23145714D01*
X42835142Y-23098095D01*
X42739904Y-23050476D01*
X41930380Y-23050476D01*
X41930380Y-22098095D02*
X41930380Y-22574285D01*
X42406571Y-22621904D01*
X42358952Y-22574285D01*
X42311333Y-22479047D01*
X42311333Y-22240952D01*
X42358952Y-22145714D01*
X42406571Y-22098095D01*
X42501809Y-22050476D01*
X42739904Y-22050476D01*
X42835142Y-22098095D01*
X42882761Y-22145714D01*
X42930380Y-22240952D01*
X42930380Y-22479047D01*
X42882761Y-22574285D01*
X42835142Y-22621904D01*
%TO.C,J2*%
X2265666Y-31491380D02*
X2265666Y-32205666D01*
X2218047Y-32348523D01*
X2122809Y-32443761D01*
X1979952Y-32491380D01*
X1884714Y-32491380D01*
X2694238Y-31586619D02*
X2741857Y-31539000D01*
X2837095Y-31491380D01*
X3075190Y-31491380D01*
X3170428Y-31539000D01*
X3218047Y-31586619D01*
X3265666Y-31681857D01*
X3265666Y-31777095D01*
X3218047Y-31919952D01*
X2646619Y-32491380D01*
X3265666Y-32491380D01*
%TO.C,C1*%
X1738333Y-19407142D02*
X1690714Y-19454761D01*
X1547857Y-19502380D01*
X1452619Y-19502380D01*
X1309761Y-19454761D01*
X1214523Y-19359523D01*
X1166904Y-19264285D01*
X1119285Y-19073809D01*
X1119285Y-18930952D01*
X1166904Y-18740476D01*
X1214523Y-18645238D01*
X1309761Y-18550000D01*
X1452619Y-18502380D01*
X1547857Y-18502380D01*
X1690714Y-18550000D01*
X1738333Y-18597619D01*
X2690714Y-19502380D02*
X2119285Y-19502380D01*
X2405000Y-19502380D02*
X2405000Y-18502380D01*
X2309761Y-18645238D01*
X2214523Y-18740476D01*
X2119285Y-18788095D01*
%TO.C,J1*%
X15922666Y-70953380D02*
X15922666Y-71667666D01*
X15875047Y-71810523D01*
X15779809Y-71905761D01*
X15636952Y-71953380D01*
X15541714Y-71953380D01*
X16922666Y-71953380D02*
X16351238Y-71953380D01*
X16636952Y-71953380D02*
X16636952Y-70953380D01*
X16541714Y-71096238D01*
X16446476Y-71191476D01*
X16351238Y-71239095D01*
%TO.C,Q1*%
X16541761Y-59729619D02*
X16446523Y-59682000D01*
X16351285Y-59586761D01*
X16208428Y-59443904D01*
X16113190Y-59396285D01*
X16017952Y-59396285D01*
X16065571Y-59634380D02*
X15970333Y-59586761D01*
X15875095Y-59491523D01*
X15827476Y-59301047D01*
X15827476Y-58967714D01*
X15875095Y-58777238D01*
X15970333Y-58682000D01*
X16065571Y-58634380D01*
X16256047Y-58634380D01*
X16351285Y-58682000D01*
X16446523Y-58777238D01*
X16494142Y-58967714D01*
X16494142Y-59301047D01*
X16446523Y-59491523D01*
X16351285Y-59586761D01*
X16256047Y-59634380D01*
X16065571Y-59634380D01*
X17446523Y-59634380D02*
X16875095Y-59634380D01*
X17160809Y-59634380D02*
X17160809Y-58634380D01*
X17065571Y-58777238D01*
X16970333Y-58872476D01*
X16875095Y-58920095D01*
%TO.C,Q2*%
X40591761Y-54773619D02*
X40496523Y-54726000D01*
X40401285Y-54630761D01*
X40258428Y-54487904D01*
X40163190Y-54440285D01*
X40067952Y-54440285D01*
X40115571Y-54678380D02*
X40020333Y-54630761D01*
X39925095Y-54535523D01*
X39877476Y-54345047D01*
X39877476Y-54011714D01*
X39925095Y-53821238D01*
X40020333Y-53726000D01*
X40115571Y-53678380D01*
X40306047Y-53678380D01*
X40401285Y-53726000D01*
X40496523Y-53821238D01*
X40544142Y-54011714D01*
X40544142Y-54345047D01*
X40496523Y-54535523D01*
X40401285Y-54630761D01*
X40306047Y-54678380D01*
X40115571Y-54678380D01*
X40925095Y-53773619D02*
X40972714Y-53726000D01*
X41067952Y-53678380D01*
X41306047Y-53678380D01*
X41401285Y-53726000D01*
X41448904Y-53773619D01*
X41496523Y-53868857D01*
X41496523Y-53964095D01*
X41448904Y-54106952D01*
X40877476Y-54678380D01*
X41496523Y-54678380D01*
%TO.C,Q3*%
X21748761Y-32424619D02*
X21653523Y-32377000D01*
X21558285Y-32281761D01*
X21415428Y-32138904D01*
X21320190Y-32091285D01*
X21224952Y-32091285D01*
X21272571Y-32329380D02*
X21177333Y-32281761D01*
X21082095Y-32186523D01*
X21034476Y-31996047D01*
X21034476Y-31662714D01*
X21082095Y-31472238D01*
X21177333Y-31377000D01*
X21272571Y-31329380D01*
X21463047Y-31329380D01*
X21558285Y-31377000D01*
X21653523Y-31472238D01*
X21701142Y-31662714D01*
X21701142Y-31996047D01*
X21653523Y-32186523D01*
X21558285Y-32281761D01*
X21463047Y-32329380D01*
X21272571Y-32329380D01*
X22034476Y-31329380D02*
X22653523Y-31329380D01*
X22320190Y-31710333D01*
X22463047Y-31710333D01*
X22558285Y-31757952D01*
X22605904Y-31805571D01*
X22653523Y-31900809D01*
X22653523Y-32138904D01*
X22605904Y-32234142D01*
X22558285Y-32281761D01*
X22463047Y-32329380D01*
X22177333Y-32329380D01*
X22082095Y-32281761D01*
X22034476Y-32234142D01*
%TO.C,R1*%
X23328333Y-38806380D02*
X22995000Y-38330190D01*
X22756904Y-38806380D02*
X22756904Y-37806380D01*
X23137857Y-37806380D01*
X23233095Y-37854000D01*
X23280714Y-37901619D01*
X23328333Y-37996857D01*
X23328333Y-38139714D01*
X23280714Y-38234952D01*
X23233095Y-38282571D01*
X23137857Y-38330190D01*
X22756904Y-38330190D01*
X24280714Y-38806380D02*
X23709285Y-38806380D01*
X23995000Y-38806380D02*
X23995000Y-37806380D01*
X23899761Y-37949238D01*
X23804523Y-38044476D01*
X23709285Y-38092095D01*
%TO.C,R2*%
X8469333Y-60397380D02*
X8136000Y-59921190D01*
X7897904Y-60397380D02*
X7897904Y-59397380D01*
X8278857Y-59397380D01*
X8374095Y-59445000D01*
X8421714Y-59492619D01*
X8469333Y-59587857D01*
X8469333Y-59730714D01*
X8421714Y-59825952D01*
X8374095Y-59873571D01*
X8278857Y-59921190D01*
X7897904Y-59921190D01*
X8850285Y-59492619D02*
X8897904Y-59445000D01*
X8993142Y-59397380D01*
X9231238Y-59397380D01*
X9326476Y-59445000D01*
X9374095Y-59492619D01*
X9421714Y-59587857D01*
X9421714Y-59683095D01*
X9374095Y-59825952D01*
X8802666Y-60397380D01*
X9421714Y-60397380D01*
%TO.C,R3*%
X12787333Y-41727380D02*
X12454000Y-41251190D01*
X12215904Y-41727380D02*
X12215904Y-40727380D01*
X12596857Y-40727380D01*
X12692095Y-40775000D01*
X12739714Y-40822619D01*
X12787333Y-40917857D01*
X12787333Y-41060714D01*
X12739714Y-41155952D01*
X12692095Y-41203571D01*
X12596857Y-41251190D01*
X12215904Y-41251190D01*
X13120666Y-40727380D02*
X13739714Y-40727380D01*
X13406380Y-41108333D01*
X13549238Y-41108333D01*
X13644476Y-41155952D01*
X13692095Y-41203571D01*
X13739714Y-41298809D01*
X13739714Y-41536904D01*
X13692095Y-41632142D01*
X13644476Y-41679761D01*
X13549238Y-41727380D01*
X13263523Y-41727380D01*
X13168285Y-41679761D01*
X13120666Y-41632142D01*
%TO.C,R4*%
X21249333Y-59180380D02*
X20916000Y-58704190D01*
X20677904Y-59180380D02*
X20677904Y-58180380D01*
X21058857Y-58180380D01*
X21154095Y-58228000D01*
X21201714Y-58275619D01*
X21249333Y-58370857D01*
X21249333Y-58513714D01*
X21201714Y-58608952D01*
X21154095Y-58656571D01*
X21058857Y-58704190D01*
X20677904Y-58704190D01*
X22106476Y-58513714D02*
X22106476Y-59180380D01*
X21868380Y-58132761D02*
X21630285Y-58847047D01*
X22249333Y-58847047D01*
%TO.C,R5*%
X47331333Y-34488380D02*
X46998000Y-34012190D01*
X46759904Y-34488380D02*
X46759904Y-33488380D01*
X47140857Y-33488380D01*
X47236095Y-33536000D01*
X47283714Y-33583619D01*
X47331333Y-33678857D01*
X47331333Y-33821714D01*
X47283714Y-33916952D01*
X47236095Y-33964571D01*
X47140857Y-34012190D01*
X46759904Y-34012190D01*
X48236095Y-33488380D02*
X47759904Y-33488380D01*
X47712285Y-33964571D01*
X47759904Y-33916952D01*
X47855142Y-33869333D01*
X48093238Y-33869333D01*
X48188476Y-33916952D01*
X48236095Y-33964571D01*
X48283714Y-34059809D01*
X48283714Y-34297904D01*
X48236095Y-34393142D01*
X48188476Y-34440761D01*
X48093238Y-34488380D01*
X47855142Y-34488380D01*
X47759904Y-34440761D01*
X47712285Y-34393142D01*
%TO.C,R6*%
X3469333Y-54936380D02*
X3136000Y-54460190D01*
X2897904Y-54936380D02*
X2897904Y-53936380D01*
X3278857Y-53936380D01*
X3374095Y-53984000D01*
X3421714Y-54031619D01*
X3469333Y-54126857D01*
X3469333Y-54269714D01*
X3421714Y-54364952D01*
X3374095Y-54412571D01*
X3278857Y-54460190D01*
X2897904Y-54460190D01*
X4326476Y-53936380D02*
X4136000Y-53936380D01*
X4040761Y-53984000D01*
X3993142Y-54031619D01*
X3897904Y-54174476D01*
X3850285Y-54364952D01*
X3850285Y-54745904D01*
X3897904Y-54841142D01*
X3945523Y-54888761D01*
X4040761Y-54936380D01*
X4231238Y-54936380D01*
X4326476Y-54888761D01*
X4374095Y-54841142D01*
X4421714Y-54745904D01*
X4421714Y-54507809D01*
X4374095Y-54412571D01*
X4326476Y-54364952D01*
X4231238Y-54317333D01*
X4040761Y-54317333D01*
X3945523Y-54364952D01*
X3897904Y-54412571D01*
X3850285Y-54507809D01*
%TO.C,R7*%
X46489333Y-58799380D02*
X46156000Y-58323190D01*
X45917904Y-58799380D02*
X45917904Y-57799380D01*
X46298857Y-57799380D01*
X46394095Y-57847000D01*
X46441714Y-57894619D01*
X46489333Y-57989857D01*
X46489333Y-58132714D01*
X46441714Y-58227952D01*
X46394095Y-58275571D01*
X46298857Y-58323190D01*
X45917904Y-58323190D01*
X46822666Y-57799380D02*
X47489333Y-57799380D01*
X47060761Y-58799380D01*
%TO.C,R8*%
X6056333Y-34742380D02*
X5723000Y-34266190D01*
X5484904Y-34742380D02*
X5484904Y-33742380D01*
X5865857Y-33742380D01*
X5961095Y-33790000D01*
X6008714Y-33837619D01*
X6056333Y-33932857D01*
X6056333Y-34075714D01*
X6008714Y-34170952D01*
X5961095Y-34218571D01*
X5865857Y-34266190D01*
X5484904Y-34266190D01*
X6627761Y-34170952D02*
X6532523Y-34123333D01*
X6484904Y-34075714D01*
X6437285Y-33980476D01*
X6437285Y-33932857D01*
X6484904Y-33837619D01*
X6532523Y-33790000D01*
X6627761Y-33742380D01*
X6818238Y-33742380D01*
X6913476Y-33790000D01*
X6961095Y-33837619D01*
X7008714Y-33932857D01*
X7008714Y-33980476D01*
X6961095Y-34075714D01*
X6913476Y-34123333D01*
X6818238Y-34170952D01*
X6627761Y-34170952D01*
X6532523Y-34218571D01*
X6484904Y-34266190D01*
X6437285Y-34361428D01*
X6437285Y-34551904D01*
X6484904Y-34647142D01*
X6532523Y-34694761D01*
X6627761Y-34742380D01*
X6818238Y-34742380D01*
X6913476Y-34694761D01*
X6961095Y-34647142D01*
X7008714Y-34551904D01*
X7008714Y-34361428D01*
X6961095Y-34266190D01*
X6913476Y-34218571D01*
X6818238Y-34170952D01*
%TO.C,R9*%
X47458333Y-37155380D02*
X47125000Y-36679190D01*
X46886904Y-37155380D02*
X46886904Y-36155380D01*
X47267857Y-36155380D01*
X47363095Y-36203000D01*
X47410714Y-36250619D01*
X47458333Y-36345857D01*
X47458333Y-36488714D01*
X47410714Y-36583952D01*
X47363095Y-36631571D01*
X47267857Y-36679190D01*
X46886904Y-36679190D01*
X47934523Y-37155380D02*
X48125000Y-37155380D01*
X48220238Y-37107761D01*
X48267857Y-37060142D01*
X48363095Y-36917285D01*
X48410714Y-36726809D01*
X48410714Y-36345857D01*
X48363095Y-36250619D01*
X48315476Y-36203000D01*
X48220238Y-36155380D01*
X48029761Y-36155380D01*
X47934523Y-36203000D01*
X47886904Y-36250619D01*
X47839285Y-36345857D01*
X47839285Y-36583952D01*
X47886904Y-36679190D01*
X47934523Y-36726809D01*
X48029761Y-36774428D01*
X48220238Y-36774428D01*
X48315476Y-36726809D01*
X48363095Y-36679190D01*
X48410714Y-36583952D01*
%TO.C,R10*%
X37965142Y-38425380D02*
X37631809Y-37949190D01*
X37393714Y-38425380D02*
X37393714Y-37425380D01*
X37774666Y-37425380D01*
X37869904Y-37473000D01*
X37917523Y-37520619D01*
X37965142Y-37615857D01*
X37965142Y-37758714D01*
X37917523Y-37853952D01*
X37869904Y-37901571D01*
X37774666Y-37949190D01*
X37393714Y-37949190D01*
X38917523Y-38425380D02*
X38346095Y-38425380D01*
X38631809Y-38425380D02*
X38631809Y-37425380D01*
X38536571Y-37568238D01*
X38441333Y-37663476D01*
X38346095Y-37711095D01*
X39536571Y-37425380D02*
X39631809Y-37425380D01*
X39727047Y-37473000D01*
X39774666Y-37520619D01*
X39822285Y-37615857D01*
X39869904Y-37806333D01*
X39869904Y-38044428D01*
X39822285Y-38234904D01*
X39774666Y-38330142D01*
X39727047Y-38377761D01*
X39631809Y-38425380D01*
X39536571Y-38425380D01*
X39441333Y-38377761D01*
X39393714Y-38330142D01*
X39346095Y-38234904D01*
X39298476Y-38044428D01*
X39298476Y-37806333D01*
X39346095Y-37615857D01*
X39393714Y-37520619D01*
X39441333Y-37473000D01*
X39536571Y-37425380D01*
%TO.C,U1*%
X11176095Y-849380D02*
X11176095Y-1658904D01*
X11223714Y-1754142D01*
X11271333Y-1801761D01*
X11366571Y-1849380D01*
X11557047Y-1849380D01*
X11652285Y-1801761D01*
X11699904Y-1754142D01*
X11747523Y-1658904D01*
X11747523Y-849380D01*
X12747523Y-1849380D02*
X12176095Y-1849380D01*
X12461809Y-1849380D02*
X12461809Y-849380D01*
X12366571Y-992238D01*
X12271333Y-1087476D01*
X12176095Y-1135095D01*
X22574952Y-850380D02*
X22813047Y-1850380D01*
X23003523Y-1136095D01*
X23194000Y-1850380D01*
X23432095Y-850380D01*
X24194000Y-1802761D02*
X24098761Y-1850380D01*
X23908285Y-1850380D01*
X23813047Y-1802761D01*
X23765428Y-1707523D01*
X23765428Y-1326571D01*
X23813047Y-1231333D01*
X23908285Y-1183714D01*
X24098761Y-1183714D01*
X24194000Y-1231333D01*
X24241619Y-1326571D01*
X24241619Y-1421809D01*
X23765428Y-1517047D01*
X24670190Y-1850380D02*
X24670190Y-850380D01*
X25003523Y-1564666D01*
X25336857Y-850380D01*
X25336857Y-1850380D01*
X25955904Y-1850380D02*
X25860666Y-1802761D01*
X25813047Y-1755142D01*
X25765428Y-1659904D01*
X25765428Y-1374190D01*
X25813047Y-1278952D01*
X25860666Y-1231333D01*
X25955904Y-1183714D01*
X26098761Y-1183714D01*
X26194000Y-1231333D01*
X26241619Y-1278952D01*
X26289238Y-1374190D01*
X26289238Y-1659904D01*
X26241619Y-1755142D01*
X26194000Y-1802761D01*
X26098761Y-1850380D01*
X25955904Y-1850380D01*
X26670190Y-1802761D02*
X26765428Y-1850380D01*
X26955904Y-1850380D01*
X27051142Y-1802761D01*
X27098761Y-1707523D01*
X27098761Y-1659904D01*
X27051142Y-1564666D01*
X26955904Y-1517047D01*
X26813047Y-1517047D01*
X26717809Y-1469428D01*
X26670190Y-1374190D01*
X26670190Y-1326571D01*
X26717809Y-1231333D01*
X26813047Y-1183714D01*
X26955904Y-1183714D01*
X27051142Y-1231333D01*
X27289238Y-1945619D02*
X28051142Y-1945619D01*
X28289238Y-1850380D02*
X28289238Y-850380D01*
X28527333Y-850380D01*
X28670190Y-898000D01*
X28765428Y-993238D01*
X28813047Y-1088476D01*
X28860666Y-1278952D01*
X28860666Y-1421809D01*
X28813047Y-1612285D01*
X28765428Y-1707523D01*
X28670190Y-1802761D01*
X28527333Y-1850380D01*
X28289238Y-1850380D01*
X29813047Y-1850380D02*
X29241619Y-1850380D01*
X29527333Y-1850380D02*
X29527333Y-850380D01*
X29432095Y-993238D01*
X29336857Y-1088476D01*
X29241619Y-1136095D01*
X30003523Y-1945619D02*
X30765428Y-1945619D01*
X31003523Y-1850380D02*
X31003523Y-1183714D01*
X31003523Y-1278952D02*
X31051142Y-1231333D01*
X31146380Y-1183714D01*
X31289238Y-1183714D01*
X31384476Y-1231333D01*
X31432095Y-1326571D01*
X31432095Y-1850380D01*
X31432095Y-1326571D02*
X31479714Y-1231333D01*
X31574952Y-1183714D01*
X31717809Y-1183714D01*
X31813047Y-1231333D01*
X31860666Y-1326571D01*
X31860666Y-1850380D01*
X32336857Y-1850380D02*
X32336857Y-1183714D01*
X32336857Y-850380D02*
X32289238Y-898000D01*
X32336857Y-945619D01*
X32384476Y-898000D01*
X32336857Y-850380D01*
X32336857Y-945619D01*
X32813047Y-1183714D02*
X32813047Y-1850380D01*
X32813047Y-1278952D02*
X32860666Y-1231333D01*
X32955904Y-1183714D01*
X33098761Y-1183714D01*
X33194000Y-1231333D01*
X33241619Y-1326571D01*
X33241619Y-1850380D01*
X33717809Y-1850380D02*
X33717809Y-1183714D01*
X33717809Y-850380D02*
X33670190Y-898000D01*
X33717809Y-945619D01*
X33765428Y-898000D01*
X33717809Y-850380D01*
X33717809Y-945619D01*
%TO.C,U2*%
X22987095Y-43648380D02*
X22987095Y-44457904D01*
X23034714Y-44553142D01*
X23082333Y-44600761D01*
X23177571Y-44648380D01*
X23368047Y-44648380D01*
X23463285Y-44600761D01*
X23510904Y-44553142D01*
X23558523Y-44457904D01*
X23558523Y-43648380D01*
X23987095Y-43743619D02*
X24034714Y-43696000D01*
X24129952Y-43648380D01*
X24368047Y-43648380D01*
X24463285Y-43696000D01*
X24510904Y-43743619D01*
X24558523Y-43838857D01*
X24558523Y-43934095D01*
X24510904Y-44076952D01*
X23939476Y-44648380D01*
X24558523Y-44648380D01*
%TO.C,U3*%
X762095Y-49109380D02*
X762095Y-49918904D01*
X809714Y-50014142D01*
X857333Y-50061761D01*
X952571Y-50109380D01*
X1143047Y-50109380D01*
X1238285Y-50061761D01*
X1285904Y-50014142D01*
X1333523Y-49918904D01*
X1333523Y-49109380D01*
X1714476Y-49109380D02*
X2333523Y-49109380D01*
X2000190Y-49490333D01*
X2143047Y-49490333D01*
X2238285Y-49537952D01*
X2285904Y-49585571D01*
X2333523Y-49680809D01*
X2333523Y-49918904D01*
X2285904Y-50014142D01*
X2238285Y-50061761D01*
X2143047Y-50109380D01*
X1857333Y-50109380D01*
X1762095Y-50061761D01*
X1714476Y-50014142D01*
%TO.C,U4*%
X41021095Y-48855380D02*
X41021095Y-49664904D01*
X41068714Y-49760142D01*
X41116333Y-49807761D01*
X41211571Y-49855380D01*
X41402047Y-49855380D01*
X41497285Y-49807761D01*
X41544904Y-49760142D01*
X41592523Y-49664904D01*
X41592523Y-48855380D01*
X42497285Y-49188714D02*
X42497285Y-49855380D01*
X42259190Y-48807761D02*
X42021095Y-49522047D01*
X42640142Y-49522047D01*
%TD*%
M02*
