%TF.GenerationSoftware,KiCad,Pcbnew,5.1.12-84ad8e8a86~92~ubuntu20.04.1*%
%TF.CreationDate,2022-04-06T17:43:39-04:00*%
%TF.ProjectId,vistaECP,76697374-6145-4435-902e-6b696361645f,rev?*%
%TF.SameCoordinates,Original*%
%TF.FileFunction,Soldermask,Bot*%
%TF.FilePolarity,Negative*%
%FSLAX46Y46*%
G04 Gerber Fmt 4.6, Leading zero omitted, Abs format (unit mm)*
G04 Created by KiCad (PCBNEW 5.1.12-84ad8e8a86~92~ubuntu20.04.1) date 2022-04-06 17:43:39*
%MOMM*%
%LPD*%
G01*
G04 APERTURE LIST*
%ADD10C,1.600000*%
%ADD11R,1.600000X1.600000*%
%ADD12O,2.300000X1.500000*%
%ADD13R,2.300000X1.500000*%
%ADD14C,2.600000*%
%ADD15R,2.600000X2.600000*%
%ADD16C,2.000000*%
%ADD17R,2.000000X2.000000*%
%ADD18C,4.300000*%
%ADD19C,3.000000*%
%ADD20R,3.000000X3.000000*%
%ADD21O,1.050000X1.500000*%
%ADD22R,1.050000X1.500000*%
%ADD23O,1.500000X1.050000*%
%ADD24R,1.500000X1.050000*%
%ADD25O,1.600000X1.600000*%
%ADD26O,2.000000X1.600000*%
G04 APERTURE END LIST*
D10*
%TO.C,C2*%
X47742000Y-12065000D03*
D11*
X43942000Y-12065000D03*
%TD*%
D12*
%TO.C,U5*%
X50038000Y-20320000D03*
X50038000Y-22860000D03*
D13*
X50038000Y-25400000D03*
%TD*%
D14*
%TO.C,J2*%
X8049000Y-30989000D03*
X5049000Y-26289000D03*
D15*
X11049000Y-26289000D03*
%TD*%
D16*
%TO.C,C1*%
X4525000Y-14859000D03*
D17*
X9525000Y-14859000D03*
%TD*%
D18*
%TO.C,REF\u002A\u002A*%
X4699000Y-68961000D03*
%TD*%
%TO.C,REF\u002A\u002A*%
X51181000Y-68961000D03*
%TD*%
%TO.C,REF\u002A\u002A*%
X51181000Y-4699000D03*
%TD*%
%TO.C,REF\u002A\u002A*%
X4699000Y-4699000D03*
%TD*%
D19*
%TO.C,J1*%
X25330000Y-69470000D03*
X30410000Y-69470000D03*
D20*
X20250000Y-69470000D03*
D19*
X35490000Y-69470000D03*
%TD*%
D21*
%TO.C,Q1*%
X14177000Y-55881000D03*
X12907000Y-55881000D03*
D22*
X15447000Y-55881000D03*
%TD*%
%TO.C,Q2*%
X39417000Y-57786000D03*
D21*
X41957000Y-57786000D03*
X40687000Y-57786000D03*
%TD*%
D23*
%TO.C,Q3*%
X17686000Y-32005000D03*
X17686000Y-33275000D03*
D24*
X17686000Y-30735000D03*
%TD*%
D25*
%TO.C,R1*%
X17860000Y-38482000D03*
D10*
X20400000Y-38482000D03*
%TD*%
D25*
%TO.C,R2*%
X14224000Y-61088000D03*
D10*
X11684000Y-61088000D03*
%TD*%
D25*
%TO.C,R3*%
X13034000Y-36069000D03*
D10*
X13034000Y-38609000D03*
%TD*%
%TO.C,R4*%
X22686000Y-56008000D03*
D25*
X20146000Y-56008000D03*
%TD*%
D10*
%TO.C,R5*%
X44497000Y-32894000D03*
D25*
X44497000Y-30354000D03*
%TD*%
D10*
%TO.C,R6*%
X8335000Y-55627000D03*
D25*
X5795000Y-55627000D03*
%TD*%
%TO.C,R7*%
X45386000Y-55627000D03*
D10*
X47926000Y-55627000D03*
%TD*%
D25*
%TO.C,R8*%
X6176000Y-39498000D03*
D10*
X6176000Y-36958000D03*
%TD*%
%TO.C,R9*%
X44497000Y-37466000D03*
D25*
X44497000Y-40006000D03*
%TD*%
D10*
%TO.C,R10*%
X38655000Y-33529000D03*
D25*
X38655000Y-36069000D03*
%TD*%
D26*
%TO.C,U1*%
X16494000Y-3938000D03*
D17*
X16494000Y-1398000D03*
D26*
X16494000Y-6478000D03*
X16494000Y-9018000D03*
X16494000Y-11558000D03*
X16494000Y-14098000D03*
X16494000Y-16638000D03*
X16494000Y-19178000D03*
X39354000Y-19178000D03*
X39354000Y-16638000D03*
X39354000Y-14098000D03*
X39354000Y-11558000D03*
X39354000Y-9018000D03*
X39354000Y-6478000D03*
X39354000Y-3938000D03*
X39354000Y-1398000D03*
%TD*%
D11*
%TO.C,U2*%
X21226000Y-43054000D03*
D25*
X16146000Y-50674000D03*
X18686000Y-43054000D03*
X18686000Y-50674000D03*
X16146000Y-43054000D03*
X21226000Y-50674000D03*
%TD*%
D11*
%TO.C,U3*%
X4176000Y-50674000D03*
D25*
X9256000Y-43054000D03*
X6716000Y-50674000D03*
X6716000Y-43054000D03*
X9256000Y-50674000D03*
X4176000Y-43054000D03*
%TD*%
%TO.C,U4*%
X44497000Y-43054000D03*
X49577000Y-50674000D03*
X47037000Y-43054000D03*
X47037000Y-50674000D03*
X49577000Y-43054000D03*
D11*
X44497000Y-50674000D03*
%TD*%
M02*
